<svg xmlns="http://www.w3.org/2000/svg" xmlns:xlink="http://www.w3.org/1999/xlink" viewBox="0 0 629.19 316.14"><defs><style>.cls-1,.cls-26,.cls-28,.cls-30,.cls-4{fill:none;}.cls-2{fill:#2c665b;}.cls-3{fill:#184c42;}.cls-4{stroke:#000;}.cls-26,.cls-28,.cls-30,.cls-4{stroke-linecap:round;stroke-linejoin:round;stroke-width:0.8px;}.cls-5{fill:#e5410e;}.cls-6{fill:#ff7f0b;}.cls-7{fill:#f4f4f4;}.cls-8{fill:#ffb434;}.cls-9{fill:#6da6c9;}.cls-10{fill:#aa1b04;}.cls-11{fill:url(#linear-gradient);}.cls-12{fill:url(#linear-gradient-2);}.cls-13{fill:url(#linear-gradient-3);}.cls-14{fill:#82b1db;}.cls-15{fill:url(#linear-gradient-4);}.cls-16{fill:#5b93bc;}.cls-17{fill:url(#linear-gradient-5);}.cls-18{fill:url(#linear-gradient-6);}.cls-19{fill:url(#linear-gradient-7);}.cls-20{fill:url(#linear-gradient-8);}.cls-21{fill:url(#linear-gradient-9);}.cls-22{fill:url(#linear-gradient-10);}.cls-23{fill:url(#linear-gradient-11);}.cls-24{fill:url(#linear-gradient-12);}.cls-25{fill:url(#linear-gradient-13);}.cls-26{stroke:#f4f4f4;}.cls-27{fill:url(#linear-gradient-14);}.cls-28{stroke:#fff;}.cls-29{fill:url(#linear-gradient-15);}.cls-30{stroke:#ff8f15;}.cls-31{fill:url(#linear-gradient-16);}.cls-32{fill:url(#linear-gradient-17);}.cls-33{fill:url(#linear-gradient-18);}.cls-34{fill:url(#linear-gradient-19);}.cls-35{fill:url(#linear-gradient-20);}.cls-36{fill:url(#linear-gradient-21);}.cls-37{fill:#3d7aa0;}.cls-38{fill:url(#linear-gradient-22);}.cls-39{fill:url(#linear-gradient-23);}.cls-40{clip-path:url(#clip-path);}.cls-41{fill:url(#linear-gradient-24);}.cls-42{fill:url(#linear-gradient-25);}.cls-43{fill:url(#linear-gradient-26);}.cls-44{fill:url(#linear-gradient-27);}.cls-45{fill:url(#linear-gradient-28);}.cls-46{fill:url(#linear-gradient-29);}.cls-47{fill:url(#linear-gradient-30);}.cls-48{fill:url(#linear-gradient-31);}.cls-49{fill:url(#linear-gradient-32);}.cls-50{fill:#ff8f15;}.cls-51{fill:url(#linear-gradient-33);}.cls-52{fill:url(#linear-gradient-34);}</style><linearGradient id="linear-gradient" x1="314.23" y1="233.9" x2="531.53" y2="233.9" gradientUnits="userSpaceOnUse"><stop offset="0" stop-color="#ffab97"/><stop offset="1" stop-color="#ff5e69"/></linearGradient><linearGradient id="linear-gradient-2" x1="490.18" y1="73.17" x2="519.65" y2="113.02" xlink:href="#linear-gradient"/><linearGradient id="linear-gradient-3" x1="414.2" y1="166.25" x2="437.39" y2="203.44" xlink:href="#linear-gradient"/><linearGradient id="linear-gradient-4" x1="445.21" y1="233.9" x2="540.41" y2="233.9" xlink:href="#linear-gradient"/><linearGradient id="linear-gradient-5" x1="436.11" y1="92.24" x2="416.39" y2="50.25" gradientTransform="translate(417.19 -354.21) rotate(76.15)" xlink:href="#linear-gradient"/><linearGradient id="linear-gradient-6" x1="690.05" y1="94.3" x2="680" y2="150.28" gradientTransform="matrix(0.98, 0.18, -0.18, 0.98, -532.64, -69.29)" xlink:href="#linear-gradient"/><linearGradient id="linear-gradient-7" x1="2.77" y1="54.36" x2="-3.58" y2="31.99" gradientTransform="matrix(-1, 0, 0, 1, 118.42, 0)" xlink:href="#linear-gradient"/><linearGradient id="linear-gradient-8" x1="29.01" y1="47" x2="22.66" y2="24.63" gradientTransform="matrix(-1, 0, 0, 1, 118.42, 0)" xlink:href="#linear-gradient"/><linearGradient id="linear-gradient-9" x1="602.84" y1="125.6" x2="592.47" y2="183.41" gradientTransform="translate(-567.04)" xlink:href="#linear-gradient"/><linearGradient id="linear-gradient-10" x1="40.19" y1="302.85" x2="62.84" y2="240.93" gradientTransform="matrix(-1, 0, 0, 1, 118.42, 0)" xlink:href="#linear-gradient"/><linearGradient id="linear-gradient-11" x1="6.63" y1="307.81" x2="6.2" y2="255.6" gradientTransform="matrix(-1, 0, 0, 1, 118.42, 0)" xlink:href="#linear-gradient"/><linearGradient id="linear-gradient-12" x1="19.33" y1="59.93" x2="16.01" y2="48.21" gradientTransform="matrix(-1, 0, 0, 1, 118.42, 0)" xlink:href="#linear-gradient"/><linearGradient id="linear-gradient-13" x1="13.36" y1="48.46" x2="9.75" y2="11.16" gradientTransform="matrix(-0.99, -0.16, -0.16, 0.99, 124.13, 2.48)" xlink:href="#linear-gradient"/><linearGradient id="linear-gradient-14" x1="3362.44" y1="267.41" x2="3360.44" y2="347.25" gradientTransform="matrix(-1, 0, 0, 1, 3694.89, 0)" xlink:href="#linear-gradient"/><linearGradient id="linear-gradient-15" x1="3329.9" y1="257.29" x2="3330.1" y2="231.26" gradientTransform="matrix(-1, 0, 0, 1, 3694.89, 0)" xlink:href="#linear-gradient"/><linearGradient id="linear-gradient-16" x1="3315.51" y1="255.91" x2="3315.68" y2="233.55" gradientTransform="matrix(-1, 0, 0, 1, 3694.89, 0)" xlink:href="#linear-gradient"/><linearGradient id="linear-gradient-17" x1="3470.96" y1="212.51" x2="3474.05" y2="231.01" gradientTransform="matrix(-1, 0, 0, 1, 3694.89, 0)" xlink:href="#linear-gradient"/><linearGradient id="linear-gradient-18" x1="3404.59" y1="192.13" x2="3394.73" y2="185.81" gradientTransform="matrix(-1, 0, 0, 1, 3694.89, 0)" xlink:href="#linear-gradient"/><linearGradient id="linear-gradient-19" x1="3383.84" y1="182.56" x2="3389.87" y2="139.97" gradientTransform="matrix(-0.97, -0.23, -0.23, 0.97, 3645.33, 777.57)" xlink:href="#linear-gradient"/><linearGradient id="linear-gradient-20" x1="3293.42" y1="-492.57" x2="3277.93" y2="-515.37" gradientTransform="matrix(-0.97, 0.25, 0.25, 0.97, 3607.49, -154.77)" xlink:href="#linear-gradient"/><linearGradient id="linear-gradient-21" x1="-8.24" y1="307.32" x2="82.35" y2="291.95" gradientTransform="matrix(-1, 0, 0, 1, 265.28, 0)" xlink:href="#linear-gradient"/><linearGradient id="linear-gradient-22" x1="119.58" y1="233.36" x2="112.96" y2="177.82" gradientTransform="matrix(-1, 0, 0, 1, 265.28, 0)" xlink:href="#linear-gradient"/><linearGradient id="linear-gradient-23" x1="98.41" y1="292.63" x2="137.52" y2="307.78" gradientTransform="matrix(-1, 0, 0, 1, 265.28, 0)" xlink:href="#linear-gradient"/><clipPath id="clip-path"><path class="cls-1" d="M115.87,273.08,115,226.13a27.09,27.09,0,0,1,15.88-15.75c18.5,7.81,26.7,25.68,33.36,26.86,8.89,1.56.29-15.92-2.49-21,9,5.65,17.16,13.85,19.9,22.41l1.1,4.21a23,23,0,0,0-8.27,1.66l-18.65,9.22a42.46,42.46,0,0,0-9.23,31.13c3.18,28-41.51,30.82-41.51,30.82H85.25Z"/></clipPath><linearGradient id="linear-gradient-24" x1="110.42" y1="201.14" x2="94.93" y2="178.35" gradientTransform="matrix(-0.97, -0.24, -0.24, 0.97, 308.17, 30.49)" xlink:href="#linear-gradient"/><linearGradient id="linear-gradient-25" x1="188.55" y1="273.8" x2="190.05" y2="334.38" gradientTransform="matrix(-1, 0, 0, 1, 265.28, 0)" xlink:href="#linear-gradient"/><linearGradient id="linear-gradient-26" x1="89.04" y1="241.02" x2="85.63" y2="260.66" gradientTransform="matrix(-1, 0, 0, 1, 265.28, 0)" xlink:href="#linear-gradient"/><linearGradient id="linear-gradient-27" x1="116.89" y1="189.32" x2="101.4" y2="166.52" gradientTransform="matrix(-0.9, -0.44, -0.44, 0.9, 350.8, 86.88)" xlink:href="#linear-gradient"/><linearGradient id="linear-gradient-28" x1="401.84" y1="229.14" x2="407.67" y2="242.73" xlink:href="#linear-gradient"/><linearGradient id="linear-gradient-29" x1="436.21" y1="254.28" x2="436.21" y2="277.23" xlink:href="#linear-gradient"/><linearGradient id="linear-gradient-30" x1="567.07" y1="111.5" x2="581.57" y2="132.75" xlink:href="#linear-gradient"/><linearGradient id="linear-gradient-31" x1="603.48" y1="162.29" x2="581.63" y2="228.38" xlink:href="#linear-gradient"/><linearGradient id="linear-gradient-32" x1="444.47" y1="252.13" x2="421.42" y2="247.89" xlink:href="#linear-gradient"/><linearGradient id="linear-gradient-33" x1="437.08" y1="230.09" x2="459.2" y2="218.89" xlink:href="#linear-gradient"/><linearGradient id="linear-gradient-34" x1="429.45" y1="247.67" x2="407.7" y2="234.29" xlink:href="#linear-gradient"/></defs><g id="Layer_2" data-name="Layer 2"><g id="OBJECTS"><path class="cls-2" d="M172.76,106c0-5.85.19-11.64.54-17.16l19.19,6-19-8.73c.08-1.12.17-2.23.26-3.32l16.92,2.5-16.41-8.07c.31-3.06.65-6,1-8.68l14.21,2.32L175.84,64c1.32-9.42,2.56-15.46,2.56-15.46s27.26,20.11,23.94,45.88-24.91,49.4-24.91,49.4a121.23,121.23,0,0,1-4.39-28l13.52-2.07Z"/><path class="cls-3" d="M188.29,93.53l-15-4.71c-.35,5.52-.56,11.31-.54,17.16l13.8,7.83L173,115.87a121.23,121.23,0,0,0,4.39,28,124.39,124.39,0,0,0,14.22-20A84.05,84.05,0,0,0,188.29,93.53Z"/><path class="cls-3" d="M184.94,84.45l-11.2-1.65c-.09,1.09-.18,2.2-.26,3.32l14.59,6.7A82.69,82.69,0,0,0,184.94,84.45Z"/><path class="cls-3" d="M175.24,68.55c-.34,2.71-.68,5.62-1,8.69l9.53,4.68a87.18,87.18,0,0,0-7.85-13.26Z"/><path d="M183.31,114.31,173,115.87a121.14,121.14,0,0,0,4.39,28C177.6,143.54,185.21,129.67,183.31,114.31Z"/><path d="M173.05,93.38c-.2,4.12-.31,8.34-.29,12.6l10.15,5.76A35,35,0,0,0,173.05,93.38Z"/><path class="cls-2" d="M163.58,126.84c-.85-1.2-1.66-2.42-2.42-3.63l11.52-9.07-13.46,5.8a26.53,26.53,0,0,1-3-7.41l15.11-9.31-16.06,5.31c-.3-.85-.66-1.73-1.07-2.63l7.55-5.5-8.42,3.66a94.59,94.59,0,0,0-5.92-9.83l7.78-5-9.53,2.49-.65-.9,12-6.09-14.28,3c-3.78-5-6.88-8.7-6.88-8.7,6.24-3.57,29.07-1.31,37.39,20.09s4.14,44.74,4.14,44.74-5.54-5.92-11-13.08l7.06-4.85Z"/><path class="cls-3" d="M159.22,119.94l13.46-5.8-11.52,9.07q1.14,1.82,2.42,3.63l9.93-.92-7.06,4.85c5.43,7.16,11,13.08,11,13.08a98.47,98.47,0,0,0-.13-29.68,82.44,82.44,0,0,0-8.46-9.41l-12.59,7.78A26.6,26.6,0,0,0,159.22,119.94Z"/><path class="cls-3" d="M153.35,104.06l8.43-3.65-7.55,5.48c.41.91.77,1.79,1.06,2.64l13-4.3c-6-5.48-12.81-9.28-19.1-7.37A80.48,80.48,0,0,1,153.35,104.06Z"/><line class="cls-4" x1="142.78" y1="87.72" x2="157.06" y2="84.72"/><path class="cls-4" d="M180.65,140c6.15-7.72,19.17-26,21.69-45.56,3.32-25.77-23.94-45.88-23.94-45.88L175.84,64l13.61,6.84"/><polyline class="cls-4" points="154.23 105.89 155.29 108.53 171.35 103.22"/><polyline class="cls-4" points="159.22 119.94 172.68 114.14 166.18 119.26"/><polyline class="cls-4" points="174.72 72.87 174.25 77.23 190.66 85.3"/><path class="cls-4" d="M135.9,79s20-7.11,35.24,15.5"/><polygon class="cls-5" points="194.4 149.88 199.93 149.88 215.57 315.74 210.04 315.74 194.4 149.88"/><line class="cls-4" x1="201.39" y1="165.41" x2="215.57" y2="315.74"/><polygon class="cls-5" points="148.55 149.88 143.02 149.88 127.37 315.74 132.9 315.74 148.55 149.88"/><rect class="cls-6" x="132.3" y="202.72" width="79.45" height="10.26"/><polygon class="cls-7" points="196.29 202.72 146.65 202.72 137.96 136.72 204.98 136.72 196.29 202.72"/><rect class="cls-8" x="169.26" y="149.88" width="5.53" height="165.86"/><polygon points="167.07 202.72 164.97 212.98 169.26 212.98 169.26 202.72 167.07 202.72"/><polygon points="137.06 212.98 142.59 212.98 141.29 226.81 135.69 227.56 137.06 212.98"/><polygon points="205.88 212.98 206.35 218 200.89 218.74 200.35 212.98 205.88 212.98"/><polygon class="cls-9" points="169.26 161.43 163.2 202.72 169.26 202.72 169.26 161.43"/><polyline class="cls-4" points="196.29 202.72 204.98 136.72 137.96 136.72"/><polyline class="cls-4" points="174.79 149.88 174.79 315.74 169.26 315.74"/><polyline class="cls-4" points="211.75 202.72 211.75 212.98 175.18 212.98"/><line class="cls-4" x1="148.55" y1="212.7" x2="169.26" y2="212.98"/><line class="cls-4" x1="142.59" y1="212.98" x2="136.84" y2="273.95"/><line class="cls-4" x1="139.95" y1="151.81" x2="145.58" y2="194.6"/><polyline class="cls-4" points="157.28 202.72 132.3 202.72 132.3 212.98"/><polyline class="cls-4" points="130.24 285.33 127.37 315.74 132.9 315.74"/><path class="cls-10" d="M447.16,93.59H451c-1.63-4.06-6.55-4.45-6.55-4.45l-8.9,5.35h0l-10.87,3.29,4.67,8.73a11.8,11.8,0,0,0,7.42,3.18l-.78-2.3a4.66,4.66,0,0,0,3,1.31l-.11-3.06,6.93.5.3-5.49L451,100C449.69,93.58,447.16,93.59,447.16,93.59Z"/><path class="cls-10" d="M490.67,300a12,12,0,0,0,6.53,7.16l7.48-9.5S495.93,295.08,490.67,300Z"/><path class="cls-10" d="M484.79,309.14s-.53,2.78,5,4.58l4.93-9S487.19,304.71,484.79,309.14Z"/><path class="cls-10" d="M396,204.86s-4.32-31.62,41.53-40L451,182.47l-34.87,27.8Z"/><path class="cls-10" d="M534.35,105.53S574,88.68,527,28.78L500.3,53.84Z"/><path class="cls-5" d="M544.5,245.92l-18.23-17.2,2.91,24c-31.89,9.61-70.33-2.84-75.17-24.6-5.62-25.26-21.92-87.73-21.92-87.73l114.5,18.35,25.9,24.76S577.14,226,544.5,245.92Z"/><path class="cls-10" d="M527.23,236.61l1.95,16.09c-31.89,9.61-70.33-2.84-75.17-24.6-.72-3.23-1.61-7.07-2.63-11.31,12.28,6,27.45,13.13,39.32,17.65C504.46,239.67,516.59,240.85,527.23,236.61Z"/><line class="cls-4" x1="529.18" y1="252.7" x2="524.48" y2="213.94"/><path class="cls-10" d="M544.5,245.92l-12.39-11.69c5.93-3.48,11.36-8.87,16.32-16.46,8.35-12.76,8.76-34,7.53-50.09l16.53,15.8S577.14,226,544.5,245.92Z"/><path d="M569.69,181.06s-22.86-7.89-31.27,20.08c-8.15,27.11-58.18-29.36-58.18-29.36L542,149.33Z"/><polygon class="cls-11" points="457.2 190.59 457.2 190.59 349.18 298.73 315.95 311.22 314.23 315.74 381.79 315.74 383.67 311.7 531.53 203.8 521.14 152.07 457.2 190.59"/><path class="cls-12" d="M562.49,21.83,554,10.36l2.82-3.18A5.19,5.19,0,0,0,556.59,0h0l-26,25.41-71.7,67.22h0s-12.37,9.79-15.32-1.7l-12.84,12s8.62,4.44,9.23,7.43h0l-5.78,5.42a30.14,30.14,0,0,0-3.35,40.27l26.33,34.53,63.94-38.52L514,118l39.33-92.13,4,.51,4.57-2.28A1.55,1.55,0,0,0,562.49,21.83Z"/><path class="cls-13" d="M401.7,160.61l5.95,37.22c5.17,22.22,35.71,24.94,44.72,4l4.83-11.23-31-40.61c-.23-.3-.47-.6-.71-.88C416.57,138.72,399.53,147.08,401.7,160.61Z"/><path d="M457.21,190.59l-4.84,11.23c-9,21-39.55,18.23-44.71-4l-1.74-10.9c.34.44,9.77,11.54,36.94-15.15Z"/><path class="cls-8" d="M457.21,190.59l-4.84,11.23c-.16.38-.33.76-.52,1.13-6.58,13.55-23.32,18.66-36.71,11.76L396,204.86s32.84-8.93,41.53-40Z"/><path class="cls-6" d="M451.53,183.14l-1.83-2.39a15.24,15.24,0,0,1-11.07,4.75c-.45,0-.9,0-1.34-.07a18.34,18.34,0,0,0-5.34-7.59c-.52.86-1.07,1.7-1.63,2.52a15.06,15.06,0,0,1,3.4,4.32,15.23,15.23,0,0,1-4.66-2.56c-.59.8-1.21,1.57-1.84,2.32a18.11,18.11,0,0,0,7.8,3.68,15.1,15.1,0,0,1-5.32,15.63l-4.2-5.87a1,1,0,1,0-1.61,1.15l4.18,5.85a15.1,15.1,0,0,1-12.76,1.41,18.13,18.13,0,0,0-2.82-9.09c-.86.54-1.71,1.05-2.54,1.53a15.12,15.12,0,0,1,2.25,6.1,15.31,15.31,0,0,1-4.82-4.69c-.93.49-1.82.93-2.67,1.33a18.32,18.32,0,0,0,7.59,6.79,15.53,15.53,0,0,1-1.07,4.43l2.64,1.37a18.13,18.13,0,0,0,1.29-4.71,18.45,18.45,0,0,0,5,.72,18.17,18.17,0,0,0,9.62-2.77l2.71,3.79a1,1,0,0,0,1.38.23,1,1,0,0,0,.23-1.38l-2.7-3.77a18.24,18.24,0,0,0,7-14.38,17.43,17.43,0,0,0-.33-3.34l.5,0A18.29,18.29,0,0,0,451.53,183.14Z"/><path class="cls-7" d="M394.59,309.48s-20.87-8.1-36-1.41l-6.42-3.32,1.9-2.5s17.45-13,43.5,2.12Z"/><path class="cls-8" d="M436.49,113.66s-9,19.6,5.64,42.31,21,31.08,21,31.08l-17.88,35.13s-15.1-53.25-19.12-68.73-1.17-27.4,3.27-31.78A78.45,78.45,0,0,0,436.49,113.66Z"/><path class="cls-14" d="M358.58,289.32s26.84.79,42.93,25.44l117.83-92.25-62.13-31.92Z"/><line class="cls-4" x1="386.06" y1="299" x2="477.68" y2="201.11"/><path d="M521.14,152.07l-63.93,38.52-26.34-34.53c-5.11-6.71-.68-28.61.46-36.41,2,4.56,10.9,6.25,20.2-2.8,12.56-12.22,5.68-22.62,5.68-22.62l24.37-22.85,35.47,39.47-3.06,7.2Z"/><path d="M534.87,68.93l-15.8,37.16a24.36,24.36,0,0,1-12.32-4.84c-10.6-8-14.82-24.14-16.4-38.08L527,28.78h0S523.89,52.88,534.87,68.93Z"/><path d="M439,112.67s-4.29,22.88,3.79,35.65c6.47,10.23,18.9,32.87,20.34,38.73l-5.15,3.1S416.27,142.88,439,112.67Z"/><path class="cls-15" d="M521.14,152.07,457.2,190.59c-12.42,7.21-15.33,15.35-8.07,29.58L496,296.32l-12.44,19.42h10.2l36.94-23.69-3.12-7.36-11.77-59.42,18.53-14a18.64,18.64,0,0,0,4.16-21.93Z"/><path class="cls-7" d="M512.79,296.08s.91-13.09,14.11-14.93l.7,3.54s-4.43-2-8.75,12.15Z"/><path class="cls-16" d="M463.09,187.05l-6.93,13.63c-6.28-9.06-15.32-22.3-23.62-35.17a50,50,0,0,1-8.36-25.76c0-.25,0-.48,0-.72,0-8.3,2.3-17.78,5.58-20.26,5.55-4.2,10.25-8.4,10.25-8.4s-12.26,23.29,2.13,45.6C456.77,178.67,463.09,187.05,463.09,187.05Z"/><path class="cls-14" d="M534.36,211.29l-18.53,14,11.77,59.41c-15.43-2.09-47.56,12-47.56,12l-32-76c-7.25-14.23-3.29-22.81,9.14-30l63.93-38.52,20.47,21C551.49,193,540.45,205.71,534.36,211.29Z"/><path class="cls-16" d="M534.37,211.29l-15,11.33a.52.52,0,0,1,0-.11c10.25-44.13-25.45-53.61-25.93-53.74l27.72-16.7,20.48,21C551.49,193,540.46,205.71,534.37,211.29Z"/><path class="cls-8" d="M454.33,96.94S459,144.84,480,155.05s62.29.92,92.45,28.44L514,118l20.36-12.51S519.46,71.11,527,28.78Z"/><path class="cls-6" d="M521.31,103.7c0-.41-.06-.82-.06-1.24a16,16,0,0,1,2.36-8l.64,0a17,17,0,0,0,6-1.1c-.25-.92-.5-1.89-.76-2.9a14,14,0,0,1-3.72.94A22.65,22.65,0,0,1,529,88.31c-.23-1-.47-2.06-.7-3.13a25.72,25.72,0,0,0-6.15,6.12c-6.08-.91-11.15-5.71-13.42-12.25l6.87-4.84a1,1,0,0,0,.24-1.38,1,1,0,0,0-1.38-.24l-6.33,4.46a23.36,23.36,0,0,1-.69-5.67c0-8.22,4.17-15.3,10.11-18.41a20.57,20.57,0,0,0,7.36,3.11c0-1,0-2,0-3a17.78,17.78,0,0,1-3.76-1.38,14.1,14.1,0,0,1,3.13-.36c.22,0,.44,0,.65,0,0-1,0-2,.07-3l-.72,0a17.32,17.32,0,0,0-6.34,1.22,15.28,15.28,0,0,1-5-7.52l-2.38,2.23A18.26,18.26,0,0,0,515,51c-6.27,3.87-10.57,11.56-10.57,20.4a26.59,26.59,0,0,0,1.08,7.49L490.1,89.77a1,1,0,0,0-.24,1.38,1,1,0,0,0,.81.42,1,1,0,0,0,.57-.18l15-10.57c2.6,6.74,7.89,11.77,14.27,13.21a17.91,17.91,0,0,0-2.14,10h0a13.45,13.45,0,0,0,4.29,8.73l2.66-1.64A10.36,10.36,0,0,1,521.31,103.7Z"/><path class="cls-4" d="M527.6,284.68c-15.43-2.09-47.56,12-47.56,12l-32-76c-7.25-14.23-3.29-22.81,9.14-30l27.1-16.33"/><path class="cls-6" d="M500.73,126.2s11.63-5.43,28.6,9L514,118Z"/><polyline class="cls-4" points="511.66 218.78 515.83 225.27 506.36 224.53"/><path class="cls-16" d="M572.49,183.48c-30.16-27.51-71.37-18.22-92.44-28.43s-25.73-58.11-25.73-58.11l10.7-10s4.75,52.11,27.79,56.81c14.85,3,34.9,4.66,53.54,10.51Z"/><path class="cls-14" d="M435.56,138.29c-.15-1.1-.26-2.2-.33-3.27l-10.94,6.65c.08,1.06.19,2.14.35,3.26Z"/><path class="cls-14" d="M437.79,147.29,425,146.86c.18,1,.4,2,.66,3l13.42.45C438.58,149.29,438.16,148.29,437.79,147.29Z"/><path class="cls-14" d="M427.32,122.21l8.21,3.69c.13-1.05.29-2.07.47-3l-7.13-3.21A11.33,11.33,0,0,0,427.32,122.21Z"/><path class="cls-14" d="M445,160.44l-1.65-2.54-9.67,9.4,1.65,2.54Z"/><path class="cls-14" d="M460.2,183l-1.71-2.45-10,8.9,1.69,2.48Z"/><path class="cls-14" d="M453.92,173.89l-14.76,1.74c.61.93,1.23,1.85,1.84,2.77l14.79-1.74C455.21,175.8,454.58,174.88,453.92,173.89Z"/><path class="cls-14" d="M475.68,127.54c-.53-1.06-1-2.15-1.53-3.26l-8.54,14.55c.53,1,1.08,2.06,1.65,3Z"/><path class="cls-14" d="M482,137l-14.25,5.61c.53.87,1.08,1.72,1.65,2.54l14.91-5.87A27.55,27.55,0,0,1,482,137Z"/><path class="cls-14" d="M456.36,110l9-20.26c-.23-1.77-.32-2.8-.32-2.8l-2.89,2.7-6.72,15.17C455.67,106.35,456,108.1,456.36,110Z"/><path class="cls-14" d="M470.65,114.79l-12.35,3.77c.24.94.5,1.9.77,2.87l12.5-3.82C471.25,116.67,470.94,115.73,470.65,114.79Z"/><path class="cls-14" d="M487.74,157.78l2.89-14.65a17.82,17.82,0,0,1-2.78-1.26l-3,15.08C485.8,157.25,486.76,157.53,487.74,157.78Z"/><path class="cls-14" d="M527.8,149.66l-4.69,13.15,3,.46,4.64-13Z"/><path class="cls-14" d="M550.05,169.57c.93.37,1.86.76,2.79,1.18l1.53-7.54-2.47-2.77Z"/><path class="cls-14" d="M537.44,151.77c-1.17-.29-2.33-.56-3.5-.82l5.82,15.2c1.19.32,2.39.67,3.58,1Z"/><path class="cls-14" d="M506.86,146.15l-15,12.57c1.24.25,2.51.48,3.81.68l15.14-12.65Z"/><path class="cls-14" d="M518,147.9l-3-.49,1.32,14.51,3,.37Z"/><path class="cls-4" d="M472.43,80s-3.78,10.63,1.65,19.53"/><line class="cls-4" x1="454.32" y1="96.94" x2="527.03" y2="28.78"/><line class="cls-4" x1="426.62" y1="155.47" x2="440" y2="203.74"/><path class="cls-4" d="M432.54,176.83c-12,21.35-36.5,28-36.5,28l19.1,9.85"/><polyline class="cls-4" points="507.35 126.73 513.99 118.04 554.3 163.13"/><path class="cls-4" d="M469.19,109.69s6.22,31.11,23.62,34,33.29,5.6,33.29,5.6"/><line class="cls-4" x1="437.3" y1="172.82" x2="447.16" y2="187.56"/><path d="M447.23,96h0s-6.73,6.28-7.22,14.34c-.62-3-9.24-7.43-9.24-7.43l12.84-12C444.34,93.78,445.67,95.32,447.23,96Z"/><circle class="cls-17" cx="434.66" cy="89.15" r="14.33" transform="translate(244.07 489.84) rotate(-76.15)"/><line class="cls-4" x1="515.83" y1="225.27" x2="523.78" y2="265.42"/><path class="cls-4" d="M506.36,160.81s21.34,9.67,12.87,17.33c-5.35,4.83-15,11.42-22.37,16.44a47.29,47.29,0,0,1-21.31,7.85l-.42,0s6.27,4.45,16.69,5.89c0,0-10.2,2.85-14.14,2.15,0,0,1.51,3.44,10.24,3.42h0A11.62,11.62,0,0,0,485.06,226l21.07,61.46"/><path class="cls-4" d="M572.49,183.48c-30.16-27.51-71.37-18.22-92.44-28.43s-25.73-58.11-25.73-58.11"/><path class="cls-4" d="M424.17,139c0-8.3,2.3-17.78,5.58-20.26,5.55-4.2,10.25-8.4,10.25-8.4"/><line class="cls-4" x1="349.18" y1="298.73" x2="437.3" y2="210.52"/><line class="cls-4" x1="405.57" y1="184.79" x2="401.7" y2="160.61"/><path class="cls-4" d="M396,200.24s1.9-14,8.85-19.71"/><path class="cls-4" d="M538,230s20-14.45,18.44-45.23"/><path class="cls-4" d="M536.45,238.33l8,7.59s20.08-8.78,26.44-39.12"/><path class="cls-4" d="M541.61,173.05s11.76,19.51-3.64,34.55"/><line class="cls-4" x1="401.51" y1="314.76" x2="466.32" y2="264.02"/><path d="M448.07,220.61s13.61,37.29,5.29,53.56l13-10.15Z"/><path class="cls-4" d="M358.58,289.32s18.2,1.08,32.77,13.75"/><polygon points="330.49 303.6 337.4 311.7 347.73 311.7 338.29 299.83 348.83 295.5 361.4 311.7 386.06 311.7 386.06 315.74 313.28 315.74 313.28 311.7 326.86 311.7 323.14 306.37 330.49 303.6"/><path d="M484.79,309.14s6.21-5.78,15.94,2.14l-1.47.94a9.44,9.44,0,0,1-5.11,1.5H482.69v2H502l32.6-20.84-1.92-4-11.84,7.54A25.82,25.82,0,0,0,494.57,294l-3.9,6s12.33-6.09,22.61,3.21l-5.66,3.63s-10.69-7.44-19.7-3Z"/><line class="cls-4" x1="348.83" y1="295.5" x2="361.4" y2="311.7"/><polyline class="cls-4" points="347.73 311.7 338.29 299.83 341.79 298.39"/><line class="cls-4" x1="313.28" y1="315.74" x2="386.06" y2="315.74"/><path class="cls-4" d="M487.92,303.89s8.38-4.54,19.7,3"/><path class="cls-4" d="M494.57,294a25,25,0,0,1,26.25,4.42"/><polyline class="cls-4" points="337.4 311.7 330.49 303.6 326.86 304.97"/><line class="cls-4" x1="313.28" y1="311.7" x2="326.86" y2="311.7"/><path class="cls-4" d="M368.93,305.58s11.27-1.24,25.66,3.9"/><polyline class="cls-4" points="532.66 290.85 534.58 294.89 501.98 315.73 482.69 315.73"/><path class="cls-4" d="M523,287.46a48.8,48.8,0,0,0-4.14,9.38"/><path class="cls-4" d="M500.73,311.28l-1.47.94a10.71,10.71,0,0,1-5.11,1.5h-4"/><path class="cls-4" d="M428.89,163.87s-9.6,5.19-13.51,4-3.25-6.13-3.25-6.13"/><path class="cls-4" d="M408.61,157.9s1.66,7.43,6,1.9"/><path class="cls-4" d="M419.51,159.4a18.85,18.85,0,0,1,.82,8.06"/><path class="cls-4" d="M424.17,157.9a17.16,17.16,0,0,1,1.78,7.41"/><path d="M418.37,167.92c4.8-.67,9.33-.67,12.4,2.78l-1.88-6.83C424.05,166.32,420.64,167.58,418.37,167.92Z"/><path class="cls-4" d="M526.13,72.58a144,144,0,0,0,8.22,33l-35.64,21.91"/><path d="M440,76.72a18.55,18.55,0,0,1-4.82,10l-2.32-3.58s-.15,10.81-2.2,12.42c-3,4.13-1.77,6,.77,12,0,0-2.53,1.73-7.51-3.91l-1.39,3.06s-5.29-1.29-6-8l-3.19,2.12s-4.44-12.07-.52-15.42c0,0-.39-8.54,3.93-13.89l.89,1.37s4.77-6.54,10.27-7.37v1.7s11.74-3.37,17,.42l-1.69,1.94s11.54,2.63,4.08,12.65A13.24,13.24,0,0,0,440,76.72Z"/><line class="cls-4" x1="556.85" y1="7.18" x2="550" y2="14.31"/><line class="cls-4" x1="556.59" y1="13.84" x2="547.26" y2="22.87"/><path class="cls-4" d="M557.36,26.42s-8.34.06-11.43-5.25"/><line class="cls-4" x1="559.06" y1="17.17" x2="551.11" y2="25.25"/><path class="cls-4" d="M545.56,12.43l7.61,3.26-.87,1A6.16,6.16,0,0,1,548,18.7l-5.32.25"/><line class="cls-4" x1="554.56" y1="26.07" x2="561.56" y2="20.57"/><line class="cls-4" x1="548.73" y1="36.67" x2="537.11" y2="63.88"/><path class="cls-4" d="M542.42,52.17s12.17,20.51,5.86,37.56"/><path class="cls-4" d="M435.18,86.71c3.68-3.13,4.82-10,4.82-10a12.79,12.79,0,0,1,8.51,8.74"/><path class="cls-4" d="M432.86,83.13s-.06,9.32-1.6,11.61"/><path class="cls-4" d="M427.87,65.57s-5,.18-10.27,7.37"/><path class="cls-4" d="M435.67,71.38s4.2-2.6,7.48-1.75,7.12,3.1,6.59,7.09"/><path class="cls-4" d="M416.49,98.76l-3.19,2.12c-4.65-13-.52-15.42-.52-15.42"/><path class="cls-4" d="M422.53,106.73s-9-2.52-4.93-12.53"/><path class="cls-4" d="M422.53,98.45s.72,10,8.9,9.13"/><path class="cls-4" d="M418.37,79.21A14.91,14.91,0,0,1,425,72.58l.1,3.32"/><path class="cls-4" d="M427.87,67.27s10.48-3.52,17,.42"/><path class="cls-4" d="M418.37,86.7s-.64,4.09,3.34,4.22l.82-2"/><path class="cls-18" d="M122.48,74.19l28.36,103.16s.33,29.21-32.88,16.18Z"/><path class="cls-4" d="M125.26,173s1.83-5.14,8.62-5"/><path class="cls-4" d="M126.23,188.6a9.75,9.75,0,0,0,8.88.54"/><path class="cls-4" d="M126.55,193.87s4.2,1.92,7.69,0"/><line class="cls-4" x1="133.94" y1="177.31" x2="125.68" y2="179.71"/><path d="M135.38,118.25A34.26,34.26,0,0,1,120.6,127l2.09-52.85Z"/><path class="cls-5" d="M129.12,80.44l17,30.88s-17.25,15.21-30.74,8.11l-6.73-61.3.71.49A64.24,64.24,0,0,1,129.12,80.44Z"/><path class="cls-10" d="M146.14,111.32s-17.25,15.21-30.74,8.1l.15-4.85c12.87-.9,21-6,26.1-11.39Z"/><path class="cls-4" d="M136.17,93.23l10,18.09a43.58,43.58,0,0,1-10.76,6.93"/><line class="cls-4" x1="128.92" y1="178.77" x2="134.27" y2="179.76"/><path d="M143.78,155.87s-11.57-.19-19.1,7.62l.58,9.5s5.63-10.63,17.65-8.93Z"/><rect class="cls-8" x="141.64" y="152.48" width="6.7" height="13.4" transform="translate(-38.35 46.28) rotate(-16.05)"/><polyline class="cls-4" points="139.92 153.67 143.62 166.54 150.06 164.69"/><line class="cls-4" x1="142.71" y1="152.86" x2="146.35" y2="151.81"/><path class="cls-5" d="M115.9,44.52l-2.75,9-1-1.94s-2.19,5.74-5.54,6.18l-2-2.87s-2.79,5.72-6.67,8.87l-3-9.32H93.34a10.91,10.91,0,0,1,0-8.15l-2,.79,2-9.32Z"/><polyline class="cls-4" points="93.34 46.3 91.37 47.09 93.34 37.77"/><path class="cls-4" d="M113.15,53.53l-1-1.94s-2.09,5.53-5.54,6.18"/><circle class="cls-19" cx="119.58" cy="40.51" r="4.62"/><path class="cls-20" d="M88.72,33.15a4.62,4.62,0,1,0,4.62-4.62A4.62,4.62,0,0,0,88.72,33.15Z"/><path class="cls-21" d="M71.87,62.68,16.62,103a18.33,18.33,0,0,0,5,32.2l18.47,6.13h0a5,5,0,0,0-.6,6.53l.19.27a4.15,4.15,0,0,0-1.52,6.42l1.06,1.29s15.9,4.32,21.15-9.16Z"/><path d="M40.48,96.81A32.24,32.24,0,0,0,68.9,113.33c20.5.18,4.35-42.54,4.35-42.54Z"/><path class="cls-5" d="M78.73,56.56,37.22,83.5s-5.36,19.69,28.08,25.11Z"/><line class="cls-4" x1="30.27" y1="138.1" x2="44.32" y2="142.93"/><line class="cls-4" x1="39.72" y1="148.17" x2="42.23" y2="147.03"/><path class="cls-10" d="M67.45,100.33l-2.14,8.29C31.85,103.19,37.23,83.5,37.23,83.5l5.48-3.57c-.34,6.18,2.45,11.06,9.2,16.23C57.44,100.39,63.22,99.81,67.45,100.33Z"/><path d="M16.77,293.27s10.43,10.21,56.62,12.31l5.31-51.11H26.48Z"/><path d="M134.52,293.27s-20.66,17.2-60.81,11.35l7.81-51.39h42.59Z"/><polygon class="cls-22" points="57.53 122.94 23.55 301.02 0 310.14 73.25 310.14 93.31 122.94 57.53 122.94"/><polygon class="cls-23" points="127.22 122.94 122.56 301.02 150.29 310.14 73.25 310.14 93.31 122.94 127.22 122.94"/><path class="cls-3" d="M73.71,305.89s-5.3,0-8.39-1.7A26.9,26.9,0,0,0,52.1,301H23.55L0,310.14H73.25Z"/><path class="cls-3" d="M73.71,305.89s7.59,0,11.59-2.11a27.73,27.73,0,0,1,13-3.18h0l24.23.42,27.73,9.12h-77Z"/><path class="cls-16" d="M127.22,122.94l7.29,170.33s-40.39-26.17-59-4.44L93.31,122.94Z"/><path class="cls-16" d="M57.53,122.94H93.31L75.53,288.83s-42-8.12-58.76,4.44Z"/><path class="cls-9" d="M74.34,300.75c18.76-21,60.18-7.48,60.18-7.48l-2.7-62.83c-2.27-.47-9.28,5.14-11.46,3.36-7.11-5.81,16-19.75-2.78-33.63,0,0,3.25,18.2-5.8,17.16s-6.12-23.35,1.37-27.78c0,0-19.82-1.05-17.05,19.46s1.05,27.56-13.67,15.5l-1.7,16.92Z"/><path class="cls-9" d="M16.77,293.27C34.46,278.83,74,303.68,74,303.68c.16-.19,6.75-62.25,6.75-62.25l-.09-.2c-5.21-12.09-14-4-16-17.42-2.27-15.64,4-19.36,4-19.36S60,206.51,55.9,213.29c-5.25,8.59-.24,20.67-5.81,24s-12-3.34-5.87-13.86-.46-15.74-.46-15.74c1.6,6.14-4.44,14.27-10.21,15.44Z"/><path class="cls-7" d="M76.47,57.59h0A27.69,27.69,0,0,0,64.8,76l-7.27,46.9h69.69a7.1,7.1,0,0,0-.36-10.55l-1.58-1.31L119.56,76A27.74,27.74,0,0,0,76.47,57.59Z"/><path class="cls-4" d="M97.73,128.84s-.56,13.6-6.37,12.28"/><path class="cls-4" d="M120.62,122.94s-1,24.74,7.54,24.74"/><path class="cls-4" d="M64.66,122.94s1,23.54-12.51,22.48"/><path class="cls-4" d="M57.53,122.94h69.69s5.42-7-1.94-11.86L120.51,81.8"/><line class="cls-4" x1="63.59" y1="83.85" x2="57.53" y2="122.94"/><path class="cls-14" d="M16.76,293.27C34.47,278.82,74,303.67,74,303.67s3.87-35.22,5.73-52.65c0,0-4.6,17.78-11.92,15.6s3-21.34,3.35-21.91c-.49.18-17,6.37-15.76,19.63,1.24,13.46-9.48,17.71-13.32,12.46s7.56-13.32,3.78-18.92-8.2-6.92-8.2-6.92,2.76,13.59-4.42,16.64-6.76-14.81-6.76-14.81Z"/><line class="cls-4" x1="123.11" y1="97.77" x2="125.28" y2="87.81"/><line class="cls-4" x1="61.21" y1="99.18" x2="59.28" y2="91.37"/><path class="cls-24" d="M113.15,48.34s-5.49,3.79-4.48,9.79c0,0-4.88,3.81-9.67,2.51-5.53-1.5-7-8-7-8S96.78,47,93.8,40.51Z"/><path class="cls-4" d="M92,52.68A12.54,12.54,0,0,0,93.8,40.51"/><path class="cls-4" d="M85.39,53.53S74.94,55.05,67.82,67.21"/><path class="cls-4" d="M37.69,91.48s-1-2.6-.46-8l15-9.7"/><path class="cls-14" d="M74.34,300.74c18.76-21,60.18-7.47,60.18-7.47L133,257.06c-1.59-3.17-3.77-5.88-6.72-7.27a9.33,9.33,0,0,1-.15,11.06c-4.18,6-16.13-1.48-11.59-13.33,0,0-8.5,6.24-7.62,16.82s-10.72,14.44-13.57,11.35-1-14.33-1-14.33a8.11,8.11,0,0,0-6.22,7.55c-.26,6.07-4.76,12-9.13,7.33Z"/><line class="cls-4" x1="58.48" y1="116.86" x2="44.63" y2="114.16"/><line class="cls-4" x1="47.89" y1="111.08" x2="51.92" y2="115.58"/><line class="cls-4" x1="127.76" y1="137.06" x2="130.51" y2="209.01"/><path d="M96.1,41.45a28,28,0,0,0,4.12,7.28,10.83,10.83,0,0,0,9.28,4h0a12.42,12.42,0,0,1,3.64-4.33Z"/><path d="M74.34,300.74l.4-.41a29.81,29.81,0,0,1,7-5.58c-4.48-10.75-3.1-29.95-3-34.19Z"/><circle class="cls-25" cx="106.29" cy="35.76" r="14.33" transform="translate(-4.43 17.94) rotate(-9.45)"/><line class="cls-4" x1="54.73" y1="134.18" x2="29.6" y2="239.64"/><path d="M112.68,82.89a3,3,0,0,1-.77,2,3,3,0,1,0,0-4A3,3,0,0,1,112.68,82.89Z"/><path d="M106.65,80.72a3,3,0,0,0,5.26,2,3,3,0,0,1,0-4,3,3,0,0,0-2.25-1A3,3,0,0,0,106.65,80.72Z"/><path d="M90.33,150.74l-1.6,15c3.09-13.05,12.48-17.53,12.48-17.53A87,87,0,0,1,90.33,150.74Z"/><line class="cls-4" x1="73.25" y1="310.14" x2="90.33" y2="150.74"/><path class="cls-4" d="M102.52,147.68S90.18,153,79.29,149.62"/><path d="M127.46,127.71s-12.11-2.43-67.22-4.77h67Z"/><path class="cls-4" d="M82.94,97.77S123.1,110,106.29,108.94s-21.06-1.81-21.06-1.81"/><path class="cls-4" d="M99,60.64a11.54,11.54,0,0,0,9.67-2.51A70.24,70.24,0,0,1,126.39,76"/><line class="cls-4" x1="132.11" y1="237.15" x2="134.52" y2="293.27"/><path d="M119,33.15l-.44,4.62a5.57,5.57,0,0,1,.44,4.67s4.13-4.72,1-13.35Z"/><path d="M98,24.1l-2.9,7.21s-2.73-.22-3.1,4.45C92,35.76,91.32,26.17,98,24.1Z"/><path class="cls-8" d="M98.8,19.23l-2-1.11a27.51,27.51,0,0,1,13.77.43l-1.28-3.43s9,4.05,11.32,10.87l3.26.9c.57,3.21-1.08,5.28-4.9,6.26,0,0-3.77-.24-6.47-4.62l-.87,2.31s-5.64-2-7-5.53v2.41S96.71,30.34,95,24.84A9.1,9.1,0,0,1,98.8,19.23Z"/><path class="cls-4" d="M122.84,39.42s-2.25-1.39-3,4.54"/><line class="cls-4" x1="120.62" y1="40.77" x2="121.34" y2="42.13"/><path class="cls-4" d="M90.5,30.35s2.34.07,0,4.68"/><line class="cls-4" x1="89.84" y1="33.15" x2="91.37" y2="31.74"/><line class="cls-4" x1="92.68" y1="128.84" x2="90.84" y2="146.01"/><rect x="73.16" y="310.14" width="77.13" height="5.6" transform="translate(223.45 625.87) rotate(180)"/><rect x="0.38" y="310.14" width="72.78" height="5.6" transform="translate(73.54 625.87) rotate(180)"/><path d="M99.59,308.54a20.75,20.75,0,0,0,12.9-4.62,1,1,0,1,0-1.33-1.46c-.4.36-10,8.81-22.75.5a1,1,0,0,0-1.08,1.66A22.21,22.21,0,0,0,99.59,308.54Z"/><path d="M49.53,307.82a29.43,29.43,0,0,0,12.67-3.21,1,1,0,0,0,.4-1.35,1,1,0,0,0-1.34-.39c-.13.07-13.06,6.91-21.86-.57a1,1,0,1,0-1.28,1.51A17.18,17.18,0,0,0,49.53,307.82Z"/><path d="M98.33,300.6l22.43,5.29c5.34-1.75,6.8-2.71,16.62,0L122.56,301s-3.2-6.19-11.87-6.19S98.33,300.6,98.33,300.6Z"/><path d="M52.1,301l-22.68,4.36s-5.46-3.19-10.84-2.44l5-1.92s1.55-7.55,13.84-7.55S52.1,301,52.1,301Z"/><line class="cls-4" x1="150.29" y1="310.14" x2="122.56" y2="301.02"/><line class="cls-4" x1="23.55" y1="301.02" x2="12.28" y2="305.38"/><path class="cls-4" d="M111.63,30.84s-8.76-2.58-7-8.78"/><path class="cls-4" d="M104.63,27.72s-4,1.35-6,.41"/><line class="cls-4" x1="110.57" y1="18.55" x2="109.29" y2="15.12"/><path class="cls-4" d="M117.18,20.67A15.83,15.83,0,0,1,120.61,26L118,24.1,118.9,26"/><path class="cls-4" d="M95,24.84S96,18.41,101,19"/><path class="cls-4" d="M123.87,26.89s1.44,5-4.9,6.26c0,0-8.25-1.39-6.91-9"/><line class="cls-4" x1="96.8" y1="18.12" x2="98.8" y2="19.23"/><path class="cls-4" d="M74,303.68s-20.11-12.3-37.21-14.55"/><path class="cls-4" d="M116.63,289.59s-23.11-3.31-36.32,6"/><path class="cls-26" d="M116.75,304.94c2.15-1.09,6.26-1.7,11.7-2l-20.4-.06L122.56,301s-5.92-3.87-24.23-.42"/><path class="cls-26" d="M52.1,301s-21.28-6.81-28.55,0c7.52-1.57,15.39-.78,23.38.79l-25.77.13a28.93,28.93,0,0,1,12,2.72"/><path class="cls-26" d="M114.5,299.17s20.59-8.07,15-11.32S114.5,299.17,114.5,299.17Z"/><path class="cls-26" d="M114.5,299.17s-4-9.33-13.06-9.56S114.5,299.17,114.5,299.17Z"/><path class="cls-26" d="M37.33,298s15.76-2.55,13.55-7.6S37.33,298,37.33,298Z"/><path class="cls-26" d="M37.33,298s-1.93-7.86-5.72-8.38S37.33,298,37.33,298Z"/><line class="cls-4" x1="24.33" y1="263.06" x2="16.76" y2="293.27"/><path class="cls-4" d="M92.34,301.23a33.33,33.33,0,0,0-7,2.55c-3,1.62-9.34,2.05-9.34,2.05"/><path class="cls-4" d="M70.36,305.65s-3.49-.3-5-1.46-7.25-3.14-10.65-3.07"/><line class="cls-4" x1="37.13" y1="88.06" x2="17.54" y2="102.37"/><path d="M357.43,311.75s48-4,31.06-52.86l-17.34-9.1-23.79,57.58Z"/><path d="M258.33,296.65S195,288.7,233.48,221.49C233.48,221.49,313.48,230.55,258.33,296.65Z"/><path class="cls-27" d="M288.61,246.82l-26.88-18.57A40.18,40.18,0,0,0,201,248.1l-17.3,53-22.13,11.78H237.8l15.4-29.75L441,312.84h64.68l-28.86-7.63L334.73,230.68Z"/><path class="cls-7" d="M437.41,284.55c-18.19,7.27-23.72,15.54-20.3,24.51L435.65,312l43.15-6.25-2-.53Z"/><path class="cls-7" d="M246.33,296.36s-20.8-36.12-54.09-21.62l-8.59,26.32,18.77,8.24,37.12.18Z"/><path d="M368.71,301.38A52.75,52.75,0,0,1,384,256.55l-49.29-25.86-46.11,16.14-26.89-18.58c-.48-.33-1-.65-1.46-1,10.27,26.59-2.93,56.45-2.93,56.45Z"/><path class="cls-2" d="M233.48,221.49s46.66,13,24.85,75.16l41.31-6.21,57.79,21.31s7.61-43.7,31.06-52.86l-53.76-28.21S265.47,212.75,233.48,221.49Z"/><path class="cls-4" d="M304.48,273.65c1.89,11.5-4.84,16.79-4.84,16.79"/><line class="cls-4" x1="322.93" y1="245.13" x2="372.11" y2="273.34"/><path class="cls-4" d="M233.48,221.49s46.66,13,24.85,75.16l41.31-6.21,57.79,21.31s7.61-43.7,31.06-52.86"/><path d="M304.77,276.31s4.83,8.91,2.15,16.82l-7.28-2.69C303.4,287.1,304.86,282.22,304.77,276.31Z"/><path d="M373,254.93s-15.52,8.54-24.6,36.38C348.41,291.31,354.24,256.22,373,254.93Z"/><line class="cls-4" x1="200.95" y1="248.1" x2="183.65" y2="301.06"/><line class="cls-4" x1="465.71" y1="299.4" x2="349.49" y2="238.43"/><path class="cls-4" d="M272.45,286.14s7.47-16.68,0-32.23"/><line class="cls-4" x1="237.8" y1="312.84" x2="257.34" y2="275.08"/><path d="M476.8,305.21c-3-7.17-7.11-5.21-11.9,2.4L435.65,312l5.33.85h64.68Z"/><path d="M183.65,301.06s2.25-4.41,13-4.41a17.63,17.63,0,0,1,15.25,8.1l27.63,4.73-1.74,3.36H161.52Z"/><line class="cls-28" x1="215.47" y1="308.07" x2="212.55" y2="310.53"/><line class="cls-28" x1="218.39" y1="308.07" x2="215.47" y2="310.53"/><line class="cls-28" x1="464.39" y1="309.86" x2="466.98" y2="311.04"/><line class="cls-28" x1="461.42" y1="309.86" x2="464.01" y2="311.04"/><path d="M211.91,304.75l-19,1.62c-5-2.9-10.69-3.46-17.15-1.12l7.89-4.19s2.71-5.93,15-5.93S211.91,304.75,211.91,304.75Z"/><rect class="cls-6" x="161.52" y="312.84" width="76.28" height="2.9"/><rect class="cls-6" x="440.98" y="312.84" width="64.67" height="2.9"/><path class="cls-28" d="M203.84,304.29s-9.93-4.55-20.19-3.23l12.13,3.23H177.57l9.2,2.08"/><polyline class="cls-28" points="472.76 306.79 476.8 305.21 475.75 307.61 481.33 306.41 481.33 308.49 486.27 307.72"/><line class="cls-4" x1="505.66" y1="315.74" x2="440.98" y2="315.74"/><line class="cls-4" x1="237.8" y1="315.74" x2="161.52" y2="315.74"/><line class="cls-4" x1="426.84" y1="310.6" x2="389.32" y2="304.65"/><path class="cls-4" d="M426.62,289.85s-14.49,8-9.51,19.21"/><path class="cls-4" d="M241,289.06s-15.75-20.69-37.69-17.45"/><path class="cls-4" d="M232.89,253.13s-16.56,3.76-23.41-2.67"/><path class="cls-3" d="M343.9,235.5S333,302.4,270.19,255.13l64.54-24.44Z"/><path class="cls-29" d="M322.56,177.87,348.48,172a33.29,33.29,0,0,1,40.42,36.26l-3.74,32.6s31.19,13.67,18.75,26.11l-69.18-36.3Z"/><path d="M386.11,232.62s-9,11.63-24.18,12.51l-27.2-14.45-1.81-7.86,53.86,3.92Z"/><path class="cls-5" d="M322.57,177.87l12.16,52.82L356.34,242h0c14.09,1.8,27.73-3.79,33.72-9.41V207.37c.22-21.87-19.22-40.43-41.59-35.37Z"/><path d="M325.43,190.3l.89,3.88c2.88-1,14.22-5,31.58-9.35,10.38-2.63,21.06,1.92,28.72,6.67a36.57,36.57,0,0,0-4.2-6.89C375,181.06,366,178.7,356.92,181,340.22,185.22,329,189,325.43,190.3Z"/><path class="cls-10" d="M345.61,236.4,356.34,242h0a46.1,46.1,0,0,0,17-1.11c-21.47-1.22-18.11-26.71-18.11-26.71Z"/><path d="M323.71,182.8l.89,3.88c9.18-3.25,30.57-10.36,40-9.62a57.17,57.17,0,0,1,14,3.27,34,34,0,0,0-10.76-6.88c-1-.15-2-.27-2.92-.34C354.79,172.34,333.34,179.4,323.71,182.8Z"/><line class="cls-4" x1="357.42" y1="209.25" x2="345.61" y2="236.4"/><line class="cls-4" x1="360.71" y1="218.26" x2="349.81" y2="226.74"/><path class="cls-4" d="M395.55,253.91s8.18,4.44,3.33,10.43"/><path class="cls-4" d="M402.26,256s5.32,5.3,1.65,10.94"/><path class="cls-4" d="M378.56,244.71s5.6-1.17,6.6-3.84c0,0,9.95,4,14.69,8.92"/><path class="cls-4" d="M356.34,242c23.1,1.81,33.73-9.41,33.73-9.41V207.37"/><path class="cls-4" d="M384.52,224.53s-14.27,10-29.26,4.19"/><path d="M247.79,214.63a47.81,47.81,0,1,0,47.81-47.81A47.81,47.81,0,0,0,247.79,214.63Z"/><path class="cls-30" d="M312.42,174.26s7.48,25.84-6,26.82c-14.86,1.09-16.24-29.91-16.24-29.91"/><path class="cls-7" d="M264.07,260.68a1.49,1.49,0,0,0,1.19-.6c10.53-14.3,13.6-30.18,16.57-45.54,1.66-8.59,3.23-16.7,6-24a45.29,45.29,0,0,1,5.81-10.72,1.48,1.48,0,1,0-2.38-1.77,48.11,48.11,0,0,0-6.2,11.42c-2.91,7.54-4.5,15.78-6.19,24.5-2.9,15-5.91,30.58-16,44.34a1.48,1.48,0,0,0,.32,2.07A1.43,1.43,0,0,0,264.07,260.68Z"/><path class="cls-7" d="M315.66,278.5a2,2,0,0,0,1.9-1.44c10.11-36.15,11.35-65.62,3.7-87.6a2,2,0,1,0-3.74,1.31c5.07,14.57,8.54,41.18-3.77,85.22a2,2,0,0,0,1.91,2.51Z"/><path class="cls-5" d="M305,168.31s-11.9,4.59-18.5,21.71c-8.81,22.85-5.63,53.69-29.14,77-.18-17.8-12.23-35.7-23.86-45.49C233.48,221.49,255.08,152.42,305,168.31Z"/><path class="cls-5" d="M305,168.31s37.11,23.39,8.12,116.87c0,0,23.65-17,30.3-39.68S354.88,174.15,305,168.31Z"/><path class="cls-6" d="M323.46,236.41c-1.3,13.62-4.46,29.73-10.36,48.76,0,0,23.66-17,30.3-39.67A105.27,105.27,0,0,0,346.52,231,101.29,101.29,0,0,1,323.46,236.41Z"/><path class="cls-6" d="M233.49,221.49c11.62,9.79,23.67,27.69,23.85,45.49,12-11.91,17.08-25.82,20.32-39.61-15.76-9.58-22.86-24.93-25.55-40.45C239.38,202.66,233.49,221.49,233.49,221.49Z"/><path class="cls-4" d="M343.48,194.8c6.83,16.95,3.66,37.92-.08,50.7-6.65,22.7-30.3,39.68-30.3,39.68s8.69-24.88,9.83-46.75"/><path class="cls-6" d="M266.62,202.48a4.95,4.95,0,1,0,4.94-4.95A4.95,4.95,0,0,0,266.62,202.48Z"/><path class="cls-7" d="M266,259.08l.48,11.07a1.86,1.86,0,1,0,3.68-.42l-2.47-13.14Zm1.36,10.65a.74.74,0,0,1,.74-.73.73.73,0,0,1,0,1.46A.74.74,0,0,1,267.35,269.73Z"/><path class="cls-4" d="M267.67,256.59l2.49,13.14a1.94,1.94,0,0,1-1.25,2.21"/><circle class="cls-4" cx="268.09" cy="269.73" r="0.74"/><path class="cls-4" d="M286.48,190c-7.28,18.89-6.37,43.25-19.13,64.28"/><path class="cls-4" d="M342.25,232.45a75,75,0,0,1-12.44,3.05"/><path class="cls-4" d="M277.66,227.37s-7.51-3.73-15-14.05"/><path class="cls-7" d="M314.91,231s-4.73-8.66-12.68-9.92-15.75,5-15.75,5,6.29,6.88,13.16,7.91S314.91,231,314.91,231Z"/><path d="M296.52,227.92a4.95,4.95,0,1,0,5-4.95A4.94,4.94,0,0,0,296.52,227.92Z"/><path class="cls-4" d="M261.52,262.43s-2.57,2.93-4.18,4.55c0,0-.18-13.56-7.52-25.54-1.18-1.93-2.31-3.6-3.36-5s-1.5-2-1.5-2"/><path class="cls-31" d="M383.06,256l-1,.64c-3.35,2.23-9.09,3.91-12.7-2,0,0,3.53-2.45,7.83-4.94,6.27-3.63,9.39-1.83,9.39-1.83S394.62,256.16,383.06,256Z"/><path class="cls-4" d="M383.06,256l-1,.64c-3.35,2.23-9.09,3.91-12.7-2,0,0,3.53-2.45,7.83-4.94"/><path d="M257.34,220.81s-25.19,15.9-42.74-11.56l-4.8-16.88,47.77,18.22Z"/><path class="cls-32" d="M207,181.65c-9.47-21.15,12.07-42.88,33.3-33.59l7.46,44.19-2.31,30.57,2.31,2.82h0a12.33,12.33,0,0,1-2.83,8.8,34.28,34.28,0,0,0-5.39-5.53,14.38,14.38,0,0,0-12.28-3l-11.92,2.8s-4.44-7.19,0-10.46A22.83,22.83,0,0,1,222,215h0Z"/><path d="M220.66,212.1s4.55-15.81,27.61-.8l9.3-.71s-19.77-22.11-43-12Z"/><path class="cls-5" d="M206,178.89a.39.39,0,0,1,0,.13l8.59,30.23a24.31,24.31,0,0,1,3.31-3.28c13.09-10.6,28.79,3.13,35.77,10.6,2.3,2.45,3.66,4.24,3.66,4.24l.1-16.8c12.12-4.76,25.65-18.44,25.46-31.45l6.33-6.63-48.9-17.87C220,139.18,199.44,158.67,206,178.89Z"/><path class="cls-4" d="M257.62,174.26l-.28,46.55s-24.52-32.61-42.74-11.56L206,178.89"/><line class="cls-4" x1="260.83" y1="188.13" x2="257.5" y2="194.14"/><path d="M221.65,158.74c4.52,17.12,9.08,34.63,11.5,43.95a27.67,27.67,0,0,1,5.68,2.17c-2-7.82-7.23-27.88-12.39-47.39-1.24-4.67-1.07-8.5.5-11.41a23.82,23.82,0,0,0-5.82,1.49A23.43,23.43,0,0,0,221.65,158.74Z"/><path d="M209.48,156.65c2.08,12.06,7.82,35.67,10.8,47.67a16,16,0,0,1,4.65-1.84c-3.4-13.73-10.1-41.35-11.17-50.52A25.42,25.42,0,0,0,209.48,156.65Z"/><line class="cls-4" x1="289.23" y1="165.93" x2="240.33" y2="148.06"/><path class="cls-4" d="M243.82,220.81l4,4.83s-.08,6.53-2.83,8.8"/><path class="cls-4" d="M238.83,224.53a71.24,71.24,0,0,0-11.54,1.39l-11.92,2.8"/><path class="cls-4" d="M228,217.41s-6.46,3.21-3.67,9.22"/><path class="cls-4" d="M220.66,219.09s-5.83,2.59-1.87,8.83"/><path class="cls-4" d="M227.1,214.22s6.78-.24,9.67,1.56l-7.83-3.68"/><path class="cls-4" d="M245,234.44c-4.63-5.8-7.58-6.92-7.58-6.92a14.11,14.11,0,0,0-9.14-1.81"/><path class="cls-4" d="M251.18,202.48s-21.33-25.17-36.58-10.11"/><circle class="cls-33" cx="304.02" cy="183.33" r="9.66"/><circle class="cls-34" cx="309.93" cy="174.61" r="14.33" transform="matrix(0.97, -0.23, 0.23, 0.97, -31.68, 75.39)"/><path d="M315.78,158c9.2,2.22,16.46,12.16,9,24.78a17.14,17.14,0,0,1-5.52,3.23c.37-.78,1.05-2.76.7-3.8a4.83,4.83,0,0,1-2.78,3.37,13.5,13.5,0,0,1-5.66-1.18l1.6-2.68-3.55,1.68c-.35-.22-.72-.45-1.08-.7l1-1.69-1.95,1a27.92,27.92,0,0,1-2.78-2.49l2-2a17.34,17.34,0,0,0-3,.92c-.48-.54-1-1.09-1.44-1.7l-3.66.78-3-2.85s-.49-7.33,3.24-12.77l.53-1.77C310.49,149.77,315.78,158,315.78,158Z"/><path class="cls-16" d="M295.59,174.62l3,2.84,3.39-.72.38-.66s-2.85-1.8-2.62-6.75l1.75-2.51-2.56.91a20.39,20.39,0,0,1-.06-5.89C294.47,167.4,295.59,174.62,295.59,174.62Z"/><path class="cls-35" d="M294.46,171.12c-.94,2-.48,4.26,1,5s3.5-.38,4.45-2.42.47-4.25-1-4.95S295.4,169.09,294.46,171.12Z"/><path class="cls-4" d="M297.2,170.21a1.38,1.38,0,0,1,1.62,1.46c0,1.7-1.88,3.16-1.88,3.16"/><line class="cls-4" x1="296.52" y1="172.72" x2="298.75" y2="172.28"/><path class="cls-4" d="M295.5,176.08a20.34,20.34,0,0,0,2.3,6.39"/><path class="cls-4" d="M298.84,161.84s-2.56,3.28-2.94,6.47"/><path class="cls-4" d="M266.62,202.48a4.95,4.95,0,1,0,4.94-4.95A4.95,4.95,0,0,0,266.62,202.48Z"/><path d="M180.15,198.75s-.46,2-2.7,13.55c0,0,13,0,10.38,10.6,0,0,13.63,9.14,1.2,18.1s-39.21,10-39.21,10-30.46-21.31-31-25.7,5.21-16.59,14-19.75c0,0-1.79-4.77,2.19-6.66a48,48,0,0,1,8.17-2.88l6.7-12.77Z"/><polygon class="cls-36" points="206.33 267.55 322.98 296.52 340.21 294.68 332.5 315.74 155.83 315.74 206.33 267.55"/><path d="M155.82,315.74h29.83C214,305.21,231,278,233.3,274.22l-52.54-12.33Z"/><path class="cls-6" d="M233.3,274.22s-10.81,18.7-24.1,16.08-21.75,25.44-21.75,25.44H155.83l24.93-54.38Z"/><path class="cls-10" d="M206.88,275.57a1.66,1.66,0,1,0-.93-2.15A1.66,1.66,0,0,0,206.88,275.57Z"/><path class="cls-10" d="M208.1,272.49a1.65,1.65,0,1,0-.93-2.14A1.66,1.66,0,0,0,208.1,272.49Z"/><path class="cls-10" d="M210,276.79a1.66,1.66,0,1,0-.93-2.15A1.66,1.66,0,0,0,210,276.79Z"/><path class="cls-10" d="M211.18,273.71a1.65,1.65,0,1,0-.93-2.15A1.64,1.64,0,0,0,211.18,273.71Z"/><path class="cls-6" d="M208,273.83a1.83,1.83,0,1,0,.95-2.4A1.82,1.82,0,0,0,208,273.83Z"/><path class="cls-37" d="M172.15,315.74h15.3s8.48-28.08,21.75-25.44,24.1-16.08,24.1-16.08l-11-2.7c-1.46,2.82-4.92,6-12.48,8.73C192,286.59,182.43,280.74,172.15,315.74Z"/><line class="cls-4" x1="206.33" y1="267.55" x2="300.09" y2="290.74"/><path class="cls-4" d="M261.64,288.18s1.68,11.63-9.21,15.62"/><path class="cls-4" d="M233.3,274.22s-7.82,14.09-19.25,16.14"/><path class="cls-4" d="M217.05,276.81s-5.38,3.39-9,4"/><path class="cls-5" d="M340.21,294.68s-11.45-5.48-15.28,7.19c-2.61,8.65,4.41,13.87,4.41,13.87h3.16Z"/><path d="M141.45,208.87,151,245.2l21.18-7.32c-2.8-8.72-1.4-16.18-10.29-21.79C154.82,211.64,147.27,208.87,141.45,208.87Z"/><polygon points="85.25 315.74 187.18 315.74 187.18 269.87 116.88 273.12 85.25 315.74"/><path class="cls-38" d="M138.12,208.75s13.93-1.42,10.14-9.37L166,205.77s-9.46,1.82-4.4,10.24c2.68,4.75,3.64,18.32-.8,18.2-6.76-.18-11.41-16-29.91-23.83A50.3,50.3,0,0,1,138.12,208.75Z"/><path d="M150.45,202.4s2.85,6.62,9.86,7.68c1-3.42,5.66-4.31,5.66-4.31l-15.2-5.49Z"/><path class="cls-39" d="M137.59,315.74h86.09l-12.42-8.5-5.6-44.35a22.83,22.83,0,0,0-31.19-18.32l-58.59,29A31.89,31.89,0,0,0,137.59,315.74Z"/><path d="M143.09,299.45s-2.36,12.54,6.76,16.29H124.44v-19Z"/><path class="cls-8" d="M115.87,273.08,115,226.13a27.09,27.09,0,0,1,15.88-15.75c18.5,7.81,26.7,25.68,33.36,26.86,8.89,1.56.29-15.92-2.49-21,9,5.65,17.16,13.85,19.9,22.41l1.1,4.21a23,23,0,0,0-8.27,1.66l-18.65,9.22a42.46,42.46,0,0,0-9.23,31.13c3.18,28-41.51,30.82-41.51,30.82H85.25Z"/><path class="cls-6" d="M146.45,258.42s-9.45,3.47-17.28-6.58c1.57,8.11-1,13.76-5.86,18Z"/><g class="cls-40"><path class="cls-5" d="M150.54,243.51a1.66,1.66,0,0,0,1-3.17,1.66,1.66,0,1,0-1,3.17Z"/><path class="cls-5" d="M151.5,240.34a1.65,1.65,0,1,0-1.11-2.06A1.65,1.65,0,0,0,151.5,240.34Z"/><path class="cls-5" d="M153.71,244.47a1.66,1.66,0,1,0-1.11-2.06A1.67,1.67,0,0,0,153.71,244.47Z"/><path class="cls-5" d="M154.67,241.3a1.65,1.65,0,1,0-1.11-2.06A1.66,1.66,0,0,0,154.67,241.3Z"/><path class="cls-8" d="M151.47,241.69a1.83,1.83,0,1,0,.75-2.48A1.83,1.83,0,0,0,151.47,241.69Z"/><path class="cls-5" d="M161,240.26a1.66,1.66,0,1,0,.29-3.3,1.66,1.66,0,0,0-.29,3.3Z"/><path class="cls-5" d="M161.24,237a1.66,1.66,0,1,0-1.5-1.8A1.66,1.66,0,0,0,161.24,237Z"/><path class="cls-5" d="M164.25,240.55a1.66,1.66,0,1,0-1.5-1.8A1.66,1.66,0,0,0,164.25,240.55Z"/><path class="cls-5" d="M164.54,237.25a1.66,1.66,0,1,0-1.5-1.8A1.66,1.66,0,0,0,164.54,237.25Z"/><path class="cls-8" d="M161.49,238.28a1.83,1.83,0,1,0,.23-2.58A1.83,1.83,0,0,0,161.49,238.28Z"/><path class="cls-5" d="M146.14,228a1.65,1.65,0,1,0,1.85-2.74,1.65,1.65,0,1,0-1.85,2.74Z"/><path class="cls-5" d="M148,225.21a1.66,1.66,0,1,0-.44-2.3A1.66,1.66,0,0,0,148,225.21Z"/><path class="cls-5" d="M148.88,229.8a1.65,1.65,0,1,0-.44-2.29A1.65,1.65,0,0,0,148.88,229.8Z"/><path class="cls-5" d="M150.73,227.06a1.66,1.66,0,1,0-.44-2.3A1.65,1.65,0,0,0,150.73,227.06Z"/><path class="cls-8" d="M147.57,226.48a1.83,1.83,0,1,0,1.45-2.14A1.83,1.83,0,0,0,147.57,226.48Z"/><path class="cls-5" d="M128.74,226.87a1.66,1.66,0,1,0,1-2.11A1.66,1.66,0,0,0,128.74,226.87Z"/><path class="cls-5" d="M131.87,225.78a1.65,1.65,0,1,0,1-2.1A1.64,1.64,0,0,0,131.87,225.78Z"/><path class="cls-5" d="M129.83,230a1.66,1.66,0,1,0,1-2.11A1.66,1.66,0,0,0,129.83,230Z"/><path class="cls-5" d="M133,228.91a1.65,1.65,0,1,0,1-2.11A1.65,1.65,0,0,0,133,228.91Z"/><path class="cls-8" d="M130.77,226.55a1.83,1.83,0,1,0,2.44-.85A1.82,1.82,0,0,0,130.77,226.55Z"/><path class="cls-5" d="M171.46,244.37a1.66,1.66,0,1,0-.38-2.31A1.66,1.66,0,0,0,171.46,244.37Z"/><path class="cls-5" d="M173.39,241.68a1.65,1.65,0,1,0-.37-2.31A1.65,1.65,0,0,0,173.39,241.68Z"/><path class="cls-5" d="M174.14,246.3a1.65,1.65,0,1,0-.37-2.31A1.65,1.65,0,0,0,174.14,246.3Z"/><path class="cls-5" d="M176.08,243.62a1.66,1.66,0,1,0-.38-2.31A1.65,1.65,0,0,0,176.08,243.62Z"/><path class="cls-8" d="M172.93,242.94a1.83,1.83,0,1,0,1.51-2.09A1.82,1.82,0,0,0,172.93,242.94Z"/><path class="cls-5" d="M175.25,233.92a1.65,1.65,0,1,0-.38-2.31A1.65,1.65,0,0,0,175.25,233.92Z"/><path class="cls-5" d="M177.18,231.24a1.66,1.66,0,1,0,1.94-2.69,1.66,1.66,0,0,0-1.94,2.69Z"/><path class="cls-5" d="M177.93,235.86a1.66,1.66,0,1,0-.37-2.31A1.66,1.66,0,0,0,177.93,235.86Z"/><path class="cls-5" d="M179.87,233.17a1.65,1.65,0,1,0-.37-2.31A1.65,1.65,0,0,0,179.87,233.17Z"/><path class="cls-8" d="M176.72,232.5a1.83,1.83,0,1,0,1.51-2.1A1.83,1.83,0,0,0,176.72,232.5Z"/><path class="cls-5" d="M127.07,275.72a1.67,1.67,0,0,0,2.34,0,1.65,1.65,0,1,0-2.34-2.34A1.67,1.67,0,0,0,127.07,275.72Z"/><path class="cls-5" d="M129.41,273.38a1.67,1.67,0,0,0,2.34,0,1.65,1.65,0,0,0-2.34-2.34A1.67,1.67,0,0,0,129.41,273.38Z"/><path class="cls-5" d="M129.41,278.06a1.67,1.67,0,0,0,2.34,0,1.65,1.65,0,1,0-2.34-2.34A1.67,1.67,0,0,0,129.41,278.06Z"/><path class="cls-5" d="M131.75,275.72a1.67,1.67,0,0,0,2.34,0,1.65,1.65,0,1,0-2.34-2.34A1.67,1.67,0,0,0,131.75,275.72Z"/><path class="cls-8" d="M128.76,274.55a1.83,1.83,0,1,0,1.82-1.83A1.81,1.81,0,0,0,128.76,274.55Z"/><circle class="cls-5" cx="131.56" cy="292.77" r="1.66" transform="translate(-42.72 23.23) rotate(-8.69)"/><path class="cls-5" d="M133.2,292.93a1.66,1.66,0,1,0,1.81-1.49A1.66,1.66,0,0,0,133.2,292.93Z"/><path class="cls-5" d="M129.6,295.92a1.65,1.65,0,1,0,1.8-1.5A1.65,1.65,0,0,0,129.6,295.92Z"/><path class="cls-5" d="M132.89,296.23a1.66,1.66,0,1,0,1.81-1.5A1.66,1.66,0,0,0,132.89,296.23Z"/><path class="cls-8" d="M131.88,293.17a1.83,1.83,0,1,0,2.58.24A1.82,1.82,0,0,0,131.88,293.17Z"/><path class="cls-5" d="M158.3,250.93a1.64,1.64,0,0,0,2.33.22,1.65,1.65,0,1,0-2.11-2.55A1.64,1.64,0,0,0,158.3,250.93Z"/><path class="cls-5" d="M160.85,248.82a1.65,1.65,0,1,0,.22-2.33A1.65,1.65,0,0,0,160.85,248.82Z"/><path class="cls-5" d="M160.4,253.48a1.66,1.66,0,1,0,.23-2.33A1.65,1.65,0,0,0,160.4,253.48Z"/><path class="cls-5" d="M163,251.38a1.65,1.65,0,1,0,2.55-2.11,1.65,1.65,0,0,0-2.55,2.11Z"/><path class="cls-8" d="M160.08,249.93a1.83,1.83,0,1,0,2-1.65A1.83,1.83,0,0,0,160.08,249.93Z"/><path class="cls-5" d="M163.38,223.31a1.65,1.65,0,0,0,2.34,0,1.67,1.67,0,0,0,0-2.34,1.65,1.65,0,0,0-2.34,2.34Z"/><path class="cls-5" d="M165.72,221a1.67,1.67,0,0,0,2.34,0,1.65,1.65,0,1,0-2.34,0Z"/><path class="cls-5" d="M165.72,225.65a1.65,1.65,0,1,0,0-2.34A1.65,1.65,0,0,0,165.72,225.65Z"/><path class="cls-5" d="M168.06,223.31a1.65,1.65,0,1,0,0-2.34A1.65,1.65,0,0,0,168.06,223.31Z"/><path class="cls-8" d="M165.06,222.14a1.83,1.83,0,1,0,1.83-1.83A1.83,1.83,0,0,0,165.06,222.14Z"/><path class="cls-5" d="M103.4,286.54a1.66,1.66,0,0,0,3.21-.83,1.66,1.66,0,1,0-3.21.83Z"/><path class="cls-5" d="M106.61,285.71a1.65,1.65,0,1,0,3.2-.83,1.65,1.65,0,1,0-3.2.83Z"/><path class="cls-5" d="M104.23,289.74a1.66,1.66,0,1,0,1.19-2A1.66,1.66,0,0,0,104.23,289.74Z"/><path class="cls-5" d="M107.44,288.91a1.65,1.65,0,1,0,1.19-2A1.65,1.65,0,0,0,107.44,288.91Z"/><path class="cls-8" d="M105.45,286.38a1.83,1.83,0,1,0,2.5-.64A1.82,1.82,0,0,0,105.45,286.38Z"/><path class="cls-5" d="M127.69,246.59a1.65,1.65,0,1,0,0-2.34A1.66,1.66,0,0,0,127.69,246.59Z"/><path class="cls-5" d="M130.07,244.29a1.65,1.65,0,1,0,0-2.34A1.66,1.66,0,0,0,130.07,244.29Z"/><path class="cls-5" d="M130,249a1.65,1.65,0,1,0,0-2.34A1.66,1.66,0,0,0,130,249Z"/><path class="cls-5" d="M132.37,246.66a1.65,1.65,0,1,0,0-2.34A1.66,1.66,0,0,0,132.37,246.66Z"/><path class="cls-8" d="M129.39,245.45a1.83,1.83,0,1,0,1.86-1.8A1.82,1.82,0,0,0,129.39,245.45Z"/><path class="cls-5" d="M138.51,237.32a1.66,1.66,0,1,0,0-2.34A1.66,1.66,0,0,0,138.51,237.32Z"/><path class="cls-5" d="M140.89,235a1.65,1.65,0,1,0,0-2.34A1.66,1.66,0,0,0,140.89,235Z"/><path class="cls-5" d="M140.82,239.69a1.65,1.65,0,1,0,0-2.34A1.65,1.65,0,0,0,140.82,239.69Z"/><path class="cls-5" d="M143.19,237.39a1.66,1.66,0,1,0,0-2.34A1.66,1.66,0,0,0,143.19,237.39Z"/><path class="cls-8" d="M140.21,236.17a1.83,1.83,0,1,0,1.86-1.8A1.84,1.84,0,0,0,140.21,236.17Z"/><path class="cls-5" d="M118.23,252.59a1.65,1.65,0,1,0,.86-2.17A1.64,1.64,0,0,0,118.23,252.59Z"/><path class="cls-5" d="M121.26,251.28a1.66,1.66,0,1,0,.86-2.18A1.66,1.66,0,0,0,121.26,251.28Z"/><path class="cls-5" d="M119.54,255.63a1.66,1.66,0,1,0,.86-2.18A1.66,1.66,0,0,0,119.54,255.63Z"/><path class="cls-5" d="M122.58,254.31a1.66,1.66,0,1,0,.86-2.17A1.65,1.65,0,0,0,122.58,254.31Z"/><path class="cls-8" d="M120.22,252.12a1.83,1.83,0,1,0,2.37-1A1.84,1.84,0,0,0,120.22,252.12Z"/><path class="cls-5" d="M125.58,263a1.66,1.66,0,1,0-.28-2.32A1.66,1.66,0,0,0,125.58,263Z"/><path class="cls-5" d="M127.63,260.44a1.65,1.65,0,1,0-.29-2.32A1.65,1.65,0,0,0,127.63,260.44Z"/><path class="cls-5" d="M128.19,265.09a1.66,1.66,0,1,0-.28-2.33A1.65,1.65,0,0,0,128.19,265.09Z"/><path class="cls-5" d="M130.23,262.48a1.65,1.65,0,1,0-.28-2.32A1.64,1.64,0,0,0,130.23,262.48Z"/><path class="cls-8" d="M127.11,261.68a1.83,1.83,0,1,0,1.6-2A1.84,1.84,0,0,0,127.11,261.68Z"/><path class="cls-5" d="M142.51,255.91a1.66,1.66,0,1,0-.93-2.15A1.65,1.65,0,0,0,142.51,255.91Z"/><path class="cls-5" d="M143.73,252.83a1.66,1.66,0,1,0-.93-2.15A1.66,1.66,0,0,0,143.73,252.83Z"/><path class="cls-5" d="M145.59,257.13a1.66,1.66,0,1,0-.93-2.15A1.66,1.66,0,0,0,145.59,257.13Z"/><path class="cls-5" d="M146.81,254.05a1.66,1.66,0,1,0-.93-2.15A1.66,1.66,0,0,0,146.81,254.05Z"/><path class="cls-8" d="M143.59,254.17a1.83,1.83,0,1,0,.95-2.41A1.84,1.84,0,0,0,143.59,254.17Z"/><path class="cls-5" d="M116.16,297.24a1.66,1.66,0,1,0-.6-2.26A1.65,1.65,0,0,0,116.16,297.24Z"/><path class="cls-5" d="M117.83,294.38a1.65,1.65,0,1,0-.6-2.26A1.65,1.65,0,0,0,117.83,294.38Z"/><path class="cls-5" d="M119,298.91a1.65,1.65,0,0,0,2.26-.59,1.66,1.66,0,1,0-2.86-1.67A1.65,1.65,0,0,0,119,298.91Z"/><path class="cls-5" d="M120.69,296.05a1.65,1.65,0,1,0-.6-2.26A1.65,1.65,0,0,0,120.69,296.05Z"/><path class="cls-8" d="M117.49,295.68a1.83,1.83,0,1,0,1.3-2.23A1.83,1.83,0,0,0,117.49,295.68Z"/><path class="cls-5" d="M105.48,308.77a1.66,1.66,0,1,0-.24-2.33A1.65,1.65,0,0,0,105.48,308.77Z"/><path class="cls-5" d="M107.57,306.2a1.65,1.65,0,1,0-.25-2.33A1.65,1.65,0,0,0,107.57,306.2Z"/><path class="cls-5" d="M108.05,310.86a1.66,1.66,0,0,0,2.33-.25,1.65,1.65,0,1,0-2.33.25Z"/><path class="cls-5" d="M110.14,308.29a1.66,1.66,0,1,0-.24-2.33A1.66,1.66,0,0,0,110.14,308.29Z"/><path class="cls-8" d="M107,307.43a1.83,1.83,0,1,0,1.63-2A1.83,1.83,0,0,0,107,307.43Z"/><path class="cls-5" d="M93.16,299.4a1.65,1.65,0,1,0,1.23-2A1.65,1.65,0,0,0,93.16,299.4Z"/><path class="cls-5" d="M96.38,298.64a1.65,1.65,0,1,0,1.23-2A1.65,1.65,0,0,0,96.38,298.64Z"/><path class="cls-5" d="M93.92,302.62a1.65,1.65,0,1,0,1.23-2A1.65,1.65,0,0,0,93.92,302.62Z"/><path class="cls-5" d="M97.14,301.86a1.65,1.65,0,1,0,1.23-2A1.65,1.65,0,0,0,97.14,301.86Z"/><circle class="cls-8" cx="96.76" cy="300.25" r="1.83"/><path class="cls-5" d="M118,283.56a1.66,1.66,0,1,0-1.39-1.88A1.65,1.65,0,0,0,118,283.56Z"/><path class="cls-5" d="M118.46,280.28a1.65,1.65,0,1,0-1.4-1.88A1.66,1.66,0,0,0,118.46,280.28Z"/><path class="cls-5" d="M121.25,284a1.65,1.65,0,1,0-1.4-1.88A1.66,1.66,0,0,0,121.25,284Z"/><path class="cls-5" d="M121.73,280.77a1.66,1.66,0,1,0-1.39-1.88A1.65,1.65,0,0,0,121.73,280.77Z"/><path class="cls-8" d="M118.63,281.62a1.83,1.83,0,0,0,2.93-2.18,1.83,1.83,0,1,0-2.93,2.18Z"/><path class="cls-5" d="M134.53,216.65a1.65,1.65,0,0,0,2.34-2.34,1.67,1.67,0,0,0-2.34,0A1.65,1.65,0,0,0,134.53,216.65Z"/><path class="cls-5" d="M136.87,214.31a1.65,1.65,0,1,0,0-2.34A1.67,1.67,0,0,0,136.87,214.31Z"/><path class="cls-5" d="M136.87,219a1.65,1.65,0,0,0,2.34-2.34,1.65,1.65,0,0,0-2.34,2.34Z"/><path class="cls-5" d="M139.21,216.65a1.65,1.65,0,0,0,2.34-2.34,1.65,1.65,0,0,0-2.34,2.34Z"/><path class="cls-8" d="M136.21,215.48a1.83,1.83,0,1,0,1.83-1.83A1.83,1.83,0,0,0,136.21,215.48Z"/><circle class="cls-7" cx="140.73" cy="246.09" r="1.19"/><path class="cls-7" d="M129.67,235.88a1.2,1.2,0,1,0,1.2-1.19A1.19,1.19,0,0,0,129.67,235.88Z"/><path class="cls-7" d="M139.06,224.82a1.2,1.2,0,1,0,1.19-1.19A1.2,1.2,0,0,0,139.06,224.82Z"/><circle class="cls-7" cx="153.72" cy="233.02" r="1.19"/><circle class="cls-7" cx="152.42" cy="249.27" r="1.19"/><path class="cls-7" d="M169.82,228a1.2,1.2,0,1,0,1.2-1.19A1.19,1.19,0,0,0,169.82,228Z"/><path class="cls-7" d="M131.91,252.79a1.19,1.19,0,1,0,1.19-1.19A1.19,1.19,0,0,0,131.91,252.79Z"/><path class="cls-7" d="M133.47,268.2a1.19,1.19,0,1,0,1.19-1.19A1.19,1.19,0,0,0,133.47,268.2Z"/><path class="cls-7" d="M121,265.86a1.19,1.19,0,1,0,1.19-1.19A1.19,1.19,0,0,0,121,265.86Z"/><circle class="cls-7" cx="129.88" cy="285.04" r="1.19"/><circle class="cls-7" cx="114.2" cy="287" r="1.19"/><path class="cls-7" d="M107.22,298.7a1.19,1.19,0,1,0,1.19-1.19A1.19,1.19,0,0,0,107.22,298.7Z"/><circle class="cls-7" cx="101.06" cy="293.95" r="1.19"/><circle class="cls-7" cx="97.03" cy="306.83" r="1.19"/></g><path d="M124.44,246.35s-1.16,16.07-8.57,23V255.63Z"/><circle class="cls-41" cx="160.78" cy="192.42" r="14.33" transform="translate(-41.27 43.92) rotate(-13.8)"/><path d="M149.14,182s.1-9.92,14.74-6.55,17.42,15.4,16.27,23.35-7.25,4.75-11.5,4.47c-4.79-.31-2.56-6.83-2.56-6.83a14.5,14.5,0,0,1-8-11.21,4.59,4.59,0,0,0-1.56,3.44,7.43,7.43,0,0,1,1.3-7.28C151,182.72,149.14,182,149.14,182Z"/><line class="cls-4" x1="164.23" y1="295.21" x2="159.95" y2="291.68"/><path class="cls-16" d="M85.25,315.73h19.83s44.69-2.82,41.51-30.82a42.4,42.4,0,0,1,9.24-31.12l-15.52,7.68s-7.44,14.9-5.15,25.46c2.72,12.55-29.83,24.87-44.58,21.38Z"/><path class="cls-42" d="M28.45,310.61h2c2.84-4.93,9.52-5.15,9.52-5.15l78.07-86c19.05-20.06,14.39,13.45-2.29,46.76L66.8,312.82a10.6,10.6,0,0,1-7.3,2.91H23.33A5.12,5.12,0,0,1,28.45,310.61Z"/><path class="cls-4" d="M211.26,307.24l-5.6-44.35a22.76,22.76,0,0,0-14.27-18.38"/><path class="cls-4" d="M146.45,258.42s-6.54,2.13-11.45-1.51"/><path class="cls-4" d="M199.38,263.06s-2.09,1.08-11.79-1.6"/><path class="cls-4" d="M69.13,310.61l46.61-44.35C132.42,233,137.08,199.44,118,219.5"/><path class="cls-4" d="M85.25,315.73h19.83s44.69-2.82,41.51-30.82a42.4,42.4,0,0,1,9.24-31.12"/><polyline class="cls-4" points="120.54 271.24 115.87 273.08 97.75 298.32"/><path class="cls-43" d="M191.26,243.24s-2.44-7.27-12.63-8.67c-7.44-1-11.43,2.47-13.56,6.23a15.83,15.83,0,0,0-1.44,11.61l1.76,7.06a5.27,5.27,0,0,0,7.14,3.59h0c2.17-1.54.78-5.18.78-5.18h0c3,2,5.33,1.09,7.16-2l2.76-.76C188.05,253.78,191.88,248.39,191.26,243.24Z"/><line class="cls-4" x1="173.31" y1="257.88" x2="171.02" y2="247.71"/><line class="cls-4" x1="179.04" y1="245.03" x2="180.47" y2="255.89"/><line class="cls-4" x1="188.14" y1="244.43" x2="188.31" y2="251.84"/><path class="cls-4" d="M137.22,269.16c-1.72,5.2-3.29,12.11-2.06,17.77,1.51,7-7.9,13.9-19.09,18.06"/><line class="cls-4" x1="161.55" y1="250.96" x2="127.88" y2="267.61"/><path class="cls-4" d="M130.87,210.38s9.94,3.49,21,15.29c0,0,10.41,14.78,15.42,10.93"/><line class="cls-4" x1="160.78" y1="214.04" x2="165.72" y2="225.65"/><polyline class="cls-4" points="96.47 276.65 88.58 269.88 92.53 276.65"/><line class="cls-4" x1="102.16" y1="236.98" x2="37.05" y2="308.66"/><line class="cls-4" x1="30.44" y1="310.61" x2="33.03" y2="310.61"/><path class="cls-4" d="M49.2,313.78s-1,2-4.73,2"/><line class="cls-4" x1="59.5" y1="315.73" x2="23.36" y2="315.73"/><path class="cls-5" d="M223.68,315.74s1.07-11.94-14-11.94c-9.29,0-11.77,6.68-11.77,6.68L171,311.76c-.18-2.39-2.3-3.94-5.35-5.42l1.22,9.4Z"/><line class="cls-4" x1="166.89" y1="315.74" x2="162.38" y2="280.9"/><path class="cls-4" d="M320,300.56s-2.72,1.21-.63,6.68"/><polyline class="cls-4" points="306.04 315.74 332.5 315.74 340.21 294.68"/><path class="cls-4" d="M146.45,315.74h77.23s.42-7.52-6.29-10.36"/><path class="cls-7" d="M157.82,181.34s-5.81,13.1,19.53,20.74C177.35,202.08,162.59,193.38,157.82,181.34Z"/><path class="cls-44" d="M168.61,198.47c-2,.94-3.12,2.93-2.42,4.45s2.92,2,4.95,1,3.12-2.93,2.42-4.44S170.65,197.53,168.61,198.47Z"/><path class="cls-4" d="M172.53,200.28a2,2,0,0,0-1.59-1.16c-1.08,0-3.46,1-3.65,2.29"/><line class="cls-4" x1="169.88" y1="202.08" x2="169.88" y2="199.38"/><path class="cls-7" d="M157.82,181.34s1,11.2,4.77,16.89C162.59,198.23,151.86,188.3,157.82,181.34Z"/><path class="cls-7" d="M157.82,181.34s-7.57.51-10.69,6.72C147.13,188.06,146.6,176.73,157.82,181.34Z"/><path class="cls-4" d="M205.64,304.27s-7.71,1.78-8.24,8.67"/><path class="cls-4" d="M330.57,294.39s-8,4-5.65,14.93"/><path class="cls-4" d="M162.59,198.23c-11.14-10.93-4.77-16.89-4.77-16.89s-8.14.58-10.69,6.72"/><path class="cls-4" d="M157.44,186.55s.47,4.62,6.32,9.24"/><path class="cls-7" d="M68.54,311.61h.66a1,1,0,0,0-.14-2c-.64.05-15.66.9-18.89-14.54a1,1,0,1,0-1.94.4C51.42,310.72,65.35,311.61,68.54,311.61Z"/><path class="cls-4" d="M139.51,268.43a3.58,3.58,0,1,0,2.68-3.75A3.27,3.27,0,0,0,139.51,268.43Z"/><path class="cls-4" d="M221.47,275.68a3.58,3.58,0,1,0,4.5-1A3.28,3.28,0,0,0,221.47,275.68Z"/><path class="cls-4" d="M211.88,281.34a3.53,3.53,0,1,0,5.08.54A3.61,3.61,0,0,0,211.88,281.34Z"/><path class="cls-4" d="M137.2,286.52a3.58,3.58,0,1,0,3.58-2.9A3.29,3.29,0,0,0,137.2,286.52Z"/><path class="cls-4" d="M127.61,300.86a3.58,3.58,0,1,0,4.42,1.3A3.28,3.28,0,0,0,127.61,300.86Z"/><path class="cls-4" d="M109.49,308.23a2.8,2.8,0,1,0,2.42,2.67A2.56,2.56,0,0,0,109.49,308.23Z"/><path class="cls-4" d="M93.09,309.85a2.24,2.24,0,1,0,1.25,2.6A2.06,2.06,0,0,0,93.09,309.85Z"/><path class="cls-45" d="M400.57,243.6l-2.93-14.88s4.37-1.79,5.68.69,16.74,24.82,16.74,24.82Z"/><path class="cls-5" d="M372.27,278.5s11.78-24.4,47.86-9.59v16.7S378.8,301,372.27,278.5Z"/><path d="M425.5,279.58s-5.69-2.82-5.69-9.08c0,0-3.12-1.18-2.81-5.59S430,241.7,430,241.7s6.23-9.65,22.53-3.21c19,7.49,6.41,28.86,6.41,28.86Z"/><path class="cls-5" d="M552,104.81s18.64-25.67,50.52,5.63L599.28,151l-55.72-7.62Z"/><path class="cls-5" d="M612.82,291.31s-2.15,24.42-53.81,24.42V280.16l47.88-5.08Z"/><path class="cls-46" d="M399.76,235.26l20.3,19,.17,35.62,15.95-20.69c13.45,0,36.16-6.24,40.26,6.57l12.78,40H404.47a21.26,21.26,0,0,1-19.66-29.33L398.1,254s-.56-12.76-7.31-19h0A6.8,6.8,0,0,1,399.76,235.26Z"/><path d="M390.75,271.94s.06,7.37,29.38,8.22v5.45h-35Z"/><path d="M420.23,289.85l-.1-20.94s-14.64,16.88-47.86,9.59c0,0-.75,37.24,32.2,37.24h84.74l-54-55.05Z"/><polygon points="448.71 242.94 598.67 159.81 595.74 196.94 520.23 247.79 448.71 242.94"/><path class="cls-7" d="M447.78,242.47h0a26.84,26.84,0,0,1,19.37-4.31l55.75.16,49.85-157L552.94,58.22l2.67-4.38L605.5,72.06l-15.61,198a49.59,49.59,0,0,1-49.43,45.69h-45c-19,0-41.6-15.63-55.49-31.3C429.21,272.32,434.38,251.58,447.78,242.47Z"/><path class="cls-47" d="M602.47,110.44s-22.4,19.94-40.39,4.53l-9.14,28.76L599.28,151Z"/><path class="cls-14" d="M602.47,110.44v0L589.89,270.05a49.58,49.58,0,0,1-49.43,45.68H528c-4.1-18.59-5.56-45.09-5.05-77.4L552,104.81S559,154.38,602.47,110.44Z"/><path class="cls-7" d="M538.32,315.73H495.45c-19,0-41.6-15.62-55.49-31.28-10.75-12.13-5.58-32.87,7.82-42a26.7,26.7,0,0,1,19.36-4.31l55.76.16C536.71,254.66,539.41,283.13,538.32,315.73Z"/><polygon class="cls-2" points="559.01 315.74 550.57 291.31 593.52 238.49 604.62 298.09 628.79 311.7 628.79 315.74 559.01 315.74"/><path class="cls-16" d="M593.08,229.63l-3.19,40.42a49.58,49.58,0,0,1-49.43,45.68H528c-4.1-18.59-5.56-45.09-5.05-77.4l13.54-62.25S527.72,240,593.08,229.63Z"/><polygon points="603.79 304.75 592.66 299.09 589.68 279.64 601.67 279.64 604.62 298.09 616.44 304.75 603.79 304.75"/><polyline class="cls-26" points="616.44 304.75 603.79 304.75 592.66 299.09 589.68 279.64"/><path class="cls-26" d="M602,303.84l10.81-1.13L598.34,302s6.59-2.27,9.37-2.15l-15.05-.74s9.81-2.61,11.72-2.49c0,0-6-3.46-12.28-1.19,0,0,7.77-3.36,11.69-2.5L591,288.47l12-.15"/><polygon class="cls-6" points="628.79 311.7 557.61 311.7 559.01 315.73 628.79 315.74 628.79 311.7"/><circle class="cls-7" cx="577.94" cy="296.94" r="7.88" transform="translate(155.76 790.86) rotate(-76.67)"/><path d="M596.34,290.4s-24,12.52-24,25.34h-23S574.73,290.4,596.34,290.4Z"/><path d="M435.2,260.68,466,256l-18.22-13.56s.93-4.29,14.36-7,45.64,1.92,45.64,1.92,10.4-11.91,15.12.9c0,0,36.91,33.8,5.05,77.41H489.21S412.5,303.62,435.2,260.68Z"/><path class="cls-14" d="M612.82,291.31S596.68,278.5,559,315.73h-69.8L543.16,229c13.24-21.31,45.77-15.18,50.36,9.49Z"/><path class="cls-16" d="M548.79,286.14s-5.54,29.6-26.85,29.6H559Z"/><polyline class="cls-4" points="544.8 274.58 559.01 315.73 628.79 315.74 628.79 311.7"/><line class="cls-4" x1="553.83" y1="300.75" x2="542.92" y2="289.06"/><path class="cls-4" d="M511.34,280.16,543.16,229c13.24-21.31,45.77-15.18,50.36,9.49l19.3,52.82s-9.57-7.05-29.29,4.77"/><path class="cls-4" d="M522.9,238.33,552,104.81s1.22,9.21,4.94,14.1"/><polygon class="cls-3" points="470.6 257.06 486.04 271.23 491.87 257.96 470.6 257.06"/><path class="cls-48" d="M609.65,167.17a9.27,9.27,0,0,0-5.3-6.65l.53-15.31a11.11,11.11,0,0,0-5.85,8.92l-.69,8.74h0l-.47,6L587.6,176a11.08,11.08,0,0,0-4.77,8.92l-.16,9.18a4.94,4.94,0,0,0-.64,7.08l16.31-5.38c3.1-1.42,6.64-3.41,8.21-5.17C611.93,184.57,611,175.32,609.65,167.17Z"/><line class="cls-4" x1="582.67" y1="194.06" x2="593.98" y2="189.51"/><line class="cls-4" x1="582.03" y1="201.14" x2="598.34" y2="195.76"/><line class="cls-4" x1="582.79" y1="187.05" x2="595.82" y2="179.93"/><line class="cls-4" x1="587.6" y1="175.96" x2="602.47" y2="165.67"/><path class="cls-49" d="M436.69,241s.9,6.58,11.09,1.48c0,0,6.37,5.56,1.55,11.18s-14.13,7-14.13,7,.72-3.62-14-9.06Z"/><path class="cls-26" d="M439,269s10.43,1.32,17.6-3.58"/><path class="cls-26" d="M464.22,238.49s8.07,2,4.9,13.13"/><path class="cls-26" d="M424.7,261.85s3.08,4.12,8.05,3.62"/><path class="cls-26" d="M440,242s4.57-1.9,7.81.51"/><line class="cls-26" x1="426.77" y1="277.11" x2="434.61" y2="261.85"/><line class="cls-26" x1="453.81" y1="266.98" x2="446.25" y2="271.31"/><path class="cls-26" d="M483,235l24.79,2.46s5.25-6,10.65-4.68"/><line class="cls-26" x1="507.78" y1="237.42" x2="493.27" y2="271.26"/><path class="cls-26" d="M491.87,230s1.74,4.67,10.11,6.83"/><path class="cls-26" d="M438,292.8a42.23,42.23,0,0,0,21.12,14.06"/><path class="cls-26" d="M493.27,283.61s7.32,1.34,7.25,7.7"/><polyline class="cls-26" points="420.23 298.09 420.23 289.85 422.85 295.16"/><path class="cls-26" d="M377,279.4a69.15,69.15,0,0,0,20.62.18"/><path class="cls-50" d="M482.06,297.93a1,1,0,0,1-.7-.29c-4.44-4.43-3-13.26-1.59-21.8a74.37,74.37,0,0,0,1.3-11.25c0-9.48-15.94-15.5-16.11-15.56a1,1,0,0,1,.69-1.86c.71.26,17.4,6.57,17.4,17.42a76.11,76.11,0,0,1-1.33,11.57c-1.32,8-2.68,16.36,1,20.08a1,1,0,0,1,0,1.4A1,1,0,0,1,482.06,297.93Z"/><path class="cls-50" d="M453.81,311.52a1,1,0,0,1-.89-.55c-5.67-11.34,1.8-21.4,7.8-29.48,2.27-3.07,4.42-6,5.4-8.4a6.76,6.76,0,0,0,0-5.57c-1.83-4-7.38-5.88-7.43-5.9a1,1,0,0,1-.63-1.25,1,1,0,0,1,1.25-.63c.26.09,6.41,2.19,8.61,6.94a8.73,8.73,0,0,1,0,7.15c-1.08,2.67-3.3,5.66-5.65,8.84-5.68,7.65-12.74,17.17-7.62,27.42a1,1,0,0,1-.44,1.33A1,1,0,0,1,453.81,311.52Z"/><line class="cls-4" x1="434.61" y1="315.74" x2="538.32" y2="315.74"/><polyline class="cls-4" points="569.97 128.64 563.16 184.93 566.13 188.01 561.18 188.49 566.61 193.28 558.45 192.72 561.73 196.28 559.01 216.99"/><path class="cls-4" d="M572.14,304,559,260.68h-5.18l2.36-6.77L552,256.59l-1.82-10.32-2.67,19.15-2.89-2-17.13,32.26a17.18,17.18,0,0,1-15.15,9.11H496.05"/><path class="cls-4" d="M559,299.83s4.45-12.37,29.32-22.72"/><path class="cls-4" d="M553.83,134.25s14.21,19.47,35.48,2.62"/><path d="M432.11,256.88a48.15,48.15,0,0,0-10.88-5.26L436.69,241S432.75,250.46,432.11,256.88Z"/><circle class="cls-51" cx="422.85" cy="237.3" r="14.33"/><path class="cls-5" d="M427.48,204.86S438,210.09,434.61,217s-10.69,17.45-10.69,17.45l2.85,3.38-1.23,2a9.69,9.69,0,0,1,3.42,5.37c.56,3.39-2.72,8.5-2.72,8.5l-6.18.57L405.9,241l2.62-18.82,1.8,2.35,3.61-13.47,2,2.26,6.29-15.61,1.15,5.57Z"/><path class="cls-10" d="M427.61,251.12c-12.14-2.37-8.57-8.25-7.95-9.87s4.26-6.81,4.26-6.81l2.85,3.38-1.22,2a9.7,9.7,0,0,1,3.41,5.37C429.26,247,428.43,249.37,427.61,251.12Z"/><path class="cls-52" d="M429.82,245.16c0,1.82-2,3.29-4.45,3.29s-4.45-1.47-4.45-3.29,2-3.29,4.45-3.29S429.82,243.34,429.82,245.16Z"/><path class="cls-4" d="M424.51,205.65s-2.19-.08-1.66,3.23,5.18,7.33,9.9,6.15"/><path class="cls-4" d="M422.85,215.24s1.85,3.06,7.84,3.85l-7.84.65,3,1.07L422.77,222,420.06,226"/><path class="cls-4" d="M413.18,231.25s.16,2.09,3.8,3.19"/><path class="cls-4" d="M420.06,254.23l-19.22-17.95s-4.86-5.57-10-1.29c0,0,5.69,3.56,7.31,19l-5.75,14"/><line class="cls-4" x1="397.64" y1="228.72" x2="398.8" y2="234.59"/><path class="cls-4" d="M372.27,278.5a28.23,28.23,0,0,1,17.18-13.15"/><path class="cls-4" d="M422.43,246.33a2.1,2.1,0,0,1,1.06-2.73c1.84-.95,4.27.2,4.27.2"/><line class="cls-4" x1="424.7" y1="243.25" x2="425.37" y2="245.65"/><line class="cls-4" x1="426.77" y1="237.82" x2="425.54" y2="239.79"/><line class="cls-4" x1="424.7" y1="237.3" x2="422.85" y2="241"/><path class="cls-4" d="M420.59,239.79s-3.82,5.14-.53,8"/><path class="cls-26" d="M375.83,296.66s5.12,19.08,28.64,19.08"/><path class="cls-4" d="M412.4,247.07s3.39,4.42,2.68,8.1"/><path class="cls-2" d="M552.94,58.22l19.81,23.14c-.44.23-6.15,19.38-6.15,19.38l11.84,6.18c13,8,24.24,1,24.24,1l2.82-35.86L555.61,53.84Z"/><polygon class="cls-7" points="573.02 65.56 572.66 71.75 564.21 71.38 552.94 58.22 573.02 65.56"/><polygon class="cls-6" points="552.94 58.22 605.09 77.3 605.5 72.06 555.61 53.84 552.94 58.22"/><path d="M572.75,81.36l-8.54-10,8.45.37,11.17,9-5.39,26.12s-13.42,1.94-14.23-7.07Z"/><path class="cls-7" d="M601.61,92.62a7.19,7.19,0,1,1-7.19-7.19A7.19,7.19,0,0,1,601.61,92.62Z"/><polyline class="cls-26" points="578.44 106.92 583.83 80.8 572.66 71.75 564.21 71.38"/><path class="cls-26" d="M566.15,95.65s4.63,6.08,14.63,5.58l-13.23-8.61,14.66,2.29-12.63-6.68,13.63,1.11-11.64-5.42,12.57-.5-11.39-2.06,8.35-4.89L570,78.11l6.69-5.53-9.83,1.86"/><path class="cls-4" d="M599.75,97.44a7.19,7.19,0,1,1-5.33-12"/><line class="cls-4" x1="605.5" y1="72.06" x2="600.23" y2="138.99"/><line class="cls-4" x1="595.74" y1="196.94" x2="592.65" y2="234.99"/><polyline class="cls-4" points="563.28 70.3 552.94 58.22 555.61 53.84"/><line class="cls-4" x1="562.64" y1="61.77" x2="594.42" y2="73.4"/><polygon class="cls-7" points="599.81 311.7 603.79 304.75 616.44 304.75 628.79 311.7 599.81 311.7"/><line class="cls-4" x1="581.04" y1="311.7" x2="613.81" y2="311.7"/><path class="cls-4" d="M583.83,109.48s8.6,4.29,18.85-1.56"/><path class="cls-4" d="M564.27,126.62s13.18,10.92,38.2-16.18"/><line class="cls-4" x1="560.6" y1="119.62" x2="564.21" y2="108.26"/><line class="cls-4" x1="408.52" y1="222.18" x2="405.9" y2="241"/><polyline class="cls-4" points="413.93 211.06 415.89 213.32 422.18 197.71"/></g></g></svg>