<svg width="28" height="27" viewBox="0 0 28 27" fill="none" xmlns="http://www.w3.org/2000/svg">
<path d="M9.33417 5.28927C9.2527 5.37074 9.19087 5.46893 9.13922 5.57659L9.1334 5.57077L0.974859 23.9493L0.98286 23.9573C0.831561 24.2505 1.0847 24.8469 1.60333 25.3663C2.12197 25.8849 2.71844 26.1381 3.01159 25.9868L3.01886 25.994L21.3974 17.8348L21.3916 17.8282C21.4985 17.7773 21.5967 17.7155 21.6789 17.6326C22.8151 16.4964 20.9726 12.8121 17.5647 9.40345C14.1554 5.99485 10.4711 4.15306 9.33417 5.28927V5.28927Z" fill="#DD2E44"/>
<path d="M10.3336 8.5708L1.17999 23.4869L0.974859 23.9488L0.98286 23.9568C0.831561 24.25 1.0847 24.8464 1.60333 25.3658C1.77209 25.5345 1.9474 25.6626 2.11906 25.771L13.2432 12.2078L10.3336 8.5708Z" fill="#EA596E"/>
<path d="M17.6169 9.34629C21.0138 12.7447 22.9 16.3672 21.8278 17.4379C20.7563 18.5101 17.1339 16.6247 13.7347 13.2277C10.337 9.82928 8.4516 6.20537 9.52307 5.1339C10.5953 4.06244 14.2177 5.94787 17.6169 9.34629V9.34629Z" fill="#A0041E"/>
<path d="M14.4003 9.74124C14.2556 9.85835 14.0664 9.91946 13.8664 9.89763C13.235 9.82926 12.704 9.60958 12.3323 9.26261C11.9388 8.89527 11.7446 8.4021 11.7977 7.90819C11.8908 7.04113 12.7608 6.24535 14.2439 6.40538C14.8208 6.46721 15.0783 6.28172 15.087 6.19297C15.0972 6.10496 14.8855 5.86855 14.3087 5.806C13.6773 5.73762 13.1463 5.51795 12.7738 5.17097C12.3803 4.80364 12.1854 4.31046 12.2392 3.81655C12.3338 2.94949 13.203 2.15371 14.6847 2.31447C15.1052 2.35956 15.327 2.273 15.4209 2.21699C15.4958 2.17117 15.5256 2.12752 15.5285 2.10206C15.5372 2.01405 15.3285 1.77764 14.7502 1.71509C14.3509 1.67144 14.0613 1.31356 14.1057 0.913489C14.1486 0.514145 14.5058 0.225367 14.9066 0.269011C16.3883 0.428312 17.0692 1.39067 16.9753 2.25846C16.8808 3.12697 16.0115 3.9213 14.5283 3.762C14.1079 3.71617 13.8882 3.80346 13.7937 3.85947C13.7187 3.90457 13.6882 3.94894 13.6853 3.97367C13.6758 4.06241 13.886 4.29809 14.4643 4.36065C15.946 4.52068 16.6269 5.4823 16.5331 6.35009C16.4392 7.21716 15.57 8.01294 14.0875 7.85218C13.6671 7.80708 13.446 7.89437 13.3514 7.94965C13.2758 7.9962 13.2467 8.03985 13.2437 8.06458C13.2343 8.1526 13.4445 8.389 14.0221 8.45156C14.4207 8.4952 14.7109 8.85381 14.6665 9.25316C14.6462 9.45246 14.5451 9.62486 14.4003 9.74124V9.74124Z" fill="#AA8DD8"/>
<path d="M23.1778 16.4686C24.613 16.0634 25.6029 16.7035 25.8386 17.5437C26.0743 18.3831 25.5637 19.4458 24.1292 19.8495C23.5691 20.0066 23.4011 20.2743 23.4236 20.3594C23.4484 20.4453 23.7328 20.5864 24.2914 20.4285C25.7259 20.0248 26.7159 20.6649 26.9515 21.5044C27.1887 22.3445 26.6766 23.4058 25.2414 23.8102C24.6821 23.9673 24.5133 24.2358 24.538 24.3209C24.562 24.406 24.8457 24.5471 25.4051 24.39C25.7906 24.2816 26.1936 24.5063 26.302 24.8926C26.4096 25.2796 26.1849 25.6811 25.7979 25.7902C24.3642 26.1939 23.3735 25.5553 23.1363 24.7144C22.9006 23.875 23.412 22.8137 24.8479 22.4092C25.408 22.2514 25.576 21.9844 25.5513 21.8986C25.528 21.8135 25.2443 21.6717 24.6857 21.8288C23.2498 22.2332 22.2605 21.5946 22.0241 20.7529C21.7877 19.9135 22.2991 18.8522 23.7343 18.4471C24.2929 18.2907 24.4609 18.0216 24.4376 17.9372C24.4129 17.8513 24.13 17.7102 23.5706 17.8673C23.1836 17.9765 22.7828 17.751 22.6737 17.3647C22.5653 16.9792 22.7908 16.5777 23.1778 16.4686V16.4686Z" fill="#77B255"/>
<path d="M17.6089 14.5065C17.395 14.5065 17.1841 14.4127 17.04 14.2338C16.7891 13.9195 16.8407 13.462 17.1535 13.211C17.3121 13.0837 21.0946 10.113 26.4403 10.8775C26.8381 10.9343 27.1146 11.3023 27.0578 11.7002C27.0011 12.0974 26.6359 12.3767 26.2344 12.3171C21.5114 11.6464 18.097 14.3203 18.0635 14.3472C17.9282 14.4549 17.7682 14.5065 17.6089 14.5065V14.5065Z" fill="#AA8DD8"/>
<path d="M5.06357 11.4808C4.99446 11.4808 4.92391 11.4706 4.85408 11.4503C4.46928 11.3346 4.25106 10.9295 4.36672 10.5447C5.19086 7.80018 5.9379 3.42049 5.01992 2.27847C4.91736 2.14899 4.76242 2.02169 4.40745 2.04861C3.72515 2.10098 3.78989 3.54051 3.79061 3.55506C3.82116 3.95585 3.52002 4.30501 3.11995 4.33483C2.71333 4.35956 2.37 4.06424 2.34017 3.66344C2.26525 2.66035 2.57731 0.728371 4.29834 0.598166C5.06648 0.539974 5.70441 0.806931 6.15467 1.36703C7.87934 3.51359 6.12848 9.73652 5.76042 10.9629C5.66586 11.2779 5.37635 11.4808 5.06357 11.4808Z" fill="#77B255"/>
<path d="M19.4251 7.84334C20.0277 7.84334 20.5162 7.35484 20.5162 6.75224C20.5162 6.14964 20.0277 5.66113 19.4251 5.66113C18.8225 5.66113 18.334 6.14964 18.334 6.75224C18.334 7.35484 18.8225 7.84334 19.4251 7.84334Z" fill="#5C913B"/>
<path d="M2.33176 14.3896C3.13522 14.3896 3.78656 13.7383 3.78656 12.9348C3.78656 12.1313 3.13522 11.48 2.33176 11.48C1.52829 11.48 0.876953 12.1313 0.876953 12.9348C0.876953 13.7383 1.52829 14.3896 2.33176 14.3896Z" fill="#9266CC"/>
<path d="M24.5188 15.1173C25.1214 15.1173 25.6099 14.6288 25.6099 14.0262C25.6099 13.4236 25.1214 12.9351 24.5188 12.9351C23.9162 12.9351 23.4277 13.4236 23.4277 14.0262C23.4277 14.6288 23.9162 15.1173 24.5188 15.1173Z" fill="#5C913B"/>
<path d="M17.972 23.8463C18.5746 23.8463 19.0631 23.3578 19.0631 22.7552C19.0631 22.1526 18.5746 21.6641 17.972 21.6641C17.3694 21.6641 16.8809 22.1526 16.8809 22.7552C16.8809 23.3578 17.3694 23.8463 17.972 23.8463Z" fill="#5C913B"/>
<path d="M21.2439 4.20648C22.0473 4.20648 22.6987 3.55515 22.6987 2.75168C22.6987 1.94821 22.0473 1.29688 21.2439 1.29688C20.4404 1.29688 19.7891 1.94821 19.7891 2.75168C19.7891 3.55515 20.4404 4.20648 21.2439 4.20648Z" fill="#FFCC4D"/>
<path d="M24.5188 7.1158C25.1214 7.1158 25.6099 6.6273 25.6099 6.0247C25.6099 5.4221 25.1214 4.93359 24.5188 4.93359C23.9162 4.93359 23.4277 5.4221 23.4277 6.0247C23.4277 6.6273 23.9162 7.1158 24.5188 7.1158Z" fill="#FFCC4D"/>
<path d="M22.3352 10.026C22.9378 10.026 23.4263 9.53745 23.4263 8.93485C23.4263 8.33225 22.9378 7.84375 22.3352 7.84375C21.7326 7.84375 21.2441 8.33225 21.2441 8.93485C21.2441 9.53745 21.7326 10.026 22.3352 10.026Z" fill="#FFCC4D"/>
<path d="M6.33329 18.0269C6.93589 18.0269 7.42439 17.5384 7.42439 16.9358C7.42439 16.3332 6.93589 15.8447 6.33329 15.8447C5.73069 15.8447 5.24219 16.3332 5.24219 16.9358C5.24219 17.5384 5.73069 18.0269 6.33329 18.0269Z" fill="#FFCC4D"/>
</svg>
