<svg width="22" height="19" viewBox="0 0 22 19" fill="none" xmlns="http://www.w3.org/2000/svg">
<path d="M19.125 18.0625H2.875C2.44402 18.0625 2.0307 17.8913 1.72595 17.5865C1.4212 17.2818 1.25 16.8685 1.25 16.4375V5.0625C1.25 4.63152 1.4212 4.2182 1.72595 3.91345C2.0307 3.60871 2.44402 3.4375 2.875 3.4375H6.1244L7.7494 1H14.2494L15.8744 3.4375H19.125C19.556 3.4375 19.9693 3.60871 20.274 3.91345C20.5788 4.2182 20.75 4.63152 20.75 5.0625V16.4375C20.75 16.8685 20.5788 17.2818 20.274 17.5865C19.9693 17.8913 19.556 18.0625 19.125 18.0625Z" stroke="black" stroke-width="1.5" stroke-linecap="round" stroke-linejoin="round"/>
<path d="M11 14C13.0193 14 14.6562 12.363 14.6562 10.3438C14.6562 8.32446 13.0193 6.6875 11 6.6875C8.98071 6.6875 7.34375 8.32446 7.34375 10.3438C7.34375 12.363 8.98071 14 11 14Z" stroke="black" stroke-width="1.5" stroke-linecap="round" stroke-linejoin="round"/>
</svg>
