<svg width="26" height="22" viewBox="0 0 26 22" fill="none" xmlns="http://www.w3.org/2000/svg">
<path d="M24.4428 10.3456L3.32845 1.47758C3.15082 1.40297 2.94706 1.37081 2.7444 1.38538C2.54174 1.39996 2.34985 1.46057 2.19435 1.55913C2.03886 1.65769 1.92718 1.7895 1.87424 1.93694C1.82131 2.08437 1.82963 2.24042 1.8981 2.38421L5.88073 10.7477C5.95841 10.9109 5.95841 11.0891 5.88073 11.2522L1.8981 19.6158C1.82963 19.7596 1.8213 19.9156 1.87424 20.063C1.92718 20.2105 2.03886 20.3423 2.19435 20.4408C2.34985 20.5394 2.54174 20.6 2.7444 20.6146C2.94706 20.6292 3.15082 20.597 3.32845 20.5224L24.4428 11.6544C24.5979 11.5892 24.727 11.4943 24.8169 11.3792C24.9068 11.2642 24.9542 11.1333 24.9542 11C24.9542 10.8667 24.9068 10.7358 24.8169 10.6207C24.727 10.5057 24.5979 10.4108 24.4428 10.3456V10.3456Z" stroke="white" stroke-width="2" stroke-linecap="round" stroke-linejoin="round"/>
<path d="M6 11H14" stroke="white" stroke-width="2" stroke-linecap="round" stroke-linejoin="round"/>
</svg>
