<svg width="21" height="5" viewBox="0 0 21 5" fill="none" xmlns="http://www.w3.org/2000/svg">
<path d="M10.1094 4.54092C11.2139 4.54092 12.1094 3.64549 12.1094 2.54092C12.1094 1.43635 11.2139 0.540924 10.1094 0.540924C9.00481 0.540924 8.10938 1.43635 8.10938 2.54092C8.10938 3.64549 9.00481 4.54092 10.1094 4.54092Z" fill="#797979"/>
<path d="M18.1094 4.54092C19.2139 4.54092 20.1094 3.64549 20.1094 2.54092C20.1094 1.43635 19.2139 0.540924 18.1094 0.540924C17.0048 0.540924 16.1094 1.43635 16.1094 2.54092C16.1094 3.64549 17.0048 4.54092 18.1094 4.54092Z" fill="#797979"/>
<path d="M2.10938 4.54092C3.21394 4.54092 4.10938 3.64549 4.10938 2.54092C4.10938 1.43635 3.21394 0.540924 2.10938 0.540924C1.00481 0.540924 0.109375 1.43635 0.109375 2.54092C0.109375 3.64549 1.00481 4.54092 2.10938 4.54092Z" fill="#797979"/>
</svg>
