<svg width="29" height="29" viewBox="0 0 29 29" fill="none" xmlns="http://www.w3.org/2000/svg">
<path d="M3.68359 11.504H8.93359V22.879H3.68359C3.45153 22.879 3.22897 22.7868 3.06488 22.6227C2.90078 22.4587 2.80859 22.2361 2.80859 22.004V12.379C2.80859 12.147 2.90078 11.9244 3.06488 11.7603C3.22897 11.5962 3.45153 11.504 3.68359 11.504V11.504Z" stroke="#FF185D" stroke-width="1.8" stroke-linecap="round" stroke-linejoin="round"/>
<path d="M8.93359 11.504L13.3086 2.75403C13.7682 2.75403 14.2233 2.84456 14.648 3.02045C15.0726 3.19634 15.4585 3.45415 15.7835 3.77915C16.1085 4.10416 16.3663 4.49 16.5422 4.91464C16.7181 5.33928 16.8086 5.7944 16.8086 6.25403V8.87903H23.5762C23.8244 8.87903 24.0697 8.9318 24.2959 9.03384C24.522 9.13588 24.7239 9.28485 24.8882 9.47087C25.0524 9.6569 25.1752 9.87572 25.2484 10.1128C25.3216 10.3499 25.3435 10.5999 25.3127 10.8461L24.0002 21.3461C23.9473 21.7693 23.7416 22.1587 23.4219 22.441C23.1021 22.7232 22.6903 22.879 22.2637 22.879H8.93359" stroke="#FF185D" stroke-width="1.8" stroke-linecap="round" stroke-linejoin="round"/>
</svg>
