<svg width="29" height="29" viewBox="0 0 29 29" fill="none" xmlns="http://www.w3.org/2000/svg">
<path d="M10.5898 11.8749H17.5898" stroke="#5CDA8E" stroke-width="1.8" stroke-linecap="round" stroke-linejoin="round"/>
<path d="M10.5898 15.3749H17.5898" stroke="#5CDA8E" stroke-width="1.8" stroke-linecap="round" stroke-linejoin="round"/>
<path d="M16.46 21.9248L14.8402 24.6244C14.7624 24.754 14.6524 24.8612 14.521 24.9357C14.3895 25.0101 14.2409 25.0493 14.0898 25.0493C13.9387 25.0493 13.7902 25.0101 13.6587 24.9357C13.5272 24.8612 13.4173 24.754 13.3395 24.6244L11.7197 21.9248C11.642 21.7952 11.532 21.688 11.4005 21.6135C11.2691 21.5391 11.1205 21.5 10.9694 21.5H4.46484C4.23278 21.5 4.01022 21.4078 3.84613 21.2437C3.68203 21.0796 3.58984 20.857 3.58984 20.625V6.625C3.58984 6.39294 3.68203 6.17038 3.84613 6.00628C4.01022 5.84219 4.23278 5.75 4.46484 5.75H23.7148C23.9469 5.75 24.1695 5.84219 24.3336 6.00628C24.4977 6.17038 24.5898 6.39294 24.5898 6.625V20.625C24.5898 20.8571 24.4977 21.0796 24.3336 21.2437C24.1695 21.4078 23.9469 21.5 23.7148 21.5L17.2103 21.5C17.0592 21.5 16.9106 21.5391 16.7792 21.6135C16.6477 21.688 16.5377 21.7952 16.46 21.9248V21.9248Z" stroke="#5CDA8E" stroke-width="1.8" stroke-linecap="round" stroke-linejoin="round"/>
</svg>
