<svg width="29" height="29" viewBox="0 0 29 29" fill="none" xmlns="http://www.w3.org/2000/svg">
<path d="M10.543 12.1865H17.543" stroke="#00CA51" stroke-width="1.8" stroke-linecap="round" stroke-linejoin="round"/>
<path d="M10.543 15.6865H17.543" stroke="#00CA51" stroke-width="1.8" stroke-linecap="round" stroke-linejoin="round"/>
<path d="M16.4131 22.2363L14.7933 24.936C14.7155 25.0655 14.6056 25.1728 14.4741 25.2472C14.3426 25.3216 14.1941 25.3608 14.043 25.3608C13.8919 25.3608 13.7433 25.3216 13.6119 25.2472C13.4804 25.1728 13.3704 25.0655 13.2927 24.936L11.6729 22.2363C11.5951 22.1067 11.4852 21.9995 11.3537 21.925C11.2222 21.8506 11.0737 21.8115 10.9226 21.8115H4.41797C4.1859 21.8115 3.96334 21.7193 3.79925 21.5552C3.63516 21.3911 3.54297 21.1685 3.54297 20.9365V6.93652C3.54297 6.70446 3.63516 6.4819 3.79925 6.31781C3.96334 6.15371 4.1859 6.06152 4.41797 6.06152H23.668C23.9 6.06152 24.1226 6.15371 24.2867 6.31781C24.4508 6.4819 24.543 6.70446 24.543 6.93652V20.9365C24.543 21.1686 24.4508 21.3911 24.2867 21.5552C24.1226 21.7193 23.9 21.8115 23.668 21.8115L17.1634 21.8115C17.0123 21.8115 16.8638 21.8506 16.7323 21.925C16.6008 21.9995 16.4908 22.1067 16.4131 22.2363V22.2363Z" stroke="#00CA51" stroke-width="1.8" stroke-linecap="round" stroke-linejoin="round"/>
</svg>
