<svg width="23" height="22" viewBox="0 0 23 22" fill="none" xmlns="http://www.w3.org/2000/svg">
<path d="M7 7.025C7 6.52794 7.40294 6.125 7.9 6.125H14.9C15.3971 6.125 15.8 6.52794 15.8 7.025C15.8 7.52206 15.3971 7.925 14.9 7.925H7.9C7.40294 7.925 7 7.52206 7 7.025Z" fill="#444444"/>
<path d="M7 10.525C7 10.0279 7.40294 9.625 7.9 9.625H14.9C15.3971 9.625 15.8 10.0279 15.8 10.525C15.8 11.0221 15.3971 11.425 14.9 11.425H7.9C7.40294 11.425 7 11.0221 7 10.525Z" fill="#444444"/>
<path fill-rule="evenodd" clip-rule="evenodd" d="M1.775 0C1.30424 0 0.852762 0.187009 0.519885 0.519886C0.187008 0.852763 0 1.30424 0 1.775V15.775C0 16.2457 0.187009 16.6972 0.519885 17.0301C0.852761 17.3629 1.30424 17.55 1.775 17.55H8.26543L9.87795 20.2375C10.0356 20.5003 10.2587 20.7178 10.5255 20.8689C10.7922 21.0199 11.0935 21.0993 11.4 21.0993C11.7065 21.0993 12.0078 21.0199 12.2745 20.8689C12.5413 20.7178 12.7643 20.5003 12.9221 20.2375L14.5346 17.55L21.025 17.55C21.4958 17.55 21.9472 17.363 22.2801 17.0301C22.613 16.6972 22.8 16.2458 22.8 15.775V1.775C22.8 1.30424 22.613 0.852761 22.2801 0.519886C21.9472 0.18701 21.4958 0 21.025 0H1.775ZM1.8 15.75V1.8H21V15.75L14.5204 15.75C14.2139 15.7499 13.9126 15.8293 13.6459 15.9803C13.3792 16.1314 13.1561 16.3489 12.9984 16.6117L11.4 19.2757L9.80163 16.6117C9.64393 16.3489 9.42085 16.1314 9.15412 15.9803C8.88739 15.8293 8.58609 15.75 8.27958 15.75H1.8Z" fill="#444444"/>
</svg>
