<svg width="23" height="22" viewBox="0 0 23 22" fill="none" xmlns="http://www.w3.org/2000/svg">
<path d="M7.03711 7.30881C7.03711 6.81176 7.44005 6.40881 7.93711 6.40881H14.9371C15.4342 6.40881 15.8371 6.81176 15.8371 7.30881C15.8371 7.80587 15.4342 8.20881 14.9371 8.20881H7.93711C7.44005 8.20881 7.03711 7.80587 7.03711 7.30881Z" fill="#00CA51"/>
<path d="M7.03711 10.8088C7.03711 10.3118 7.44005 9.90881 7.93711 9.90881H14.9371C15.4342 9.90881 15.8371 10.3118 15.8371 10.8088C15.8371 11.3059 15.4342 11.7088 14.9371 11.7088H7.93711C7.44005 11.7088 7.03711 11.3059 7.03711 10.8088Z" fill="#00CA51"/>
<path fill-rule="evenodd" clip-rule="evenodd" d="M1.81211 0.283813C1.34135 0.283813 0.889872 0.470822 0.556995 0.803699C0.224118 1.13658 0.0371094 1.58805 0.0371094 2.05881V16.0588C0.0371094 16.5295 0.224118 16.981 0.556995 17.3139C0.88987 17.6468 1.34135 17.8338 1.81211 17.8338H8.30254L9.91506 20.5213C10.0728 20.7841 10.2958 21.0016 10.5626 21.1527C10.8293 21.3037 11.1306 21.3831 11.4371 21.3831C11.7436 21.3831 12.0449 21.3037 12.3116 21.1527C12.5784 21.0017 12.8015 20.7841 12.9592 20.5213L14.5717 17.8338L21.0621 17.8338C21.5329 17.8338 21.9843 17.6468 22.3172 17.3139C22.6501 16.9811 22.8371 16.5296 22.8371 16.0588V2.05881C22.8371 1.58805 22.6501 1.13657 22.3172 0.803699C21.9843 0.470823 21.5329 0.283813 21.0621 0.283813H1.81211ZM1.83711 16.0338V2.08381H21.0371V16.0338L14.5575 16.0338C14.251 16.0338 13.9497 16.1131 13.683 16.2642C13.4163 16.4152 13.1932 16.6327 13.0355 16.8955L11.4371 19.5595L9.83874 16.8955C9.68104 16.6327 9.45796 16.4152 9.19123 16.2642C8.9245 16.1131 8.6232 16.0338 8.31669 16.0338H1.83711Z" fill="#00CA51"/>
</svg>
