<svg width="29" height="29" viewBox="0 0 29 29" fill="none" xmlns="http://www.w3.org/2000/svg">
<path d="M10.5547 12.0152H17.5547" stroke="black" stroke-width="1.8" stroke-linecap="round" stroke-linejoin="round"/>
<path d="M10.5547 15.5152H17.5547" stroke="black" stroke-width="1.8" stroke-linecap="round" stroke-linejoin="round"/>
<path d="M16.4248 22.065L14.805 24.7647C14.7273 24.8943 14.6173 25.0015 14.4858 25.0759C14.3543 25.1504 14.2058 25.1895 14.0547 25.1895C13.9036 25.1895 13.7551 25.1504 13.6236 25.0759C13.4921 25.0015 13.3821 24.8943 13.3044 24.7647L11.6846 22.065C11.6068 21.9355 11.4969 21.8282 11.3654 21.7538C11.2339 21.6793 11.0854 21.6402 10.9343 21.6402H4.42969C4.19762 21.6402 3.97506 21.548 3.81097 21.3839C3.64687 21.2198 3.55469 20.9973 3.55469 20.7652V6.76526C3.55469 6.53319 3.64687 6.31063 3.81097 6.14654C3.97506 5.98245 4.19762 5.89026 4.42969 5.89026H23.6797C23.9118 5.89026 24.1343 5.98245 24.2984 6.14654C24.4625 6.31063 24.5547 6.53319 24.5547 6.76526V20.7653C24.5547 20.9973 24.4625 21.2199 24.2984 21.384C24.1343 21.5481 23.9118 21.6403 23.6797 21.6403L17.1751 21.6402C17.024 21.6402 16.8755 21.6793 16.744 21.7538C16.6125 21.8282 16.5025 21.9355 16.4248 22.065V22.065Z" stroke="black" stroke-width="1.8" stroke-linecap="round" stroke-linejoin="round"/>
</svg>
