<svg width="29" height="29" viewBox="0 0 29 29" fill="none" xmlns="http://www.w3.org/2000/svg">
<path d="M3.68359 12.0153H8.93359V23.3903H3.68359C3.45153 23.3903 3.22897 23.2981 3.06488 23.134C2.90078 22.9699 2.80859 22.7473 2.80859 22.5153V12.8903C2.80859 12.6582 2.90078 12.4356 3.06488 12.2715C3.22897 12.1074 3.45153 12.0153 3.68359 12.0153V12.0153Z" stroke="black" stroke-width="1.8" stroke-linecap="round" stroke-linejoin="round"/>
<path d="M8.93359 12.0153L13.3086 3.26526C13.7682 3.26526 14.2233 3.35579 14.648 3.53168C15.0726 3.70757 15.4585 3.96538 15.7835 4.29038C16.1085 4.61539 16.3663 5.00123 16.5422 5.42587C16.7181 5.85051 16.8086 6.30563 16.8086 6.76526V9.39026H23.5762C23.8244 9.39026 24.0697 9.44303 24.2959 9.54507C24.522 9.64711 24.7239 9.79608 24.8882 9.9821C25.0524 10.1681 25.1752 10.3869 25.2484 10.624C25.3216 10.8611 25.3435 11.1111 25.3127 11.3573L24.0002 21.8573C23.9473 22.2806 23.7416 22.6699 23.4219 22.9522C23.1021 23.2345 22.6903 23.3903 22.2637 23.3903H8.93359" stroke="black" stroke-width="1.8" stroke-linecap="round" stroke-linejoin="round"/>
</svg>
