<svg width="23" height="19" viewBox="0 0 23 19" fill="none" xmlns="http://www.w3.org/2000/svg">
<path d="M15.4511 0.263604C15.8026 -0.087868 16.3724 -0.087868 16.7239 0.263604L21.7558 5.29546C21.9374 5.46013 22.0515 5.69799 22.0515 5.9625C22.0515 6.22701 21.9374 6.46487 21.7558 6.62954L16.7239 11.6614C16.3724 12.0129 15.8026 12.0129 15.4511 11.6614C15.0996 11.3099 15.0996 10.7401 15.4511 10.3886L18.9772 6.8625H15.2453C13.1999 6.86267 11.2124 7.54232 9.59524 8.79467C7.97801 10.047 6.82264 11.8012 6.31063 13.7815C6.1862 14.2627 5.69523 14.552 5.21399 14.4276C4.73276 14.3031 4.44351 13.8122 4.56793 13.3309C5.17981 10.9644 6.56051 8.86813 8.49315 7.37151C10.4258 5.87489 12.8008 5.06269 15.2452 5.0625H18.9772L15.4511 1.5364C15.0996 1.18492 15.0996 0.615076 15.4511 0.263604Z" fill="#444444"/>
<path d="M0.9 3.375C1.39706 3.375 1.8 3.77794 1.8 4.275V16.875H17.775C18.2721 16.875 18.675 17.2779 18.675 17.775C18.675 18.2721 18.2721 18.675 17.775 18.675H1.74375C1.28128 18.675 0.83775 18.4913 0.510733 18.1643C0.183716 17.8372 0 17.3937 0 16.9312V4.275C0 3.77794 0.402944 3.375 0.9 3.375Z" fill="#444444"/>
</svg>
