<svg width="29" height="29" viewBox="0 0 29 29" fill="none" xmlns="http://www.w3.org/2000/svg">
<path d="M10.5547 11.504H17.5547" stroke="#00CA51" stroke-width="1.8" stroke-linecap="round" stroke-linejoin="round"/>
<path d="M10.5547 15.004H17.5547" stroke="#00CA51" stroke-width="1.8" stroke-linecap="round" stroke-linejoin="round"/>
<path d="M16.4248 21.5538L14.805 24.2535C14.7273 24.383 14.6173 24.4903 14.4858 24.5647C14.3543 24.6392 14.2058 24.6783 14.0547 24.6783C13.9036 24.6783 13.7551 24.6392 13.6236 24.5647C13.4921 24.4903 13.3821 24.383 13.3044 24.2535L11.6846 21.5538C11.6068 21.4242 11.4969 21.317 11.3654 21.2426C11.2339 21.1681 11.0854 21.129 10.9343 21.129H4.42969C4.19762 21.129 3.97506 21.0368 3.81097 20.8727C3.64687 20.7086 3.55469 20.486 3.55469 20.254V6.25403C3.55469 6.02196 3.64687 5.7994 3.81097 5.63531C3.97506 5.47122 4.19762 5.37903 4.42969 5.37903H23.6797C23.9118 5.37903 24.1343 5.47122 24.2984 5.63531C24.4625 5.7994 24.5547 6.02196 24.5547 6.25403V20.254C24.5547 20.4861 24.4625 20.7087 24.2984 20.8727C24.1343 21.0368 23.9118 21.129 23.6797 21.129L17.1751 21.129C17.024 21.129 16.8755 21.1681 16.744 21.2426C16.6125 21.317 16.5025 21.4242 16.4248 21.5538V21.5538Z" stroke="#00CA51" stroke-width="1.8" stroke-linecap="round" stroke-linejoin="round"/>
</svg>
