<svg width="51" height="51" viewBox="0 0 51 51" fill="none" xmlns="http://www.w3.org/2000/svg">
<path d="M26.2344 38.2121H14.375C14.0891 38.2121 13.8148 38.0985 13.6127 37.8963C13.4105 37.6941 13.2969 37.4199 13.2969 37.134V25.2746C13.2969 23.5756 13.6315 21.8933 14.2817 20.3236C14.9319 18.754 15.8848 17.3278 17.0862 16.1264C18.2875 14.925 19.7137 13.9721 21.2834 13.3219C22.853 12.6717 24.5354 12.3371 26.2343 12.3371H26.2344C27.9334 12.3371 29.6157 12.6717 31.1853 13.3219C32.755 13.9721 34.1812 14.925 35.3826 16.1264C36.5839 17.3278 37.5369 18.754 38.1871 20.3236C38.8372 21.8933 39.1719 23.5756 39.1719 25.2746V25.2746C39.1719 28.7059 37.8088 31.9966 35.3826 34.4228C32.9563 36.849 29.6656 38.2121 26.2344 38.2121Z" fill="#5BC1FF" stroke="#454545" stroke-width="2" stroke-linecap="round" stroke-linejoin="round"/>
<path d="M21.7344 23.5871H30.1719" stroke="#454545" stroke-width="2" stroke-linecap="round" stroke-linejoin="round"/>
<path d="M21.7344 28.0871H30.1719" stroke="#454545" stroke-width="2" stroke-linecap="round" stroke-linejoin="round"/>
</svg>
