<svg width="51" height="51" viewBox="0 0 51 51" fill="none" xmlns="http://www.w3.org/2000/svg">
<path d="M26.5254 37.4549H14.666C14.3801 37.4549 14.1059 37.3413 13.9037 37.1391C13.7015 36.9369 13.5879 36.6627 13.5879 36.3768V24.5174C13.5879 22.8184 13.9225 21.1361 14.5727 19.5664C15.2229 17.9968 16.1758 16.5705 17.3772 15.3692C18.5785 14.1678 20.0048 13.2149 21.5744 12.5647C23.1441 11.9145 24.8264 11.5799 26.5254 11.5799H26.5254C28.2244 11.5799 29.9067 11.9145 31.4764 12.5647C33.046 13.2149 34.4722 14.1678 35.6736 15.3692C36.8749 16.5706 37.8279 17.9968 38.4781 19.5664C39.1283 21.1361 39.4629 22.8184 39.4629 24.5174V24.5174C39.4629 27.9487 38.0998 31.2393 35.6736 33.6656C33.2473 36.0918 29.9566 37.4549 26.5254 37.4549Z" fill="#C9EBFF" stroke="#454545" stroke-width="2" stroke-linecap="round" stroke-linejoin="round"/>
<path d="M22.0254 22.8299H30.4629" stroke="#454545" stroke-width="2" stroke-linecap="round" stroke-linejoin="round"/>
<path d="M22.0254 27.3299H30.4629" stroke="#454545" stroke-width="2" stroke-linecap="round" stroke-linejoin="round"/>
</svg>
