<svg width="51" height="51" viewBox="0 0 51 51" fill="none" xmlns="http://www.w3.org/2000/svg">
<path d="M39.1152 39.3254V24.0208C39.1152 23.851 39.0797 23.6831 39.0111 23.5278C38.9424 23.3725 38.842 23.2332 38.7163 23.119L26.528 12.0383C26.3036 11.8343 26.0113 11.7213 25.7081 11.7213C25.4049 11.7213 25.1126 11.8344 24.8882 12.0383L12.7016 23.119C12.576 23.2332 12.4756 23.3725 12.4069 23.5278C12.3382 23.683 12.3027 23.851 12.3027 24.0208V39.3254" fill="#C9EBFF"/>
<path d="M39.1152 39.3254V24.0208C39.1152 23.851 39.0797 23.6831 39.0111 23.5278C38.9424 23.3725 38.842 23.2332 38.7163 23.119L26.528 12.0383C26.3036 11.8343 26.0113 11.7213 25.7081 11.7213C25.4049 11.7213 25.1126 11.8344 24.8882 12.0383L12.7016 23.119C12.576 23.2332 12.4756 23.3725 12.4069 23.5278C12.3382 23.683 12.3027 23.851 12.3027 24.0208V39.3254" stroke="#454545" stroke-width="2" stroke-linecap="round" stroke-linejoin="round"/>
<path d="M29.3633 39.3242V30.7929C29.3633 30.4697 29.2349 30.1597 29.0063 29.9312C28.7778 29.7026 28.4678 29.5742 28.1445 29.5742H23.2695C22.9463 29.5742 22.6363 29.7026 22.4077 29.9312C22.1792 30.1597 22.0508 30.4697 22.0508 30.7929V39.3242" fill="white"/>
<path d="M29.3633 39.3242V30.7929C29.3633 30.4697 29.2349 30.1597 29.0063 29.9312C28.7778 29.7026 28.4678 29.5742 28.1445 29.5742H23.2695C22.9463 29.5742 22.6363 29.7026 22.4077 29.9312C22.1792 30.1597 22.0508 30.4697 22.0508 30.7929V39.3242" stroke="#454545" stroke-width="2" stroke-linecap="round" stroke-linejoin="round"/>
<path d="M8.64648 39.3254H42.7715" stroke="#454545" stroke-width="2" stroke-linecap="round" stroke-linejoin="round"/>
</svg>
