<svg width="51" height="50" viewBox="0 0 51 50" fill="none" xmlns="http://www.w3.org/2000/svg">
<path d="M25.6719 32.5156C28.8648 32.5156 31.4531 29.9273 31.4531 26.7344C31.4531 23.5415 28.8648 20.9531 25.6719 20.9531C22.479 20.9531 19.8906 23.5415 19.8906 26.7344C19.8906 29.9273 22.479 32.5156 25.6719 32.5156Z" stroke="#454545" stroke-width="2" stroke-linecap="round" stroke-linejoin="round"/>
<path d="M35.5 23.2656C36.8464 23.2645 38.1746 23.5774 39.3789 24.1794C40.5832 24.7815 41.6305 25.6561 42.4377 26.7338" stroke="#454545" stroke-width="2" stroke-linecap="round" stroke-linejoin="round"/>
<path d="M8.90625 26.7341C9.71337 25.6563 10.7607 24.7816 11.9651 24.1795C13.1695 23.5774 14.4977 23.2645 15.8442 23.2656" stroke="#454545" stroke-width="2" stroke-linecap="round" stroke-linejoin="round"/>
<path d="M17.3535 37.7186C18.1131 36.1586 19.2959 34.8435 20.7671 33.9235C22.2382 33.0035 23.9384 32.5156 25.6735 32.5156C27.4087 32.5156 29.1088 33.0035 30.58 33.9234C32.0512 34.8434 33.234 36.1585 33.9936 37.7186" stroke="#454545" stroke-width="2" stroke-linecap="round" stroke-linejoin="round"/>
<path d="M15.8448 23.2656C14.9673 23.2655 14.1079 23.0156 13.367 22.5453C12.6262 22.0751 12.0344 21.4037 11.6608 20.6096C11.2872 19.8156 11.1472 18.9317 11.2572 18.061C11.3671 17.1904 11.7225 16.3691 12.2818 15.6929C12.8411 15.0166 13.5813 14.5135 14.4158 14.2422C15.2504 13.9709 16.1449 13.9426 16.9949 14.1607C17.8449 14.3787 18.6154 14.8341 19.2163 15.4736C19.8172 16.1131 20.2237 16.9104 20.3885 17.7723" stroke="#454545" stroke-width="2" stroke-linecap="round" stroke-linejoin="round"/>
<path d="M30.9551 17.7724C31.1197 16.9104 31.5263 16.1129 32.1272 15.4733C32.7281 14.8336 33.4986 14.3781 34.3488 14.16C35.1989 13.9419 36.0935 13.9701 36.9282 14.2414C37.7628 14.5127 38.5031 15.0159 39.0625 15.6922C39.6219 16.3685 39.9773 17.19 40.0873 18.0607C40.1972 18.9315 40.0572 19.8155 39.6835 20.6096C39.3098 21.4038 38.7179 22.0752 37.9769 22.5455C37.2359 23.0158 36.3764 23.2656 35.4987 23.2656" stroke="#454545" stroke-width="2" stroke-linecap="round" stroke-linejoin="round"/>
</svg>
