<svg xmlns="http://www.w3.org/2000/svg" viewBox="0 0 478.57 130"><defs><style>.cls-1{fill:#121e35;}.cls-2{fill:#fff;}</style></defs><g id="Layer_2" data-name="Layer 2"><g id="Layer_1-2" data-name="Layer 1"><circle class="cls-1" cx="413.57" cy="65" r="65"/><path d="M12.6,91.24A24.22,24.22,0,0,1,3.22,80.7,36.15,36.15,0,0,1,0,65,36.15,36.15,0,0,1,3.22,49.3,24.22,24.22,0,0,1,12.6,38.76,27.54,27.54,0,0,1,27.24,35a28.9,28.9,0,0,1,11.7,2.26,23.28,23.28,0,0,1,8.68,6.44,27.75,27.75,0,0,1,5.22,9.9l-8.48,2.28a17.9,17.9,0,0,0-6.08-9.54,17.4,17.4,0,0,0-11-3.38,17.85,17.85,0,0,0-10.16,2.76,16.71,16.71,0,0,0-6.18,7.76A30.78,30.78,0,0,0,8.84,65.24a29.22,29.22,0,0,0,2.08,11.5,16.51,16.51,0,0,0,6.22,7.6A18.1,18.1,0,0,0,27.24,87a17.4,17.4,0,0,0,11-3.38,17.9,17.9,0,0,0,6.08-9.54l8.48,2.28a27.75,27.75,0,0,1-5.22,9.9,23.28,23.28,0,0,1-8.68,6.44A28.9,28.9,0,0,1,27.24,95,27.54,27.54,0,0,1,12.6,91.24Z"/><path d="M69.24,92.1A19.35,19.35,0,0,1,61.84,84a26.13,26.13,0,0,1-2.6-11.86,25.73,25.73,0,0,1,2.64-11.88,19.42,19.42,0,0,1,7.44-8A21.19,21.19,0,0,1,80.4,49.4a21.37,21.37,0,0,1,11.18,2.88A19.22,19.22,0,0,1,99,60.34a26,26,0,0,1,2.6,11.82A26,26,0,0,1,99,84.06a19.42,19.42,0,0,1-7.42,8.06A21.27,21.27,0,0,1,80.4,95,21.19,21.19,0,0,1,69.24,92.1Zm20.32-9q3.16-4.07,3.16-10.9t-3.16-10.9q-3.16-4-9.16-4t-9.18,4q-3.1,4-3.1,10.88t3.16,11q3.16,4,9.12,4T89.56,83.06Z"/><path d="M142.74,52.86a16.88,16.88,0,0,1,5.14,8,32.14,32.14,0,0,1,1.32,9v24h-8.48V72.56a22.69,22.69,0,0,0-2.36-10.78q-2.36-4.43-8.56-4.42a10.16,10.16,0,0,0-7.94,3.36q-3,3.36-3,10.6V93.8h-8.48V50.6h7.48v5.16a16.25,16.25,0,0,1,6-4.68,19.74,19.74,0,0,1,8.24-1.64Q138.92,49.44,142.74,52.86Z"/><path d="M191.94,52.86a16.88,16.88,0,0,1,5.14,8,32.14,32.14,0,0,1,1.32,9v24h-8.48V72.56a22.69,22.69,0,0,0-2.36-10.78q-2.35-4.43-8.56-4.42a10.16,10.16,0,0,0-7.94,3.36q-3,3.36-3,10.6V93.8h-8.48V50.6H167v5.16a16.25,16.25,0,0,1,6-4.68,19.74,19.74,0,0,1,8.24-1.64Q188.12,49.44,191.94,52.86Z"/><path d="M214.84,74.56q.53,6,3.64,9.3A11.3,11.3,0,0,0,227,87.12a12.73,12.73,0,0,0,6.76-1.76,11.66,11.66,0,0,0,4.48-5.12l8.2,2.6a19.45,19.45,0,0,1-7.6,8.94A21,21,0,0,1,227.44,95a22.12,22.12,0,0,1-11.28-2.82,19.48,19.48,0,0,1-7.58-7.92,24.63,24.63,0,0,1-2.7-11.7,26.85,26.85,0,0,1,2.64-12.24A19.16,19.16,0,0,1,216,52.24,21.37,21.37,0,0,1,227,49.4a20.17,20.17,0,0,1,10.72,2.76,17.93,17.93,0,0,1,6.94,7.9,28.16,28.16,0,0,1,2.42,12.14c0,.51,0,1.29-.08,2.36Zm4.1-14.9q-3.1,2.87-3.9,8.38h23.44q-.67-5.72-3.42-8.48c-1.83-1.84-4.39-2.76-7.7-2.76C223.81,56.8,221,57.75,218.94,59.66Z"/><path d="M263.3,92.08A19,19,0,0,1,256.12,84a27.39,27.39,0,0,1-2.52-11.8,27.07,27.07,0,0,1,2.58-11.86,19,19,0,0,1,7.28-8.06A21,21,0,0,1,274.6,49.4a22,22,0,0,1,8.54,1.6,17.47,17.47,0,0,1,6.48,4.56,17,17,0,0,1,3.7,7L285,65a11.29,11.29,0,0,0-4.06-5.64,10.73,10.73,0,0,0-6.46-2q-5.91,0-8.94,4.06T262.48,72.2q0,6.89,3.12,10.9t8.88,4a10.82,10.82,0,0,0,6.46-1.82,11.3,11.3,0,0,0,3.9-5.38l8.48,2a18.39,18.39,0,0,1-7,9.72A20.36,20.36,0,0,1,274.48,95,20.72,20.72,0,0,1,263.3,92.08Z"/><path d="M313.36,57.32V78.68a28.72,28.72,0,0,0,.16,3.3,5.56,5.56,0,0,0,.72,2.18,5.43,5.43,0,0,0,2.7,2.3,11.37,11.37,0,0,0,4.26.7,33.55,33.55,0,0,0,5-.44V93.8a36.2,36.2,0,0,1-6.84.72,19.63,19.63,0,0,1-7.82-1.44,9.88,9.88,0,0,1-5-4.52,11.91,11.91,0,0,1-1.3-3.86,32.88,32.88,0,0,1-.3-4.82V57.32h-8.28V50.6H305v-12h8.4v12H326.2v6.72Z"/><path class="cls-2" d="M398.49,95H387.78l20.46-30.38L388.32,35H399l14.63,22.25L428.16,35h10.71L419,64.62,439.37,95H428.7L413.62,72Z"/></g></g></svg>