<svg xmlns="http://www.w3.org/2000/svg" viewBox="0 0 444.23 169.02"><defs><style>.cls-1{fill:#1792dd;}.cls-2{fill:#fff;}.cls-3{fill:#caf3ff;}</style></defs><g id="Layer_2" data-name="Layer 2"><g id="Layer_1-2" data-name="Layer 1"><circle class="cls-1" cx="364.52" cy="79.71" r="79.71"/><path d="M15.55,115.9A22.79,22.79,0,0,1,6.73,106a34,34,0,0,1-3-14.76,34,34,0,0,1,3-14.76,22.73,22.73,0,0,1,8.82-9.91A25.87,25.87,0,0,1,29.31,63a27.15,27.15,0,0,1,11,2.13,21.87,21.87,0,0,1,8.17,6,26,26,0,0,1,4.9,9.31l-8,2.14a16.85,16.85,0,0,0-5.72-9A16.3,16.3,0,0,0,29.31,70.5a16.78,16.78,0,0,0-9.55,2.6A15.72,15.72,0,0,0,14,80.4a28.87,28.87,0,0,0-1.93,11,27.56,27.56,0,0,0,2,10.81,15.48,15.48,0,0,0,5.85,7.15A17,17,0,0,0,29.31,112a16.3,16.3,0,0,0,10.38-3.18,16.85,16.85,0,0,0,5.72-9l8,2.14a26,26,0,0,1-4.9,9.31,22,22,0,0,1-8.17,6.06,27.32,27.32,0,0,1-11,2.12A26,26,0,0,1,15.55,115.9Z"/><path d="M68.8,116.7a18.13,18.13,0,0,1-7-7.59A24.55,24.55,0,0,1,59.4,98a24.24,24.24,0,0,1,2.48-11.17,18.23,18.23,0,0,1,7-7.54,20,20,0,0,1,10.41-2.69A20,20,0,0,1,89.8,79.27a18,18,0,0,1,7,7.57,26.52,26.52,0,0,1,0,22.31,18.23,18.23,0,0,1-7,7.57,20,20,0,0,1-10.5,2.71A19.88,19.88,0,0,1,68.8,116.7Zm19.11-8.49q3-3.83,3-10.25t-3-10.25Q84.93,84,79.29,84t-8.63,3.76Q67.75,91.49,67.75,98t3,10.3q3,3.76,8.57,3.76T87.91,108.21Z"/><path d="M137.9,79.81a15.93,15.93,0,0,1,4.84,7.51A30.39,30.39,0,0,1,144,95.74V118.3h-8v-20a21.27,21.27,0,0,0-2.22-10.13c-1.47-2.77-4.16-4.16-8-4.16a9.59,9.59,0,0,0-7.47,3.16q-2.83,3.17-2.84,10V118.3h-8V77.69h7v4.85a15.35,15.35,0,0,1,5.68-4.4,18.49,18.49,0,0,1,7.75-1.54Q134.31,76.6,137.9,79.81Z"/><path d="M184.16,79.81A16,16,0,0,1,189,87.32a30,30,0,0,1,1.24,8.42V118.3h-8v-20A21.27,21.27,0,0,0,180,88.2Q177.82,84,172,84a9.57,9.57,0,0,0-7.46,3.16q-2.85,3.17-2.84,10V118.3h-8V77.69h7v4.85a15.27,15.27,0,0,1,5.68-4.4,18.44,18.44,0,0,1,7.74-1.54C178.44,76.6,181.76,77.67,184.16,79.81Z"/><path d="M205.69,100.21c.32,3.79,1.47,6.7,3.42,8.75a10.63,10.63,0,0,0,8,3.06,11.94,11.94,0,0,0,6.35-1.65,11.08,11.08,0,0,0,4.22-4.82l7.71,2.45a18.26,18.26,0,0,1-7.15,8.4,19.77,19.77,0,0,1-10.76,3,20.78,20.78,0,0,1-10.6-2.65,18.35,18.35,0,0,1-7.13-7.45,23.15,23.15,0,0,1-2.53-11,25.17,25.17,0,0,1,2.48-11.5,17.94,17.94,0,0,1,7-7.6,20.07,20.07,0,0,1,10.42-2.67,19,19,0,0,1,10.08,2.59,16.86,16.86,0,0,1,6.52,7.43A26.53,26.53,0,0,1,236,98c0,.47,0,1.21-.08,2.21Zm3.85-14q-2.91,2.69-3.66,7.87h22q-.64-5.37-3.22-8a9.75,9.75,0,0,0-7.24-2.59A11.2,11.2,0,0,0,209.54,86.21Z"/><path d="M251.25,116.69a17.8,17.8,0,0,1-6.75-7.6A25.49,25.49,0,0,1,242.13,98a25.23,25.23,0,0,1,2.43-11.16,17.81,17.81,0,0,1,6.84-7.57,19.72,19.72,0,0,1,10.47-2.71,20.81,20.81,0,0,1,8,1.5A16.49,16.49,0,0,1,276,82.35a15.88,15.88,0,0,1,3.48,6.58l-7.82,2.26a10.55,10.55,0,0,0-3.82-5.3A10.07,10.07,0,0,0,261.76,84q-5.56,0-8.4,3.82T250.48,98q0,6.47,2.93,10.24a9.89,9.89,0,0,0,8.35,3.78,10.16,10.16,0,0,0,6.07-1.71,10.6,10.6,0,0,0,3.67-5.06l8,1.88a17.31,17.31,0,0,1-6.58,9.14,19.12,19.12,0,0,1-11.13,3.16A19.5,19.5,0,0,1,251.25,116.69Z"/><path d="M298.31,84v20.08a25.65,25.65,0,0,0,.15,3.1,5.17,5.17,0,0,0,.68,2,5.12,5.12,0,0,0,2.54,2.16,10.7,10.7,0,0,0,4,.66,31.8,31.8,0,0,0,4.7-.41v6.65A34.1,34.1,0,0,1,304,119a18.54,18.54,0,0,1-7.35-1.35,9.35,9.35,0,0,1-4.68-4.25,11.29,11.29,0,0,1-1.22-3.63,30.61,30.61,0,0,1-.28-4.53V84h-7.79V77.69h7.79V66.41h7.89V77.69h12.07V84Z"/><path class="cls-2" d="M344.55,119.43H330.37l27.09-40.22L331.08,40h14.13l19.36,29.46L383.83,40H398L371.64,79.21l27,40.22H384.55l-20-30.4Z"/><path class="cls-3" d="M1.45,169a1.5,1.5,0,0,0,0-3,1.5,1.5,0,0,0,0,3Z"/></g></g></svg>