<svg xmlns="http://www.w3.org/2000/svg" viewBox="0 0 474.52 159.41"><defs><style>.cls-1{fill:#1792dd;}.cls-2{fill:#fff;}</style></defs><g id="Layer_2" data-name="Layer 2"><g id="Layer_1-2" data-name="Layer 1"><circle class="cls-1" cx="394.81" cy="79.71" r="79.71"/><path d="M11.85,115.9A22.73,22.73,0,0,1,3,106,34,34,0,0,1,0,91.23,34,34,0,0,1,3,76.47a22.67,22.67,0,0,1,8.82-9.91A25.85,25.85,0,0,1,25.61,63a27.19,27.19,0,0,1,11,2.13,21.75,21.75,0,0,1,8.16,6,26,26,0,0,1,4.91,9.31l-8,2.14a16.91,16.91,0,0,0-5.72-9A16.34,16.34,0,0,0,25.61,70.5a16.76,16.76,0,0,0-9.55,2.6,15.72,15.72,0,0,0-5.81,7.3,28.87,28.87,0,0,0-1.94,11,27.38,27.38,0,0,0,2,10.81,15.52,15.52,0,0,0,5.84,7.15,17,17,0,0,0,9.5,2.54A16.34,16.34,0,0,0,36,108.77a16.91,16.91,0,0,0,5.72-9l8,2.14a26,26,0,0,1-4.91,9.31,21.88,21.88,0,0,1-8.16,6.06,27.35,27.35,0,0,1-11,2.12A25.94,25.94,0,0,1,11.85,115.9Z"/><path d="M65.1,116.7a18.13,18.13,0,0,1-7-7.59A24.55,24.55,0,0,1,55.69,98a24.12,24.12,0,0,1,2.49-11.17,18.14,18.14,0,0,1,7-7.54,20,20,0,0,1,10.42-2.69A20,20,0,0,1,86.1,79.27a18.06,18.06,0,0,1,7,7.57,26.62,26.62,0,0,1,0,22.31,18.25,18.25,0,0,1-7,7.57,19.94,19.94,0,0,1-10.49,2.71A19.83,19.83,0,0,1,65.1,116.7Zm19.1-8.49q3-3.83,3-10.25t-3-10.25Q81.23,84,75.59,84T67,87.73Q64.05,91.49,64,98t3,10.3Q70,112,75.59,112T84.2,108.21Z"/><path d="M134.2,79.81A16,16,0,0,1,139,87.32a30,30,0,0,1,1.24,8.42V118.3h-8v-20a21.27,21.27,0,0,0-2.22-10.13Q127.86,84,122,84a9.57,9.57,0,0,0-7.46,3.16q-2.85,3.17-2.84,10V118.3h-8V77.69h7v4.85a15.27,15.27,0,0,1,5.68-4.4,18.41,18.41,0,0,1,7.74-1.54C128.48,76.6,131.8,77.67,134.2,79.81Z"/><path d="M180.45,79.81a15.93,15.93,0,0,1,4.84,7.51,30.39,30.39,0,0,1,1.24,8.42V118.3h-8v-20a21.39,21.39,0,0,0-2.21-10.13Q174.12,84,168.29,84a9.59,9.59,0,0,0-7.47,3.16q-2.83,3.17-2.84,10V118.3h-8V77.69h7v4.85a15.35,15.35,0,0,1,5.68-4.4,18.49,18.49,0,0,1,7.75-1.54Q176.86,76.6,180.45,79.81Z"/><path d="M202,100.21q.5,5.69,3.43,8.75a10.59,10.59,0,0,0,8,3.06,12,12,0,0,0,6.36-1.65,11.06,11.06,0,0,0,4.21-4.82l7.71,2.45a18.24,18.24,0,0,1-7.14,8.4,19.79,19.79,0,0,1-10.76,3,20.75,20.75,0,0,1-10.6-2.65,18.29,18.29,0,0,1-7.13-7.45,23.16,23.16,0,0,1-2.54-11A25.3,25.3,0,0,1,196,86.83a18,18,0,0,1,7-7.6,20.06,20.06,0,0,1,10.41-2.67,19,19,0,0,1,10.08,2.59,16.88,16.88,0,0,1,6.53,7.43A26.68,26.68,0,0,1,232.33,98c0,.47,0,1.21-.07,2.21Zm3.86-14a12.8,12.8,0,0,0-3.67,7.87h22q-.65-5.37-3.22-8c-1.71-1.73-4.13-2.59-7.24-2.59A11.17,11.17,0,0,0,205.84,86.21Z"/><path d="M247.54,116.69a17.92,17.92,0,0,1-6.75-7.6A25.78,25.78,0,0,1,238.42,98a25.51,25.51,0,0,1,2.43-11.16,17.81,17.81,0,0,1,6.84-7.57,19.78,19.78,0,0,1,10.48-2.71,20.84,20.84,0,0,1,8,1.5,16.49,16.49,0,0,1,6.09,4.29,16.11,16.11,0,0,1,3.48,6.58L268,91.19a10.55,10.55,0,0,0-3.82-5.3A10.1,10.1,0,0,0,258.05,84q-5.56,0-8.4,3.82T246.77,98q0,6.47,2.94,10.24a9.87,9.87,0,0,0,8.34,3.78,10.19,10.19,0,0,0,6.08-1.71,10.65,10.65,0,0,0,3.66-5.06l8,1.88a17.31,17.31,0,0,1-6.58,9.14,19.13,19.13,0,0,1-11.14,3.16A19.53,19.53,0,0,1,247.54,116.69Z"/><path d="M294.61,84v20.08a25.65,25.65,0,0,0,.15,3.1,5,5,0,0,0,.68,2A5.1,5.1,0,0,0,298,111.4a10.75,10.75,0,0,0,4,.66,31.91,31.91,0,0,0,4.7-.41v6.65a34.19,34.19,0,0,1-6.43.68,18.47,18.47,0,0,1-7.35-1.35,9.33,9.33,0,0,1-4.69-4.25,11.53,11.53,0,0,1-1.22-3.63,30.61,30.61,0,0,1-.28-4.53V84h-7.78V77.69h7.78V66.41h7.9V77.69h12.07V84Z"/><path class="cls-2" d="M374.84,119.43H360.66l27.09-40.22L361.38,40H375.5l19.37,29.46L414.12,40H428.3L401.93,79.21l27,40.22H414.84l-20-30.4Z"/></g></g></svg>