<svg width="21" height="24" viewBox="0 0 21 24" fill="none" xmlns="http://www.w3.org/2000/svg">
<path d="M20.2428 4.91675L1 4.91675" stroke="white" stroke-width="1.5" stroke-linecap="round" stroke-linejoin="round"/>
<path d="M7.99609 10.3417V17.575" stroke="white" stroke-width="1.5" stroke-linecap="round" stroke-linejoin="round"/>
<path d="M13.2441 10.3417V17.575" stroke="white" stroke-width="1.5" stroke-linecap="round" stroke-linejoin="round"/>
<path d="M18.4941 4.91675V22.0958C18.4941 22.3356 18.402 22.5656 18.2379 22.7352C18.0739 22.9047 17.8514 23 17.6195 23H3.62467C3.3927 23 3.17022 22.9047 3.00619 22.7352C2.84215 22.5656 2.75 22.3356 2.75 22.0958V4.91675" stroke="white" stroke-width="1.5" stroke-linecap="round" stroke-linejoin="round"/>
<path d="M14.9948 4.9167V3.10837C14.9948 2.62878 14.8105 2.16882 14.4824 1.82969C14.1543 1.49057 13.7094 1.30005 13.2454 1.30005H7.99739C7.53344 1.30005 7.08849 1.49057 6.76042 1.82969C6.43235 2.16882 6.24805 2.62878 6.24805 3.10837V4.9167" stroke="white" stroke-width="1.5" stroke-linecap="round" stroke-linejoin="round"/>
</svg>
