<svg width="18" height="27" viewBox="0 0 18 27" fill="none" xmlns="http://www.w3.org/2000/svg">
<path fill-rule="evenodd" clip-rule="evenodd" d="M6.50265 7.08705C6.78456 7.20234 6.96875 7.47667 6.96875 7.78124V25.75C6.96875 26.1642 6.63296 26.5 6.21875 26.5C5.80454 26.5 5.46875 26.1642 5.46875 25.75V9.61513L1.28507 13.8746C0.994814 14.1701 0.519959 14.1743 0.22445 13.8841C-0.0710595 13.5938 -0.0753204 13.119 0.214933 12.8235L5.68368 7.25569C5.89711 7.0384 6.22074 6.97176 6.50265 7.08705Z" fill="white"/>
<path fill-rule="evenodd" clip-rule="evenodd" d="M10.6224 19.4129C10.3404 19.2977 10.1563 19.0233 10.1563 18.7188L10.1562 0.750008C10.1562 0.335795 10.492 8.20927e-06 10.9062 8.17305e-06C11.3205 8.13684e-06 11.6562 0.335795 11.6562 0.750008L11.6563 16.8849L15.8399 12.6254C16.1302 12.3299 16.605 12.3257 16.9005 12.6159C17.1961 12.9062 17.2003 13.381 16.9101 13.6765L11.4413 19.2443C11.2279 19.4616 10.9043 19.5282 10.6224 19.4129Z" fill="white"/>
</svg>
