<svg width="26" height="26" viewBox="0 0 26 26" fill="none" xmlns="http://www.w3.org/2000/svg">
<path d="M21.9375 5.76331L4.0625 5.76331" stroke="#FF6969" stroke-width="1.8" stroke-linecap="round" stroke-linejoin="round"/>
<path d="M10.5625 10.7034V17.29" stroke="#FF6969" stroke-width="1.8" stroke-linecap="round" stroke-linejoin="round"/>
<path d="M15.4375 10.7034V17.29" stroke="#FF6969" stroke-width="1.8" stroke-linecap="round" stroke-linejoin="round"/>
<path d="M20.3125 5.76331V21.4066C20.3125 21.625 20.2269 21.8344 20.0745 21.9888C19.9222 22.1432 19.7155 22.23 19.5 22.23H6.5C6.28451 22.23 6.07785 22.1432 5.92548 21.9888C5.7731 21.8344 5.6875 21.625 5.6875 21.4066V5.76331" stroke="#FF6969" stroke-width="1.8" stroke-linecap="round" stroke-linejoin="round"/>
<path d="M17.0625 5.7633V4.11664C17.0625 3.67991 16.8913 3.26108 16.5865 2.95227C16.2818 2.64346 15.8685 2.46997 15.4375 2.46997H10.5625C10.1315 2.46997 9.7182 2.64346 9.41345 2.95227C9.10871 3.26108 8.9375 3.67991 8.9375 4.11664V5.7633" stroke="#FF6969" stroke-width="1.8" stroke-linecap="round" stroke-linejoin="round"/>
</svg>
