<svg width="26" height="26" viewBox="0 0 26 26" fill="none" xmlns="http://www.w3.org/2000/svg">
<path d="M9.07781 21.154H4.70145C4.49366 21.154 4.29438 21.0715 4.14745 20.9245C4.00051 20.7776 3.91797 20.5783 3.91797 20.3705V15.9941C3.91797 15.8913 3.93823 15.7894 3.97761 15.6943C4.01698 15.5993 4.07469 15.5129 4.14745 15.4401L15.8997 3.68791C16.0466 3.54098 16.2459 3.45844 16.4537 3.45844C16.6615 3.45844 16.8608 3.54098 17.0077 3.68791L21.3841 8.06428C21.531 8.21121 21.6135 8.41049 21.6135 8.61828C21.6135 8.82607 21.531 9.02536 21.3841 9.17229L9.63182 20.9245C9.55907 20.9973 9.4727 21.055 9.37764 21.0944C9.28258 21.1337 9.1807 21.154 9.07781 21.154Z" stroke="#38ABF0" stroke-width="1.8" stroke-linecap="round" stroke-linejoin="round"/>
<path d="M13.3184 6.26788L18.8027 11.7523" stroke="#38ABF0" stroke-width="1.8" stroke-linecap="round" stroke-linejoin="round"/>
<path d="M9.35323 21.104L3.96875 15.7195" stroke="#38ABF0" stroke-width="1.8" stroke-linecap="round" stroke-linejoin="round"/>
</svg>
