<svg width="51" height="51" viewBox="0 0 51 51" fill="none" xmlns="http://www.w3.org/2000/svg">
<path d="M25.6719 40.0882C33.5419 40.0882 39.9219 33.7083 39.9219 25.8382C39.9219 17.9681 33.5419 11.5882 25.6719 11.5882C17.8018 11.5882 11.4219 17.9681 11.4219 25.8382C11.4219 33.7083 17.8018 40.0882 25.6719 40.0882Z" fill="#5BC1FF" stroke="#454545" stroke-width="2" stroke-linecap="round" stroke-linejoin="round"/>
<path d="M25.6719 35.3382C26.6556 35.3382 27.4531 34.5407 27.4531 33.5569C27.4531 32.5732 26.6556 31.7757 25.6719 31.7757C24.6881 31.7757 23.8906 32.5732 23.8906 33.5569C23.8906 34.5407 24.6881 35.3382 25.6719 35.3382Z" fill="black"/>
<path d="M25.6719 28.2139V27.0264C26.4939 27.0264 27.2975 26.7826 27.981 26.3259C28.6645 25.8692 29.1972 25.2201 29.5118 24.4606C29.8263 23.7012 29.9086 22.8655 29.7483 22.0593C29.5879 21.253 29.1921 20.5125 28.6108 19.9312C28.0295 19.3499 27.289 18.9541 26.4827 18.7937C25.6765 18.6334 24.8408 18.7157 24.0813 19.0302C23.3219 19.3448 22.6728 19.8775 22.2161 20.561C21.7594 21.2445 21.5156 22.0481 21.5156 22.8701" stroke="#454545" stroke-width="2" stroke-linecap="round" stroke-linejoin="round"/>
</svg>
