<svg width="51" height="51" viewBox="0 0 51 51" fill="none" xmlns="http://www.w3.org/2000/svg">
<path d="M25.6719 33.3538C28.8648 33.3538 31.4531 30.7655 31.4531 27.5726C31.4531 24.3797 28.8648 21.7913 25.6719 21.7913C22.479 21.7913 19.8906 24.3797 19.8906 27.5726C19.8906 30.7655 22.479 33.3538 25.6719 33.3538Z" fill="#5BC1FF" stroke="#454545" stroke-width="2" stroke-linecap="round" stroke-linejoin="round"/>
<path d="M35.5 24.1038C36.8464 24.1027 38.1746 24.4156 39.3789 25.0176C40.5832 25.6197 41.6305 26.4943 42.4377 27.5719" stroke="#454545" stroke-width="2" stroke-linecap="round" stroke-linejoin="round"/>
<path d="M8.90625 27.5723C9.71337 26.4945 10.7607 25.6198 11.9651 25.0177C13.1695 24.4156 14.4977 24.1027 15.8442 24.1038" stroke="#454545" stroke-width="2" stroke-linecap="round" stroke-linejoin="round"/>
<path d="M17.3535 38.5568C18.1131 36.9968 19.2959 35.6817 20.7671 34.7617C22.2382 33.8417 23.9384 33.3538 25.6735 33.3538C27.4087 33.3538 29.1088 33.8417 30.58 34.7616C32.0512 35.6816 33.234 36.9967 33.9936 38.5568" fill="#5BC1FF"/>
<path d="M17.3535 38.5568C18.1131 36.9968 19.2959 35.6817 20.7671 34.7617C22.2382 33.8417 23.9384 33.3538 25.6735 33.3538C27.4087 33.3538 29.1088 33.8417 30.58 34.7616C32.0512 35.6816 33.234 36.9967 33.9936 38.5568" stroke="#454545" stroke-width="2" stroke-linecap="round" stroke-linejoin="round"/>
<path d="M15.8448 24.1038C14.9673 24.1037 14.1079 23.8538 13.367 23.3835C12.6262 22.9132 12.0344 22.2419 11.6608 21.4478C11.2872 20.6538 11.1472 19.7699 11.2572 18.8992C11.3671 18.0286 11.7225 17.2073 12.2818 16.531C12.8411 15.8548 13.5813 15.3517 14.4158 15.0804C15.2504 14.8091 16.1449 14.7808 16.9949 14.9989C17.8449 15.2169 18.6154 15.6723 19.2163 16.3118C19.8172 16.9513 20.2237 17.7486 20.3885 18.6105" fill="#5BC1FF"/>
<path d="M15.8448 24.1038C14.9673 24.1037 14.1079 23.8538 13.367 23.3835C12.6262 22.9132 12.0344 22.2419 11.6608 21.4478C11.2872 20.6538 11.1472 19.7699 11.2572 18.8992C11.3671 18.0286 11.7225 17.2073 12.2818 16.531C12.8411 15.8548 13.5813 15.3517 14.4158 15.0804C15.2504 14.8091 16.1449 14.7808 16.9949 14.9989C17.8449 15.2169 18.6154 15.6723 19.2163 16.3118C19.8172 16.9513 20.2237 17.7486 20.3885 18.6105" stroke="#454545" stroke-width="2" stroke-linecap="round" stroke-linejoin="round"/>
<path d="M30.9551 18.6106C31.1197 17.7485 31.5263 16.9511 32.1272 16.3114C32.7281 15.6718 33.4986 15.2163 34.3488 14.9982C35.1989 14.78 36.0935 14.8083 36.9282 15.0796C37.7628 15.3509 38.5031 15.8541 39.0625 16.5304C39.6219 17.2067 39.9773 18.0281 40.0873 18.8989C40.1972 19.7696 40.0572 20.6537 39.6835 21.4478C39.3098 22.2419 38.7179 22.9134 37.9769 23.3837C37.2359 23.854 36.3764 24.1037 35.4987 24.1038" fill="#5BC1FF"/>
<path d="M30.9551 18.6106C31.1197 17.7485 31.5263 16.9511 32.1272 16.3114C32.7281 15.6718 33.4986 15.2163 34.3488 14.9982C35.1989 14.78 36.0935 14.8083 36.9282 15.0796C37.7628 15.3509 38.5031 15.8541 39.0625 16.5304C39.6219 17.2067 39.9773 18.0281 40.0873 18.8989C40.1972 19.7696 40.0572 20.6537 39.6835 21.4478C39.3098 22.2419 38.7179 22.9134 37.9769 23.3837C37.2359 23.854 36.3764 24.1037 35.4987 24.1038" stroke="#454545" stroke-width="2" stroke-linecap="round" stroke-linejoin="round"/>
</svg>
