<svg width="51" height="50" viewBox="0 0 51 50" fill="none" xmlns="http://www.w3.org/2000/svg">
<path d="M39.1152 38.4062V23.1016C39.1152 22.9318 39.0797 22.7639 39.0111 22.6086C38.9424 22.4533 38.842 22.3141 38.7163 22.1998L26.528 11.1191C26.3036 10.9151 26.0113 10.8021 25.7081 10.8021C25.4049 10.8021 25.1126 10.9152 24.8882 11.1191L12.7016 22.1998C12.576 22.3141 12.4756 22.4533 12.4069 22.6086C12.3382 22.7638 12.3027 22.9318 12.3027 23.1016V38.4062" fill="#5BC1FF"/>
<path d="M39.1152 38.4062V23.1016C39.1152 22.9318 39.0797 22.7639 39.0111 22.6086C38.9424 22.4533 38.842 22.3141 38.7163 22.1998L26.528 11.1191C26.3036 10.9151 26.0113 10.8021 25.7081 10.8021C25.4049 10.8021 25.1126 10.9152 24.8882 11.1191L12.7016 22.1998C12.576 22.3141 12.4756 22.4533 12.4069 22.6086C12.3382 22.7638 12.3027 22.9318 12.3027 23.1016V38.4062" stroke="#454545" stroke-width="2" stroke-linecap="round" stroke-linejoin="round"/>
<path d="M29.3633 38.405V29.8737C29.3633 29.5505 29.2349 29.2405 29.0063 29.012C28.7778 28.7834 28.4678 28.655 28.1445 28.655H23.2695C22.9463 28.655 22.6363 28.7834 22.4077 29.012C22.1792 29.2405 22.0508 29.5505 22.0508 29.8737V38.405" fill="white"/>
<path d="M29.3633 38.405V29.8737C29.3633 29.5505 29.2349 29.2405 29.0063 29.012C28.7778 28.7834 28.4678 28.655 28.1445 28.655H23.2695C22.9463 28.655 22.6363 28.7834 22.4077 29.012C22.1792 29.2405 22.0508 29.5505 22.0508 29.8737V38.405" stroke="#454545" stroke-width="2" stroke-linecap="round" stroke-linejoin="round"/>
<path d="M8.64648 38.4062H42.7715" stroke="#454545" stroke-width="2" stroke-linecap="round" stroke-linejoin="round"/>
</svg>
