<svg width="51" height="51" viewBox="0 0 51 51" fill="none" xmlns="http://www.w3.org/2000/svg">
<path d="M25.6719 40.1692C33.5419 40.1692 39.9219 33.7892 39.9219 25.9192C39.9219 18.0491 33.5419 11.6692 25.6719 11.6692C17.8018 11.6692 11.4219 18.0491 11.4219 25.9192C11.4219 33.7892 17.8018 40.1692 25.6719 40.1692Z" fill="#C9EBFF" stroke="#454545" stroke-width="2" stroke-linecap="round" stroke-linejoin="round"/>
<path d="M25.6719 35.4192C26.6556 35.4192 27.4531 34.6217 27.4531 33.6379C27.4531 32.6542 26.6556 31.8567 25.6719 31.8567C24.6881 31.8567 23.8906 32.6542 23.8906 33.6379C23.8906 34.6217 24.6881 35.4192 25.6719 35.4192Z" fill="black"/>
<path d="M25.6719 28.2949V27.1074C26.4939 27.1074 27.2975 26.8636 27.981 26.4069C28.6645 25.9502 29.1972 25.3011 29.5118 24.5416C29.8263 23.7822 29.9086 22.9465 29.7483 22.1403C29.5879 21.334 29.1921 20.5935 28.6108 20.0122C28.0295 19.4309 27.289 19.0351 26.4827 18.8747C25.6765 18.7144 24.8408 18.7967 24.0813 19.1112C23.3219 19.4258 22.6728 19.9585 22.2161 20.642C21.7594 21.3255 21.5156 22.1291 21.5156 22.9511" stroke="#454545" stroke-width="2" stroke-linecap="round" stroke-linejoin="round"/>
</svg>
