<svg width="51" height="51" viewBox="0 0 51 51" fill="none" xmlns="http://www.w3.org/2000/svg">
<path d="M25.6719 33.4348C28.8648 33.4348 31.4531 30.8465 31.4531 27.6536C31.4531 24.4607 28.8648 21.8723 25.6719 21.8723C22.479 21.8723 19.8906 24.4607 19.8906 27.6536C19.8906 30.8465 22.479 33.4348 25.6719 33.4348Z" fill="#C9EBFF" stroke="#454545" stroke-width="2" stroke-linecap="round" stroke-linejoin="round"/>
<path d="M35.5 24.1848C36.8464 24.1837 38.1746 24.4966 39.3789 25.0986C40.5832 25.7007 41.6305 26.5753 42.4377 27.6529" stroke="#454545" stroke-width="2" stroke-linecap="round" stroke-linejoin="round"/>
<path d="M8.90625 27.6533C9.71337 26.5755 10.7607 25.7008 11.9651 25.0987C13.1695 24.4966 14.4977 24.1837 15.8442 24.1848" stroke="#454545" stroke-width="2" stroke-linecap="round" stroke-linejoin="round"/>
<path d="M17.3535 38.6378C18.1131 37.0777 19.2959 35.7627 20.7671 34.8427C22.2382 33.9227 23.9384 33.4348 25.6735 33.4348C27.4087 33.4348 29.1088 33.9226 30.58 34.8426C32.0512 35.7626 33.234 37.0777 33.9936 38.6378" fill="#C9EBFF"/>
<path d="M17.3535 38.6378C18.1131 37.0777 19.2959 35.7627 20.7671 34.8427C22.2382 33.9227 23.9384 33.4348 25.6735 33.4348C27.4087 33.4348 29.1088 33.9226 30.58 34.8426C32.0512 35.7626 33.234 37.0777 33.9936 38.6378" stroke="#454545" stroke-width="2" stroke-linecap="round" stroke-linejoin="round"/>
<path d="M15.8448 24.1848C14.9673 24.1847 14.1079 23.9348 13.367 23.4645C12.6262 22.9942 12.0344 22.3229 11.6608 21.5288C11.2872 20.7348 11.1472 19.8509 11.2572 18.9802C11.3671 18.1096 11.7225 17.2882 12.2818 16.612C12.8411 15.9358 13.5813 15.4327 14.4158 15.1614C15.2504 14.8901 16.1449 14.8618 16.9949 15.0799C17.8449 15.2979 18.6154 15.7533 19.2163 16.3928C19.8172 17.0323 20.2237 17.8296 20.3885 18.6915" fill="#C9EBFF"/>
<path d="M15.8448 24.1848C14.9673 24.1847 14.1079 23.9348 13.367 23.4645C12.6262 22.9942 12.0344 22.3229 11.6608 21.5288C11.2872 20.7348 11.1472 19.8509 11.2572 18.9802C11.3671 18.1096 11.7225 17.2882 12.2818 16.612C12.8411 15.9358 13.5813 15.4327 14.4158 15.1614C15.2504 14.8901 16.1449 14.8618 16.9949 15.0799C17.8449 15.2979 18.6154 15.7533 19.2163 16.3928C19.8172 17.0323 20.2237 17.8296 20.3885 18.6915" stroke="#454545" stroke-width="2" stroke-linecap="round" stroke-linejoin="round"/>
<path d="M30.9551 18.6916C31.1197 17.8296 31.5263 17.0321 32.1272 16.3925C32.7281 15.7528 33.4986 15.2973 34.3488 15.0792C35.1989 14.8611 36.0935 14.8893 36.9282 15.1606C37.7628 15.4319 38.5031 15.9351 39.0625 16.6114C39.6219 17.2877 39.9773 18.1092 40.0873 18.9799C40.1972 19.8506 40.0572 20.7347 39.6835 21.5288C39.3098 22.323 38.7179 22.9944 37.9769 23.4647C37.2359 23.935 36.3764 24.1848 35.4987 24.1848" fill="#C9EBFF"/>
<path d="M30.9551 18.6916C31.1197 17.8296 31.5263 17.0321 32.1272 16.3925C32.7281 15.7528 33.4986 15.2973 34.3488 15.0792C35.1989 14.8611 36.0935 14.8893 36.9282 15.1606C37.7628 15.4319 38.5031 15.9351 39.0625 16.6114C39.6219 17.2877 39.9773 18.1092 40.0873 18.9799C40.1972 19.8506 40.0572 20.7347 39.6835 21.5288C39.3098 22.323 38.7179 22.9944 37.9769 23.4647C37.2359 23.935 36.3764 24.1848 35.4987 24.1848" stroke="#454545" stroke-width="2" stroke-linecap="round" stroke-linejoin="round"/>
</svg>
