<svg width="51" height="50" viewBox="0 0 51 50" fill="none" xmlns="http://www.w3.org/2000/svg">
<path d="M39.0781 38.4062V23.1016C39.0781 22.9318 39.0426 22.7639 38.9739 22.6086C38.9052 22.4533 38.8049 22.3141 38.6792 22.1998L26.4909 11.1191C26.2665 10.9151 25.9742 10.8021 25.671 10.8021C25.3678 10.8021 25.0755 10.9152 24.8511 11.1191L12.6645 22.1998C12.5388 22.3141 12.4385 22.4533 12.3698 22.6086C12.3011 22.7638 12.2656 22.9318 12.2656 23.1016V38.4062" stroke="#454545" stroke-width="2" stroke-linecap="round" stroke-linejoin="round"/>
<path d="M8.60938 38.4062H42.7344" stroke="#454545" stroke-width="2" stroke-linecap="round" stroke-linejoin="round"/>
<path d="M29.3262 38.405V29.8737C29.3262 29.5505 29.1978 29.2405 28.9692 29.012C28.7406 28.7834 28.4307 28.655 28.1074 28.655H23.2324C22.9092 28.655 22.5992 28.7834 22.3706 29.012C22.1421 29.2405 22.0137 29.5505 22.0137 29.8737V38.405" stroke="#454545" stroke-width="2" stroke-linecap="round" stroke-linejoin="round"/>
</svg>
