<svg width="51" height="50" viewBox="0 0 51 50" fill="none" xmlns="http://www.w3.org/2000/svg">
<path d="M26.2344 37.3739H14.375C14.0891 37.3739 13.8148 37.2603 13.6127 37.0581C13.4105 36.8559 13.2969 36.5817 13.2969 36.2958V24.4364C13.2969 22.7374 13.6315 21.0551 14.2817 19.4854C14.9319 17.9158 15.8848 16.4896 17.0862 15.2882C18.2875 14.0868 19.7137 13.1339 21.2834 12.4837C22.853 11.8335 24.5354 11.4989 26.2343 11.4989H26.2344C27.9334 11.4989 29.6157 11.8335 31.1853 12.4837C32.755 13.1339 34.1812 14.0868 35.3826 15.2882C36.5839 16.4896 37.5369 17.9158 38.1871 19.4854C38.8372 21.0551 39.1719 22.7374 39.1719 24.4364V24.4364C39.1719 27.8677 37.8088 31.1584 35.3826 33.5846C32.9563 36.0109 29.6656 37.3739 26.2344 37.3739Z" stroke="#454545" stroke-width="2" stroke-linecap="round" stroke-linejoin="round"/>
<path d="M21.7344 22.7489H30.1719" stroke="#454545" stroke-width="2" stroke-linecap="round" stroke-linejoin="round"/>
<path d="M21.7344 27.2489H30.1719" stroke="#454545" stroke-width="2" stroke-linecap="round" stroke-linejoin="round"/>
</svg>
