<svg width="51" height="50" viewBox="0 0 51 50" fill="none" xmlns="http://www.w3.org/2000/svg">
<path d="M25.6719 39.25C33.5419 39.25 39.9219 32.8701 39.9219 25C39.9219 17.1299 33.5419 10.75 25.6719 10.75C17.8018 10.75 11.4219 17.1299 11.4219 25C11.4219 32.8701 17.8018 39.25 25.6719 39.25Z" stroke="#454545" stroke-width="2" stroke-linecap="round" stroke-linejoin="round"/>
<path d="M25.6719 34.5C26.6556 34.5 27.4531 33.7025 27.4531 32.7188C27.4531 31.735 26.6556 30.9375 25.6719 30.9375C24.6881 30.9375 23.8906 31.735 23.8906 32.7188C23.8906 33.7025 24.6881 34.5 25.6719 34.5Z" fill="black"/>
<path d="M25.6719 27.3757V26.1882C26.4939 26.1882 27.2975 25.9444 27.981 25.4877C28.6645 25.031 29.1972 24.3819 29.5118 23.6225C29.8263 22.863 29.9086 22.0273 29.7483 21.2211C29.5879 20.4148 29.1921 19.6743 28.6108 19.093C28.0295 18.5117 27.289 18.1159 26.4827 17.9555C25.6765 17.7952 24.8408 17.8775 24.0813 18.192C23.3219 18.5066 22.6728 19.0393 22.2161 19.7228C21.7594 20.4063 21.5156 21.2099 21.5156 22.0319" stroke="#454545" stroke-width="2" stroke-linecap="round" stroke-linejoin="round"/>
</svg>
