<svg xmlns="http://www.w3.org/2000/svg" viewBox="0 0 632.45 414.12"><defs><style>.cls-1{fill:#e8ecf8;}.cls-10,.cls-2,.cls-7{fill:none;stroke-linecap:round;stroke-linejoin:round;}.cls-2{stroke:#aeb9d3;stroke-width:5px;}.cls-3{fill:#ffc74f;}.cls-4{fill:#a2493b;}.cls-5{fill:#381905;}.cls-6{fill:#8e352d;}.cls-10,.cls-7{stroke:#381905;}.cls-7{stroke-width:0.5px;}.cls-8{fill:#fff;}.cls-9{fill:#0db3f1;}.cls-11{fill:#e87578;}.cls-12{fill:#cd005d;}.cls-13{fill:#b7464e;}.cls-14{fill:#ff8b6a;}.cls-15{fill:#0b7c82;}.cls-16{fill:#dd6c52;}.cls-17{fill:#aeb9d3;}</style></defs><g id="Layer_2" data-name="Layer 2"><g id="OBJECTS"><rect class="cls-1" x="462.03" y="104.7" width="170.23" height="206.11"/><polyline class="cls-2" points="469.71 323.58 616.54 323.58 616.54 90.55 447.13 90.55 447.13 297.79"/><line class="cls-2" x1="616.54" y1="130.46" x2="447.13" y2="130.46"/><path class="cls-3" d="M579,249.1c1.61,3.69,3,7.64,2.68,11.66s-2.71,8.11-6.56,9.3-7.73-.63-11-2.74c-12.23-7.87-20.26-21.47-22.21-35.78-.77-5.71-7-18.75,0-20.87,6.54-2,18.91,11.35,22.59,15.58A89.33,89.33,0,0,1,579,249.1Z"/><path class="cls-3" d="M554,245.09c0,3.49-.19,7.24.85,10.39,1.19,3.59,1.69,6,.65,9.78-.92,3.39-2.51,6.69-2.26,10.29.51,7.28.35,14.66.18,22-.24,10.5-13.23,7.22-20.62,7.26l-21,.12c-2.54,0-16.1,1.7-17.53-.1a3,3,0,0,1-.43-2c-.5-12.34.31-24.8.12-37.16-.19-12-.91-24-1.25-36-.17-5.95-.05-12.64,4.22-16.78,4.46-4.35,10.91-3.82,16.63-3.81,7.37,0,14.61-.49,22,.32,6.16.68,13.42,1.26,16.27,7.69,1.46,3.3,1.59,7,1.7,10.61q.24,7.47.47,15C554,243.48,554,244.28,554,245.09Z"/><path class="cls-4" d="M588,216.73a8.53,8.53,0,0,0-1,0c-2.48.23-2.3.36-2.84,2.58q-1.71,7-4,13.92A185.15,185.15,0,0,1,572,253.79c-1.06,2.26-3.71,5.36-3.55,7.84.19,3.13,3.7,6,6.92,6.87,12.48,3.34,12.9-11.9,14.36-18.66s2.95-13.73,4.42-20.59c.44-2.06,3.5-9.36,1.86-10.75a4,4,0,0,0-1.66-.72A27.19,27.19,0,0,0,588,216.73Z"/><path class="cls-4" d="M597.63,221.06a7,7,0,0,1-1.21,1c-.47.31-1.85,1.14-2.51.78L590.43,221c-1.44-.79-2.86-1.07-4-2.25a9.37,9.37,0,0,1-2.65-7.7,8,8,0,0,0,.15-3.26c-.18-.75-.61-1.58-.17-2.21a1.54,1.54,0,0,1,1.32-.53,2.59,2.59,0,0,1,2.08,1.22c.3.61.28,1.89,1,2.26,1,.5,2.52,0,3.34-.52,3.05-1.8,4.4-5.11,6.84-7.51.49-.48,1.24-1,1.91-.64a1.09,1.09,0,0,1,.59,1.15,2.85,2.85,0,0,1-.58,1.2l-2.91,4.2c-.14.21-.53.78-.26,1s.79,0,1-.18a3,3,0,0,0,.67-.71c1.09-1.42,2.22-2.82,3.35-4.22a4.49,4.49,0,0,1,1.29-1.2,1.87,1.87,0,0,1,1.82,0c.85.53.33,1.42-.07,2-.58.83-1.22,1.63-1.87,2.41-1.31,1.57-2.7,3.09-3.94,4.71-.22.29-.43.71-.13,1a.68.68,0,0,0,.7.06,1.58,1.58,0,0,0,.51-.45l4.54-5.26c.29-.34.87-1.06,1.46-.85s.51,1,.37,1.37a12.85,12.85,0,0,1-2.57,3.69c-1,1.13-1.84,2.32-2.7,3.52a.32.32,0,0,0,.35.54,1,1,0,0,0,.44-.29,37.76,37.76,0,0,1,3.43-2.87c.32-.24.78-.47,1.12-.23a.54.54,0,0,1,.2.53,5.79,5.79,0,0,1-1,1.86,8.48,8.48,0,0,1-1.86,1.77,33,33,0,0,0-3.19,2.37,33,33,0,0,0-2.68,3.35A10,10,0,0,1,597.63,221.06Z"/><path class="cls-5" d="M496.62,167.93l.7-.57c2.78-2.18,5.92-4.16,8-7a33.3,33.3,0,0,1,7.94-7.11c1.52-1.1,3.55-2.14,5.16-1.18s1.67,2.93,1.35,4.61c-.46,2.37-1.61,4.54-2.38,6.83-1.24,3.66-.07,6.16.53,9.71q1.93,11.63,3.89,23.24c.29,1.76.57,3.65-.16,5.28-1.12,2.48-2.52,2.46-4.83,2.57-3.06.16-6.2.88-9.25,1.31-2.28.32-5,.5-6.5-1.25-1.79-2.08-.63-5.42-1.78-7.92-1.32-2.84-5.37-4-6-7-.59-2.84,2.19-5.38,2.22-8.28s-2.52-5.22-2.36-8C493.3,171,494.92,169.32,496.62,167.93Z"/><path class="cls-5" d="M533.32,174.93c-.14-3.1-.14-6.2-.48-9.29a16.92,16.92,0,0,0-1-5c-.4-.88-.8-1-1.52-1.5a9.79,9.79,0,0,1-2.44-3,2.31,2.31,0,0,1-.35-2c.38-.8,1.43-1,2.31-.91,2.51.15,4.14,1.42,6.33,2.39a49.53,49.53,0,0,0,6.5,1.91c3.1.87,6.39,2.55,7.36,5.63.78,2.51-.19,5.41,1,7.77,1,2.09,3.42,3.14,4.78,5,2.27,3.18.86,7.9-2,10.55-1,.95-2.28,1.79-2.76,3.11-1,2.61,1.57,5.88-.07,8.13-1.76,2.43-6.24.67-8.24,2.91-1,1.09-1,2.75-1.82,3.94-2.63,3.77-6.63-.1-9.66-.47-1.48-.18-3.41.46-4.63-.74-1.47-1.46-.13-3.44.86-4.75C532.83,191.49,533.72,183.56,533.32,174.93Z"/><path class="cls-4" d="M514.71,210.06l.09-7c0-1.09-2-14.59-3-14.14l17.89-7.76c-.3,4.93-.37,9.89-.24,14.83.08,3.37-.39,8.29.91,11.45a4.1,4.1,0,0,0,.57,1c1.65,2,4.6.81,5.49,3.25a3.51,3.51,0,0,1-1.2,3.61c-3,2.64-5.84,5-9.78,6.15-4.92,1.46-8.87-.49-12.47-3.79a5.85,5.85,0,0,1-2.1-3.07C510.37,211.85,513.83,211.82,514.71,210.06Z"/><path class="cls-6" d="M529.44,196c0,1.81-.06,4,0,6.24l-.86.39a62.51,62.51,0,0,1-7.74,3.27,55.94,55.94,0,0,1-6.11,1.59l0-4.42c0-1.09-2-14.59-3-14.14l17.89-7.76C529.38,186.12,529.31,191.08,529.44,196Z"/><path class="cls-4" d="M541,187.38a18.48,18.48,0,0,1-4.91,8.91,18.7,18.7,0,0,1-4.31,3c-1.31.67-2.41,1.69-3.7,2.32-3.34,1.64-7.9,1.15-11.24-.16a20.22,20.22,0,0,1-9.51-8.14,27.41,27.41,0,0,1-3.31-7.8,27.13,27.13,0,0,1-.58-7.3,62.59,62.59,0,0,1,1.05-11c.54-2.92,1-6,3.32-8.11a16.27,16.27,0,0,1,4.61-2.74,29.41,29.41,0,0,1,13.78-2.75c4.44.35,9.75,2.38,12.18,6.34a25.87,25.87,0,0,1,3.33,14.93C541.44,179.1,542.05,183.17,541,187.38Z"/><path class="cls-4" d="M540.75,178.54A6.94,6.94,0,0,1,543,175a3.13,3.13,0,0,1,3.94,0c1.19,1.19.78,3.28-.26,4.59a6.43,6.43,0,0,1-5.07,2.37"/><path class="cls-7" d="M546.22,177.83a1.57,1.57,0,0,0-1.32-1.49,2.17,2.17,0,0,0-1.92.78,3.61,3.61,0,0,0-.77,2,.9.9,0,0,1,1.38.13.89.89,0,0,1-.53,1.27"/><path class="cls-4" d="M504.43,179.25a7,7,0,0,0-2.29-3.55,3.15,3.15,0,0,0-3.95.08c-1.17,1.2-.74,3.28.32,4.58a6.41,6.41,0,0,0,5.09,2.32"/><path class="cls-7" d="M498.41,178.1a1.57,1.57,0,0,1,1.3-1.51,2.19,2.19,0,0,1,1.94.76,3.6,3.6,0,0,1,.79,2,.86.86,0,1,0-.84,1.41"/><path class="cls-5" d="M542.73,169.17a48.1,48.1,0,0,1-.3,11.43l-2,18.8-1.92-27.25c-.12-1.59-1.65-11.93-.5-12.39C540.31,158.82,542.55,167.85,542.73,169.17Z"/><path class="cls-5" d="M514.06,157.09c-9.07,12.53-8.17,26.71-7.94,39a61.63,61.63,0,0,1-.24-38.54"/><path class="cls-8" d="M514.28,177.78a3.4,3.4,0,0,1,.46.06,4.29,4.29,0,0,1,1.78.93,6.07,6.07,0,0,1,1.19,1.07c.37.54-.16.89-.6,1.25a4.89,4.89,0,0,1-3.33,1.06,4.79,4.79,0,0,1-2.62-1.07c-.7-.57-1.68-1.53-.59-2.2A6.92,6.92,0,0,1,514.28,177.78Z"/><path class="cls-7" d="M509,178.92l1,.54a5.21,5.21,0,0,1,4.18-1.53,5.13,5.13,0,0,1,3.77,2.35"/><path class="cls-5" d="M513.23,178.64a1.4,1.4,0,0,1-.57,2.07,1.43,1.43,0,0,1-1.69-.49c-.4-.58-.32-1.59.4-1.82C511.92,178.21,512.88,178,513.23,178.64Z"/><path class="cls-8" d="M512.07,178.67a.55.55,0,0,0-.35.59.68.68,0,0,0,.47.54.72.72,0,0,0,.76-.19.65.65,0,0,0,.1-.76.61.61,0,0,0-.72-.26"/><path class="cls-8" d="M531,177.88a3.69,3.69,0,0,0-.45.11,4.45,4.45,0,0,0-1.67,1.11,6.28,6.28,0,0,0-1.06,1.19c-.32.58.24.87.72,1.18a4.67,4.67,0,0,0,5.92-.63c.63-.64,1.51-1.7.35-2.25A7.06,7.06,0,0,0,531,177.88Z"/><path class="cls-7" d="M536.37,178.46l-1,.65a5.07,5.07,0,0,0-7.82,1.65"/><path class="cls-5" d="M528.53,179.27a1.4,1.4,0,0,0,.78,2,1.44,1.44,0,0,0,1.64-.66c.33-.61.14-1.61-.6-1.77C529.79,178.7,528.8,178.6,528.53,179.27Z"/><path class="cls-8" d="M529.69,179.18a.55.55,0,0,1,.41.55.7.7,0,0,1-.41.58.76.76,0,0,1-.78-.1.68.68,0,0,1-.18-.76.6.6,0,0,1,.69-.32"/><path class="cls-5" d="M534.68,172.64a5.44,5.44,0,0,0-3.25-1.47,3.58,3.58,0,0,0-3.17,1.45c.44.37,1.1.19,1.67.13a7.18,7.18,0,0,1,4.2,1.34c.37.21,2.36,1.63,2.55,1.07S535,173,534.68,172.64Z"/><path class="cls-5" d="M510.6,171.75a5.45,5.45,0,0,1,3.24-1.5,3.62,3.62,0,0,1,3.18,1.41c-.44.38-1.09.21-1.67.15a7.23,7.23,0,0,0-4.18,1.38c-.37.22-2.35,1.66-2.54,1.11S510.25,172.06,510.6,171.75Z"/><path class="cls-5" d="M523,190.09l-3.6,1.4a6.76,6.76,0,0,0,3.46,2.18,3.61,3.61,0,0,0,3.7-1.3.44.44,0,0,0,.11-.34c-.12-.48-.81,0-1.08-.16-.47-.32.27-.83.3-1.27C525.94,189.14,523.69,189.81,523,190.09Z"/><path class="cls-7" d="M522.69,181.75c0,.48-.16.9.2,1.27a2.58,2.58,0,0,0,1.09.65,1.13,1.13,0,0,1,.8,1,1.54,1.54,0,0,1-1.5,1.74"/><path class="cls-5" d="M511.58,158.43c-.3,3.84.47,7.73,4.34,7.67,1.59,0,3.14-1.08,4.67-.68,2.1.55,2.8,3.42,4.81,4.22s4.19-.84,6.37-.94c2.75-.12,7.06,3.48,9.3.65,2-2.56,0-6.68-.36-9.37s.79-5.94-.74-8.32c-1.2-1.87-3.65-2.5-5.88-2.5s-4.45.47-6.65.12c-3.07-.49-5.93-2.55-9-2.07A7.53,7.53,0,0,0,513,152,24,24,0,0,0,511.58,158.43Z"/><path class="cls-5" d="M500,169.36c.83-5.18,1.91-11,6-14.66a16.41,16.41,0,0,1,9.43-3.61c1.41-.13,5.42-1,4.69,1-1,2.79-5.6,4.31-7.84,5.83-2,1.38-3.39,3.55-4.82,5.56C505.7,166,503.05,168.57,500,169.36Z"/><polygon class="cls-9" points="496.26 227.12 496.26 227.12 496.26 227.12 496.26 227.12"/><path class="cls-5" d="M471.2,295.63l37.58-1.51c-.9,2.44-4.54,14.63-5.65,18.22l-.15,0-32-15.62A.56.56,0,0,1,471.2,295.63Z"/><path class="cls-5" d="M507.74,315.74l67-2.69a2.11,2.11,0,0,0,1.93-1.51l12.75-43.13a2.12,2.12,0,0,0-2.11-2.7l-66.95,2.7a2.1,2.1,0,0,0-1.93,1.51l-12.75,43.13A2.1,2.1,0,0,0,507.74,315.74Z"/><polyline class="cls-10" points="503.53 314.18 503.71 318.71 576.1 315.79"/><polyline class="cls-10" points="501.17 316.54 501 312.45 469.05 297.45 469.26 302.62 501.26 318.81"/><path class="cls-10" d="M587,264.38l-2.94-.69-64.61,2.6a3.21,3.21,0,0,0-2.95,2.28l-13.35,43.77"/><line class="cls-10" x1="497.56" y1="313.34" x2="485.81" y2="308.1"/><line class="cls-10" x1="477.89" y1="304.36" x2="475.59" y2="303.44"/><line class="cls-7" x1="581.07" y1="230.37" x2="571.37" y2="257.47"/><path class="cls-3" d="M468.53,298.17C464.31,294,462.3,288,462,282.09s1-11.78,2.49-17.5a181.38,181.38,0,0,1,11-30.12c4.85-10.3,12.78-18.74,23.45-23.18,2.08-.87,4.9-1.4,6.26.4,1,1.37.59,3.31.09,4.95-4.63,15.35-8.6,30.36-11.77,46.08-.71,3.5-1.9,7.21-2.14,10.78-.15,2.18.6,4.22.79,6.4.27,3.16.39,6.33.59,9.49.14,2.38,1.51,4.54.37,6.9a9.72,9.72,0,0,1-4.2,4C482.25,304,474.2,303.75,468.53,298.17Z"/><path class="cls-4" d="M517,311.89a3.65,3.65,0,0,0,1.88.07,1.3,1.3,0,0,0,.36-2.41,6.19,6.19,0,0,0-1.61-.68,25.44,25.44,0,0,1-8.3-4.41c-.3-.24-1.11-.72-.87-1.19a.51.51,0,0,1,.51-.26c0,.47,1.17,1.23,1.53,1.51a15,15,0,0,0,2,1.41,11.39,11.39,0,0,0,5,1.61c.9.06,2.53,0,2.6-1.22a1.6,1.6,0,0,0-.91-1.39,7.77,7.77,0,0,0-1.64-.57c-3-1-4.92-3.8-6.48-6.53a4.65,4.65,0,0,1-.84-2.55c.18-2.12,3-1.55,4.43-1.88a2.48,2.48,0,0,0,1.73-1.71,1.29,1.29,0,0,0-.39-1.3c-.64-.51-1.66-.26-2.54-.22a11.42,11.42,0,0,1-3.69-.69c-3.91-1.09-7.95-.42-11.93-.31a14.34,14.34,0,0,1-4.63-.19c-3.69-1.24-5.62-4.93-9.58-6a11,11,0,0,0-8.56,1.11c-2.17,1.35-4.62,4.39-4.31,7.14.34,3,3.65,5.48,6.17,6.51a24.31,24.31,0,0,0,9.18,1.33,74.62,74.62,0,0,1,8.46.36c2.86.34,2.92,3.21,4.14,5.44a21.52,21.52,0,0,0,8,8.27c.51.3,1.37.44,1.52-.14a1,1,0,0,0-.34-.82,18.81,18.81,0,0,0-2.93-2.55c-.16-.13-.33-.31-.27-.5.26-.72,1.59.77,1.81,1a19.61,19.61,0,0,0,2.44,1.73,19.19,19.19,0,0,0,5.35,2.18,2.45,2.45,0,0,0,1.17.07.91.91,0,0,0,.72-.83c0-.49-.54-.79-1-1a33,33,0,0,1-8.45-4.92c-.17-.15-.36-.36-.3-.58a.45.45,0,0,1,.65-.19c.25.15.4.45.64.63s.76.49,1.13.75a26.67,26.67,0,0,0,2.33,1.6A21.38,21.38,0,0,0,517,311.89Z"/><rect class="cls-1" x="17.4" y="104.7" width="170.23" height="206.11"/><path class="cls-11" d="M45.58,232l14.56,10.76s-14,35.7-27.95,24.65l-.81-1.17C25.72,256.27,45.58,232,45.58,232Z"/><path class="cls-11" d="M134.78,219.63l-9.43,15.45s26.4,27.81,35.17,12.31l.31-1.39C162.32,234.63,134.78,219.63,134.78,219.63Z"/><path class="cls-12" d="M48.37,244.44q3.83,3.18,7.86,6.11c.63.46,1.51.91,2.12.43,1.4-1.09,1.66-4.73,2.24-6.32a43.56,43.56,0,0,1,3.47-7.26c-.55,6.92-3.23,12.86-4.6,19.5-1.26,6.1,3.61,11.35,3.43,17.34-.21,7.3.24,14.66.7,22,.67,10.48,13.52,6.68,20.91,6.43l21-.73c2.54-.09,16.16,1.05,17.52-.81a3,3,0,0,0,.34-2c-.88-16.1-1.67-32.09-1.79-48.2,0-4.87.27-10.38.47-16.08,2.67,2.55,4.54,6.14,8,5.11,2.93-.88,6.43-5.18,8-7.79a18,18,0,0,0,3-9,8.57,8.57,0,0,0-.14-1.51c-.81-4.1-4-4.12-6.73-6.24-3.4-2.68-5.14-5.56-9.61-7s-9.2-1.64-13.88-1.8c-10.93-.38-21.92-.75-32.73.88-13.57,2.06-30,7-33.69,21.76a3.63,3.63,0,0,1-1.1,2.16,18.35,18.35,0,0,1-1.83.73A2.72,2.72,0,0,0,40,234.73a6.13,6.13,0,0,0,1.07,2.82c1.62,2.59,4.46,4.54,6.78,6.49Z"/><path class="cls-5" d="M100.72,263.92s-22.57-26.45-21.84-27.44,8.68-8.14,12.09-8.89,15.67,21.23,21.41,26.69C113.19,255.05,103.3,263.89,100.72,263.92Z"/><path class="cls-11" d="M107.83,244.94a9.16,9.16,0,0,1,.29-1c.85-2.35.93-2.14,3.21-2.11q7.23.09,14.48-.39a186.48,186.48,0,0,0,21.9-2.78c2.46-.47,6.11-2.26,8.48-1.49,3,1,4.89,5.08,4.92,8.42.13,12.92-14.74,9.53-21.64,9.25l-21-.85c-2.11-.08-9.94,1.06-10.87-.88a4.09,4.09,0,0,1-.29-1.79A27.46,27.46,0,0,1,107.83,244.94Z"/><path class="cls-11" d="M110.07,253.65a7.15,7.15,0,0,0,1.28-.92c.42-.38,1.57-1.5,1.39-2.23-.33-1.28-.65-2.56-1-3.84-.4-1.6-.32-3-1.17-4.45-1.5-2.48-4-3.64-6.16-5.47a9.76,9.76,0,0,0-2.39-1.66c-1.5-.65-2.37.09-3.78.26A9.11,9.11,0,0,1,99.79,237a2.63,2.63,0,0,1,.35,2.83,6.07,6.07,0,0,1-1.82,1.89l-6,4.68c-.79.62-1.77,1.28-2.73,1-.28-.08-.54-.25-.82-.34a.84.84,0,0,0-.84.14,1,1,0,0,0-.07.94,4.19,4.19,0,0,0,3.74,2.47,9,9,0,0,0,3-.37c.5-.14,2-1.15,2.45-.46.52.85-2.23,1.69-2.75,1.81-1.21.27-1.9-.22-3-.41-1.54-.27-1.06,1-.32,1.64A5.08,5.08,0,0,0,94.29,254a9.93,9.93,0,0,0,2.87-.64c.46-.15,2.4-1.14,2.72-.72s-.5,1.37-.79,1.52a4.3,4.3,0,0,1-1.72.63,10.47,10.47,0,0,1-2.85.1,2.75,2.75,0,0,0-.81,0,.77.77,0,0,0-.6.5c-.32,1.25,2.07,1.69,2.86,1.66a10.1,10.1,0,0,0,3.1-.74c.57-.2,3.64-1.68,2.84-.07a4.43,4.43,0,0,1-2.11,1.51,9.61,9.61,0,0,1-2.51.26,1,1,0,0,0-.74.22.66.66,0,0,0-.06.77,1.46,1.46,0,0,0,.62.53c1.94,1.05,3.55.08,5-1.13a32.81,32.81,0,0,1,3.09-2.5,32,32,0,0,1,3.92-1.76A8.86,8.86,0,0,0,110.07,253.65Z"/><path class="cls-11" d="M25.76,216.86c.34,0,.68,0,1,0,2.49.14,2.32.27,2.95,2.47q2,7,4.54,13.75a187,187,0,0,0,9,20.18c1.15,2.21,3.92,5.2,3.87,7.68-.07,3.14-3.46,6.15-6.64,7.14-12.34,3.84-13.38-11.36-15.1-18.06l-5.25-20.4c-.53-2-3.87-9.21-2.29-10.66a4.13,4.13,0,0,1,1.63-.79A27.84,27.84,0,0,1,25.76,216.86Z"/><path class="cls-11" d="M16.29,221.58a7.53,7.53,0,0,0,1.26,1c.48.29,1.89,1.06,2.53.68l3.4-2c1.42-.85,2.82-1.18,3.93-2.41a9.36,9.36,0,0,0,2.33-7.8,8.15,8.15,0,0,1-.29-3.25c.16-.75.56-1.6.09-2.21a1.54,1.54,0,0,0-1.34-.48,2.58,2.58,0,0,0-2,1.3c-.28.62-.2,1.9-.94,2.31-1,.54-2.52.06-3.36-.39-3.12-1.68-4.59-4.93-7.13-7.24-.51-.45-1.28-.9-1.94-.56a1.11,1.11,0,0,0-.54,1.18,2.79,2.79,0,0,0,.63,1.17L16,206.9c.16.21.56.76.3,1s-.78,0-1-.14a3.23,3.23,0,0,1-.7-.68c-1.14-1.38-2.33-2.73-3.52-4.08a4.34,4.34,0,0,0-1.33-1.15,1.94,1.94,0,0,0-1.83.05c-.82.57-.26,1.44.16,2,.61.81,1.28,1.57,2,2.33,1.37,1.52,2.82,3,4.12,4.55.24.28.46.7.17,1a.68.68,0,0,1-.69.08,1.51,1.51,0,0,1-.54-.42l-4.74-5.08c-.31-.33-.92-1-1.5-.79s-.47,1-.31,1.38a12.68,12.68,0,0,0,2.72,3.59c1,1.09,1.92,2.24,2.84,3.4a.43.43,0,0,1,.13.35.4.4,0,0,1-.46.21,1.06,1.06,0,0,1-.46-.27,38.32,38.32,0,0,0-3.54-2.74c-.32-.21-.8-.43-1.12-.18a.54.54,0,0,0-.19.54,5.75,5.75,0,0,0,1.11,1.82,8.5,8.5,0,0,0,1.93,1.69,31.56,31.56,0,0,1,3.28,2.24,32,32,0,0,1,2.81,3.24C15.81,221.09,16,221.34,16.29,221.58Z"/><path class="cls-5" d="M94,170.6,91,194c-.22,1.78-.43,3.67.37,5.27,2.51,5,10.23,3.44,14.33,1.65,5.4-2.35,8.59-7.49,10.07-13,1.84-6.87.09-14.12-3.06-20.34-1.48-2.91-3-6.54-5.19-9a48.07,48.07,0,0,0-9.72-8.09c-1.56-1-3.64-2-5.21-1s-1.55,3-1.16,4.66c.56,2.35,1.79,4.48,2.66,6.73C95.51,164.48,94.44,167,94,170.6Z"/><path class="cls-5" d="M61.14,190.54c.12.24.26.48.4.72,2.41,4,5.31,7.27,9.62,9.27s8,1.77,12.57,1.42c1.22-.1,2.62-.31,3.22-1.37.78-1.39-.39-3-1.4-4.24-5.69-6.91-6.91-14.8-6.85-23.43,0-3.11-.12-6.21.1-9.31a17.07,17.07,0,0,1,.82-5c.36-.89.76-1,1.46-1.56a9.86,9.86,0,0,0,2.32-3.11,2.33,2.33,0,0,0,.26-2c-.4-.78-1.47-.9-2.34-.81-6.59.66-11.45,8.1-14.78,13.14C61.86,171.3,56.83,182.31,61.14,190.54Z"/><path class="cls-11" d="M98.7,207.25l-.37-6.95c0-1.1,1.41-14.66,2.45-14.26l-18.19-7c.49,4.92.76,9.87.84,14.81,0,3.37.71,8.27-.45,11.47a3.75,3.75,0,0,1-.54,1c-1.56,2.09-4.56,1-5.35,3.48a3.51,3.51,0,0,0,1.35,3.56c3.07,2.51,6,4.73,10,5.75,5,1.26,8.85-.85,12.31-4.29a5.93,5.93,0,0,0,2-3.16C103.11,208.86,99.65,209,98.7,207.25Z"/><path class="cls-13" d="M83.43,193.82c0,1.81.22,4.05.22,6.24l.88.35a65.3,65.3,0,0,0,7.86,3,59.13,59.13,0,0,0,6.18,1.34l-.24-4.41c0-1.1,1.41-14.66,2.45-14.26l-18.19-7C83.08,183.93,83.35,188.88,83.43,193.82Z"/><path class="cls-11" d="M72.79,185.27c.32.44.64.85.93,1.24a56.4,56.4,0,0,0,10.06,10,20.14,20.14,0,0,0,4.3,2.81,7.55,7.55,0,0,0,5,.5,9.31,9.31,0,0,0,3.69-2.39,53.27,53.27,0,0,0,4.74-5.43,48,48,0,0,0,5-7.23,18.33,18.33,0,0,0,2.09-9.74,62.28,62.28,0,0,0-1.5-11c-.66-2.9-1.25-6-3.64-8a16.41,16.41,0,0,0-4.71-2.55,29.38,29.38,0,0,0-13.89-2.19c-4.42.52-9.64,2.76-11.91,6.82a25.9,25.9,0,0,0-2.73,15.05c.27,2.51-.07,5.1.26,7.59A10.58,10.58,0,0,0,72.79,185.27Z"/><path class="cls-11" d="M71.42,176.81a7,7,0,0,0-2.4-3.48,3.14,3.14,0,0,0-3.94.19c-1.14,1.24-.65,3.31.45,4.57a6.4,6.4,0,0,0,5.15,2.17"/><path class="cls-7" d="M65.92,176.32a1.57,1.57,0,0,1,1.26-1.54,2.16,2.16,0,0,1,2,.7,3.61,3.61,0,0,1,.84,2,.86.86,0,1,0-.79,1.43"/><path class="cls-11" d="M107.73,176.06a7,7,0,0,1,2.16-3.64,3.13,3.13,0,0,1,3.94-.08c1.22,1.15.88,3.25-.13,4.59a6.43,6.43,0,0,1-5,2.52"/><path class="cls-7" d="M113.7,174.66a1.57,1.57,0,0,0-1.36-1.45,2.13,2.13,0,0,0-1.9.84,3.53,3.53,0,0,0-.71,2,.86.86,0,1,1,.89,1.37"/><path class="cls-5" d="M69.07,167.52a48.18,48.18,0,0,0,.75,11.42l2.76,18.7q.42-13.65.83-27.3c0-1.6,1.16-12,0-12.41C71.06,157.09,69.19,166.2,69.07,167.52Z"/><path class="cls-5" d="M97.22,154.3c9.57,12.16,9.24,26.36,9.51,38.66a61.75,61.75,0,0,0-1.31-38.52"/><path class="cls-8" d="M97.8,174.88a3,3,0,0,0-.45.08,4.36,4.36,0,0,0-1.73,1c-.38.34-1.21,1-1.35,1.54-.32,1.18,3.3.34,3.9.15.88-.28,1.75-.63,2.65-.83.22,0,1.14-.06,1.25-.22.24-.34-.27-.72-.51-.85A7,7,0,0,0,97.8,174.88Z"/><path class="cls-7" d="M103.16,175.74l-1,.6a5.06,5.06,0,0,0-7.89,1.23"/><path class="cls-5" d="M96.64,175.44a1.41,1.41,0,0,0,.67,2A1.43,1.43,0,0,0,99,176.9c.37-.59.23-1.6-.49-1.8C97.93,175,97,174.79,96.64,175.44Z"/><path class="cls-8" d="M97.8,175.41a.55.55,0,0,1,.38.58.69.69,0,0,1-.44.56.75.75,0,0,1-.77-.15.67.67,0,0,1-.14-.76.61.61,0,0,1,.71-.29"/><path class="cls-8" d="M81.13,175.32a2.38,2.38,0,0,1,.46,0,4.16,4.16,0,0,1,1.82.84c.42.3,1.31.89,1.5,1.39.44,1.14-3.24.68-3.86.55-.9-.19-1.8-.44-2.72-.55-.23,0-1.14.06-1.27-.09-.28-.31.19-.73.42-.89A7,7,0,0,1,81.13,175.32Z"/><path class="cls-7" d="M75.89,176.73l1,.49a5.07,5.07,0,0,1,8,.41"/><path class="cls-5" d="M82.34,175.76a1.41,1.41,0,0,1-.46,2.09,1.43,1.43,0,0,1-1.72-.39,1.23,1.23,0,0,1,.31-1.85C81,175.4,82,175.14,82.34,175.76Z"/><path class="cls-8" d="M81.18,175.85a.56.56,0,0,0-.32.61.68.68,0,0,0,.5.51.73.73,0,0,0,.75-.22.66.66,0,0,0,.06-.77.61.61,0,0,0-.73-.22"/><path class="cls-5" d="M77.24,170.66a5.52,5.52,0,0,1,3.2-1.59,3.58,3.58,0,0,1,3.22,1.32c-.43.39-1.09.23-1.66.19a7.3,7.3,0,0,0-4.15,1.51c-.36.23-2.29,1.73-2.5,1.18S76.91,171,77.24,170.66Z"/><path class="cls-5" d="M101.27,168.81a5.5,5.5,0,0,0-3.3-1.37A3.62,3.62,0,0,0,94.85,169c.45.36,1.1.16,1.67.08a7.16,7.16,0,0,1,4.24,1.22c.38.2,2.41,1.56,2.58,1S101.63,169.11,101.27,168.81Z"/><path class="cls-5" d="M89.65,187.63l3.65,1.26a6.78,6.78,0,0,1-3.37,2.32,3.63,3.63,0,0,1-3.75-1.15.49.49,0,0,1-.12-.34c.1-.48.81,0,1.07-.21.46-.33-.3-.81-.35-1.25C86.65,186.8,88.92,187.38,89.65,187.63Z"/><path class="cls-7" d="M89.59,179.29a14,14,0,0,1,0,1.59c0,.43-.45.73-.73,1.06a1.27,1.27,0,0,0-.4.72c0,.54.57.88,1.08,1.07"/><path class="cls-5" d="M98.45,155.9a9.4,9.4,0,0,1,0,1.76c-.59,4.69-4.86,7.85-9.18,8.87A62.51,62.51,0,0,1,80,168c-1.09.09-7.93,1.06-8.49.2-3.14-4.8-1.18-12.37,3.31-15.94s10.58-4.42,16.32-4.24C95.27,148.14,98.16,151.9,98.45,155.9Z"/><path class="cls-5" d="M111.75,166c-1-5.13-2.34-10.92-6.61-14.4a16.41,16.41,0,0,0-9.57-3.22c-1.41-.08-5.45-.78-4.64,1.19,1.14,2.75,5.76,4.08,8.06,5.51,2.1,1.3,3.53,3.42,5.05,5.37C105.93,162.87,108.68,165.33,111.75,166Z"/><polygon class="cls-9" points="117.83 223.56 117.83 223.56 117.82 223.56 117.83 223.56"/><path class="cls-5" d="M40.34,294.11H78c-1,2.4-5.13,14.43-6.38,18l-.15,0L40.07,295.16A.56.56,0,0,1,40.34,294.11Z"/><path class="cls-5" d="M76.05,315.68h67a2.12,2.12,0,0,0,2-1.43l14.47-42.58a2.1,2.1,0,0,0-2-2.78h-67a2.1,2.1,0,0,0-2,1.42L74.06,312.9A2.1,2.1,0,0,0,76.05,315.68Z"/><polyline class="cls-10" points="71.9 313.95 71.9 318.48 144.34 318.48"/><polyline class="cls-10" points="69.44 316.21 69.44 312.12 38.12 295.84 38.12 301.01 69.44 318.48"/><path class="cls-10" d="M157.28,267.54l-2.91-.81H89.71a3.22,3.22,0,0,0-3,2.16l-15.09,43.2"/><line class="cls-10" x1="65.97" y1="312.87" x2="54.44" y2="307.16"/><line class="cls-10" x1="46.68" y1="303.1" x2="44.41" y2="302.09"/><path class="cls-7" d="M125.68,241.55s28.7-4.23,29.57-4a4.13,4.13,0,0,1,2.59,2"/><line class="cls-7" x1="33.21" y1="230.22" x2="44" y2="256.9"/><polyline class="cls-2" points="25.09 323.58 171.91 323.58 171.91 90.55 2.5 90.55 2.5 297.79"/><line class="cls-2" x1="171.91" y1="130.46" x2="2.5" y2="130.46"/><rect class="cls-1" x="239.71" y="104.7" width="170.23" height="206.11"/><polyline class="cls-2" points="247.4 323.58 394.23 323.58 394.23 90.55 224.81 90.55 224.81 297.79"/><path class="cls-14" d="M295.61,197.72c-5.43,3.15-10.83,6.43-16.29,9.5-6,2.54-20.5-35.65-22.12-39.65a17.37,17.37,0,0,1-1.52-5.33c-.35-5.39,6.21-8.57,10.81-6.62,2.55,1.08,4.49,3.22,6.21,5.39,3.34,4.22,5.54,8.9,8.39,13.4,2.29,3.61,4.81,7,7,10.77C290.67,189.47,293.89,193,295.61,197.72Z"/><path class="cls-14" d="M249.68,123.79c.34-.05.68-.08,1-.1,2.49-.11,2.33,0,3.18,2.16q2.67,6.72,5.89,13.23a184.65,184.65,0,0,0,10.95,19.17c1.37,2.1,4.42,4.79,4.62,7.26.24,3.14-2.83,6.47-5.9,7.78-11.89,5.05-14.44-10-16.83-16.46l-7.26-19.78c-.73-2-4.78-8.77-3.34-10.38a4,4,0,0,1,1.54-.94A27.82,27.82,0,0,1,249.68,123.79Z"/><path class="cls-15" d="M308.39,211q-3.42-3.78-6.83-7.58c-1.65-1.83-4.4-3.2-5.45-5.41-.64-1.34-.91-2.83-1.46-4.21a5.34,5.34,0,0,0-2.88-3.23,5.59,5.59,0,0,0-4.52.85c-2.68,1.57-5.56,2.43-8.06,4.27a44,44,0,0,0-7.65,7.48c-.7.85-1.32,2.23-.45,2.91a5.35,5.35,0,0,0,1.39.5c1,.43,1.37,1.66,1.73,2.71,1,2.86,2.9,5.31,4.22,8,3.75,7.77-1.08,17.51,1.23,25.76a49.23,49.23,0,0,1,1.67,13"/><path class="cls-14" d="M356.76,232.18l-14.31,11.09s14.82,35.37,28.52,24l.78-1.18C377.19,256,356.76,232.18,356.76,232.18Z"/><path class="cls-15" d="M281.35,263.41c0,11.58-.31,23.15-.67,34.72l57.15,4.23a7.11,7.11,0,0,0,2.41-5.54c.34-8.45-.19-17,.54-25.43q1.16-13.42,1.09-26.91c0,.86.82,2.39,1,3.35.25,1.23.44,2.79,1.55,3.61.62.47,1.49,0,2.11-.48q4-3,7.72-6.29l.46-.41c1.49-1.31,3-2.54,4.44-3.91.83-.8,3.56-2.21,3.62-3.27a3,3,0,0,0-1.24-2.31c-.68-.6-1.49-1-2.13-1.69-1.3-1.31-1.71-3.23-2.27-5-2-6.46-7.89-14.71-14.8-16.29-3.9-.89-8-.6-11.93-1.2a169.21,169.21,0,0,0-26.62-2.41c-6.53,0-13.55,1.28-18.08,6-4.19,4.35-5.4,10.76-5.45,16.79C280.18,241.85,281.36,252.53,281.35,263.41Z"/><path class="cls-14" d="M376.24,216.58c-.35,0-.69,0-1,0-2.48.19-2.31.33-2.89,2.53q-1.83,7-4.22,13.86a184.46,184.46,0,0,1-8.51,20.37c-1.1,2.25-3.79,5.29-3.68,7.78.14,3.13,3.6,6.07,6.8,7,12.42,3.56,13.11-11.67,14.68-18.4s3.18-13.68,4.78-20.52c.47-2,3.66-9.29,2-10.71a4.15,4.15,0,0,0-1.65-.75A27,27,0,0,0,376.24,216.58Z"/><path class="cls-14" d="M385.8,221.07a7.07,7.07,0,0,1-1.23,1c-.47.3-1.86,1.1-2.51.74l-3.45-1.95c-1.43-.81-2.84-1.12-4-2.31a9.39,9.39,0,0,1-2.51-7.75,8.17,8.17,0,0,0,.21-3.26c-.18-.75-.59-1.58-.13-2.2a1.48,1.48,0,0,1,1.32-.51,2.57,2.57,0,0,1,2.06,1.25c.29.61.25,1.9,1,2.28,1,.52,2.51,0,3.34-.46,3.08-1.75,4.48-5,7-7.4a1.83,1.83,0,0,1,1.92-.61,1.11,1.11,0,0,1,.57,1.17,2.88,2.88,0,0,1-.6,1.18c-1,1.39-2,2.77-3,4.15-.15.21-.54.77-.28,1s.79,0,1-.16a3.42,3.42,0,0,0,.67-.7c1.11-1.41,2.27-2.78,3.43-4.16a4.37,4.37,0,0,1,1.31-1.18,1.87,1.87,0,0,1,1.82,0c.84.55.3,1.43-.11,2-.59.82-1.25,1.6-1.91,2.38-1.34,1.54-2.75,3-4,4.63-.23.29-.44.72-.15,1a.7.7,0,0,0,.7.07,1.59,1.59,0,0,0,.52-.44l4.63-5.19c.29-.33.89-1,1.47-.82s.5,1,.35,1.38a12.74,12.74,0,0,1-2.64,3.64c-1,1.11-1.87,2.29-2.75,3.47a.45.45,0,0,0-.13.35c.05.17.29.24.47.2a.93.93,0,0,0,.44-.28,36.65,36.65,0,0,1,3.49-2.81c.31-.23.78-.45,1.11-.21a.53.53,0,0,1,.2.53,5.84,5.84,0,0,1-1.06,1.85,8.67,8.67,0,0,1-1.89,1.73,31.65,31.65,0,0,0-3.24,2.32,30.64,30.64,0,0,0-2.73,3.3A10,10,0,0,1,385.8,221.07Z"/><path class="cls-14" d="M303.09,208.65l.21-7c0-1.1-1.75-14.62-2.78-14.2l18-7.45c-.38,4.93-.54,9.89-.5,14.83,0,3.37-.53,8.28.71,11.46a4.37,4.37,0,0,0,.56,1c1.61,2,4.58.9,5.43,3.35a3.5,3.5,0,0,1-1.26,3.59c-3,2.58-5.92,4.87-9.88,6-4.95,1.38-8.87-.64-12.4-4a5.88,5.88,0,0,1-2.06-3.11C298.72,210.36,302.18,210.4,303.09,208.65Z"/><path class="cls-16" d="M303.3,201.69l-.21,7c-.63,1.2-2.45,1.56-3.39,2.57,6.66.1,13-2.64,18.66-6.28-.69-3.1-.29-7.16-.31-10.07,0-4.94.12-9.9.5-14.83l-18,7.45C301.55,187.07,303.26,200.59,303.3,201.69Z"/><path class="cls-14" d="M327.44,186.14c-.49,3.57-1.1,7.32-3.4,10.1a13.25,13.25,0,0,1-6.73,4,39.38,39.38,0,0,1-7.89,1.11c-3,.21-6.17.36-8.62-1.31a11.43,11.43,0,0,1-3.21-3.76c-6-10.05-7.16-22.28-4.74-33.61a18.55,18.55,0,0,1,2.78-7.13,14.05,14.05,0,0,1,6.83-4.81,27.19,27.19,0,0,1,8.36-1.29c4.12-.09,8.48.38,11.81,2.82,4,2.95,5.68,8.16,6.3,13.11.87,7-.51,13.66-1.47,20.57Z"/><path class="cls-14" d="M327.46,175.39c.64-1.84,1.66-3.69,3.79-4.19a2.29,2.29,0,0,1,1.27,0c2.55.82,2.19,3.68.86,5.29a6.45,6.45,0,0,1-5.11,2.29"/><path class="cls-14" d="M294,175.65a7,7,0,0,0-2.24-3.59,3.14,3.14,0,0,0-3.94,0c-1.2,1.18-.8,3.27.24,4.59a6.39,6.39,0,0,0,5.05,2.4"/><path class="cls-7" d="M311.48,177.48c0,.52,0,1.09.07,1.6.15,1,1.55,1.32,1.94,2.16.28.6-.41,1.16-.92,1.34a10.32,10.32,0,0,1-3.19,0"/><polygon class="cls-9" points="284.35 225.39 284.35 225.39 284.35 225.39 284.35 225.39"/><line class="cls-7" x1="369.09" y1="230.1" x2="358.92" y2="257.03"/><path class="cls-5" d="M328.14,154.2c-.61,4.45-8.66,5.76-12,6.08-5,.46-10.05-.26-15-1-2.42-.35-1,5.21-3.36,5.92-.94.29-1.81-.06-2.53.8s-.44,1.78-.45,2.73c-.05,2.51-.1,5-.14,7.54,0,1.11-.68,1.68-1.47.78-.56-.63-.44-1.79-.75-2.54-.92-2.24-3.11-3.63-2.67-6.36a5.17,5.17,0,0,0,.22-2.42c-.28-.79-1.16-1.25-1.44-2-.45-1.27.68-2.21,1.24-3.19s.44-2.08.38-3.36c-.21-4.69,3.59-10.47,7.89-12.25a2.69,2.69,0,0,1,2.69,0c.44.35.65.93,1.07,1.3,1,.93,2.73.32,3.85-.12A15.12,15.12,0,0,1,310,145c4.35-.37,8.29.81,12.18,2.52a16.65,16.65,0,0,1,3.75,2.06,5.61,5.61,0,0,1,2.19,3.57A4.33,4.33,0,0,1,328.14,154.2Z"/><path class="cls-5" d="M329.31,173.09c-.08.47-.22,1-.66,1.21a1,1,0,0,1-1.14-.45,2.14,2.14,0,0,1-.23-1.3c.06-1,.35-1.94.44-2.92a3.6,3.6,0,0,0-.71-2.77c-.39-.42-.93-.69-1.28-1.15a3.84,3.84,0,0,1-.57-2.17c-.09-1.57-1.12-5.82-.05-7.09,1.27-1.51,2.68.2,3.08,1.38A33.27,33.27,0,0,1,329.31,173.09Z"/><path class="cls-7" d="M332.69,173a3.64,3.64,0,0,0-3.12,3,.57.57,0,0,1,.82.25.57.57,0,0,1-.41.75"/><path class="cls-7" d="M288.22,173.75a3,3,0,0,1,3.73,2.7.5.5,0,0,0-.66,0,.49.49,0,0,0,0,.66"/><path class="cls-8" d="M303.06,174.94a5.12,5.12,0,0,0-3,.31c-.71.31-2.41,1.51-1.66,2.48a1.74,1.74,0,0,0,.74.47,5.76,5.76,0,0,0,6.34-.61.88.88,0,0,0,.39-.32c.15-.29-.1-.63-.36-.83-.71-.56-.94-1.1-1.91-1.37Z"/><path class="cls-5" d="M301.62,176.16a.89.89,0,0,1,.51-.95,1.16,1.16,0,0,1,1.11.1,1.33,1.33,0,0,1,.51,1.56,1.22,1.22,0,0,1-1.46.69,1.14,1.14,0,0,1-.69-1.43"/><path class="cls-8" d="M301.19,175.81a.53.53,0,1,1,.31.88.56.56,0,0,1-.34-.85"/><path class="cls-7" d="M299.85,175.32a4.67,4.67,0,0,1,5.63.92"/><path class="cls-8" d="M320.47,174.54a5.12,5.12,0,0,0-3,.31c-.71.31-2.42,1.51-1.67,2.47a1.79,1.79,0,0,0,.75.48,7.41,7.41,0,0,0,1.83.6c1.56.24,3.1-.5,4.51-1.21a.88.88,0,0,0,.39-.32c.15-.29-.1-.63-.36-.83-.72-.56-.94-1.1-1.92-1.37A5.29,5.29,0,0,0,320.47,174.54Z"/><path class="cls-5" d="M319,175.76a.89.89,0,0,1,.51-.95,1.16,1.16,0,0,1,1.11.1,1.32,1.32,0,0,1,.5,1.56,1.22,1.22,0,0,1-1.46.69,1.13,1.13,0,0,1-.68-1.43"/><path class="cls-8" d="M318.59,175.41a.53.53,0,1,1,.32.88.57.57,0,0,1-.35-.85"/><path class="cls-7" d="M317.26,174.92a4.65,4.65,0,0,1,5.62.92"/><path class="cls-5" d="M326.66,182.61c.09-.32.16-.64.22-1,.25-1.32.2-2.67.39-4a22.45,22.45,0,0,1,1-3.6,2.13,2.13,0,0,1,.45-.9.78.78,0,0,1,.92-.21c-1,2.3-.91,4.89-.82,7.38.06,1.75.11,3.51.17,5.26,0,1.14.41,2.77-.06,3.84-.64,1.42-2.84,2.81-2.53,4.56.27,1.53,1.38,3.62.57,4.23s-10.56,3.62-11.64,4.1-1.18,3-2.59,2.34-15.56-2.36-15.81-2.76-1.52-6.59-2.45-7.46-2-5.6-2.24-7.54a25.86,25.86,0,0,1-.23-6.21q.41-3.33,1.11-6.62c.1-.45.32-1,.78-1s.68.57.74,1a12.56,12.56,0,0,1,0,3.41,27.32,27.32,0,0,0-.57,3.08,13.66,13.66,0,0,0,1.33,6.2,13.83,13.83,0,0,0,3.52,4.54c.74.63,1.5,1.13,2.18,1.82a3.91,3.91,0,0,0,1.77,1.27c2.81.52,2.5-9.83,3.75-10s8.94-1.76,10.21-1.06,2.25,9.53,2.94,9.49c.43,0,1-1,1.28-1.28.83-1,1.61-2,2.39-3A18.24,18.24,0,0,0,326.66,182.61Z"/><path class="cls-14" d="M317.27,191.07c-.34-1.22-.69-2.45-1-3.68a3.3,3.3,0,0,0-.6-1.35,3.36,3.36,0,0,0-2.56-.8c-1.71-.05-3.6-.05-4.9,1.06a5.89,5.89,0,0,0-1.68,3.77c-.28,1.94-1.18,4.6-.57,6.53.36,1.13,1.24,1.36,2.36,1.66a2.34,2.34,0,0,0,1.61,0c1.14-.56,1-3.11,2.62-2.76a1.6,1.6,0,0,1,1,1.36c.08.38.11.78.23,1.16a1.3,1.3,0,0,0,.75.86,1.73,1.73,0,0,0,1-.07c.65-.18,1.28-.4,1.9-.64,1.9-.75,1-2.87.63-4.25Z"/><path class="cls-5" d="M322.2,167.26a7.67,7.67,0,0,0-5.63.41c-.35.18-.74.51-.63.89s.41.43.7.53l5,1.63c.88.29,3.34,1.62,4.21,1.16s.4-1.76.07-2.33C325.2,168.34,323.47,167.64,322.2,167.26Z"/><path class="cls-5" d="M298.91,167.8a7.68,7.68,0,0,1,5.64.14c.36.17.76.48.68.87s-.4.45-.68.56l-4.89,1.85c-.87.33-3.26,1.78-4.15,1.36s-.48-1.74-.18-2.33C296,169,297.66,168.23,298.91,167.8Z"/><path class="cls-5" d="M310.33,188.93a2.38,2.38,0,0,0-.75,0c-.27.05-.73.21-.73.56s.5.56.74.69a3.87,3.87,0,0,0,2.23.48,3.53,3.53,0,0,0,2.54-1.31c.42-.85-1.3-.74-1.78-.56s-.67.54-1.31.34A5.54,5.54,0,0,0,310.33,188.93Z"/><path class="cls-14" d="M240.07,130.39c1.55.33,3.1.69,4.65,1,2.26.49,3.3.65,4.71,2.6a2.6,2.6,0,0,0,2.2,1.35c1.09-.12,1.67-1.34,2-2.41a19.12,19.12,0,0,0,.4-7.57,39,39,0,0,0-1.55-6.68c-.45-1.24-1.3-2.13-1.83-3.31-.75-1.68-1.3-3.49-1.95-5.22a6.91,6.91,0,0,0-1.36-2.5,2.1,2.1,0,0,0-3.76.82,7.17,7.17,0,0,0-.2,1.91c0,1.46,0,2.94,0,4.39a11.21,11.21,0,0,1-4.74-.8c-1.24-.46-3-1-3.77.57-.69,1.37,1.14,3.08.4,4.42-.42.75-1.5,1-1.8,1.79s.47,1.75,1,2.56a4.25,4.25,0,0,1,.6,2.44c-.05.8-.4,1.3,0,2C235.78,129.42,238.46,130.05,240.07,130.39Z"/><path class="cls-7" d="M244.29,116.59a1.76,1.76,0,0,1-.06,2.06,1.45,1.45,0,0,1-1.16.46,3.23,3.23,0,0,1-1.14-.36l-4.2-1.9"/><path class="cls-7" d="M243.56,120.05c.47.26,1,.63,1,1.26a1.31,1.31,0,0,1-1,1.09,2.49,2.49,0,0,1-1.35-.17L237,120.55"/><path class="cls-7" d="M243,123.57c.4.24.85.59.8,1.14a1.18,1.18,0,0,1-.76.92,2.32,2.32,0,0,1-1.11,0,24.22,24.22,0,0,1-5.58-1.57"/><path class="cls-7" d="M241.48,127.12c.51.24,1.09.62,1,1.27a1.28,1.28,0,0,1-.9,1,2.4,2.4,0,0,1-1.25-.08c-1.92-.5-2.71-1.43-4.47-2.35"/><path class="cls-5" d="M257.16,295.9l37.58-1.81c-.89,2.44-4.43,14.66-5.51,18.26l-.15,0L257,297A.56.56,0,0,1,257.16,295.9Z"/><path class="cls-5" d="M293.87,315.72l66.93-3.24a2.09,2.09,0,0,0,1.92-1.52l12.4-43.23a2.1,2.1,0,0,0-2.12-2.68l-66.93,3.23a2.12,2.12,0,0,0-1.92,1.53L291.75,313A2.1,2.1,0,0,0,293.87,315.72Z"/><polyline class="cls-10" points="289.65 314.19 289.87 318.71 362.23 315.22"/><polyline class="cls-10" points="287.3 316.57 287.11 312.48 255.03 297.73 255.28 302.9 287.41 318.83"/><path class="cls-10" d="M372.69,263.72l-2.95-.67-64.58,3.12a3.24,3.24,0,0,0-2.94,2.3l-13,43.88"/><line class="cls-10" x1="283.67" y1="313.4" x2="271.88" y2="308.25"/><line class="cls-10" x1="263.93" y1="304.57" x2="261.62" y2="303.68"/><line class="cls-2" x1="394.22" y1="130.46" x2="224.81" y2="130.46"/><rect class="cls-2" x="408.89" y="316.45" width="41.13" height="24"/><rect class="cls-2" x="31.42" y="35.74" width="41.13" height="24"/><rect class="cls-2" x="392.68" y="2.5" width="41.13" height="24"/><path class="cls-17" d="M291.44,62.24H250.3a2.5,2.5,0,0,1-2.5-2.5v-24a2.49,2.49,0,0,1,2.5-2.5h41.14a2.49,2.49,0,0,1,2.5,2.5v24A2.5,2.5,0,0,1,291.44,62.24Z"/><path class="cls-17" d="M600.83,62.24H559.7a2.5,2.5,0,0,1-2.5-2.5v-24a2.49,2.49,0,0,1,2.5-2.5h41.13a2.49,2.49,0,0,1,2.5,2.5v24A2.5,2.5,0,0,1,600.83,62.24Z"/><rect class="cls-2" x="150.03" y="346.62" width="41.13" height="24"/><rect class="cls-2" x="588.82" y="346.62" width="41.13" height="24"/><path class="cls-17" d="M243.55,414.12H202.42a2.49,2.49,0,0,1-2.5-2.5v-24a2.49,2.49,0,0,1,2.5-2.5h41.13a2.5,2.5,0,0,1,2.5,2.5v24A2.5,2.5,0,0,1,243.55,414.12Z"/><path class="cls-17" d="M498.46,399.62H457.33a2.5,2.5,0,0,1-2.5-2.5v-24a2.5,2.5,0,0,1,2.5-2.5h41.13a2.5,2.5,0,0,1,2.5,2.5v24A2.5,2.5,0,0,1,498.46,399.62Z"/></g></g></svg>