<svg xmlns="http://www.w3.org/2000/svg" xmlns:xlink="http://www.w3.org/1999/xlink" viewBox="0 0 1999.19 1538.88"><defs><style>.cls-1,.cls-2,.cls-30,.cls-4,.cls-8{fill:none;}.cls-1{stroke:#708cd5;}.cls-1,.cls-2,.cls-30,.cls-33,.cls-4,.cls-8{stroke-miterlimit:10;}.cls-1,.cls-33{stroke-width:3.5px;}.cls-2{stroke:#f4ebd7;stroke-width:2.6px;}.cls-3{fill:#f4ebd7;}.cls-4{stroke:#102048;stroke-width:5px;}.cls-5{clip-path:url(#clip-path);}.cls-33,.cls-6{fill:#fff;}.cls-7{opacity:0.6;}.cls-8{stroke:#1f3c88;stroke-dasharray:19.91 19.91;}.cls-30,.cls-8{stroke-width:2.5px;}.cls-9{fill:#d3dfff;}.cls-10,.cls-15,.cls-32{fill:#ee6f57;}.cls-11{fill:#fbc343;}.cls-12{fill:#6f3428;}.cls-13{fill:#e28b6d;}.cls-14{fill:#f9b384;}.cls-15{opacity:0.3;}.cls-16,.cls-24,.cls-28,.cls-32{opacity:0.4;}.cls-17,.cls-18,.cls-28,.cls-31{fill:#1f3c88;}.cls-17{opacity:0.15;}.cls-19,.cls-21,.cls-22,.cls-23{fill:#27481f;}.cls-20{fill:#49883a;}.cls-21{opacity:0.5;}.cls-22{opacity:0.38;}.cls-23{opacity:0.2;}.cls-24,.cls-29{fill:#c89b35;}.cls-25{fill:#b35341;}.cls-26{fill:#708cd5;}.cls-27{fill:#102048;}.cls-30{stroke:#e28b6d;}.cls-31{opacity:0.1;}.cls-33{stroke:#8cbfbe;}.cls-34{fill:#8cbfbe;}.cls-35{fill:#c6eae9;}</style><clipPath id="clip-path"><polygon class="cls-1" points="1058.44 83.64 1058.44 563.81 1058.44 627.96 1132.97 563.81 1651.82 563.81 1651.82 83.64 1058.44 83.64"/></clipPath></defs><g id="Layer_2" data-name="Layer 2"><g id="Layer_1-2" data-name="Layer 1"><path class="cls-2" d="M1467.54,978.41a333.21,333.21,0,0,1,39-23.94c70.2-36.08,135.93-73.11,190.76-129.93,64.94-67.31,110.46-158.21,110.47-253.58s-51.31-193.15-135.81-232.71c-105.16-49.23-225.46-2.42-339.88,9.38-147.51,15.21-294.16-29.68-439.72-60.69s-303.76-46.78-436,21.48C349.93,363.37,271.55,472.15,251.06,593.33s17.41,251.89,99.27,342.38c118.09,130.56,303.85,165.72,476.1,174a2296.24,2296.24,0,0,0,380.31-13.19c56.86-6.73,110.08-18.3,160.3-46.58C1403.16,1029.64,1434,1002,1467.54,978.41Z"/><path class="cls-3" d="M685.9,1098.09c-88.67-10.49-177.89-31.91-256.24-78.87s-145.22-121.9-171.32-213.6S252.87,605.87,320,544.72c83.58-76.1,207.41-64,316.24-84,140.3-25.72,263.36-109,389.22-178.63s267.54-128.07,408.22-98.6c113.26,23.73,215.36,106.88,267.41,217.79s52.83,247,2,356.36c-73.28,157.83-235.1,242.45-391.78,297.57a2126.47,2126.47,0,0,1-354.6,91.35c-44.27,7.4-89.45,13.4-134,6.39s-89.12-28.56-116.71-67.14Z"/><line class="cls-4" y1="1274.93" x2="1999.19" y2="1274.93"/><g class="cls-5"><rect class="cls-6" x="1058.44" y="83.64" width="593.38" height="570.71"/><g class="cls-7"><path class="cls-8" d="M1226.84,440.63c-53.62-33.45-75.68-89-75.87-142.54-.16-45,19.37-100.58,83.92-90.68,43.39,6.65,79.68,33.17,121.27,44.89,33.67,9.49,69.42,6.72,103.52,5,53.44-2.63,111.57,28.43,117.22,64.08,7.57,47.78.56,100.73-41.55,128.55C1461.59,498.71,1309.82,492.39,1226.84,440.63Z"/></g><path class="cls-9" d="M1271.73,495.65c-62.45-9.74-104.51-52.16-125.7-101.37-17.8-41.36-21.63-100.11,41.63-116.32,42.53-10.9,86.31-.74,129.17-6.27,34.7-4.47,66.49-21,97.2-36,48.13-23.38,103.93-33,133,13,25.82,40.91,20.41,97.11-7.41,139.22C1490.84,461.69,1368.36,510.72,1271.73,495.65Z"/><circle class="cls-10" cx="1161.67" cy="143.18" r="24.8" transform="translate(755.43 1240.87) rotate(-76.72)"/><path class="cls-6" d="M1167.05,153.75l-5.42-7.33-5.47,7.33h-5.46l8.23-10.73-7.88-10.42h5.51l5.19,6.93,5.18-6.93h5.35l-7.92,10.34,8.28,10.81Z"/><circle class="cls-11" cx="1225.56" cy="143.18" r="24.8" transform="translate(784.31 1295.47) rotate(-75.71)"/><rect class="cls-6" x="1215.57" y="140.45" width="19.97" height="5.44"/><path class="cls-12" d="M1452,434c-62.07,35.54-92.2,25.78-102,20.26-9.73,5.52-39.86,15.28-101.93-20.26-59.46-34.09-24.8-107.36-1.38-151.94,12.72-24.22,22.53-49.78,44.84-67.23,21-16.42,44.51-21.49,72.09-20.13,37.91,1.87,61.44,24.45,73.07,51.54,9.25,21.55,20.74,41.71,30.84,62.81,9.47,19.77,17.1,41.3,17.81,63.25C1486.23,397.82,1475.21,420.7,1452,434Z"/><path class="cls-10" d="M1466.83,429.66c-38-42.77-108-33.84-115.47-32.76-7.45-1.08-77.46-10-115.47,32.76-28.63,32.2-28.26,160.74-28.26,160.74,0-3.17,133.17-4.1,143.73-4.17s143.73,1,143.73,4.17C1495.09,590.4,1495.46,461.86,1466.83,429.66Z"/><path class="cls-13" d="M1292.38,300.63c-14.92,1.52-27.34,37.86,13,38.63l9.65-11.43Z"/><path class="cls-13" d="M1410.69,300.63c16.82.88,28.77,37.86-11.58,38.63l-9.65-11.43Z"/><path class="cls-14" d="M1317.77,354.94H1385a0,0,0,0,1,0,0v42.38a33.59,33.59,0,0,1-33.59,33.59h0a33.59,33.59,0,0,1-33.59-33.59V354.94A0,0,0,0,1,1317.77,354.94Z"/><path class="cls-13" d="M1384.77,363.93c-22.1,36-44.54,35.37-67.29,1.24Z"/><path class="cls-14" d="M1416.16,273.71c-.33,3.29-.72,6.52-1.13,9.72-7,53.26-25.15,94.95-64.66,94.95-40.55,0-54.67-40-62.08-95.66-.63-4.55-1.17-9.25-1.71-14l79.76-31.88Z"/><path class="cls-12" d="M1280.1,299.38c20.31,6.86,59.07-16.07,59.07-16.07-3-8.72,1.24-17.3,9.72-25.79-.51,8.63,1.49,22.17,9.22,27.16,0,0,5.23,1.25,13.33-.5-2-9.87-.54-18.52,5.48-25.54,0,0,9.1,24.79,13.58,30.4,5.68,7.09,26.09,17.8,44.36,8.85l-34-77L1310.76,219,1270,256.77Z"/><ellipse class="cls-12" cx="1328.17" cy="301.58" rx="5.37" ry="7.34"/><ellipse class="cls-12" cx="1373.28" cy="301.58" rx="5.37" ry="7.34"/><path class="cls-13" d="M1357.78,321.38c0,7.12.57,12.73-5.35,12.89-5.63.16-5.36-5.77-5.36-12.89s2.4-12.9,5.36-12.9S1357.78,314.25,1357.78,321.38Z"/><path class="cls-6" d="M1335.9,346.32l33.88-.94S1355.63,372.45,1335.9,346.32Z"/><circle class="cls-15" cx="1384.67" cy="327.02" r="14.35"/><circle class="cls-15" cx="1322.99" cy="328.52" r="14.35" transform="translate(787.7 1582.19) rotate(-80.82)"/><g class="cls-16"><path class="cls-12" d="M1311.72,430.71a28.24,28.24,0,0,0,8.77,6.72,52.6,52.6,0,0,0,10.41,4.12,71.4,71.4,0,0,0,22.22,2.59,57.62,57.62,0,0,0,21.6-5A46.43,46.43,0,0,0,1392,425.25l1.47,1a41.63,41.63,0,0,1-7.26,9.44,45.93,45.93,0,0,1-9.76,7,54,54,0,0,1-23.15,5.92,64.86,64.86,0,0,1-23.55-3.44,53.19,53.19,0,0,1-10.81-5.12,27.76,27.76,0,0,1-8.66-8.33Z"/></g><g class="cls-16"><path class="cls-12" d="M1273.7,485.27c.29,7.62.31,15.23.27,22.83s-.19,15.22-.4,22.82-.55,15.2-1,22.79l-.76,11.39c-.35,3.8-.62,7.59-1.06,11.38l-1.75-.05c-.2-3.82-.22-7.62-.32-11.43l0-11.41c0-7.61.21-15.22.47-22.82s.57-15.2,1.08-22.79,1-15.19,1.75-22.77Z"/></g><g class="cls-16"><path class="cls-12" d="M1432.39,481.45c1.28,7.61,2.29,15.24,3.24,22.89s1.78,15.29,2.56,22.95,1.44,15.34,2,23l.73,11.53c.14,3.86.37,7.7.42,11.56l-1.74.17c-.69-3.8-1.21-7.62-1.8-11.43l-1.51-11.45c-1-7.64-1.76-15.3-2.49-23s-1.41-15.33-1.89-23-1-15.37-1.21-23.08Z"/></g></g><polygon class="cls-1" points="1058.44 83.64 1058.44 563.81 1058.44 627.96 1132.97 563.81 1651.82 563.81 1651.82 83.64 1058.44 83.64"/><ellipse class="cls-17" cx="243.33" cy="1367.61" rx="95" ry="18.09"/><path class="cls-18" d="M199.75,1332.4c-20.55,0-43.43-30.09-43.43-50.48,0-20.73,16.52-37.59,36.83-37.59S230,1261.19,230,1281.92C230,1301.44,221.78,1332.4,199.75,1332.4Zm-6.6-75.57c-13.42,0-24.33,11.25-24.33,25.09,0,15.26,18.5,38,30.93,38,11.43,0,17.74-22.46,17.74-38C217.49,1268.08,206.57,1256.83,193.15,1256.83Z"/><path class="cls-18" d="M270.82,1364.93H216.73a17.27,17.27,0,0,1-17.21-15.85L188.33,1214.3H301.46L288,1349.36A17.27,17.27,0,0,1,270.82,1364.93Z"/><path class="cls-9" d="M201.45,1052.65c-3.79,12.69-5.48,25.74-3.33,38.3a82.84,82.84,0,0,0,5.32,18.23,106.22,106.22,0,0,0,9.31,16.76,141.29,141.29,0,0,0,12.13,15.18c1.06,1.15,2.21,2.58,3.37,4s2.34,2.73,3.4,4.21l3,4.61a38.9,38.9,0,0,1,2.48,5,29,29,0,0,1,1.83,5.37,27,27,0,0,1,1,5.69,11.8,11.8,0,0,1,0,2.91l-.2,2.91c-.14,1-.4,1.91-.61,2.85a13.81,13.81,0,0,1-.82,2.77l-1.09,2.65c-.45.84-.93,1.65-1.4,2.46a16.86,16.86,0,0,1-1.57,2.32,18.23,18.23,0,0,1-1.75,2.15,32.46,32.46,0,0,1-8.49,6.85l-2.08-3.31c4.62-4.07,8.42-9.55,9.7-15.19a9.18,9.18,0,0,0,.39-2.13c.07-.72.22-1.42.24-2.13l-.09-2.15a7.32,7.32,0,0,0-.25-2.12,20.28,20.28,0,0,0-1.06-4.19,21.37,21.37,0,0,0-1.73-4,44,44,0,0,0-2.27-3.91l-2.68-3.75c-1-1.21-2.1-2.34-3.13-3.51l-3.32-3.62c-2.37-2.55-4.74-5.1-6.91-7.85a104.38,104.38,0,0,1-6.33-8.41,100.48,100.48,0,0,1-9.92-18.74,79.35,79.35,0,0,1-4.94-20.77c-1.46-14.27,1.93-28.6,8.19-40.85Z"/><path class="cls-9" d="M250.58,1048.79a46.71,46.71,0,0,1,15.36,22.93,51,51,0,0,1,2,14.1,64.79,64.79,0,0,1-1.64,14A82.77,82.77,0,0,1,262,1113l-1.18,2.89c-.35.91-.78,1.82-1.08,2.73l-.75,2.72c-.28.92-.31,1.79-.51,2.69a14,14,0,0,0-.18,2.64,12.41,12.41,0,0,0,.22,2.53,14.49,14.49,0,0,0,.6,2.44,17.16,17.16,0,0,0,1.15,2.26c1.74,2.94,5.07,5.45,8.56,7l-.77,3.83a20.94,20.94,0,0,1-13.29-6.54,23.51,23.51,0,0,1-2.38-3.24,23,23,0,0,1-1.62-3.71,18.66,18.66,0,0,1-.85-3.9,20.66,20.66,0,0,1-.2-3.9,26.21,26.21,0,0,1,.31-3.8l.74-3.65c.31-1.19.73-2.3,1.09-3.46s.75-2.33,1.11-3.23a96.22,96.22,0,0,0,3.71-11.75,70.73,70.73,0,0,0,1.78-11.93,54.78,54.78,0,0,0-.78-11.86c-1.38-7.86-5.07-15.26-9.92-22.29Z"/><ellipse class="cls-17" cx="1686.46" cy="1366.4" rx="190" ry="28.13"/><rect class="cls-19" x="1671.89" y="908.27" width="26.67" height="260.83"/><path class="cls-20" d="M1691.88,890.75a372.08,372.08,0,0,1-3.57,45c-1.13,7.9-2.08,12.45-2.08,12.45-72.8-23.63-106.2-68.75-120.1-114.28-1.3-4.15-2.4-8.32-3.35-12.47-14.7-63.35,5-123.7,5-123.7,33.38,7,58,21.52,76.18,40.25,3.12,3.2,6,6.5,8.75,9.92C1686.26,790,1692.68,848,1691.88,890.75Z"/><path class="cls-20" d="M1786.26,764.65C1784.81,815.3,1765.11,874.3,1704,931q-7,6.52-14.83,13c-.55.48-1.1.93-1.65,1.38,0,0-10.12-14.85-20.55-39-.15-.35-.3-.68-.42-1A288.87,288.87,0,0,1,1656,876.55a274.26,274.26,0,0,1-7-27.53c-7.35-37.27-7.37-81.47,13-125.22,15.25-32.95,42-65.63,85.9-94.95C1747.83,628.85,1788.51,687,1786.26,764.65Z"/><path class="cls-21" d="M1704,931q-7,6.52-14.83,13c-.55.48-1.1.93-1.65,1.38,0,0-10.12-14.85-20.55-39-.14-.33-.28-.69-.42-1h0c-.88-2.06-1.77-4.19-2.64-6.38-.34-.84-.67-1.72-1-2.57-.57-1.47-1.15-2.93-1.71-4.45-.45-1.19-.88-2.44-1.31-3.67s-.93-2.53-1.37-3.85c-.87-2.56-1.72-5.17-2.55-7.85a274.26,274.26,0,0,1-7-27.53c-6-30.4-7.12-65.42,3.73-101-2.73-3.42-5.63-6.72-8.75-9.92-7,18.49-18.39,60.88-19.75,99.11-16.83-6.59-37.06-12-61.43-15.66,1,4.15,2,8.32,3.35,12.47-10.37-2.47-21.6-4.65-33.72-6.45,9.57,32.65,48,136.65,148.17,138.2q3.83.07,7.75-.07c4.13-.13,8.35-.45,12.7-.95C1701,964.7,1705.53,950.52,1704,931Z"/><path class="cls-20" d="M1689,960.2a.74.74,0,0,1,0,.25c0,.62-.1,1.22-.17,1.8a7.64,7.64,0,0,0-.1.82c-.05.48-.1.93-.18,1.38-.17,1.37-.37,2.65-.57,3.87-.13.8-.28,1.58-.43,2.33a74.48,74.48,0,0,1-2.82,10.72,155.35,155.35,0,0,1-20.48,0c-118.62-8-143-155.4-143-155.4q5.73.7,11.2,1.57c12.12,1.8,23.35,4,33.72,6.45,42.88,10.2,71.25,25.58,89.85,42.58a109.08,109.08,0,0,1,14.23,15.67,95.4,95.4,0,0,1,18.1,43.58c.42,2.8.7,5.52.87,8.17A104,104,0,0,1,1689,960.2Z"/><path class="cls-22" d="M1786.26,764.65a209.42,209.42,0,0,1-18.78,80.9c-12.72,28.17-32.92,57.07-63.47,85.4l-.38.32c-1.8,1.68-3.65,3.35-5.55,5-.55.5-1.1,1-1.67,1.5-2.35,2.05-4.75,4.12-7.23,6.17-.17-2.65-.45-5.37-.87-8.17a95.4,95.4,0,0,0-18.1-43.58A109.08,109.08,0,0,0,1656,876.55a274.26,274.26,0,0,1-7-27.53,133.66,133.66,0,0,1,18,12.48,111.18,111.18,0,0,1,10,9.35C1692.68,830,1724.16,788.12,1786.26,764.65Z"/><path class="cls-23" d="M1689,960.2a.74.74,0,0,1,0,.25c0,.62-.1,1.22-.17,1.8a7.64,7.64,0,0,0-.1.82c-.05.48-.1.93-.18,1.38-.17,1.37-.37,2.65-.57,3.87-.15.8-.28,1.58-.43,2.33a74.48,74.48,0,0,1-2.82,10.72,155.35,155.35,0,0,1-20.48,0c-1.1-8.18-4.27-38.6,2.8-75,.9-4.63,2-9.35,3.23-14.13a95.4,95.4,0,0,1,18.1,43.58c.42,2.8.7,5.52.87,8.17A104,104,0,0,1,1689,960.2Z"/><path class="cls-11" d="M1803.13,1135.77l-29.32,192a43.83,43.83,0,0,1-43.33,37.2h-88a43.87,43.87,0,0,1-43.32-37.2l-29.33-192Z"/><path class="cls-20" d="M1681.58,981.61s-32.13-190.56,172.22-218C1853.8,763.58,1866.62,972.39,1681.58,981.61Z"/><path class="cls-24" d="M1803.13,1135.77l-29.32,192a43.83,43.83,0,0,1-43.33,37.2h-88a43.8,43.8,0,0,1-41.62-30.12c114.32-18.33,145-136,151.17-199Z"/><path class="cls-17" d="M1378.27,1368.72c0-23.45-208.86-42.46-466.52-42.46s-466.52,19-466.52,42.46c0,19,137.41,35.11,326.81,40.51,20.63,33.84-13.8,74.31-40.19,88.91-46.33,2.31-79.59,7.47-74.35,18.47,24.76,52,235.21-3.34,235.21-3.34s82.29,5.12,82.29-2.71c0-3.6-14.49-6.88-38.33-9.38l1.76-.11-88.84-90.28q30.51.38,62.16.38C1169.41,1411.17,1378.27,1392.16,1378.27,1368.72Z"/><path class="cls-10" d="M1419.48,1056.87c-6.15,101.48-57.3,202.88-141.15,258.68-99.95,66.52-239.7,51.8-353.52,60.27-98.4,7.33-197.55,13.63-296,3.15-80.65-8.6-162-40.55-200.52-118.85-38.6-78.47-42.78-182.75-4.18-262.17a254.62,254.62,0,0,1,48.15-67.53c3.15-3.22,6.43-6.37,9.75-9.45,2.25-2.07,4.53-4.12,6.85-6.12,3.55-3.08,7.2-6.08,10.9-9,1.23-1,2.45-1.9,3.7-2.85s2.48-1.88,3.73-2.8,2.5-1.85,3.77-2.75l2.85-2q2.37-1.68,4.8-3.3a336.08,336.08,0,0,1,45.15-25.55,360.38,360.38,0,0,1,46.6-18.12c51.78-16.08,105.85-21.78,159.28-28.8,113.37-14.88,228.8-19.95,343.07-19.88,93.25,0,198.25,14,260.6,94C1408.53,939,1423,999.07,1419.48,1056.87Z"/><path class="cls-14" d="M1227.51,885.48s24-22.59,36.8-35.67-15.07-13.5-28.77,2.8S1227.51,885.48,1227.51,885.48Z"/><path class="cls-25" d="M563.78,866.57a336.08,336.08,0,0,0-45.15,25.55q-2.43,1.62-4.8,3.3l-2.85,2c-1.27.9-2.52,1.82-3.77,2.75s-2.5,1.85-3.73,2.8-2.47,1.9-3.7,2.85c-3.65,2.9-7.22,5.87-10.75,8.92l-.15.08c-2.32,2-4.6,4-6.85,6.12-3.32,3.08-6.6,6.23-9.75,9.45a6.37,6.37,0,0,0,4.84,5.78c18.76,3.8,28.16,21.7,43.28,31.88,11.23,7.55,24.49,9.63,37.19,5.3-13.67,29-21.21,57.68-15.31,90.09a115.49,115.49,0,0,0,9.16,28.36c-17.57-13-34.5-41-41.46-69.36a7.5,7.5,0,1,0-14.57,3.57c8.62,35.1,30.56,68.83,53.36,82a48.91,48.91,0,0,0,16.39,6.06,115.29,115.29,0,0,0,15.1,16l33.7,9.42L641.46,962Z"/><path class="cls-26" d="M661.46,985.77c-69.68-27.13-118.05-56-146.14-75.21a56.46,56.46,0,0,1-23.68-56.16L527.57,645a64.63,64.63,0,0,1,38.1-48.51A639.16,639.16,0,0,1,729,550.77,392.69,392.69,0,0,1,792.08,552c23.29,2.3,76.59,18,110.47,28.53a65.63,65.63,0,0,1,41.76,39C958.52,656.14,981.6,718,989,751.4c25.42,115.41,21.25,106.87,21.25,106.87l26.25,177.5L757.71,1051.4l-71.25-32.5Z"/><path class="cls-27" d="M834,351.4s-24.69-50.63-90.31-27.5c-47.5-10.32-83.75,45.93-48.75,122.5l65.93,15.31Z"/><path class="cls-14" d="M799,494.52v89.55A38,38,0,0,1,761,622a51.43,51.43,0,0,1-51.43-51.42V494.52Z"/><path class="cls-13" d="M799,531.67v48.85c-39.83.2-66.25-51.3-66.25-51.3Z"/><path class="cls-14" d="M838.36,483.25c-2.4,12.4-5.83,25.1-10.75,36.27-8.6,19.63-21.73,34.58-41.78,35-46.92,1-83.12-63.12-83.12-63.12l7.5-87.5,35.62-40L844,424.52A332,332,0,0,1,838.36,483.25Z"/><path class="cls-27" d="M708.65,465.77s9.68-39.37,43.43-65c0,0,49.07,64.06,100.94,33.13S882.4,342,834,351.4l-55.63-6.25-69.68,22.18L696.77,422Z"/><path class="cls-28" d="M757.9,919.58C710.63,817.44,651,866.19,636.46,828.69c-20.44-52.55-16.56-112-16.67-130L591.32,859s63.57,6,87.07,44.32Z"/><path class="cls-18" d="M621.24,696c-1.77,13.71-3.86,27.37-6,41s-4.57,27.24-6.83,40.87-4.87,27.2-7.54,40.75l-4.07,20.33c-1.47,6.75-2.84,13.52-4.43,20.26l-2.06-.37c.82-6.87,1.86-13.7,2.79-20.55l3.15-20.48q3.22-20.47,6.91-40.87c2.55-13.57,4.9-27.19,7.61-40.74s5.38-27.1,8.42-40.59Z"/><path class="cls-18" d="M897.42,670.6c3.78,17.81,7.28,35.68,10.7,53.55s6.62,35.79,9.94,53.69,6.28,35.85,9.3,53.8l4.36,27c1.35,9,2.79,18,4,27l-1.92.34c-2-8.89-3.7-17.82-5.55-26.74l-5.22-26.79q-5.05-26.83-9.87-53.7c-3.07-17.94-6.32-35.85-9.23-53.82S898.1,689,895.5,670.94Z"/><path class="cls-28" d="M910.63,753.27c3.33,32.5-1.67,200.84-80,203.34l.83,36.66,123.33-7.5Z"/><path class="cls-13" d="M749.58,952c55.63-23.75,66.26-22.86,73.75-22.5,25.63,1.25,62.5,52.5,62.5,52.5l-.62,9.38H744.58Z"/><rect class="cls-6" x="790.42" y="982.23" width="173.12" height="26.25"/><polygon class="cls-11" points="1198.96 1008.5 898.13 1008.5 965.63 739.67 1266.46 739.67 1198.96 1008.5"/><path class="cls-29" d="M1226.22,898.55c-29.76-4.44-126-24.44-324.34,96.39l-4.59,16.67L1199,1008.5Z"/><path class="cls-14" d="M1231.93,958.27c-1.88,12.66-2.5,31.25-41.72,28.91l-11.56-5.94,10.93-12,23.6-12Z"/><path class="cls-14" d="M1235.63,924.11s21.46,28-.11,36.66a124,124,0,0,1-45.94,8.44c10-28.13,42.5-26.25,42.5-26.25Z"/><path class="cls-14" d="M1236.25,906s29.58,27.5,2.08,35.21c-38.83,10.88-50.83,11.67-50.83,11.67-2.08-20.63,36.46-34,36.46-34Z"/><path class="cls-14" d="M1230.21,882s40.42,24.59,2.5,38.34-46.88,13.54-46.88,13.54c-2.08-20.63,38.55-27.71,38.55-27.71Z"/><path class="cls-30" d="M1185.83,933.9S1229.9,927.65,1243,917"/><path class="cls-30" d="M1187.5,952.86s45.83-6.46,60.21-16.46"/><path class="cls-30" d="M1189.58,969.21s27.19.94,42.5-6.56"/><path class="cls-27" d="M762.71,1363.27c4.58-2.5,77.08,13.34,157.5-46.25l-103.75-29.58Z"/><path class="cls-25" d="M1223.38,1019.15c3.45-4.93,6.43-12.18,2.08-16.33-4.53-4.35-11.93-.52-16.68,3.58a200.9,200.9,0,0,0-23,23.5l-175.15,32.55-240,58.32,41.27,52.67c120,8.75,188.34,11,263.44-2.25,38.28-6.75,72.49-13.72,98-34.52,6.07-5,11.82-13.32,7.87-20.1-2.67-4.57-8.22-5.77-13.8-5.72a177.08,177.08,0,0,0,37.1-13.23c5.28-2.55,11.15-6.55,11-12.4-.08-4.2-3.48-7.75-7.38-9.25s-8.2-1.37-12.37-1.07a169.26,169.26,0,0,0-46.85,10.35C1176.31,1066.15,1204.13,1046.37,1223.38,1019.15Zm-74.8,66.35s0-.08.08-.13a1,1,0,0,0,.25-.1C1148.81,1085.35,1148.68,1085.42,1148.58,1085.5Z"/><path class="cls-27" d="M821.46,1042s233.75-111.25,310-106.25,73.75,100,45,141.25-96.25,96.25-345,80Z"/><path class="cls-9" d="M938.43,1501.07c-12.65,3.58-30.6,4.45-55.3.53,0,0-32,8.3-63.5,14.82-21.32,4.43-42.4,8-53.17,7.68-.93,0-1.85-.08-2.8-.15-20.68-1.48-46.73-12.25-60.55-27.65a.32.32,0,0,0-.1-.13,38.51,38.51,0,0,1-8.23-13.72c-7.5-23.35,8.35-51.68,94.18-45.85,0,0,28.32-6.65,35-27.5s-42.5-120.83-42.5-120.83l70-47.5L920.21,1317s10.42,68.75,10.42,91.25c0,0,29.15,41.68,33.33,60C966.63,1480,960.78,1494.75,938.43,1501.07Z"/><path class="cls-18" d="M544.86,867.91c8-3.09,16.18-5.58,24.44-7.87,4.14-1.13,8.3-2.19,12.54-3q3.17-.64,6.42-1.09c1.09-.15,2.17-.26,3.3-.35a22.63,22.63,0,0,1,3.51.07c9,.94,17.12,3.76,25.21,6.75s15.92,6.49,23.65,10.21,15.3,7.75,22.73,12,14.72,8.79,21.82,13.61c14.1,9.73,27.67,20.42,39.34,33l-1.48,1.49q-9.42-8.53-19.63-16.1c-6.75-5.1-13.73-9.88-20.88-14.42a431.93,431.93,0,0,0-44.2-24.91c-7.58-3.75-15.29-7.22-23.13-10.31-7.84-2.93-15.86-6.07-23.84-7.15a20.33,20.33,0,0,0-2.87-.17c-1,0-2,.13-3,.24-2.06.22-4.13.52-6.2.88-4.14.72-8.29,1.56-12.42,2.49-8.25,1.88-16.48,4.07-24.56,6.57Z"/><path class="cls-25" d="M586.46,1195.15c28.12-1.88,55.76.14,75.83-6.88,21.46-7.5,77.5-2.5,77.5-2.5L709,1141.4l-125,31.25Z"/><path class="cls-18" d="M587.71,1113.27C559,1067,559,975.77,595.21,934.52c41.43-47.14,130-65,176.25-10S902.71,1180.77,920.21,1317c0,0-93.75-31.25-157.5,46.25,0,0-83.75-191.25-101.25-261.25l-47.5,37.5Z"/><path class="cls-9" d="M661.46,1102s-12.5-4.58-30,7.09c0,0-136.67-2.92-167.08,27.91s-7.09,72.09,37.5,76.67c37.41,3.85,110-25.18,132.43-34.61a44.67,44.67,0,0,1,14.3-3.39l37-2.42Z"/><path class="cls-14" d="M716,468.32s-9.17-30.38-29.34-22.78-9.42,47.14,30.38,58.14Z"/><path class="cls-18" d="M694.56,635.84a145.44,145.44,0,0,0,31.81,17.33c11.24,4.22,23.1,6.89,35,6.61a77.54,77.54,0,0,0,34.23-8.5l4-2c1.31-.72,2.51-1.63,3.77-2.43a59,59,0,0,0,7.29-5.27l3.51-2.85,1.76-1.43c.58-.49,1.08-1,1.63-1.58q3.19-3.21,6.49-6.38l1.5,1.26q-3,3.57-6,7.09c-.51.58-1,1.2-1.54,1.75L816.3,641l-3.4,3.21a62.77,62.77,0,0,1-7.32,5.85c-1.28.9-2.5,1.9-3.83,2.73l-4.1,2.33a75.12,75.12,0,0,1-36.23,9.6,92.6,92.6,0,0,1-36.63-7.64,120.31,120.31,0,0,1-31.43-19.71Z"/><path class="cls-27" d="M640.74,1022.21l10.83,37.9c3.69,12.61,7.13,25.28,11,37.83s7.53,25.14,11.48,37.65c2,6.25,3.93,12.51,6.1,18.7,1,3.1,2,6.24,3.13,9.32s2.21,6.17,3.27,9.29l-1.81.75q-4.19-9-7.87-18.16c-2.46-6.12-4.7-12.32-7-18.52-4.44-12.41-8.37-25-12.09-37.63s-7.17-25.35-10.3-38.14-6.16-25.59-8.66-38.54Z"/><path class="cls-31" d="M938.43,1501.07c-12.65,3.58-30.6,4.45-55.3.53,0,0-52.92,13.55-86.36,18.86,34.38-6.88,84.38-49.38,78.75-76.25C924.9,1460.46,938.33,1485.15,938.43,1501.07Z"/><path class="cls-28" d="M805.51,1505.77c-6.38,7.85-15.88,13.18-25.85,15.85a71,71,0,0,1-16,2.33c-20.68-1.48-46.73-12.25-60.55-27.65a.32.32,0,0,0-.1-.13,58.08,58.08,0,0,1-4-6.22,100.68,100.68,0,0,0,24,16.72,94.75,94.75,0,0,0,13.28,5.4c2.22.85,4.55,1.35,6.85,2a58.58,58.58,0,0,0,7,1.4C768.73,1518.62,788.56,1516.67,805.51,1505.77Z"/><path class="cls-13" d="M707,472.63a20.68,20.68,0,0,0-3.26-7.6,23.13,23.13,0,0,0-5.51-5.95c-2.13-1.49-4.44-2.23-6.39-1.17s-3.67,3.5-5.09,6l-1.38-.48c.6-3,1.69-6.23,4.8-8.38a7.46,7.46,0,0,1,5.44-1.12,11.77,11.77,0,0,1,4.79,2.1,20.7,20.7,0,0,1,6.11,7.38,16,16,0,0,1,2,9.23Z"/><path class="cls-27" d="M825.93,471.87c-.88,4.32-4.13,7.3-7.26,6.66s-4.95-4.65-4.07-9,4.12-7.3,7.25-6.66S826.8,467.56,825.93,471.87Z"/><ellipse class="cls-27" cx="771.51" cy="469.05" rx="7.97" ry="5.78" transform="translate(184.41 1155.02) rotate(-80.74)"/><path class="cls-13" d="M797.89,475.85c.3,3.55.44,7.08.48,10.54a6.35,6.35,0,0,0,1.86,3.66,38.47,38.47,0,0,1,3.63,4.17,8.57,8.57,0,0,1,1.3,3,10.73,10.73,0,0,1,.21,3.18,10.57,10.57,0,0,1-2.3,5.82,8.07,8.07,0,0,1-2.57,2.05,7.35,7.35,0,0,1-3.19.67,10.3,10.3,0,0,1-5.5-2l.69-1.29a9.81,9.81,0,0,0,4.67.66,4.56,4.56,0,0,0,3.29-2.11c1.53-2.28,1.75-5.85.28-8-.77-1.23-2-2.39-3.26-3.91a9.14,9.14,0,0,1-2.31-5.9c.27-3.63.71-7.18,1.26-10.72Z"/><path class="cls-27" d="M757.59,454.92a23.28,23.28,0,0,1,7-4.82,18.57,18.57,0,0,1,8.7-1.66,15.79,15.79,0,0,1,8.42,3.08,20.06,20.06,0,0,1,5.62,6.51l-1.16.9a40.64,40.64,0,0,0-6.24-4.64,16.29,16.29,0,0,0-6.9-2.13c-4.85-.37-9.78,1.56-14.6,3.95Z"/><path class="cls-27" d="M808.46,459.2a10.69,10.69,0,0,1,5.47-6,16.54,16.54,0,0,1,8-1.78,16.37,16.37,0,0,1,7.89,2.16,12.79,12.79,0,0,1,5.4,6l-1.23.8a17.61,17.61,0,0,0-12.16-5.2c-4.42-.1-9.11,1.12-12,4.71Z"/><path class="cls-6" d="M774.33,517.9l33.16,2.37S789,544.8,774.33,517.9Z"/><path class="cls-32" d="M838.36,483.25c-2.4,12.4-5.83,25.1-10.75,36.27a19.15,19.15,0,0,1,8.22-36.45A16.38,16.38,0,0,1,838.36,483.25Z"/><circle class="cls-32" cx="753.96" cy="497.86" r="19.17" transform="translate(-133.96 330.76) rotate(-22.78)"/><path class="cls-33" d="M484.39,460a131.23,131.23,0,1,0-49.85,34.39L505,523.11Z"/><circle class="cls-34" cx="328.35" cy="375.19" r="14.02"/><circle class="cls-34" cx="386.96" cy="375.19" r="14.02"/><circle class="cls-34" cx="445.57" cy="375.19" r="14.02"/><path class="cls-33" d="M820,1.75H561.83a26.69,26.69,0,0,0-26.61,26.62V139.15a26.69,26.69,0,0,0,26.61,26.62h23.84L624.42,224l11.52-58.24H820a26.7,26.7,0,0,0,26.62-26.62V28.37A26.7,26.7,0,0,0,820,1.75Z"/><rect class="cls-34" x="580.35" y="42.08" width="221.14" height="12.7"/><rect class="cls-35" x="580.35" y="75.57" width="221.14" height="12.7"/><rect class="cls-35" x="580.35" y="109.07" width="221.14" height="12.7"/></g></g></svg>