<svg xmlns="http://www.w3.org/2000/svg" viewBox="0 0 631.37 379.29"><defs><style>.cls-1,.cls-14,.cls-17,.cls-18,.cls-21,.cls-22,.cls-23,.cls-26,.cls-27,.cls-4{fill:none;}.cls-1,.cls-27,.cls-4{stroke:#fff;stroke-miterlimit:10;}.cls-1{stroke-width:1.44px;}.cls-2{fill:#fadfe1;}.cls-3{fill:#f36867;}.cls-4{stroke-width:0.81px;}.cls-5{fill:#f6bdbc;}.cls-6{fill:#fceeef;}.cls-7{fill:#f8f2da;}.cls-8{fill:#fca0a0;}.cls-9{fill:#37305e;}.cls-10{fill:#261c42;}.cls-11{fill:#e7e7e7;}.cls-12{fill:#fff;}.cls-13{fill:#785afc;}.cls-14,.cls-17,.cls-18,.cls-23{stroke:#121e35;}.cls-14,.cls-17,.cls-18,.cls-21,.cls-22,.cls-23,.cls-26{stroke-linecap:round;stroke-linejoin:round;}.cls-14{stroke-width:1.14px;}.cls-15{fill:#121e35;}.cls-16{fill:#ea8c8c;}.cls-17{stroke-width:1.1px;}.cls-18{stroke-width:0.98px;}.cls-19{fill:#171d5f;}.cls-20{fill:#f29891;}.cls-21{stroke:#282828;stroke-width:1.18px;}.cls-22,.cls-26{stroke:#131313;}.cls-22{stroke-width:0.7px;}.cls-23{stroke-width:1.03px;}.cls-24{fill:#734aea;}.cls-25{fill:#ffe6e9;}.cls-26{stroke-width:0.78px;}.cls-27{stroke-width:1.25px;}</style></defs><g id="Layer_2" data-name="Layer 2"><g id="OBJECTS"><line class="cls-1" x1="89.74" y1="86.47" x2="516.19" y2="86.47"/><rect class="cls-1" x="89.74" y="58.52" width="426.45" height="263.85" rx="5.57"/><path class="cls-1" d="M117.85,72.78a3.9,3.9,0,1,1-3.9-3.9A3.91,3.91,0,0,1,117.85,72.78Z"/><path class="cls-1" d="M133,72.78a3.9,3.9,0,1,1-3.9-3.9A3.91,3.91,0,0,1,133,72.78Z"/><path class="cls-1" d="M148.17,72.78a3.9,3.9,0,1,1-3.9-3.9A3.91,3.91,0,0,1,148.17,72.78Z"/><rect class="cls-2" x="10.05" y="180.81" width="93.51" height="56.89" rx="4.74"/><rect class="cls-1" x="10.05" y="180.81" width="93.51" height="56.89" rx="4.74"/><rect class="cls-2" x="473.81" y="130.11" width="125.03" height="90.71" rx="5.12"/><rect class="cls-1" x="473.81" y="130.11" width="125.03" height="90.71" rx="5.12"/><rect class="cls-3" x="335.7" y="102.91" width="71.54" height="20.9" rx="2.07"/><line class="cls-4" x1="345.62" y1="110.36" x2="393.73" y2="110.36"/><line class="cls-4" x1="345.62" y1="115.37" x2="365.52" y2="115.37"/><polygon class="cls-3" points="343.64 121.45 343.64 129.6 353.88 121.45 343.64 121.45"/><path class="cls-5" d="M110.6,34.44H20.11a3.38,3.38,0,0,1-3.38-3.38h0a3.38,3.38,0,0,1,3.38-3.39H110.6A3.38,3.38,0,0,1,114,31.06h0A3.38,3.38,0,0,1,110.6,34.44Z"/><path class="cls-6" d="M628,296.73H557.07a3.38,3.38,0,0,1-3.38-3.39h0a3.38,3.38,0,0,1,3.38-3.38H628a3.38,3.38,0,0,1,3.39,3.38h0A3.39,3.39,0,0,1,628,296.73Z"/><rect class="cls-5" x="306.52" width="15.46" height="14.98" rx="3.77"/><rect class="cls-6" x="1.79" y="280.54" width="20.33" height="19.69" rx="4.96"/><rect class="cls-6" x="550.57" y="68.34" width="14.55" height="14.1" rx="3.55"/><path class="cls-7" d="M484,198.52a16.09,16.09,0,0,0-32.11-1.94c-.55,6.47.08,17.61.86,29.45l32.89-4Z"/><path class="cls-8" d="M485.68,222.07l-32.89,4c1,15.66,2.35,24.64,1.62,33.58a17.32,17.32,0,0,0,17.23,18.73h0A17.32,17.32,0,0,0,489,261.65Z"/><path class="cls-8" d="M400.49,215.86,476,253.66c8.38,4.65,10.74,13.86,6.38,20.84h0a14.42,14.42,0,0,1-20.63,4.1l-68.3-49.2Z"/><path class="cls-8" d="M388.68,233.87a14.82,14.82,0,1,0-9.29-18.79A14.82,14.82,0,0,0,388.68,233.87Z"/><path class="cls-8" d="M390.06,206.23s-.75-5.8,6.79-3.88,14.28,7.76,10.62,22.22Z"/><path class="cls-9" d="M401.6,178.16l-16-3.72a1.54,1.54,0,0,0-1.86,1.37l-6.14,41.48a1.9,1.9,0,0,0,1.35,2.13l16,3.73a1.56,1.56,0,0,0,1.87-1.38L403,180.29A1.89,1.89,0,0,0,401.6,178.16Z"/><path class="cls-10" d="M403.15,178.49l-16-3.72a1.54,1.54,0,0,0-1.87,1.37l-6.13,41.49a1.88,1.88,0,0,0,1.35,2.12l16,3.73a1.55,1.55,0,0,0,1.86-1.38l6.14-41.48A1.9,1.9,0,0,0,403.15,178.49Z"/><polygon class="cls-11" points="402.27 182.53 388.24 179.25 383.24 213.06 397.27 216.34 402.27 182.53"/><polygon class="cls-12" points="388.24 179.25 397.27 216.34 402.27 182.53 388.24 179.25"/><path class="cls-8" d="M401.05,203.94a24.11,24.11,0,0,0-6.53-1.9,3.4,3.4,0,0,0-3.57,2.05h0a3.37,3.37,0,0,0,.78,3.74l5.69,5.46s-.91,8.08,2.9,11.89l3.43-12.83Z"/><path class="cls-13" d="M495.69,250.44l-34.83,7.66s-9.29,20.64-24.72,112.75c-.24,1.42-.48,2.83-.71,4.23,16.65.23,33.29.69,49.93,1.25l22.17-108.61Z"/><path class="cls-13" d="M536.47,324.22c-1.17-44.57-23.76-68.66-23.76-68.66l-42.88,1.33,11.43,119.3c18.48.61,37,1.34,55.44,2C536.86,357.08,536.83,337.76,536.47,324.22Z"/><polyline class="cls-14" points="462.11 295.94 475.27 306.82 481.26 376.19"/><path class="cls-7" d="M472.83,178.68l-12.15,5.14a5.08,5.08,0,0,0-3.09,4.92l3.27,69.36,55.37-.67,3.27-71.71c.1-3.82-3-8.4-6.77-8.7l-22.52-.4Z"/><path class="cls-14" d="M459.28,203.94s-5.67,7.21,0,21.3"/><path class="cls-8" d="M541.12,209,512,224.81c6.74,14.18,14.21,29.39,16.82,38a17.33,17.33,0,0,0,22.93,11.05h0a17.33,17.33,0,0,0,10-21.92Z"/><path class="cls-7" d="M530.91,187.71a16.1,16.1,0,0,0-19.37-10.13c-8.75,2.37-8.52,22.73-5.9,31.41,1.88,6.21,1.28,5.11,6.38,15.82L541.12,209Z"/><line class="cls-14" x1="511.73" y1="224.81" x2="505.36" y2="208.99"/><path class="cls-8" d="M469.7,244.35,547.19,246a14.42,14.42,0,0,1,13.6,15.83h0a14.42,14.42,0,0,1-16.68,12.82L470.44,262Z"/><path class="cls-8" d="M471,266.68A14.83,14.83,0,1,0,454.32,254,14.83,14.83,0,0,0,471,266.68Z"/><path class="cls-8" d="M460,241.29s-3.24-4.87,4.36-6.49,16.24.63,19.38,15.22Z"/><circle class="cls-15" cx="500.53" cy="153.72" r="17.63" transform="translate(340.04 652.11) rotate(-89.22)"/><path class="cls-15" d="M445.83,110.17s28.47-16.77,48,.69c11.88,10.63,7.37,28-8.57,38.8C470.06,159.93,464.45,112,464.45,112Z"/><path class="cls-15" d="M461.43,105.82s-27.7,1.49-25.76,22.45c1.29,13.92,23,13.46,23,13.46Z"/><path class="cls-16" d="M456.49,143.79a7.28,7.28,0,1,1-9.11-4.79A7.28,7.28,0,0,1,456.49,143.79Z"/><path class="cls-8" d="M465.76,164.59,471,182c1.85,6.1,5.11,8.6,11.11,6.74h0c5.11-1.59,10.58-6.11,9.63-11.38l-9.64-26.93Z"/><path class="cls-8" d="M473.23,178.14l-6.16,2.67s-9.58,16,8.71,16.61c22.07.72,23.87-12,27.4-20.57l-11.28-1.08Z"/><path class="cls-15" d="M468.55,173.78s15.32-2.25,15.32-22.7l-18.69,11.74Z"/><path class="cls-8" d="M471.79,166.17h0c-10.41,2.49-21-3.67-23.27-12.11l-5.36-19.92a20.33,20.33,0,0,1,13.56-24.8h0c10.71-3.33,24,2.07,27.31,12.78l4.14,16.08C491.37,150.63,484.05,162.36,471.79,166.17Z"/><path class="cls-15" d="M470.39,119.29c.08,12.76,12.19,19.56,12.19,19.56l8.63-17.48S470.33,108.81,470.39,119.29Z"/><path class="cls-15" d="M473.92,121.55s-25.33-2.31-33.43,9.82c0,0-.7-24.79,26.49-26.24s19.3,17.75,19.3,17.75Z"/><polyline class="cls-17" points="457.92 145.66 458.35 149.54 460.95 149.03"/><path class="cls-15" d="M453.46,143.43a1.89,1.89,0,1,1-2.32-1.33A1.88,1.88,0,0,1,453.46,143.43Z"/><path class="cls-15" d="M468.81,139.26a1.9,1.9,0,1,1-2.32-1.33A1.91,1.91,0,0,1,468.81,139.26Z"/><path class="cls-15" d="M459.49,134.57l11.19-1.14s-1.76-3-6.32-2.49S459.49,134.57,459.49,134.57Z"/><path class="cls-15" d="M453.84,136.31,446,138.85a4.82,4.82,0,0,1,3.44-4A3.52,3.52,0,0,1,453.84,136.31Z"/><path class="cls-12" d="M457.8,153.72l11.41-2.64a6.88,6.88,0,0,1-6.93,5.53C458.09,156.69,457.8,153.72,457.8,153.72Z"/><path class="cls-8" d="M493.53,136.22a6.74,6.74,0,1,1-7.18-6.26A6.72,6.72,0,0,1,493.53,136.22Z"/><path class="cls-18" d="M484.6,138.84s-.33-4.87,4.38-4.43"/><polygon class="cls-19" points="111.25 322.82 111.25 373.69 157.19 374.87 157.19 338.43 167.11 336.7 173.77 373.69 215.33 376.33 199.15 299.97 111.25 322.82"/><polygon class="cls-20" points="73.66 239.08 57.08 350.76 75.01 352.7 104.68 238.13 73.66 239.08"/><path class="cls-20" d="M57.08,350.76s-29.68,6.84-28.5,14.75H64.77S78.48,364.46,75,352.7Z"/><path class="cls-3" d="M117.74,190.11s-36.85-3-57.31,52l45.48,16.34Z"/><path class="cls-8" d="M248,150.81l-16.17,54,18.87,21.35s11.74-47.66,12.11-75.24Z"/><path class="cls-8" d="M247.39,152.36s14.48,1.91,16.51-1.71c3.55-6.32,1.68-23.48,1.68-23.48s-25.41.56-25.07.8S247.39,152.36,247.39,152.36Z"/><path class="cls-8" d="M247.39,152.36c-.26-1.28-10-12.24-13.51-16.41a2.3,2.3,0,0,1,.61-3.35h0a2.63,2.63,0,0,1,3.17,0l9.34,7.23Z"/><path class="cls-8" d="M242.23,138.34l-3.81-20.42a2.56,2.56,0,0,1,2-3h0a2.21,2.21,0,0,1,2.6,1.59l4,14.74Z"/><path class="cls-8" d="M247,128.33l-.27-15.57a2.55,2.55,0,0,1,2.35-2.62h0a2.19,2.19,0,0,1,2.32,1.88l2.45,17.13Z"/><path class="cls-8" d="M254.12,130.08l1.19-15.88a2.8,2.8,0,0,1,2.8-2.61h0a2.45,2.45,0,0,1,2.37,2.52l-.17,14.61Z"/><path class="cls-8" d="M265.58,127.17,267.43,117a2,2,0,0,0-1.88-2.09h0a2.27,2.27,0,0,0-2.26,1.78l-3,12Z"/><path class="cls-21" d="M242.69,136.51s7.36-3.9,12.28,6"/><path class="cls-8" d="M251.9,212.19s2.14,21-9.7,22.86-38-14.49-38-14.49l-12.12-41,45.47,25.18Z"/><path class="cls-3" d="M160.37,182.52s25.17-16.7,64.31,9.48l-23,36.33-22.86-2.12Z"/><polygon class="cls-3" points="100.94 251.07 106.67 324.34 208.02 309.9 192.34 203.23 160.37 182.52 117.74 190.11 100.94 251.07"/><line class="cls-14" x1="101.39" y1="256.84" x2="98.7" y2="232.18"/><line class="cls-14" x1="195.95" y1="227.79" x2="192.04" y2="206.51"/><path class="cls-8" d="M125.58,184.55h0L120.88,156l26.36-4.33,4.7,28.6,8.43,2.29s.11,12.15-19.31,15.61-23.32-8-23.32-8Z"/><path class="cls-15" d="M148.73,160.67s-.44,11.23-10.06,14.09c-11.07,3.3-16.26-9.49-16.26-9.49s6,5.21,13.89,3.92A17.67,17.67,0,0,0,148.73,160.67Z"/><path class="cls-15" d="M117.16,109.74s4.69-11.63,20.47-9.71c11.13,1.35,14.86,10.43,16.82,14.56a10.2,10.2,0,0,1,1,5.07l-2.16,19.48-18.48-24.81-15.22,2.74Z"/><path class="cls-8" d="M153.25,139.14a5,5,0,0,1,6-2.23c4.28,1.16,3.41,11.36-2.65,13.25a4.9,4.9,0,0,1-4.06-.64S153.29,142,153.25,139.14Z"/><path class="cls-22" d="M158.75,140.53s-3.57-.81-5.52,4.52"/><path class="cls-8" d="M111,143.34a5,5,0,0,0-6.29-1c-4,2-1.11,11.81,5.21,12.47a4.92,4.92,0,0,0,3.85-1.43S111.54,146.12,111,143.34Z"/><path class="cls-22" d="M105.91,145.78s3.34-1.49,6.3,3.35"/><path class="cls-8" d="M152.72,129.59c.6,6,1.26,18.73-1.7,26.6-2.79,7.39-7.19,11-14.72,12s-14.45-.64-19.87-9.33S109.62,134,109.62,134s-2.15-21.57,19.17-23.69C151.25,108.07,152.72,129.59,152.72,129.59Z"/><path class="cls-15" d="M111,143.34l-5.72-18.57a8.19,8.19,0,0,1,.2-4.6c1.28-3.7,5.2-12,11.65-10.43l2.39,7.33s-7.75,2.39-9.9,13.06Z"/><path class="cls-15" d="M114.68,116.07s14.25,14.14,39.44,10.09c0,0-4.23-18-16.07-18.17a41.32,41.32,0,0,0-21.11,6Z"/><path class="cls-15" d="M119.55,117.07a38.6,38.6,0,0,1-10,15.72S106.08,115.77,119.55,117.07Z"/><path class="cls-15" d="M139.24,138.76a1.9,1.9,0,1,0,1.58-2.18A1.89,1.89,0,0,0,139.24,138.76Z"/><path class="cls-15" d="M121.57,141.53a1.91,1.91,0,1,0,1.59-2.18A1.92,1.92,0,0,0,121.57,141.53Z"/><path class="cls-15" d="M125.77,132.14l-12.15,5.26s0-3.64,5-5.75S125.77,132.14,125.77,132.14Z"/><path class="cls-15" d="M134.68,130.9l13.18,1.28s-1.14-3.46-6.52-3.93S134.68,130.9,134.68,130.9Z"/><path class="cls-23" d="M131.37,144.62l.55,2.68a1.07,1.07,0,0,0,1.46.8l1.36-.59"/><path class="cls-12" d="M127.4,153.44l13.72-3.09s1.13,5.33-5.62,6.63S127.4,153.44,127.4,153.44Z"/><rect class="cls-5" y="364.31" width="599.79" height="14.98"/><path class="cls-8" d="M264,335.84H234a14.24,14.24,0,0,0-14.23,14.24h0A14.23,14.23,0,0,0,234,364.31h35.22Z"/><polygon class="cls-8" points="223.08 340.97 241.66 310.55 269.24 314.27 265.15 350.08 223.08 340.97"/><line class="cls-14" x1="256.56" y1="335.84" x2="234.02" y2="335.84"/><path class="cls-8" d="M357.68,335.84h29.93a14.24,14.24,0,0,1,14.24,14.24h0a14.23,14.23,0,0,1-14.24,14.23H352.4Z"/><polygon class="cls-8" points="398.24 340.61 374.84 304.55 352.4 314.27 356.49 350.08 398.24 340.61"/><line class="cls-14" x1="359.37" y1="335.84" x2="387.61" y2="335.84"/><path class="cls-24" d="M308.31,257.17s-29.81,0-51.75,21.58v60.47s105,1.6,105,0,0-64.47,0-64.47S340.11,257.17,308.31,257.17Z"/><path class="cls-24" d="M261,274.75s-16.2,13.08-33.28,41.88c0,0,3.68,16.66,35.49,19.21Z"/><path class="cls-24" d="M361.59,274.75s16.2,13.08,33.28,41.88c0,0-3.68,16.66-35.5,19.21Z"/><rect class="cls-25" x="256.56" y="294.5" width="105.01" height="69.81" rx="4.76"/><circle class="cls-12" cx="309.06" cy="329.41" r="6.44"/><rect class="cls-8" x="298.51" y="244.43" width="20.6" height="23.07"/><path class="cls-15" d="M297.5,243.18s1.82,11.47,10.46,11.67c11.34.28,11.15-11.16,11.15-11.16s-1.55,3.37-10.31,3.38C299,247.08,297.5,243.18,297.5,243.18Z"/><ellipse class="cls-15" cx="308.85" cy="205.72" rx="28.65" ry="29.38"/><path class="cls-8" d="M333.61,216.44a5.1,5.1,0,0,1,6.32-1.67c4.25,1.61,2.33,11.94-4.05,13.26A5,5,0,0,1,331.8,227S333.37,219.33,333.61,216.44Z"/><path class="cls-26" d="M339.08,218.41s-3.56-1.19-6.09,4.06"/><path class="cls-8" d="M284.76,216.44a5.1,5.1,0,0,0-6.32-1.67c-4.25,1.61-2.33,11.94,4.06,13.26a5,5,0,0,0,4.08-1.07S285,219.33,284.76,216.44Z"/><path class="cls-26" d="M279.29,218.41s3.56-1.19,6.09,4.06"/><path class="cls-8" d="M334,207.53c0,6.62-.68,20.48-5,28.7-4,7.72-10.69,11.87-19.43,12.12s-15.25-2.95-20.47-13-5-27.72-5-27.72,0-23.66,24.64-23.66C334.78,184,334,207.53,334,207.53Z"/><path class="cls-15" d="M284.76,216.44s5.26-11.55.62-19.86C285.38,196.58,281.18,210,284.76,216.44Z"/><path class="cls-15" d="M333.54,216.44s-5.27-11.55-.62-19.86C332.92,196.58,337.12,210,333.54,216.44Z"/><path class="cls-15" d="M321.62,185.33s-2.42,14,12.05,20.35C333.67,205.68,333.07,189.31,321.62,185.33Z"/><path class="cls-15" d="M324.88,187.08s-2.17,14-21.15,10.85c-14.77-2.42-19.28,8.87-19.28,8.87s-2.62-21,21.23-25.28C305.68,181.52,317.88,181.45,324.88,187.08Z"/><path class="cls-15" d="M300.34,218.93a2.26,2.26,0,1,1-2.26-2.26A2.26,2.26,0,0,1,300.34,218.93Z"/><circle class="cls-15" cx="318.94" cy="218.93" r="2.25"/><path class="cls-14" d="M307.38,223.83v3a1.19,1.19,0,0,0,1.41,1.19l1.61-.34"/><path class="cls-15" d="M304.78,211.94l-13.66,1.64s1.1-3.62,6.68-4.24S304.78,211.94,304.78,211.94Z"/><path class="cls-15" d="M312.65,211.94l13.66,1.64s-1.1-3.62-6.68-4.24S312.65,211.94,312.65,211.94Z"/><circle class="cls-27" cx="295.87" cy="218.86" r="9.32" transform="translate(-68.1 273.31) rotate(-45)"/><circle class="cls-27" cx="322.25" cy="218.86" r="9.32" transform="translate(35.46 482.48) rotate(-76.77)"/><path class="cls-27" d="M305.18,219.63s3.29-5.06,7.76,0"/><path class="cls-14" d="M301.06,232.18s1.37,1.78,7.45,1.78c5.54,0,8.05-1.78,8.05-1.78"/><path class="cls-8" d="M308.31,257.17s-12.59-.69-29,6.58c0,0-.35,14.19,28,14.19s30.89-15.55,30.89-15.55S320.19,256,308.31,257.17Z"/><circle class="cls-15" cx="319.11" cy="167.61" r="18.7"/></g></g></svg>