<svg width="34" height="34" viewBox="0 0 34 34" fill="none" xmlns="http://www.w3.org/2000/svg">
<rect x="1.95" y="1.95" width="30.1" height="30.1" rx="15.05" fill="#444444" stroke="white" stroke-width="2.1"/>
<path fill-rule="evenodd" clip-rule="evenodd" d="M18.7512 11.3634L13.5314 20.4043L13.8171 22.7318L15.9757 21.8155L21.1955 12.7746L18.7512 11.3634ZM15.9558 21.8501C15.9558 21.85 15.9558 21.8499 15.9559 21.8499ZM13.5116 20.4387L13.5115 20.4388L13.4486 20.4026L13.5115 20.4388C13.5115 20.4388 13.5115 20.4387 13.5116 20.4387ZM18.023 10.8318C18.168 10.5806 18.3822 10.3832 18.6185 10.2829C18.8549 10.1825 19.0939 10.1876 19.2832 10.2968L21.8532 11.7806C22.0424 11.8898 22.1663 12.0944 22.1976 12.3492C22.2288 12.604 22.165 12.8883 22.02 13.1394L16.7321 22.2983C16.6603 22.4226 16.5708 22.5351 16.4686 22.6293C16.3664 22.7235 16.2536 22.7975 16.1366 22.8472L13.867 23.8106C13.6307 23.9109 13.3916 23.9059 13.2024 23.7966C13.0131 23.6874 12.8893 23.4829 12.858 23.228L12.5575 20.7808C12.542 20.6546 12.5498 20.5199 12.5802 20.3843C12.6107 20.2487 12.6633 20.115 12.7351 19.9906L18.023 10.8318Z" fill="white"/>
<path fill-rule="evenodd" clip-rule="evenodd" d="M16.8639 12.8425C17.0282 12.558 17.3351 12.4277 17.5495 12.5514L20.7701 14.4109C20.9845 14.5347 21.0252 14.8656 20.8609 15.1501C20.6966 15.4346 20.3897 15.5649 20.1753 15.4411L16.9547 13.5817C16.7403 13.4579 16.6997 13.127 16.8639 12.8425Z" fill="white"/>
<path fill-rule="evenodd" clip-rule="evenodd" d="M12.6608 20.1865C12.825 19.902 13.132 19.7717 13.3464 19.8954L16.5084 21.721C16.7227 21.8448 16.7634 22.1757 16.5991 22.4602C16.4349 22.7447 16.1279 22.875 15.9135 22.7513L12.7515 20.9257C12.5372 20.8019 12.4965 20.471 12.6608 20.1865Z" fill="white"/>
</svg>
