<svg xmlns="http://www.w3.org/2000/svg" xmlns:xlink="http://www.w3.org/1999/xlink" viewBox="0 0 1841.18 1376.27"><defs><style>.cls-1{fill:#e6eff2;}.cls-2{fill:#8bd0ca;}.cls-3{fill:#f5faff;}.cls-4{fill:#bbe0f8;}.cls-5{fill:#007cf4;}.cls-6{fill:#ff9e3e;}.cls-7{fill:#72c4f4;}.cls-8{fill:url(#linear-gradient);}.cls-9{fill:url(#linear-gradient-2);}.cls-10{fill:url(#linear-gradient-3);}.cls-11{fill:#050542;}.cls-12{fill:#f54552;}.cls-13{fill:#1f191a;}.cls-14{fill:url(#linear-gradient-4);}.cls-15{fill:url(#linear-gradient-5);}.cls-16{fill:url(#linear-gradient-6);}.cls-17{fill:url(#linear-gradient-7);}.cls-18{fill:url(#linear-gradient-8);}</style><linearGradient id="linear-gradient" x1="1279.41" y1="874.73" x2="1047.95" y2="829.72" gradientUnits="userSpaceOnUse"><stop offset="0.16" stop-color="#ffacac"/><stop offset="0.3" stop-color="#ffa6a5"/><stop offset="0.49" stop-color="#fd9492"/><stop offset="0.72" stop-color="#fb7672"/><stop offset="0.81" stop-color="#fa6964"/></linearGradient><linearGradient id="linear-gradient-2" x1="1008.4" y1="957.64" x2="1007.64" y2="840.99" gradientUnits="userSpaceOnUse"><stop offset="0.34" stop-color="#ffacaa"/><stop offset="0.45" stop-color="#ffa7a4"/><stop offset="0.6" stop-color="#fe9795"/><stop offset="0.75" stop-color="#fc7e7b"/><stop offset="0.85" stop-color="#fb6b67"/></linearGradient><linearGradient id="linear-gradient-3" x1="1119.06" y1="1400.79" x2="1152.23" y2="1195.15" gradientUnits="userSpaceOnUse"><stop offset="0.3" stop-color="#ffacac"/><stop offset="0.39" stop-color="#ffa6a5"/><stop offset="0.52" stop-color="#fd9492"/><stop offset="0.68" stop-color="#fb7672"/><stop offset="0.74" stop-color="#fa6964"/></linearGradient><linearGradient id="linear-gradient-4" x1="880.94" y1="843.13" x2="903.02" y2="772.54" gradientUnits="userSpaceOnUse"><stop offset="0.26" stop-color="#ffacac"/><stop offset="0.71" stop-color="#fc807d"/><stop offset="1" stop-color="#fa6964"/></linearGradient><linearGradient id="linear-gradient-5" x1="1040.29" y1="844.02" x2="827.83" y2="789.67" xlink:href="#linear-gradient-3"/><linearGradient id="linear-gradient-6" x1="1000.98" y1="699.62" x2="1000.98" y2="618.68" gradientTransform="translate(151.61 -150.81) rotate(10.22)" gradientUnits="userSpaceOnUse"><stop offset="0.04" stop-color="#ffacac"/><stop offset="0.2" stop-color="#ffa6a5"/><stop offset="0.42" stop-color="#fd9492"/><stop offset="0.69" stop-color="#fb7672"/><stop offset="0.8" stop-color="#fa6964"/></linearGradient><linearGradient id="linear-gradient-7" x1="1020.78" y1="699.19" x2="1022.71" y2="589.58" gradientTransform="translate(45.69 -52.12) rotate(3.29)" gradientUnits="userSpaceOnUse"><stop offset="0.04" stop-color="#ffacac"/><stop offset="0.22" stop-color="#ffa6a5"/><stop offset="0.48" stop-color="#fd9492"/><stop offset="0.78" stop-color="#fb7672"/><stop offset="0.9" stop-color="#fa6964"/></linearGradient><linearGradient id="linear-gradient-8" x1="755.42" y1="1457.84" x2="705.56" y2="1331.18" gradientTransform="matrix(-0.88, 0.47, 0.47, 0.88, 1305.49, -289.87)" xlink:href="#linear-gradient-3"/></defs><g id="Layer_2" data-name="Layer 2"><g id="Layer_1-2" data-name="Layer 1"><path id="wall" class="cls-1" d="M1695.23,1372.18a800.92,800.92,0,0,0,136-447.7c0-444.42-360.27-804.69-804.69-804.69S221.81,480.06,221.81,924.48a800.88,800.88,0,0,0,137.43,449.9Z"/><g id="plant02"><path class="cls-2" d="M893,615.16c-37.17,2.07-31,0-92.92-6.19s-70.2,49.56-92.92,59.88S665.87,695.69,638,729.62c-24,29.25-12.22,91.77-8.5,108.46-25.58,51.35-50.17,112.45-58.6,171.47-4.73,33-16.5,76-30.22,118.9,13.43-76.1,33.4-190.06,37.44-217,3.62-24.14,15-82.14,28-133.18h0l0-.06c7.73-30.47,16-58.44,23.57-75.25,71.21-23.22,95.06-97.11,95.06-97.11,55.75-4.13,55.75-39.23,74.33-37.16s33-10.33,49.56-16.52,31,2.06,61.94,0,24.78-8.26,40.88-6.35,34.49,13.57,34.49,13.57c-20.65-49.55-119.76-53.68-173-47.5s-47.89,39.25-93.28,53.7S608.05,637.88,591.53,675.05c-11.62,26.16.32,66.61,8.41,88.3-.76,2.88-1.51,5.78-2.21,8.74-35.1,148.67-51.62,216.81-51.62,216.81s-9.53,44.49-22.62,92.64c-.68-9.17-1.69-20.87-3.19-35.86-6.2-61.94,24.78-274.62,31-311.79,2.14-12.82,8.45-36.46,15.81-61.93,0,0,50.27-78.48,79.17-95.72s43.36-67.41,66.08-94.26c20.87-24.67,22.58-19.7,43.55-28.35,8.48,6.42,20.46,13.8,31.81,14.93,20.65,2.07,23.34-12.39,42.64,0s6.92,18.59,31.7,20.65,66.07,14.45,66.07,14.45-22.71-28.9-33-43.36-6.19-18.58-24.77-24.78-2.94-34.37-63.42-28.54c-19.67.13-49.48-.35-68.91-3.76-31.16-5.46-61.77,22-91.71,27s-38.2,42.43-59.56,69.85S575,536.7,542.52,565.61s-3.68,64.52-3.68,64.52c-5,14.66,4.37,41.47,10.61,56.56C532.2,760.39,512.91,867,502.07,929.17c-4.85-113.38-9-251.76-4.72-325.65,9.27-13.35,27.86-38.68,45.16-53.39,24.27-20.64,19.08-22.72,37.68-55.82S605,430.36,638,406.19s28.91-60.49,51.62-70.81,63-48.51,63-48.51c19.62-1,60.28-16.83,60.28-16.83,13.82,2.8,59.48-20.35,59.48-20.35-51.62-22.71-92.92,4.13-148.67,4.13s-97,41.3-123.89,53.68-47.49,43.37-51.62,57.82c-1.55,5.43-4.56,10-9.58,15.1,2.56-24.69-4.21-47.5-2.81-90.24,2.07-62.75,0-52.88,0-92.11s-19.57-53.47-19.57-53.47c-15.44-6-54.76,22.5-69.21,51.4s-28.91,78.47-38.31,127.55,28,54.16,11.46,91.33c-4.24,9.53-7,20.42-8.71,31.33-9.18-29.55-24.72-45-43-67.06-22.81-27.47-22.62-24.15-52.5-66.48s-85.75-50.59-127.38-72.11-77.85,0-77.85,0,55.47,25.65,76.12,54.56,14.45,35.1,35.1,80.52,43.36,43.37,59.88,88.79,47.49,68.14,64,90.85C355.54,568.65,356,587,358,608.63c-6-5.91-14.93-12-30.78-20.31-43.37-22.71-47.5-81-110.47-90.06s-110.47-2.86-129,21.92S58.81,536.7,36.09,559.41,0,625.89,0,625.89s22.67-34.47,53.65-34.47,84.65,2.06,105.3,2.06,39.23,8.26,66.08,10.33,31.1,5.15,44.46,26.32,54.65,35.62,54.65,35.62l44.15,58.88c20.82,71.06,81.53,280.18,90.06,331.38,5.63,33.75,6.35,57.67,8.85,73.14l-.09,2H465c-24.28-69.54-89.69-241.88-114-305.81,0,0,12.92-5.82,16.52-28a50.62,50.62,0,0,0,.91-10.95c0-.46,0-.91,0-1.39a61.23,61.23,0,0,0-13.59-38.56c-8.11-11-19.1-17.57-31.45-18.75-.79-.09-1.58-.17-2.36-.21-22.71-.87-22.67-19.08-53.66-22.36s-70.23-36.33-95-13.62-39.23,6.2-51.62,31S93.2,726,81.17,759.37,29.9,803.06,46.42,842.3c0,0,19.61-34.07,50.59-38.2s24.77-22.72,47.49-18.59,57.81,2.78,72.27-14.1,35,19.63,69.13-12a124.53,124.53,0,0,1,15.15,7.77c8.09,6.62,17.23,16.6,25.47,26.46l120.83,337.6H363.88A14.93,14.93,0,0,0,349.23,1149l43.15,220.72H611.46l46.4-220.51a14.93,14.93,0,0,0-14.61-18H556.9c19.74-91.72,51.2-223,63.54-255.87,10.46-27.89,24.85-55.78,38-78.89,0,0,20.86-19.19,56.29-30.5s67.8-58.89,67.8-58.89c53.69,0,31-31,66.08-31s26.84-22.72,78.46-28.91,75.37,40.26,75.37,40.26C1002.44,611,930.17,613.1,893,615.16Zm-379.14,500-.29,1-.19-.92Zm-47.37-479.7A156.92,156.92,0,0,0,483.64,657c-2.46,64.4-2.57,146-2.57,181.5-12.26-57.73-24.47-102.72-33.94-134.12C459.24,689.22,465.38,660.68,466.49,635.44ZM446,925.92c-13.86-37.42-36.09-107.39-53.58-160h0s5.14-39.63,2.1-74.89c15.15,11.11,31.95,16.53,40.37,18.72,10.37,42.82,46.22,262.38,46.22,262.38V1024C467.13,988.77,462.51,970.6,446,925.92Z"/><path class="cls-3" d="M440.34,707.11a2.05,2.05,0,0,1-2-1.69c-.72-4-73.91-399.21-250.47-462.93a2,2,0,0,1,1.39-3.85c51.65,18.64,127.32,78.49,194.51,257.78,40.09,107,58.42,207.28,58.6,208.28a2.06,2.06,0,0,1-1.65,2.38Z"/><path class="cls-3" d="M378.18,726.87a2,2,0,0,1-1.88-1.25c-.56-1.32-56.94-132.1-166.38-168.24C153.05,538.6,91.61,548.31,27.3,586.25a2,2,0,1,1-2.08-3.53c65.38-38.57,128-48.4,186-29.23C322.44,590.23,379.51,722.69,380.07,724a2,2,0,0,1-1.89,2.84Z"/><path class="cls-3" d="M483.08,620.84l-4-.7c.29-1.72,30.73-173.21,111.37-260.76s237.3-112.86,238.88-113.1l.63,4.05c-1.56.24-156.77,25.26-236.5,111.83S483.38,619.13,483.08,620.84Z"/><path class="cls-3" d="M465.38,539.58a2.05,2.05,0,0,1-2-1.82c-17-152.5,35.34-374.46,35.88-376.68a2,2,0,1,1,4,.95c-.53,2.22-52.74,223.49-35.79,375.27a2,2,0,0,1-1.81,2.26Z"/><path class="cls-3" d="M555.18,673.91a2.15,2.15,0,0,1-.77-.15,2,2,0,0,1-1.12-2.67c2-5,50.17-122.84,78.7-147.71,9.17-8,18.1-21.28,27.56-35.35,20-29.81,42.75-63.59,79.43-68.12C791.93,413.4,861.23,444,897.65,477.4a2,2,0,0,1-2.77,3c-35.74-32.75-103.63-62.8-155.4-56.44-34.83,4.29-57,37.26-76.53,66.34-9.61,14.29-18.69,27.8-28.27,36.15-27.79,24.23-77.1,144.95-77.6,146.17A2,2,0,0,1,555.18,673.91Z"/><path class="cls-3" d="M49.58,820.84a2.09,2.09,0,0,1-1.17-.36,2.05,2.05,0,0,1-.52-2.85c.71-1,71.94-101.52,222.21-102.59h0a2.05,2.05,0,0,1,0,4.1c-77.36.55-132.74,27.91-165.56,50.78C69,794.71,51.43,819.71,51.26,820A2,2,0,0,1,49.58,820.84Z"/><path class="cls-3" d="M634.79,812.88a2.06,2.06,0,0,1-1.9-2.82c.24-.59,24.59-59.82,79.73-94.28,16.3-10.19,28.42-21.49,40.15-32.41,28.2-26.27,54.83-51.08,133.3-57.78a2,2,0,0,1,2.21,1.87,2,2,0,0,1-1.86,2.21c-77.06,6.58-103.19,30.92-130.86,56.7-11.87,11-24.14,22.48-40.77,32.88-54,33.74-77.86,91.76-78.1,92.35A2.06,2.06,0,0,1,634.79,812.88Z"/><path class="cls-1" d="M629.63,696.1l-3.48-2.16c1.77-2.86,43.9-70.38,80.89-97.64,48.9-36,123.39-82.71,205.28-71.77l-.54,4.06c-80.39-10.75-154,35.38-202.31,71C673.11,626.4,630.06,695.4,629.63,696.1Z"/></g><g id="element"><path class="cls-4" d="M1389.66,32.34H1071.58a29.08,29.08,0,0,0-29.09,29.09V195.5a29.08,29.08,0,0,0,29.09,29.09h29.49V297l77.06-72.45h211.53a29.09,29.09,0,0,0,29.09-29.09V61.43A29.09,29.09,0,0,0,1389.66,32.34Z"/><rect class="cls-5" x="1081.01" y="84.59" width="299.21" height="19.81" rx="9.91"/><path class="cls-5" d="M1370.32,137.93h-279.4A9.91,9.91,0,0,1,1081,128h0a9.91,9.91,0,0,1,9.91-9.91h279.4a9.91,9.91,0,0,1,9.9,9.91h0A9.9,9.9,0,0,1,1370.32,137.93Z"/><path class="cls-5" d="M1270.11,171.46H1090.92a9.91,9.91,0,0,1-9.91-9.9h0a9.91,9.91,0,0,1,9.91-9.91h179.19a9.91,9.91,0,0,1,9.91,9.91h0A9.91,9.91,0,0,1,1270.11,171.46Z"/><circle class="cls-5" cx="1053.92" cy="37.6" r="37.6"/><path class="cls-3" d="M1049.7,55.8a3.64,3.64,0,0,1-2.5-1l-16.37-15.37a3.65,3.65,0,1,1,5-5.32l13.57,12.75,22.33-26.18a3.65,3.65,0,1,1,5.55,4.73l-24.81,29.1a3.68,3.68,0,0,1-2.57,1.28Z"/><path class="cls-4" d="M1788.67,333h-354a32.38,32.38,0,0,0-32.37,32.38V514.62A32.37,32.37,0,0,0,1434.65,547h32.83v80.63L1553.24,547h235.43A32.37,32.37,0,0,0,1821,514.62V365.41A32.38,32.38,0,0,0,1788.67,333Z"/><rect class="cls-5" x="1445.15" y="391.19" width="333.01" height="22.05" rx="11.03"/><path class="cls-5" d="M1767.14,450.55h-311a11,11,0,0,1-11-11h0a11,11,0,0,1,11-11h311a11,11,0,0,1,11,11h0A11,11,0,0,1,1767.14,450.55Z"/><rect class="cls-5" x="1445.15" y="465.82" width="221.49" height="22.05" rx="11.03"/><circle class="cls-6" cx="1415" cy="338.89" r="41.85" transform="translate(853.83 1681.33) rotate(-80.78)"/><path class="cls-3" d="M1440.33,356.65l-18.45-17.27,17.27-18.45a4.1,4.1,0,1,0-6-5.59l-17.26,18.44-18.45-17.26a4.1,4.1,0,0,0-5.6,6l18.45,17.26L1393,358.21a4.1,4.1,0,1,0,6,5.6l17.26-18.45,18.45,17.27a4.1,4.1,0,0,0,5.6-6Z"/></g><g id="plant01"><path class="cls-2" d="M1719.82,1154.13l-1.36-64.59c42,20.72,93.1-43,93.1-43-62.3-2.13-85.25,19.18-93.33,31.71l-1.56-74.18c36.08,19.47,80.65-36.05,80.65-36.05-56.32-1.93-75,18.59-80.8,28.88l-.75-36c25.71,6.4,46-35.09,46-35.09-30.85,5.87-42.06,18.13-46.14,26.3l-.46-21.86c4.5-1.23,20.3-8.06,23-43.65,0,0-16.57,10.53-23.39,24.14l-1.41-66.8c-.39-18.84-2.57-18.84-3,0l-1.55,73.87c-4.24-6.33-11.69-13.62-24.71-21,0,0,4.54,35.16,24.31,40l-.49,23.07c-8-9-25.81-20.31-64.87-19,0,0,34.65,43.18,64.59,32.68l-1.32,62.78c-9.6-10.42-30.54-23.1-75.33-21.57,0,0,40.09,49.94,75,38.41l-1.09,52.07c-11.31-12.2-35.88-27-88.25-25.19,0,0,46.94,58.47,87.83,45.08l-.67,31.8c-15.91-5-50.06-6.61-101.17,37.7,0,0,70.47,15.33,100.7-15.13l-2.11,100.63h21.26l-2.34-111.84c41.68,18.3,91.44-43.68,91.44-43.68C1752.93,1122.71,1729.15,1141.47,1719.82,1154.13Z"/><path class="cls-7" d="M1680.75,1226.35h62a7.64,7.64,0,0,1,7.64,7.64v115.87a19.78,19.78,0,0,1-19.78,19.78h-37.74a19.78,19.78,0,0,1-19.78-19.78V1234A7.64,7.64,0,0,1,1680.75,1226.35Z"/><rect class="cls-3" x="1673.11" y="1343.25" width="77.3" height="3.21"/><rect class="cls-3" x="1673.11" y="1337.41" width="77.3" height="3.21"/><rect class="cls-3" x="1673.11" y="1331.44" width="77.3" height="3.21"/><path class="cls-3" d="M1716.86,1001.17a1,1,0,0,1-.95-.65,1,1,0,0,1,.58-1.33l75.31-29.69a1,1,0,0,1,.75,1.91l-75.31,29.69A1,1,0,0,1,1716.86,1001.17Z"/><path class="cls-3" d="M1708.49,968.52a1.09,1.09,0,0,1-.39-.08l-59.69-24.63a1,1,0,0,1-.56-1.34,1,1,0,0,1,1.34-.55l59.69,24.63a1,1,0,0,1-.39,2Z"/><path class="cls-3" d="M1707.09,1046.16a1.07,1.07,0,0,1-.39-.07l-68.43-27.86a1,1,0,0,1,.77-1.9l68.43,27.86a1,1,0,0,1-.38,2Z"/><path class="cls-3" d="M1718.85,1085.32a1,1,0,0,1-.4-2l84.72-35a1,1,0,0,1,.78,1.9l-84.71,35A1.09,1.09,0,0,1,1718.85,1085.32Z"/><path class="cls-3" d="M1707.09,1116.94a1,1,0,0,1-.38-.07l-80.1-31.62a1,1,0,0,1,.75-1.91l80.1,31.63a1,1,0,0,1-.37,2Z"/><path class="cls-3" d="M1718.85,1163.25a1,1,0,0,1-.38-2l84.71-33.89a1,1,0,0,1,.76,1.91l-84.71,33.88A1.06,1.06,0,0,1,1718.85,1163.25Z"/><path class="cls-3" d="M1612.3,1193a1,1,0,0,1-.27-2l91.86-25.22a1,1,0,1,1,.54,2L1612.57,1193A1.26,1.26,0,0,1,1612.3,1193Z"/><path class="cls-3" d="M1716,957.43a1,1,0,0,1-.58-1.87l41.41-28a1,1,0,0,1,1.15,1.7l-41.41,28A1,1,0,0,1,1716,957.43Z"/><path class="cls-3" d="M1709.29,931.72a1,1,0,0,1-.81-.41l-22.58-29.74a1,1,0,0,1,.2-1.44,1,1,0,0,1,1.43.2l22.58,29.74a1,1,0,0,1-.82,1.65Z"/><path class="cls-3" d="M1715,925a1.06,1.06,0,0,1-.56-.16,1,1,0,0,1-.3-1.42L1735,891.27a1,1,0,0,1,1.72,1.12l-20.93,32.14A1,1,0,0,1,1715,925Z"/></g><path class="cls-7" d="M1416.89,810.69v12.09h-20.77v48.3H1417a22.42,22.42,0,0,0,22.34,21.13h16.48a22.48,22.48,0,0,0,22.47-22.48v-59Zm-16.1,16.76h16.1v39h-16.1Z"/><g id="woman_and_chair" data-name="woman and chair"><path class="cls-4" d="M814.85,662H956.91a24.71,24.71,0,0,1,24.37,20.64l58.14,347.57H860.1L785.57,702.26C780.91,681.75,795.29,662,814.85,662Z"/><path class="cls-5" d="M871.37,986.34a1.76,1.76,0,0,1-1.7-1.35l-70-297.27a1.75,1.75,0,1,1,3.41-.8l70,297.26a1.74,1.74,0,0,1-1.3,2.11A1.83,1.83,0,0,1,871.37,986.34Z"/><path class="cls-7" d="M980.86,1049.76c-41,0-77.27-27-89.67-66.72-31.43-100.81-78.9-300.79-9.89-300.79,21.48,0,38.19-.5,51.2-1.28a54.07,54.07,0,0,1,56.19,43.43l65.12,325.36Z"/><rect class="cls-5" x="994.18" y="1098.82" width="14.66" height="255.77"/><rect class="cls-4" x="983.23" y="1036.09" width="38.65" height="85.87"/><path class="cls-5" d="M1125.72,1055.53H876.61a19.05,19.05,0,0,1-19.05-19h0a16.71,16.71,0,0,1,16.71-16.7h251.45Z"/><path class="cls-4" d="M900.45,1338.13h202.11a26.65,26.65,0,0,1,26.65,26.65v6.27a0,0,0,0,1,0,0H873.8a0,0,0,0,1,0,0v-6.27A26.65,26.65,0,0,1,900.45,1338.13Z"/><path d="M1047.22,544.41s-45-29.26-78.61,32.86-73.46,57.13-90.45,82.5c-22.47,33.53-.06,75.63,133.25,79.05C1127.17,741.8,1146,544.41,1047.22,544.41Z"/><path class="cls-8" d="M1065.78,802.56l167.1,61.82v22.56l-130.08-16a42.17,42.17,0,0,1-37-41.86Z"/><polygon class="cls-9" points="938.69 862.4 934.61 934.62 1073.68 934.62 1081.42 862.4 938.69 862.4"/><path class="cls-10" d="M1126.19,1217.18l-2.7,32.75s-23.18,7-14.48,21.11,18.63,19.2,18,35.72,2.52,35.32,13.78,44.25c0,0-5.82,14,12.24,20l29.37-152.14Z"/><path class="cls-11" d="M1127.46,1010.4l-30.16,222.45h90s112-260.19,32.94-317.29h-83.45Z"/><path class="cls-12" d="M995,671.9s-100.52-4.33-123,85.87l56.17,22.87v88.43a6.53,6.53,0,0,0,6.53,6.54l149,.1a6.55,6.55,0,0,0,6.43-5.32L1105,754.05c4-31.48-14.47-61.77-44.58-71.79C1044.24,676.88,1022.94,672.8,995,671.9Z"/><path class="cls-13" d="M927.46,782.89l-.27,0a1,1,0,0,1-.7-1.24l14.61-52.26a1,1,0,0,1,1.93.54l-14.61,52.26A1,1,0,0,1,927.46,782.89Z"/><path class="cls-14" d="M880.76,761.33l-21.48,69.12,6.88,1.84a43.18,43.18,0,0,0,52.11-27.95L926.48,780Z"/><path class="cls-15" d="M1048.25,788c-8.54-1.91-28.25,9.26-28.25,9.26l-21.35,3.61h0L876,817.67c-24.2,3.3-24.69,38.29-.56,42.07,39.28,6.16,115.68-31.08,127.51-37,12.42,11.84,29.3-1.48,29.3-1.48l5.35,1.21,1.72,2.5a6,6,0,0,0,10,0,16.71,16.71,0,0,0,1-1.73c7.32-.58,5.9-7.9,5.9-7.9,7.64-1,5.38-7.63,5.38-7.63C1073.61,803.7,1056.8,789.94,1048.25,788Z"/><path class="cls-13" d="M1061.58,808.72a1,1,0,0,1-.6-.19l-12.79-9.09a1,1,0,1,1,1.18-1.66l12.8,9.08a1,1,0,0,1-.59,1.86Z"/><path class="cls-13" d="M1056.2,816.36a1,1,0,0,1-.68-.26l-12.68-11.28a1,1,0,0,1-.09-1.44,1,1,0,0,1,1.45-.09l12.68,11.28A1,1,0,0,1,1057,816,1,1,0,0,1,1056.2,816.36Z"/><path class="cls-13" d="M1050.3,824.26a1,1,0,0,1-.71-.29l-11.71-11.39a1,1,0,1,1,1.43-1.46L1051,822.5a1,1,0,0,1,0,1.45A1.05,1.05,0,0,1,1050.3,824.26Z"/><path class="cls-16" d="M1015.5,699h0c-13.52-2.44-21.62-17.56-17.31-32.3L1015,632.54l30,5.87L1043,674.77C1041.89,690.1,1029,701.44,1015.5,699Z"/><path class="cls-17" d="M1035.05,611.26c6-2.69,10.72-8,14.19-13.12-8.78,4.45-21.88,8.4-39.58,7.37l-.74,3c-.31,0-.61-.13-.93-.15a10.35,10.35,0,0,0-3.87,20.15l-.89,3.7a28.27,28.27,0,0,0,55,13.2l6.58-27.4a28.06,28.06,0,0,0-2.69-20.11C1053,608.57,1035.05,611.26,1035.05,611.26Z"/><path class="cls-18" d="M1284.47,1229.34l19.3,36.59,66.87-1.1s19.27,2.43,7,13.37l-87.94,46.39s-19.29,12.87-30-21l-26.22-47.33Z"/><path class="cls-11" d="M925.19,915.56h223.69s55.2,13.28,155.4,327.38l-71.51,29.72-150.68-245.84S866.1,1087.51,925.19,915.56Z"/><path class="cls-4" d="M1196.82,1215.61a1.6,1.6,0,0,1-1.37-.76l-71.68-116.95a1.6,1.6,0,0,1,2.74-1.67l71.68,116.94a1.62,1.62,0,0,1-.53,2.21A1.59,1.59,0,0,1,1196.82,1215.61Z"/><path class="cls-4" d="M1238.59,1062.64a1.62,1.62,0,0,1-1.49-1,780.53,780.53,0,0,0-52.51-104.12,1.61,1.61,0,0,1,2.75-1.66,784.65,784.65,0,0,1,52.75,104.61,1.61,1.61,0,0,1-.91,2.08A1.71,1.71,0,0,1,1238.59,1062.64Z"/></g><g id="table"><polygon class="cls-4" points="732.99 933.01 634.79 1367.24 652.33 1367.24 771.2 933.01 732.99 933.01"/><polygon class="cls-7" points="771.2 933.01 762.24 965.71 725.59 965.71 732.99 933.01 771.2 933.01"/><polygon class="cls-4" points="823.79 933.01 725.59 1367.24 743.12 1367.24 861.99 933.01 823.79 933.01"/><polygon class="cls-7" points="861.99 933.01 853.04 965.71 816.39 965.71 823.79 933.01 861.99 933.01"/><polygon class="cls-4" points="1498.02 937.94 1596.22 1372.17 1578.69 1372.17 1459.82 937.94 1498.02 937.94"/><polygon class="cls-7" points="1459.82 937.94 1468.77 970.64 1505.42 970.64 1498.02 937.94 1459.82 937.94"/><polygon class="cls-4" points="1407.22 937.94 1505.42 1372.17 1487.89 1372.17 1369.02 937.94 1407.22 937.94"/><polygon class="cls-7" points="1369.02 937.94 1377.97 970.64 1414.62 970.64 1407.22 937.94 1369.02 937.94"/><rect class="cls-4" x="700.43" y="915.08" width="835.65" height="35.85"/><rect class="cls-7" x="700.43" y="915.08" width="835.65" height="17.93"/><rect class="cls-4" x="676.24" y="891.44" width="884.03" height="29.19"/></g><g id="pc"><path class="cls-4" d="M1331.5,828.54H1102.68a19.63,19.63,0,0,1-19.4-22.61l20.34-132.23a19.63,19.63,0,0,1,19.4-16.65h228.82a19.63,19.63,0,0,1,19.4,22.62L1350.9,811.9A19.63,19.63,0,0,1,1331.5,828.54Z"/><path class="cls-7" d="M1197.49,755.13,1218.09,881h-33.21a10.19,10.19,0,0,0-10.19,10.19v3.16h93.4a10.19,10.19,0,0,0,10.09-11.64L1259.41,752a10.2,10.2,0,0,0-10.09-8.75h-41.77A10.2,10.2,0,0,0,1197.49,755.13Z"/><path class="cls-5" d="M1096.08,802.05l-.24,0a1.6,1.6,0,0,1-1.33-1.81l18.43-119.76a1.58,1.58,0,1,1,3.13.48L1097.65,800.7A1.59,1.59,0,0,1,1096.08,802.05Z"/></g><path d="M1837.09,1376.27H215.9a4.1,4.1,0,1,1,0-8.19H1837.09a4.1,4.1,0,0,1,0,8.19Z"/></g></g></svg>