<svg width="50" height="50" viewBox="0 0 50 50" fill="none" xmlns="http://www.w3.org/2000/svg">
<mask id="mask0" mask-type="alpha" maskUnits="userSpaceOnUse" x="0" y="0" width="50" height="50">
<path d="M25.0001 0.157104C11.4133 0.157104 0.398926 11.1715 0.398926 24.7582C0.398926 38.3449 11.4133 49.3593 25.0001 49.3593C38.5867 49.3593 49.6011 38.3449 49.6011 24.7582C49.5859 11.1779 38.5803 0.17232 25.0001 0.157104ZM25.0001 47.7193C12.3191 47.7193 2.039 37.4392 2.039 24.7582C2.039 12.0773 12.3191 1.79718 25.0001 1.79718C37.681 1.79718 47.9611 12.0773 47.9611 24.7582C47.9467 37.4332 37.675 47.7049 25.0001 47.7193Z" fill="#808080"/>
</mask>
<g mask="url(#mask0)">
<path d="M21.0697 25.2329L-6.56543 4.26304L17.3203 -15.7348L60.2321 -3.51388L21.0697 25.2329Z" fill="#EA4335"/>
<path d="M20.7858 24.6L48.4209 45.5698L24.5352 65.5676L-18.3767 53.3467L20.7858 24.6Z" fill="#34A853"/>
<path d="M-22.2302 -7.96683L20.9594 25.0854L-2.92683 42.3056L-36.5337 45.0838L-22.2302 -7.96683Z" fill="#FBBC05"/>
<path d="M63.6164 57.8839L20.4269 24.8317L44.3131 7.61139L77.9199 4.83324L63.6164 57.8839Z" fill="#4285F4"/>
</g>
<path d="M20.432 10.6943C16.808 11.9343 13.72 14.6463 12 18.0783C11.4 19.2623 10.968 20.5183 10.704 21.8223C10.048 25.0543 10.504 28.5023 11.992 31.4463C12.96 33.3663 14.352 35.0783 16.032 36.4143C17.624 37.6783 19.472 38.6223 21.44 39.1423C23.92 39.8063 26.5599 39.7903 29.056 39.2223C31.312 38.7023 33.4479 37.6223 35.1519 36.0543C36.9519 34.3983 38.2399 32.2223 38.9199 29.8783C39.6639 27.3263 39.7599 24.5983 39.2959 21.9743C34.6319 21.9743 29.9599 21.9743 25.296 21.9743C25.296 23.9103 25.296 25.8463 25.296 27.7823C28 27.7823 30.7039 27.7823 33.4079 27.7823C33.0959 29.6383 31.9919 31.3343 30.4319 32.3823C29.448 33.0463 28.32 33.4703 27.152 33.6783C25.9839 33.8783 24.768 33.9023 23.6 33.6703C22.408 33.4303 21.28 32.9343 20.288 32.2383C18.704 31.1263 17.496 29.5023 16.88 27.6703C16.248 25.8063 16.24 23.7343 16.88 21.8783C17.328 20.5663 18.064 19.3583 19.04 18.3663C20.24 17.1343 21.8 16.2543 23.488 15.8943C24.928 15.5903 26.448 15.6463 27.8559 16.0703C29.056 16.4303 30.1599 17.0943 31.0639 17.9583C31.9759 17.0463 32.8879 16.1343 33.7999 15.2223C34.2799 14.7343 34.7839 14.2623 35.2479 13.7583C33.8639 12.4783 32.232 11.4463 30.456 10.7903C27.256 9.60633 23.656 9.58233 20.432 10.6943Z" fill="white"/>
<path d="M20.432 10.6943C23.648 9.58227 27.256 9.60627 30.456 10.7823C32.232 11.4383 33.856 12.4623 35.248 13.7503C34.784 14.2543 34.28 14.7263 33.8 15.2143C32.888 16.1263 31.976 17.0383 31.064 17.9503C30.16 17.0863 29.056 16.4303 27.856 16.0623C26.448 15.6383 24.928 15.5743 23.488 15.8863C21.808 16.2463 20.248 17.1263 19.04 18.3583C18.064 19.3423 17.328 20.5583 16.88 21.8703C15.256 20.6063 13.632 19.3503 12 18.0863C13.72 14.6463 16.808 11.9343 20.432 10.6943Z" fill="#EA4335"/>
<path d="M10.7118 21.8143C10.9758 20.5183 11.4078 19.2543 12.0078 18.0703C13.6318 19.3343 15.2558 20.5903 16.8878 21.8543C16.2478 23.7183 16.2478 25.7903 16.8878 27.6463C15.2638 28.9103 13.6398 30.1743 12.0158 31.4303C10.5118 28.4943 10.0558 25.0463 10.7118 21.8143Z" fill="#FBBC05"/>
<path d="M25.2961 21.9663C29.9601 21.9663 34.6321 21.9663 39.2961 21.9663C39.7601 24.5823 39.6561 27.3103 38.9201 29.8703C38.2401 32.2143 36.9521 34.3903 35.1521 36.0463C33.5761 34.8223 32.0001 33.5983 30.4241 32.3743C31.9841 31.3263 33.0881 29.6303 33.4001 27.7743C30.6961 27.7743 27.9921 27.7743 25.2881 27.7743C25.2961 25.8383 25.2961 23.9023 25.2961 21.9663Z" fill="#4285F4"/>
<path d="M12 31.4383C13.624 30.1823 15.248 28.9183 16.872 27.6543C17.496 29.4863 18.696 31.1103 20.28 32.2223C21.272 32.9183 22.408 33.4143 23.592 33.6543C24.76 33.8943 25.968 33.8623 27.144 33.6623C28.312 33.4543 29.44 33.0303 30.424 32.3663C32 33.5903 33.576 34.8143 35.152 36.0383C33.448 37.6143 31.312 38.6863 29.056 39.2063C26.56 39.7743 23.92 39.7903 21.44 39.1263C19.472 38.6063 17.624 37.6703 16.032 36.3983C14.36 35.0703 12.968 33.3583 12 31.4383Z" fill="#34A853"/>
</svg>
