<svg width="51" height="51" viewBox="0 0 51 51" fill="none" xmlns="http://www.w3.org/2000/svg">
<g clip-path="url(#clip0)">
<path d="M25.525 1.15674C11.9382 1.15674 0.923828 12.1712 0.923828 25.7578C0.923828 39.3445 11.9382 50.359 25.525 50.359C39.1116 50.359 50.126 39.3445 50.126 25.7578C50.1108 12.1776 39.1052 1.17195 25.525 1.15674ZM25.525 48.7189C12.844 48.7189 2.5639 38.4388 2.5639 25.7578C2.5639 13.0769 12.844 2.79681 25.525 2.79681C38.2059 2.79681 48.486 13.0769 48.486 25.7578C48.4716 38.4328 38.1999 48.7045 25.525 48.7189Z" fill="#2E2E46"/>
<path d="M36.6093 23.4835C36.7139 22.8216 36.7792 22.0959 36.7956 21.2822C36.7893 17.7928 35.1189 16.558 34.7975 15.9792C35.2709 13.3353 34.7191 12.1327 34.4625 11.721C33.516 11.385 31.1696 12.5881 29.8875 13.435C27.7972 12.8231 23.3798 12.8828 21.7232 13.5933C18.6667 11.4047 17.0501 11.7384 17.0501 11.7384C17.0501 11.7384 16.005 13.6125 16.7738 16.3542C15.7681 17.6358 15.0186 18.5418 15.0186 20.9452C15.0186 21.5208 15.0543 22.0647 15.115 22.588C15.981 27.1418 19.5894 29.1064 23.1338 29.4451C22.6004 29.8504 21.9601 30.6174 21.8715 31.506C21.2013 31.9394 19.8532 32.0826 18.8049 31.753C17.3361 31.2889 16.7738 28.3802 14.5742 28.7952C14.0982 28.8842 14.1928 29.1981 14.605 29.4658C15.2751 29.9004 15.9062 30.4407 16.3927 31.5969C16.7664 32.4846 17.5522 34.0696 20.0368 34.0696C21.0232 34.0696 21.714 33.953 21.714 33.953C21.714 33.953 21.7328 36.215 21.7328 37.0972C21.7328 38.1124 20.3626 38.3975 20.3626 38.8846C20.3626 39.0783 20.8162 39.0967 21.1806 39.0967C21.9009 39.0967 23.3994 38.4968 23.3994 37.4415C23.3994 36.603 23.4128 33.7851 23.4128 33.2916C23.4128 32.2134 23.9906 31.8701 23.9906 31.8701C23.9906 31.8701 24.0614 37.6259 23.8516 38.3976C23.6056 39.305 23.1599 39.1761 23.1599 39.58C23.1599 40.1827 24.9615 39.7274 25.5591 38.4081C26.0214 37.3777 25.8144 31.7333 25.8144 31.7333L26.2963 31.7228C26.2963 31.7228 26.3018 34.3079 26.2852 35.4889C26.2678 36.7121 26.1416 38.2585 26.8682 38.9884C27.345 39.4684 28.806 40.3106 28.806 39.541C28.806 39.0948 27.783 38.7262 27.783 37.5176V31.9502C28.4045 31.9502 28.533 33.7803 28.533 33.7803L28.757 37.1802C28.757 37.1802 28.6082 38.4209 30.0972 38.9386C30.6229 39.1228 31.7474 39.1728 31.8002 38.8638C31.853 38.554 30.4461 38.0959 30.4328 37.1356C30.4255 36.5508 30.459 36.2085 30.459 33.6646C30.459 31.1222 30.1174 30.1816 28.9272 29.4321C32.3786 29.0779 35.9635 27.5365 36.6093 23.4835Z" fill="#2E2E46"/>
</g>
<defs>
<clipPath id="clip0">
<rect width="50" height="50" fill="white" transform="translate(0.601074 0.758301)"/>
</clipPath>
</defs>
</svg>
