<svg width="51" height="51" viewBox="0 0 51 51" fill="none" xmlns="http://www.w3.org/2000/svg">
<g clip-path="url(#clip0)">
<path d="M25.525 0.828735C11.9382 0.828735 0.923828 11.992 0.923828 25.7623C0.923828 39.5326 11.9382 50.6959 25.525 50.6959C39.1116 50.6959 50.126 39.5326 50.126 25.7623C50.1108 11.9985 39.1052 0.844156 25.525 0.828735ZM25.525 49.0337C12.844 49.0337 2.5639 38.6146 2.5639 25.7623C2.5639 12.91 12.844 2.49097 25.525 2.49097C38.2059 2.49097 48.486 12.91 48.486 25.7623C48.4716 38.6085 38.1999 49.019 25.525 49.0337Z" fill="#0A66C2"/>
<path d="M38.3332 35.9026V35.9016H38.3389V27.3288C38.3389 23.1349 37.4481 19.9042 32.6105 19.9042C30.2849 19.9042 28.7243 21.1977 28.0872 22.4239H28.0199V20.2958H23.4331V35.9016H28.2092V28.1742C28.2092 26.1395 28.5898 24.1722 31.0758 24.1722C33.5254 24.1722 33.5619 26.4941 33.5619 28.3047V35.9026H38.3332Z" fill="#0A66C2"/>
<path d="M15.6558 20.2961H20.4376V35.902H15.6558V20.2961Z" fill="#0A66C2"/>
<path d="M18.0449 12.5272C16.5161 12.5272 15.2754 13.7846 15.2754 15.3342C15.2754 16.8838 16.5161 18.1674 18.0449 18.1674C19.5739 18.1674 20.8145 16.8838 20.8145 15.3342C20.8135 13.7846 19.5729 12.5272 18.0449 12.5272Z" fill="#0A66C2"/>
</g>
<defs>
<clipPath id="clip0">
<rect width="50" height="50" fill="white" transform="translate(0.601074 0.758301)"/>
</clipPath>
</defs>
</svg>
