<svg width="23" height="20" viewBox="0 0 23 20" fill="none" xmlns="http://www.w3.org/2000/svg">
<path fill-rule="evenodd" clip-rule="evenodd" d="M7.12344 0.371083C7.278 0.139251 7.53819 0 7.81682 0H14.8009C15.0796 0 15.3398 0.139251 15.4943 0.371083L16.993 2.61905H20.0397C20.7238 2.61905 21.3798 2.8908 21.8636 3.37453C22.3473 3.85825 22.619 4.51432 22.619 5.19841V17.4206C22.619 18.1047 22.3473 18.7608 21.8636 19.2445C21.3798 19.7282 20.7238 20 20.0397 20H2.57936C1.89527 20 1.2392 19.7282 0.755478 19.2445C0.271754 18.7608 0 18.1047 0 17.4206V5.19841C0 4.51432 0.271754 3.85825 0.755478 3.37453C1.2392 2.8908 1.89527 2.61905 2.57936 2.61905H5.6248L7.12344 0.371083ZM8.26281 1.66667L6.76416 3.91463C6.60961 4.14646 6.34942 4.28571 6.07079 4.28571H2.57936C2.3373 4.28571 2.10515 4.38187 1.93399 4.55304C1.76283 4.7242 1.66667 4.95635 1.66667 5.19841V17.4206C1.66667 17.6627 1.76283 17.8948 1.93399 18.066C2.10515 18.2372 2.3373 18.3333 2.57936 18.3333H20.0397C20.2817 18.3333 20.5139 18.2372 20.6851 18.066C20.8562 17.8948 20.9524 17.6627 20.9524 17.4206V5.19841C20.9524 4.95635 20.8562 4.7242 20.6851 4.55304C20.5139 4.38187 20.2817 4.28571 20.0397 4.28571H16.547C16.2683 4.28571 16.0082 4.14646 15.8536 3.91463L14.355 1.66667H8.26281Z" fill="white"/>
<path fill-rule="evenodd" clip-rule="evenodd" d="M11.301 7.77778C9.59151 7.77778 8.20573 9.16356 8.20573 10.873C8.20573 12.5825 9.59151 13.9683 11.301 13.9683C13.0104 13.9683 14.3962 12.5825 14.3962 10.873C14.3962 9.16356 13.0104 7.77778 11.301 7.77778ZM6.53906 10.873C6.53906 8.24309 8.67104 6.11111 11.301 6.11111C13.9309 6.11111 16.0629 8.24309 16.0629 10.873C16.0629 13.5029 13.9309 15.6349 11.301 15.6349C8.67104 15.6349 6.53906 13.5029 6.53906 10.873Z" fill="white"/>
</svg>
