<svg width="32" height="32" viewBox="0 0 32 32" fill="none" xmlns="http://www.w3.org/2000/svg">
<rect x="1.16" y="1.16" width="29.68" height="29.68" rx="14.84" fill="white" stroke="#444444" stroke-width="1.68"/>
<path fill-rule="evenodd" clip-rule="evenodd" d="M18.0724 9.13239L11.6174 20.3128L11.9708 23.1912L14.6402 22.058L21.0952 10.8776L18.0724 9.13239ZM14.6155 22.1007C14.6155 22.1006 14.6156 22.1006 14.6156 22.1005ZM11.5929 20.3553L11.5927 20.3555L11.515 20.3107L11.5927 20.3555C11.5928 20.3554 11.5928 20.3554 11.5929 20.3553ZM17.1719 8.47499C17.3512 8.16444 17.6161 7.92027 17.9084 7.79621C18.2006 7.67214 18.4963 7.67835 18.7303 7.81346L21.9085 9.64837C22.1425 9.78347 22.2957 10.0364 22.3344 10.3515C22.3731 10.6667 22.2941 11.0182 22.1148 11.3287L15.5755 22.655C15.4868 22.8088 15.376 22.9478 15.2497 23.0643C15.1233 23.1808 14.9838 23.2723 14.8391 23.3338L12.0324 24.5252C11.7402 24.6492 11.4445 24.643 11.2105 24.5079C10.9765 24.3728 10.8233 24.1199 10.7846 23.8048L10.4131 20.7784C10.3939 20.6224 10.4035 20.4558 10.4411 20.2881C10.4788 20.1204 10.5439 19.955 10.6327 19.8012L17.1719 8.47499Z" fill="black"/>
<path fill-rule="evenodd" clip-rule="evenodd" d="M15.7379 10.9615C15.941 10.6097 16.3206 10.4485 16.5857 10.6016L20.5685 12.9011C20.8336 13.0541 20.8839 13.4634 20.6807 13.8152C20.4776 14.1671 20.098 14.3282 19.8329 14.1751L15.8501 11.8757C15.585 11.7226 15.5348 11.3133 15.7379 10.9615Z" fill="black"/>
<path fill-rule="evenodd" clip-rule="evenodd" d="M10.5426 20.0434C10.7457 19.6915 11.1253 19.5304 11.3904 19.6835L15.3007 21.9411C15.5658 22.0941 15.616 22.5034 15.4129 22.8552C15.2098 23.2071 14.8302 23.3682 14.5651 23.2151L10.6548 20.9575C10.3897 20.8045 10.3395 20.3952 10.5426 20.0434Z" fill="black"/>
</svg>
