<svg width="133" height="43" viewBox="0 0 133 43" fill="none" xmlns="http://www.w3.org/2000/svg">
<rect x="0.298828" y="0.19519" width="131.772" height="41.8677" rx="20.9339" fill="#FFF2F9"/>
<path d="M78.3726 27.629H70.6236V14.669H72.5046V25.856H78.3726V27.629ZM81.9616 16.316H80.0806V14.489H81.9616V16.316ZM81.9616 27.629H80.0806V17.909H81.9616V27.629ZM86.5723 27.629H84.6553L84.6643 14.669H86.5723V22.589L90.3883 17.909H92.7823L88.7503 22.769L93.1963 27.629H90.6403L86.5723 22.949V27.629ZM95.404 23.3C95.482 24.206 95.755 24.905 96.223 25.397C96.691 25.883 97.333 26.126 98.149 26.126C98.731 26.126 99.238 25.994 99.67 25.73C100.102 25.466 100.438 25.082 100.678 24.578L102.523 25.163C102.151 26.021 101.581 26.693 100.813 27.179C100.045 27.659 99.187 27.899 98.239 27.899C97.279 27.899 96.433 27.689 95.701 27.269C94.969 26.843 94.399 26.249 93.991 25.487C93.589 24.719 93.388 23.84 93.388 22.85C93.388 21.8 93.586 20.882 93.982 20.096C94.378 19.31 94.936 18.704 95.656 18.278C96.376 17.852 97.207 17.639 98.149 17.639C99.079 17.639 99.883 17.846 100.561 18.26C101.239 18.674 101.758 19.268 102.118 20.042C102.484 20.81 102.667 21.719 102.667 22.769C102.667 22.883 102.661 23.06 102.649 23.3H95.404ZM98.221 19.304C97.423 19.304 96.79 19.52 96.322 19.952C95.86 20.378 95.569 21.005 95.449 21.833H100.723C100.621 20.975 100.363 20.339 99.949 19.925C99.541 19.511 98.965 19.304 98.221 19.304Z" fill="#FF185D"/>
<path d="M31.6836 18.504H36.9336V29.879H31.6836C31.4515 29.879 31.229 29.7868 31.0649 29.6227C30.9008 29.4587 30.8086 29.2361 30.8086 29.004V19.379C30.8086 19.147 30.9008 18.9244 31.0649 18.7603C31.229 18.5962 31.4515 18.504 31.6836 18.504V18.504Z" stroke="#FF185D" stroke-width="1.8" stroke-linecap="round" stroke-linejoin="round"/>
<path d="M36.9336 18.504L41.3086 9.75403C41.7682 9.75403 42.2233 9.84456 42.648 10.0205C43.0726 10.1963 43.4585 10.4541 43.7835 10.7792C44.1085 11.1042 44.3663 11.49 44.5422 11.9146C44.7181 12.3393 44.8086 12.7944 44.8086 13.254V15.879H51.5762C51.8244 15.879 52.0697 15.9318 52.2959 16.0338C52.522 16.1359 52.7239 16.2849 52.8882 16.4709C53.0524 16.6569 53.1752 16.8757 53.2484 17.1128C53.3216 17.3499 53.3435 17.5999 53.3127 17.8461L52.0002 28.3461C51.9473 28.7693 51.7416 29.1587 51.4219 29.441C51.1021 29.7232 50.6903 29.879 50.2637 29.879H36.9336" stroke="#FF185D" stroke-width="1.8" stroke-linecap="round" stroke-linejoin="round"/>
</svg>
