<svg width="188" height="43" viewBox="0 0 188 43" fill="none" xmlns="http://www.w3.org/2000/svg">
<rect x="0.617188" y="0.19519" width="186.65" height="41.8677" rx="20.9339" fill="#E8FFEB"/>
<path d="M68.0881 27.629V14.669H72.1471C72.8191 14.669 73.3561 14.696 73.7581 14.75C74.7481 14.876 75.5911 15.233 76.2871 15.821C76.9891 16.409 77.5201 17.165 77.8801 18.089C78.2401 19.013 78.4201 20.033 78.4201 21.149C78.4201 22.265 78.2401 23.285 77.8801 24.209C77.5201 25.133 76.9891 25.889 76.2871 26.477C75.5911 27.065 74.7481 27.422 73.7581 27.548C73.3561 27.602 72.8191 27.629 72.1471 27.629H68.0881ZM72.1471 25.838C72.8131 25.838 73.3051 25.808 73.6231 25.748C74.2591 25.628 74.7841 25.349 75.1981 24.911C75.6181 24.473 75.9271 23.93 76.1251 23.282C76.3231 22.634 76.4221 21.923 76.4221 21.149C76.4221 20.363 76.3201 19.646 76.1161 18.998C75.9181 18.344 75.6091 17.801 75.1891 17.369C74.7691 16.937 74.2471 16.664 73.6231 16.55C73.3051 16.49 72.8131 16.46 72.1471 16.46H70.0141V25.838H72.1471ZM82.5769 16.316H80.6959V14.489H82.5769V16.316ZM82.5769 27.629H80.6959V17.909H82.5769V27.629ZM88.9965 27.89C87.8145 27.89 86.8515 27.629 86.1075 27.107C85.3635 26.585 84.9075 25.85 84.7395 24.902L86.6655 24.605C86.7855 25.115 87.0615 25.514 87.4935 25.802C87.9315 26.09 88.4745 26.234 89.1225 26.234C89.7105 26.234 90.1695 26.114 90.4995 25.874C90.8355 25.634 91.0035 25.304 91.0035 24.884C91.0035 24.626 90.9435 24.425 90.8235 24.281C90.7035 24.131 90.4665 23.99 90.1125 23.858C89.7645 23.726 89.1915 23.552 88.3935 23.336C87.5415 23.114 86.8755 22.88 86.3955 22.634C85.9215 22.388 85.5795 22.103 85.3695 21.779C85.1595 21.449 85.0545 21.041 85.0545 20.555C85.0545 19.973 85.2105 19.463 85.5225 19.025C85.8345 18.581 86.2755 18.239 86.8455 17.999C87.4155 17.759 88.0785 17.639 88.8345 17.639C89.5725 17.639 90.2355 17.756 90.8235 17.99C91.4115 18.224 91.8825 18.557 92.2365 18.989C92.5965 19.421 92.8125 19.922 92.8845 20.492L90.9585 20.843C90.8865 20.363 90.6495 19.985 90.2475 19.709C89.8515 19.433 89.3355 19.295 88.6995 19.295C88.1715 19.295 87.7455 19.403 87.4215 19.619C87.0975 19.829 86.9355 20.108 86.9355 20.456C86.9355 20.678 87.0045 20.861 87.1425 21.005C87.2805 21.149 87.5385 21.29 87.9165 21.428C88.2945 21.566 88.8735 21.734 89.6535 21.932C90.4815 22.142 91.1295 22.376 91.5975 22.634C92.0715 22.886 92.4135 23.186 92.6235 23.534C92.8335 23.876 92.9385 24.302 92.9385 24.812C92.9385 25.448 92.7795 25.997 92.4615 26.459C92.1495 26.921 91.6965 27.275 91.1025 27.521C90.5145 27.767 89.8125 27.89 88.9965 27.89ZM99.0879 27.899C98.1159 27.899 97.2759 27.68 96.5679 27.242C95.8659 26.804 95.3289 26.198 94.9569 25.424C94.5849 24.65 94.3959 23.765 94.3899 22.769C94.3959 21.767 94.5879 20.879 94.9659 20.105C95.3499 19.325 95.8959 18.719 96.6039 18.287C97.3179 17.855 98.1549 17.639 99.1149 17.639C99.8169 17.639 100.456 17.759 101.032 17.999C101.614 18.239 102.1 18.581 102.49 19.025C102.886 19.469 103.165 19.994 103.327 20.6L101.455 21.14C101.269 20.6 100.963 20.177 100.537 19.871C100.117 19.565 99.6339 19.412 99.0879 19.412C98.1999 19.412 97.5279 19.718 97.0719 20.33C96.6219 20.936 96.3939 21.749 96.3879 22.769C96.3939 23.801 96.6279 24.62 97.0899 25.226C97.5519 25.826 98.2179 26.126 99.0879 26.126C99.6759 26.126 100.159 25.991 100.537 25.721C100.921 25.445 101.215 25.04 101.419 24.506L103.327 24.956C103.009 25.91 102.484 26.639 101.752 27.143C101.02 27.647 100.132 27.899 99.0879 27.899ZM111.811 17.909H113.71V27.629H112.036V26.468C111.67 26.924 111.217 27.275 110.677 27.521C110.137 27.767 109.519 27.89 108.823 27.89C107.803 27.89 107.005 27.635 106.429 27.125C105.859 26.609 105.475 26.009 105.277 25.325C105.079 24.641 104.98 23.969 104.98 23.309V17.909H106.888V22.688C106.888 23.642 107.065 24.452 107.419 25.118C107.773 25.778 108.415 26.108 109.345 26.108C110.083 26.108 110.677 25.856 111.127 25.352C111.583 24.848 111.811 24.053 111.811 22.967V17.909ZM119.952 27.89C118.77 27.89 117.807 27.629 117.063 27.107C116.319 26.585 115.863 25.85 115.695 24.902L117.621 24.605C117.741 25.115 118.017 25.514 118.449 25.802C118.887 26.09 119.43 26.234 120.078 26.234C120.666 26.234 121.125 26.114 121.455 25.874C121.791 25.634 121.959 25.304 121.959 24.884C121.959 24.626 121.899 24.425 121.779 24.281C121.659 24.131 121.422 23.99 121.068 23.858C120.72 23.726 120.147 23.552 119.349 23.336C118.497 23.114 117.831 22.88 117.351 22.634C116.877 22.388 116.535 22.103 116.325 21.779C116.115 21.449 116.01 21.041 116.01 20.555C116.01 19.973 116.166 19.463 116.478 19.025C116.79 18.581 117.231 18.239 117.801 17.999C118.371 17.759 119.034 17.639 119.79 17.639C120.528 17.639 121.191 17.756 121.779 17.99C122.367 18.224 122.838 18.557 123.192 18.989C123.552 19.421 123.768 19.922 123.84 20.492L121.914 20.843C121.842 20.363 121.605 19.985 121.203 19.709C120.807 19.433 120.291 19.295 119.655 19.295C119.127 19.295 118.701 19.403 118.377 19.619C118.053 19.829 117.891 20.108 117.891 20.456C117.891 20.678 117.96 20.861 118.098 21.005C118.236 21.149 118.494 21.29 118.872 21.428C119.25 21.566 119.829 21.734 120.609 21.932C121.437 22.142 122.085 22.376 122.553 22.634C123.027 22.886 123.369 23.186 123.579 23.534C123.789 23.876 123.894 24.302 123.894 24.812C123.894 25.448 123.735 25.997 123.417 26.459C123.105 26.921 122.652 27.275 122.058 27.521C121.47 27.767 120.768 27.89 119.952 27.89ZM129.602 27.89C128.42 27.89 127.457 27.629 126.713 27.107C125.969 26.585 125.513 25.85 125.345 24.902L127.271 24.605C127.391 25.115 127.667 25.514 128.099 25.802C128.537 26.09 129.08 26.234 129.728 26.234C130.316 26.234 130.775 26.114 131.105 25.874C131.441 25.634 131.609 25.304 131.609 24.884C131.609 24.626 131.549 24.425 131.429 24.281C131.309 24.131 131.072 23.99 130.718 23.858C130.37 23.726 129.797 23.552 128.999 23.336C128.147 23.114 127.481 22.88 127.001 22.634C126.527 22.388 126.185 22.103 125.975 21.779C125.765 21.449 125.66 21.041 125.66 20.555C125.66 19.973 125.816 19.463 126.128 19.025C126.44 18.581 126.881 18.239 127.451 17.999C128.021 17.759 128.684 17.639 129.44 17.639C130.178 17.639 130.841 17.756 131.429 17.99C132.017 18.224 132.488 18.557 132.842 18.989C133.202 19.421 133.418 19.922 133.49 20.492L131.564 20.843C131.492 20.363 131.255 19.985 130.853 19.709C130.457 19.433 129.941 19.295 129.305 19.295C128.777 19.295 128.351 19.403 128.027 19.619C127.703 19.829 127.541 20.108 127.541 20.456C127.541 20.678 127.61 20.861 127.748 21.005C127.886 21.149 128.144 21.29 128.522 21.428C128.9 21.566 129.479 21.734 130.259 21.932C131.087 22.142 131.735 22.376 132.203 22.634C132.677 22.886 133.019 23.186 133.229 23.534C133.439 23.876 133.544 24.302 133.544 24.812C133.544 25.448 133.385 25.997 133.067 26.459C132.755 26.921 132.302 27.275 131.708 27.521C131.12 27.767 130.418 27.89 129.602 27.89ZM137.596 16.316H135.715V14.489H137.596V16.316ZM137.596 27.629H135.715V17.909H137.596V27.629ZM144.52 27.899C143.566 27.899 142.729 27.683 142.009 27.251C141.289 26.813 140.734 26.207 140.344 25.433C139.954 24.653 139.759 23.762 139.759 22.76C139.759 21.752 139.957 20.861 140.353 20.087C140.749 19.313 141.307 18.713 142.027 18.287C142.747 17.855 143.578 17.639 144.52 17.639C145.474 17.639 146.311 17.855 147.031 18.287C147.757 18.719 148.315 19.325 148.705 20.105C149.095 20.879 149.29 21.764 149.29 22.76C149.29 23.768 149.092 24.662 148.696 25.442C148.306 26.216 147.751 26.819 147.031 27.251C146.311 27.683 145.474 27.899 144.52 27.899ZM144.52 26.126C145.42 26.126 146.107 25.823 146.581 25.217C147.055 24.605 147.292 23.786 147.292 22.76C147.292 21.722 147.055 20.906 146.581 20.312C146.107 19.712 145.42 19.412 144.52 19.412C143.608 19.412 142.918 19.712 142.45 20.312C141.988 20.912 141.757 21.728 141.757 22.76C141.757 23.804 141.994 24.626 142.468 25.226C142.942 25.826 143.626 26.126 144.52 26.126ZM156.155 17.648C157.175 17.648 157.97 17.906 158.54 18.422C159.116 18.932 159.503 19.529 159.701 20.213C159.899 20.897 159.998 21.569 159.998 22.229V27.629H158.09V22.85C158.09 21.896 157.913 21.089 157.559 20.429C157.205 19.763 156.563 19.43 155.633 19.43C154.895 19.43 154.298 19.682 153.842 20.186C153.392 20.69 153.167 21.485 153.167 22.571V27.629H151.259V17.909H152.942V19.07C153.308 18.614 153.761 18.263 154.301 18.017C154.841 17.771 155.459 17.648 156.155 17.648Z" fill="#00CA51"/>
<path d="M36.5547 18.504H43.5547" stroke="#00CA51" stroke-width="1.8" stroke-linecap="round" stroke-linejoin="round"/>
<path d="M36.5547 22.004H43.5547" stroke="#00CA51" stroke-width="1.8" stroke-linecap="round" stroke-linejoin="round"/>
<path d="M42.4248 28.5538L40.805 31.2535C40.7273 31.383 40.6173 31.4903 40.4858 31.5647C40.3543 31.6392 40.2058 31.6783 40.0547 31.6783C39.9036 31.6783 39.7551 31.6392 39.6236 31.5647C39.4921 31.4903 39.3821 31.383 39.3044 31.2535L37.6846 28.5538C37.6068 28.4242 37.4969 28.317 37.3654 28.2426C37.2339 28.1681 37.0854 28.129 36.9343 28.129H30.4297C30.1976 28.129 29.9751 28.0368 29.811 27.8727C29.6469 27.7086 29.5547 27.486 29.5547 27.254V13.254C29.5547 13.022 29.6469 12.7994 29.811 12.6353C29.9751 12.4712 30.1976 12.379 30.4297 12.379H49.6797C49.9118 12.379 50.1343 12.4712 50.2984 12.6353C50.4625 12.7994 50.5547 13.022 50.5547 13.254V27.254C50.5547 27.4861 50.4625 27.7087 50.2984 27.8727C50.1343 28.0368 49.9118 28.129 49.6797 28.129L43.1751 28.129C43.024 28.129 42.8755 28.1681 42.744 28.2426C42.6125 28.317 42.5025 28.4242 42.4248 28.5538V28.5538Z" stroke="#00CA51" stroke-width="1.8" stroke-linecap="round" stroke-linejoin="round"/>
</svg>
