<svg width="188" height="43" viewBox="0 0 188 43" fill="none" xmlns="http://www.w3.org/2000/svg">
<rect x="0.617188" y="0.706421" width="186.65" height="41.8677" rx="20.9339" fill="#F5F5F5"/>
<path d="M68.0881 28.1403V15.1803H72.1471C72.8191 15.1803 73.3561 15.2073 73.7581 15.2613C74.7481 15.3873 75.5911 15.7443 76.2871 16.3323C76.9891 16.9203 77.5201 17.6763 77.8801 18.6003C78.2401 19.5243 78.4201 20.5443 78.4201 21.6603C78.4201 22.7763 78.2401 23.7963 77.8801 24.7203C77.5201 25.6443 76.9891 26.4003 76.2871 26.9883C75.5911 27.5763 74.7481 27.9333 73.7581 28.0593C73.3561 28.1133 72.8191 28.1403 72.1471 28.1403H68.0881ZM72.1471 26.3493C72.8131 26.3493 73.3051 26.3193 73.6231 26.2593C74.2591 26.1393 74.7841 25.8603 75.1981 25.4223C75.6181 24.9843 75.9271 24.4413 76.1251 23.7933C76.3231 23.1453 76.4221 22.4343 76.4221 21.6603C76.4221 20.8743 76.3201 20.1573 76.1161 19.5093C75.9181 18.8553 75.6091 18.3123 75.1891 17.8803C74.7691 17.4483 74.2471 17.1753 73.6231 17.0613C73.3051 17.0013 72.8131 16.9713 72.1471 16.9713H70.0141V26.3493H72.1471ZM82.5769 16.8273H80.6959V15.0003H82.5769V16.8273ZM82.5769 28.1403H80.6959V18.4203H82.5769V28.1403ZM88.9965 28.4013C87.8145 28.4013 86.8515 28.1403 86.1075 27.6183C85.3635 27.0963 84.9075 26.3613 84.7395 25.4133L86.6655 25.1163C86.7855 25.6263 87.0615 26.0253 87.4935 26.3133C87.9315 26.6013 88.4745 26.7453 89.1225 26.7453C89.7105 26.7453 90.1695 26.6253 90.4995 26.3853C90.8355 26.1453 91.0035 25.8153 91.0035 25.3953C91.0035 25.1373 90.9435 24.9363 90.8235 24.7923C90.7035 24.6423 90.4665 24.5013 90.1125 24.3693C89.7645 24.2373 89.1915 24.0633 88.3935 23.8473C87.5415 23.6253 86.8755 23.3913 86.3955 23.1453C85.9215 22.8993 85.5795 22.6143 85.3695 22.2903C85.1595 21.9603 85.0545 21.5523 85.0545 21.0663C85.0545 20.4843 85.2105 19.9743 85.5225 19.5363C85.8345 19.0923 86.2755 18.7503 86.8455 18.5103C87.4155 18.2703 88.0785 18.1503 88.8345 18.1503C89.5725 18.1503 90.2355 18.2673 90.8235 18.5013C91.4115 18.7353 91.8825 19.0683 92.2365 19.5003C92.5965 19.9323 92.8125 20.4333 92.8845 21.0033L90.9585 21.3543C90.8865 20.8743 90.6495 20.4963 90.2475 20.2203C89.8515 19.9443 89.3355 19.8063 88.6995 19.8063C88.1715 19.8063 87.7455 19.9143 87.4215 20.1303C87.0975 20.3403 86.9355 20.6193 86.9355 20.9673C86.9355 21.1893 87.0045 21.3723 87.1425 21.5163C87.2805 21.6603 87.5385 21.8013 87.9165 21.9393C88.2945 22.0773 88.8735 22.2453 89.6535 22.4433C90.4815 22.6533 91.1295 22.8873 91.5975 23.1453C92.0715 23.3973 92.4135 23.6973 92.6235 24.0453C92.8335 24.3873 92.9385 24.8133 92.9385 25.3233C92.9385 25.9593 92.7795 26.5083 92.4615 26.9703C92.1495 27.4323 91.6965 27.7863 91.1025 28.0323C90.5145 28.2783 89.8125 28.4013 88.9965 28.4013ZM99.0879 28.4103C98.1159 28.4103 97.2759 28.1913 96.5679 27.7533C95.8659 27.3153 95.3289 26.7093 94.9569 25.9353C94.5849 25.1613 94.3959 24.2763 94.3899 23.2803C94.3959 22.2783 94.5879 21.3903 94.9659 20.6163C95.3499 19.8363 95.8959 19.2303 96.6039 18.7983C97.3179 18.3663 98.1549 18.1503 99.1149 18.1503C99.8169 18.1503 100.456 18.2703 101.032 18.5103C101.614 18.7503 102.1 19.0923 102.49 19.5363C102.886 19.9803 103.165 20.5053 103.327 21.1113L101.455 21.6513C101.269 21.1113 100.963 20.6883 100.537 20.3823C100.117 20.0763 99.6339 19.9233 99.0879 19.9233C98.1999 19.9233 97.5279 20.2293 97.0719 20.8413C96.6219 21.4473 96.3939 22.2603 96.3879 23.2803C96.3939 24.3123 96.6279 25.1313 97.0899 25.7373C97.5519 26.3373 98.2179 26.6373 99.0879 26.6373C99.6759 26.6373 100.159 26.5023 100.537 26.2323C100.921 25.9563 101.215 25.5513 101.419 25.0173L103.327 25.4673C103.009 26.4213 102.484 27.1503 101.752 27.6543C101.02 28.1583 100.132 28.4103 99.0879 28.4103ZM111.811 18.4203H113.71V28.1403H112.036V26.9793C111.67 27.4353 111.217 27.7863 110.677 28.0323C110.137 28.2783 109.519 28.4013 108.823 28.4013C107.803 28.4013 107.005 28.1463 106.429 27.6363C105.859 27.1203 105.475 26.5203 105.277 25.8363C105.079 25.1523 104.98 24.4803 104.98 23.8203V18.4203H106.888V23.1993C106.888 24.1533 107.065 24.9633 107.419 25.6293C107.773 26.2893 108.415 26.6193 109.345 26.6193C110.083 26.6193 110.677 26.3673 111.127 25.8633C111.583 25.3593 111.811 24.5643 111.811 23.4783V18.4203ZM119.952 28.4013C118.77 28.4013 117.807 28.1403 117.063 27.6183C116.319 27.0963 115.863 26.3613 115.695 25.4133L117.621 25.1163C117.741 25.6263 118.017 26.0253 118.449 26.3133C118.887 26.6013 119.43 26.7453 120.078 26.7453C120.666 26.7453 121.125 26.6253 121.455 26.3853C121.791 26.1453 121.959 25.8153 121.959 25.3953C121.959 25.1373 121.899 24.9363 121.779 24.7923C121.659 24.6423 121.422 24.5013 121.068 24.3693C120.72 24.2373 120.147 24.0633 119.349 23.8473C118.497 23.6253 117.831 23.3913 117.351 23.1453C116.877 22.8993 116.535 22.6143 116.325 22.2903C116.115 21.9603 116.01 21.5523 116.01 21.0663C116.01 20.4843 116.166 19.9743 116.478 19.5363C116.79 19.0923 117.231 18.7503 117.801 18.5103C118.371 18.2703 119.034 18.1503 119.79 18.1503C120.528 18.1503 121.191 18.2673 121.779 18.5013C122.367 18.7353 122.838 19.0683 123.192 19.5003C123.552 19.9323 123.768 20.4333 123.84 21.0033L121.914 21.3543C121.842 20.8743 121.605 20.4963 121.203 20.2203C120.807 19.9443 120.291 19.8063 119.655 19.8063C119.127 19.8063 118.701 19.9143 118.377 20.1303C118.053 20.3403 117.891 20.6193 117.891 20.9673C117.891 21.1893 117.96 21.3723 118.098 21.5163C118.236 21.6603 118.494 21.8013 118.872 21.9393C119.25 22.0773 119.829 22.2453 120.609 22.4433C121.437 22.6533 122.085 22.8873 122.553 23.1453C123.027 23.3973 123.369 23.6973 123.579 24.0453C123.789 24.3873 123.894 24.8133 123.894 25.3233C123.894 25.9593 123.735 26.5083 123.417 26.9703C123.105 27.4323 122.652 27.7863 122.058 28.0323C121.47 28.2783 120.768 28.4013 119.952 28.4013ZM129.602 28.4013C128.42 28.4013 127.457 28.1403 126.713 27.6183C125.969 27.0963 125.513 26.3613 125.345 25.4133L127.271 25.1163C127.391 25.6263 127.667 26.0253 128.099 26.3133C128.537 26.6013 129.08 26.7453 129.728 26.7453C130.316 26.7453 130.775 26.6253 131.105 26.3853C131.441 26.1453 131.609 25.8153 131.609 25.3953C131.609 25.1373 131.549 24.9363 131.429 24.7923C131.309 24.6423 131.072 24.5013 130.718 24.3693C130.37 24.2373 129.797 24.0633 128.999 23.8473C128.147 23.6253 127.481 23.3913 127.001 23.1453C126.527 22.8993 126.185 22.6143 125.975 22.2903C125.765 21.9603 125.66 21.5523 125.66 21.0663C125.66 20.4843 125.816 19.9743 126.128 19.5363C126.44 19.0923 126.881 18.7503 127.451 18.5103C128.021 18.2703 128.684 18.1503 129.44 18.1503C130.178 18.1503 130.841 18.2673 131.429 18.5013C132.017 18.7353 132.488 19.0683 132.842 19.5003C133.202 19.9323 133.418 20.4333 133.49 21.0033L131.564 21.3543C131.492 20.8743 131.255 20.4963 130.853 20.2203C130.457 19.9443 129.941 19.8063 129.305 19.8063C128.777 19.8063 128.351 19.9143 128.027 20.1303C127.703 20.3403 127.541 20.6193 127.541 20.9673C127.541 21.1893 127.61 21.3723 127.748 21.5163C127.886 21.6603 128.144 21.8013 128.522 21.9393C128.9 22.0773 129.479 22.2453 130.259 22.4433C131.087 22.6533 131.735 22.8873 132.203 23.1453C132.677 23.3973 133.019 23.6973 133.229 24.0453C133.439 24.3873 133.544 24.8133 133.544 25.3233C133.544 25.9593 133.385 26.5083 133.067 26.9703C132.755 27.4323 132.302 27.7863 131.708 28.0323C131.12 28.2783 130.418 28.4013 129.602 28.4013ZM137.596 16.8273H135.715V15.0003H137.596V16.8273ZM137.596 28.1403H135.715V18.4203H137.596V28.1403ZM144.52 28.4103C143.566 28.4103 142.729 28.1943 142.009 27.7623C141.289 27.3243 140.734 26.7183 140.344 25.9443C139.954 25.1643 139.759 24.2733 139.759 23.2713C139.759 22.2633 139.957 21.3723 140.353 20.5983C140.749 19.8243 141.307 19.2243 142.027 18.7983C142.747 18.3663 143.578 18.1503 144.52 18.1503C145.474 18.1503 146.311 18.3663 147.031 18.7983C147.757 19.2303 148.315 19.8363 148.705 20.6163C149.095 21.3903 149.29 22.2753 149.29 23.2713C149.29 24.2793 149.092 25.1733 148.696 25.9533C148.306 26.7273 147.751 27.3303 147.031 27.7623C146.311 28.1943 145.474 28.4103 144.52 28.4103ZM144.52 26.6373C145.42 26.6373 146.107 26.3343 146.581 25.7283C147.055 25.1163 147.292 24.2973 147.292 23.2713C147.292 22.2333 147.055 21.4173 146.581 20.8233C146.107 20.2233 145.42 19.9233 144.52 19.9233C143.608 19.9233 142.918 20.2233 142.45 20.8233C141.988 21.4233 141.757 22.2393 141.757 23.2713C141.757 24.3153 141.994 25.1373 142.468 25.7373C142.942 26.3373 143.626 26.6373 144.52 26.6373ZM156.155 18.1593C157.175 18.1593 157.97 18.4173 158.54 18.9333C159.116 19.4433 159.503 20.0403 159.701 20.7243C159.899 21.4083 159.998 22.0803 159.998 22.7403V28.1403H158.09V23.3613C158.09 22.4073 157.913 21.6003 157.559 20.9403C157.205 20.2743 156.563 19.9413 155.633 19.9413C154.895 19.9413 154.298 20.1933 153.842 20.6973C153.392 21.2013 153.167 21.9963 153.167 23.0823V28.1403H151.259V18.4203H152.942V19.5813C153.308 19.1253 153.761 18.7743 154.301 18.5283C154.841 18.2823 155.459 18.1593 156.155 18.1593Z" fill="black"/>
<path d="M36.5547 19.0152H43.5547" stroke="black" stroke-width="1.8" stroke-linecap="round" stroke-linejoin="round"/>
<path d="M36.5547 22.5152H43.5547" stroke="black" stroke-width="1.8" stroke-linecap="round" stroke-linejoin="round"/>
<path d="M42.4248 29.065L40.805 31.7647C40.7273 31.8943 40.6173 32.0015 40.4858 32.0759C40.3543 32.1504 40.2058 32.1895 40.0547 32.1895C39.9036 32.1895 39.7551 32.1504 39.6236 32.0759C39.4921 32.0015 39.3821 31.8943 39.3044 31.7647L37.6846 29.065C37.6068 28.9355 37.4969 28.8282 37.3654 28.7538C37.2339 28.6793 37.0854 28.6402 36.9343 28.6402H30.4297C30.1976 28.6402 29.9751 28.548 29.811 28.3839C29.6469 28.2198 29.5547 27.9973 29.5547 27.7652V13.7653C29.5547 13.5332 29.6469 13.3106 29.811 13.1465C29.9751 12.9824 30.1976 12.8903 30.4297 12.8903H49.6797C49.9118 12.8903 50.1343 12.9824 50.2984 13.1465C50.4625 13.3106 50.5547 13.5332 50.5547 13.7653V27.7653C50.5547 27.9973 50.4625 28.2199 50.2984 28.384C50.1343 28.5481 49.9118 28.6403 49.6797 28.6403L43.1751 28.6402C43.024 28.6402 42.8755 28.6793 42.744 28.7538C42.6125 28.8282 42.5025 28.9355 42.4248 29.065V29.065Z" stroke="black" stroke-width="1.8" stroke-linecap="round" stroke-linejoin="round"/>
</svg>
