<svg width="133" height="43" viewBox="0 0 133 43" fill="none" xmlns="http://www.w3.org/2000/svg">
<rect x="0.298828" y="0.706421" width="131.772" height="41.8677" rx="20.9339" fill="#F5F5F5"/>
<path d="M78.3726 28.1403H70.6236V15.1803H72.5046V26.3673H78.3726V28.1403ZM81.9616 16.8273H80.0806V15.0003H81.9616V16.8273ZM81.9616 28.1403H80.0806V18.4203H81.9616V28.1403ZM86.5723 28.1403H84.6553L84.6643 15.1803H86.5723V23.1003L90.3883 18.4203H92.7823L88.7503 23.2803L93.1963 28.1403H90.6403L86.5723 23.4603V28.1403ZM95.404 23.8113C95.482 24.7173 95.755 25.4163 96.223 25.9083C96.691 26.3943 97.333 26.6373 98.149 26.6373C98.731 26.6373 99.238 26.5053 99.67 26.2413C100.102 25.9773 100.438 25.5933 100.678 25.0893L102.523 25.6743C102.151 26.5323 101.581 27.2043 100.813 27.6903C100.045 28.1703 99.187 28.4103 98.239 28.4103C97.279 28.4103 96.433 28.2003 95.701 27.7803C94.969 27.3543 94.399 26.7603 93.991 25.9983C93.589 25.2303 93.388 24.3513 93.388 23.3613C93.388 22.3113 93.586 21.3933 93.982 20.6073C94.378 19.8213 94.936 19.2153 95.656 18.7893C96.376 18.3633 97.207 18.1503 98.149 18.1503C99.079 18.1503 99.883 18.3573 100.561 18.7713C101.239 19.1853 101.758 19.7793 102.118 20.5533C102.484 21.3213 102.667 22.2303 102.667 23.2803C102.667 23.3943 102.661 23.5713 102.649 23.8113H95.404ZM98.221 19.8153C97.423 19.8153 96.79 20.0313 96.322 20.4633C95.86 20.8893 95.569 21.5163 95.449 22.3443H100.723C100.621 21.4863 100.363 20.8503 99.949 20.4363C99.541 20.0223 98.965 19.8153 98.221 19.8153Z" fill="black"/>
<path d="M31.6836 19.0153H36.9336V30.3903H31.6836C31.4515 30.3903 31.229 30.2981 31.0649 30.134C30.9008 29.9699 30.8086 29.7473 30.8086 29.5153V19.8903C30.8086 19.6582 30.9008 19.4356 31.0649 19.2715C31.229 19.1074 31.4515 19.0153 31.6836 19.0153V19.0153Z" stroke="black" stroke-width="1.8" stroke-linecap="round" stroke-linejoin="round"/>
<path d="M36.9336 19.0153L41.3086 10.2653C41.7682 10.2653 42.2233 10.3558 42.648 10.5317C43.0726 10.7076 43.4585 10.9654 43.7835 11.2904C44.1085 11.6154 44.3663 12.0012 44.5422 12.4259C44.7181 12.8505 44.8086 13.3056 44.8086 13.7653V16.3903H51.5762C51.8244 16.3903 52.0697 16.443 52.2959 16.5451C52.522 16.6471 52.7239 16.7961 52.8882 16.9821C53.0524 17.1681 53.1752 17.3869 53.2484 17.624C53.3216 17.8611 53.3435 18.1111 53.3127 18.3573L52.0002 28.8573C51.9473 29.2806 51.7416 29.6699 51.4219 29.9522C51.1021 30.2345 50.6903 30.3903 50.2637 30.3903H36.9336" stroke="black" stroke-width="1.8" stroke-linecap="round" stroke-linejoin="round"/>
</svg>
