<svg xmlns="http://www.w3.org/2000/svg" viewBox="0 0 653.09 400"><defs><style>.cls-1{fill:#e2e8f5;}.cls-1,.cls-10,.cls-11,.cls-12,.cls-13,.cls-14,.cls-15,.cls-16,.cls-17,.cls-18,.cls-19,.cls-2,.cls-20,.cls-21,.cls-22,.cls-23,.cls-24,.cls-28,.cls-29,.cls-30,.cls-34,.cls-35,.cls-36,.cls-38,.cls-39,.cls-40,.cls-41,.cls-42,.cls-6,.cls-7,.cls-8,.cls-9{fill-rule:evenodd;}.cls-2{fill:#bfcce8;}.cls-3{fill:#90a9d5;}.cls-4{fill:#b6c7e6;}.cls-5{fill:#e6e4eb;}.cls-10,.cls-6{fill:#0f1630;}.cls-6{stroke:#0e1632;stroke-miterlimit:22.93;stroke-width:0.22px;}.cls-7{fill:#cec9d0;}.cls-26,.cls-8{fill:#fff;}.cls-9{fill:#e8685b;}.cls-11{fill:#3d4155;}.cls-12{fill:#545a6c;}.cls-13{fill:#f4ad85;}.cls-14{fill:#ed9072;}.cls-15,.cls-33{fill:#0e1632;}.cls-16{fill:#010518;}.cls-17{fill:#05304b;}.cls-18{fill:#0076bd;}.cls-19{fill:#171c3a;}.cls-20{fill:#c9c4d1;}.cls-21{fill:#1c2344;}.cls-22{fill:#101937;}.cls-23,.cls-32{fill:#383d5d;}.cls-24{fill:#01020e;}.cls-25,.cls-30{fill:#e2e1e7;}.cls-27,.cls-36{fill:#b92f6d;}.cls-28{fill:#e74d91;}.cls-29,.cls-31{fill:#acabbb;}.cls-34{fill:#dff0f2;}.cls-35{fill:#004a82;}.cls-37{fill:#a8a6b5;}.cls-38{fill:#96929f;}.cls-39{fill:#f0eef0;}.cls-40{fill:#d2ced6;}.cls-41{fill:#484e6a;}.cls-42{fill:#1a293d;}</style></defs><g id="Layer_2" data-name="Layer 2"><g id="OBJECTS"><path class="cls-1" d="M148.74,263.16H94.61a53.12,53.12,0,0,0-53,53h0a53.12,53.12,0,0,0,53,53H552.3a86,86,0,0,0,85.77-85.77h0a86,86,0,0,0-85.77-85.77h0A36.37,36.37,0,0,1,516,161.29h0A36.37,36.37,0,0,1,552.3,125H596a37.81,37.81,0,0,0,37.7-37.71h0A37.81,37.81,0,0,0,596,49.62H540.76a14.72,14.72,0,0,1-14.68-14.68h0a14.72,14.72,0,0,1,14.68-14.68h9.73a10.16,10.16,0,0,0,10.13-10.13h0A10.16,10.16,0,0,0,550.49,0H486.65C473.2,0,471.7,15.88,437.74,15.88H339.89A13.26,13.26,0,0,0,326.67,29.1h0a13.26,13.26,0,0,0,13.22,13.22h12.69a19.21,19.21,0,0,1,19.16,19.16h0a19.21,19.21,0,0,1-19.16,19.15h-19.1c-51.59,0-58.88,13.48-67.92,40.3s-56,29-56,29H145.43a29,29,0,0,0-28.86,28.86h0a28.94,28.94,0,0,0,28.86,28.87h3.31A27.85,27.85,0,0,1,176.5,235.4h0a27.85,27.85,0,0,1-27.76,27.76ZM578.92,20.26a10.13,10.13,0,1,1,10.13-10.13A10.13,10.13,0,0,1,578.92,20.26Z"/><path class="cls-2" d="M153.29,369.1h4.64V340.94l17.58,17.58L164.93,369.1h4.37l8.4-8.4,8.39,8.4h4.37l-10.58-10.58,17.58-17.58V369.1h4.64V149.91h-4.64v5.34l-5.34-5.34h-4.37l9.71,9.71v.26L177.7,179.65l-19.77-19.77v-.26l9.71-9.71h-4.37l-5.34,5.34v-5.34h-4.64V208a27.45,27.45,0,0,1,4.64,1.19v-.78l1.28,1.27a28,28,0,0,1,15.22,15.23l1.08,1.08-.49.48a25.05,25.05,0,0,1,.93,3.45l1.75-1.75L197.46,248v.26L177.7,268l-11.26-11.25a27.15,27.15,0,0,1-2.51,1.86l11.58,11.58-17.58,17.58V261.59a27.45,27.45,0,0,1-4.64,1.19V369.1Zm4.64-37.17V296.77l17.58,17.58-17.58,17.58Zm0-132.51V164.25l17.58,17.59-17.58,17.58Zm39.53-35.17v35.17l-17.58-17.58,17.58-17.59Zm0,44.18v35.16L179.88,226l17.58-17.58Zm0,44.17v35.16l-17.58-17.58,17.58-17.58Zm0,44.17v35.16l-17.58-17.58,17.58-17.58Zm-39.53-93L177.7,184l19.76,19.77v.26L177.7,223.82l-19.77-19.77v-.26Zm0,88.34,19.77-19.77,19.76,19.77v.27L177.7,312.16,157.93,292.4v-.27Zm0,44.17,19.77-19.77,19.76,19.77v.27L177.7,356.33l-19.77-19.76Z"/><path class="cls-2" d="M477.61,369.1h4.64V340.94l17.58,17.58L489.25,369.1h4.37l8.39-8.4,8.4,8.4h4.37L504.2,358.52l17.58-17.58V369.1h4.64V186.63a37.08,37.08,0,0,1-4.64-5.81v18.6L504.2,181.84l12.7-12.7q-.4-1.84-.63-3.75L502,179.65l-19.76-19.77v-.26L502,139.85l14.67,14.67a34.1,34.1,0,0,1,.86-3.52L504.2,137.67l17.58-17.59v21.69a36.63,36.63,0,0,1,4.64-5.81V38.07a14.71,14.71,0,0,1-.34-3.13h0a14.71,14.71,0,0,1,.34-3.13V0h-4.64V22.73L504.2,5.15,509.35,0H505l-3,3-3-3h-4.38l5.16,5.15L482.25,22.73V.63a19.9,19.9,0,0,0-4.64,2.15V369.1Zm4.64-37.17V296.77l17.58,17.58-17.58,17.58Zm0-44.17V252.6l17.58,17.58-17.58,17.58Zm0-44.17V208.43L499.83,226l-17.58,17.58Zm0-44.17V164.25l17.58,17.59-17.58,17.58Zm0-44.17V120.08l17.58,17.59-17.58,17.58Zm0-44.17V75.91l17.58,17.58-17.58,17.59Zm0-44.18V31.74l17.58,17.58L482.25,66.9Zm39.53-35.16V66.9L504.2,49.32l17.58-17.58Zm0,44.17v35.17L504.2,93.49l17.58-17.58Zm0,132.52v35.16L504.2,226l17.58-17.58Zm0,44.17v35.16L504.2,270.18l17.58-17.58Zm0,44.17v35.16L504.2,314.35l17.58-17.58ZM482.25,27.11,502,7.34l19.77,19.77v.26L502,47.14,482.25,27.37v-.26Zm0,44.17L502,51.51l19.77,19.77v.26L502,91.31,482.25,71.54v-.26Zm0,44.17L502,95.68l19.77,19.77v.26L502,135.48l-19.76-19.77v-.26Zm0,88.34L502,184l19.77,19.77v.26L502,223.82l-19.76-19.77v-.26Zm0,44.17L502,228.19,521.78,248v.26L502,268l-19.76-19.77V248Zm0,44.17L502,272.36l19.77,19.77v.27L502,312.16,482.25,292.4v-.27Zm0,44.17L502,316.53l19.77,19.77v.27L502,356.33l-19.76-19.76Z"/><path class="cls-2" d="M136.88,263.16H130v8.38l-8.37-8.38h-6.44L130,278v.39L100.92,307.5,71.79,278.37V278l14.09-14.09a52.14,52.14,0,0,0-8.66,2.23l-5.43,5.42v-3.18A53.11,53.11,0,0,0,65,272.3V360a52,52,0,0,0,6.83,3.94v-14L90.86,369c1.24.09,2.49.14,3.75.14h2.82L71.79,343.46v-.4l29.13-29.12L130,343.06v.4L104.4,369.1h6.44L130,349.9v19.2h6.84V263.16Zm0-112a29.09,29.09,0,0,0-16.26,12.86l9.42-9.42v48.51a28.82,28.82,0,0,0,6.84,3.18V151.21ZM71.79,336.62V284.81L97.7,310.72l-25.91,25.9ZM130,284.81v51.81l-25.9-25.9Z"/><path class="cls-2" d="M542.83,369.1h6.84V349.9l17.84,17.84c1.78-.32,3.55-.71,5.3-1.14l-23.14-23.14v-.4l29.12-29.12,29.13,29.12v.4l-15.74,15.73A86.62,86.62,0,0,0,614.75,342V224.69a88.25,88.25,0,0,0-9.51-8.72l-26.45,26.44-29.12-29.12v-.39l14.5-14.51c-1.92-.27-3.86-.48-5.82-.61l-8.68,8.68v-9a36,36,0,0,1-6.84-1.17V369.1Zm0-242.81a36.76,36.76,0,0,1,6.84-1.17V89.56l25.9,25.91L566,125h6.44l6.34-6.34,6.34,6.34h6.44L582,115.47l25.91-25.91v33.51a37.61,37.61,0,0,0,6.83-3.1V54.68a37.61,37.61,0,0,0-6.83-3.1V76.29L582,50.38l.77-.76h-8l.76.76-25.9,25.91V49.62h-6.84v76.67Zm0-106h7.66a11.69,11.69,0,0,0,1.32-.08L549.67,18v-.4l10.49-10.5a10.1,10.1,0,0,0-2.39-4l-8.1,8.1V0h-6.84V20.26Zm6.84,316.36V284.81l25.9,25.91-25.9,25.9Zm0-65.08V219.73l25.9,25.9-25.9,25.91Zm58.25-51.81v51.81L582,245.63l25.91-25.9Zm0,65.08v51.81L582,310.72l25.91-25.91ZM549.67,82.73,578.79,53.6l29.13,29.13v.39l-29.13,29.13L549.67,83.12v-.39Zm0,195.25,29.12-29.12L607.92,278v.39L578.79,307.5l-29.12-29.13Z"/><rect class="cls-3" x="123.42" y="284.79" width="53.45" height="39.72" rx="3.43"/><rect class="cls-4" x="153.98" y="284.79" width="53.45" height="39.72" rx="3.43"/><rect class="cls-3" x="161.5" y="297.91" width="38.41" height="13.48" rx="1.96"/><rect class="cls-5" x="165.51" y="300.2" width="17.82" height="2.94" rx="0.43"/><rect class="cls-5" x="165.51" y="304.86" width="9.23" height="2.94" rx="0.43"/><rect class="cls-3" x="153.24" y="324.51" width="64.05" height="47.6" rx="4.11"/><rect class="cls-4" x="116.61" y="324.51" width="64.05" height="47.6" rx="4.11"/><rect class="cls-3" x="125.62" y="340.23" width="46.03" height="16.16" rx="2.35"/><rect class="cls-5" x="145.5" y="342.97" width="21.35" height="3.53" rx="0.51"/><rect class="cls-5" x="155.78" y="348.55" width="11.07" height="3.53" rx="0.51"/><path class="cls-2" d="M412.77,110.91a15,15,0,0,1,21.29,0,15.38,15.38,0,0,1,3.27,4.89,15,15,0,0,1-3.27,16.4,15.06,15.06,0,0,1-24.56-16.4,15.05,15.05,0,0,1,3.27-4.89Zm5.42-2a13.65,13.65,0,1,0,17.85,7.4,13.69,13.69,0,0,0-17.85-7.4Zm-1.67-11.08a22.83,22.83,0,0,0-2.77,1,25.53,25.53,0,0,0-2.67,1.33,25.93,25.93,0,0,0-2.51,1.66,26.87,26.87,0,0,0-2.29,2,1.55,1.55,0,0,1-.9.43,1.6,1.6,0,0,1-1-.2c-2.21-1.28-4.54-2.54-6.7-3.87a.84.84,0,0,0-.33-.1,1.16,1.16,0,0,0-.37,0,1.06,1.06,0,0,0-.34.16,1.08,1.08,0,0,0-.24.28c-1.61,2.44-3.23,5.59-4.72,8.18a.78.78,0,0,0-.12.34.81.81,0,0,0,0,.38.94.94,0,0,0,.44.59c2,1.31,4.55,2.63,6.66,3.85a1.52,1.52,0,0,1,.66.74,1.39,1.39,0,0,1,.1.33l.14,0-.15.62c-.12.49-.23,1-.32,1.46s-.16,1-.22,1.49-.11,1-.14,1.49,0,1,0,1.52,0,1,0,1.51.07,1,.14,1.5.13,1,.22,1.48.2,1,.32,1.47a1.61,1.61,0,0,1-.1,1,1.69,1.69,0,0,1-.71.74l-5.9,3.4h0l-.7.41a.81.81,0,0,0-.28.24,1.06,1.06,0,0,0-.16.34.83.83,0,0,0,0,.38.77.77,0,0,0,.12.35l4.36,7.56h0l.35.61a.94.94,0,0,0,.24.28,1.09,1.09,0,0,0,.34.17,1,1,0,0,0,.38,0,1,1,0,0,0,.35-.11c2.11-1.33,4.49-2.6,6.67-3.86a1.63,1.63,0,0,1,1-.2,1.58,1.58,0,0,1,.9.43h0a25.18,25.18,0,0,0,2.29,2,25.93,25.93,0,0,0,2.51,1.66,23.24,23.24,0,0,0,2.69,1.34,24.14,24.14,0,0,0,2.82,1,1.58,1.58,0,0,1,.83.57,1.6,1.6,0,0,1,.32,1v7.7a.89.89,0,0,0,.07.36,1.06,1.06,0,0,0,.21.31,1,1,0,0,0,.31.21,1,1,0,0,0,.36.07h9.45a1,1,0,0,0,.36-.07,1,1,0,0,0,.52-.52,1.1,1.1,0,0,0,.07-.36v-7.7a1.59,1.59,0,0,1,.34-1,1.63,1.63,0,0,1,.87-.56,24.39,24.39,0,0,0,5.44-2.32,24.76,24.76,0,0,0,2.51-1.66,24,24,0,0,0,2.3-2,1.6,1.6,0,0,1,.95-.43,1.58,1.58,0,0,1,1,.25L449.1,143a.89.89,0,0,0,.35.11,1,1,0,0,0,.38,0,1.09,1.09,0,0,0,.34-.17,1.11,1.11,0,0,0,.24-.28c1.56-2.73,3.15-5.44,4.72-8.17a.91.91,0,0,0,.12-.35,1.2,1.2,0,0,0,0-.38,1,1,0,0,0-.16-.34.92.92,0,0,0-.28-.24l-6.66-3.85a1.57,1.57,0,0,1-.67-.75,1.83,1.83,0,0,1-.08-.25l-.17,0,.17-.7c.12-.49.23-1,.32-1.47s.16-1,.22-1.48.11-1,.14-1.5,0-1,0-1.51,0-1,0-1.52-.08-1-.14-1.49-.14-1-.22-1.49-.2-1-.32-1.46a1.63,1.63,0,0,1,.1-1,1.57,1.57,0,0,1,.71-.73l6.6-3.81a1,1,0,0,0,.28-.25.89.89,0,0,0,.16-.34,1.16,1.16,0,0,0,0-.37.91.91,0,0,0-.12-.35c-1.61-2.4-3.22-5.6-4.72-8.18a1.31,1.31,0,0,0-.24-.28,1.06,1.06,0,0,0-.34-.16.83.83,0,0,0-.38,0,.77.77,0,0,0-.35.12L442.43,104a1.62,1.62,0,0,1-1,.2,1.58,1.58,0,0,1-.9-.45,23.27,23.27,0,0,0-2.29-1.94,24.08,24.08,0,0,0-2.5-1.66,24.81,24.81,0,0,0-2.68-1.34,26.13,26.13,0,0,0-2.82-1,1.56,1.56,0,0,1-1.15-1.52V88.62a1,1,0,0,0-.07-.36,1,1,0,0,0-.21-.31,1.1,1.1,0,0,0-.31-.22,1,1,0,0,0-.36-.07h-9.45a1,1,0,0,0-.36.07,1.13,1.13,0,0,0-.31.21,1,1,0,0,0-.28.68v7.69a1.59,1.59,0,0,1-.34,1,1.57,1.57,0,0,1-.88.56Zm-3.32-.29A23.79,23.79,0,0,0,410.39,99a24.91,24.91,0,0,0-5.07,3.82.22.22,0,0,1-.11,0,.25.25,0,0,1-.12,0l-6.72-3.89a2.34,2.34,0,0,0-.84-.26,2.3,2.3,0,0,0-1.71.47,2.18,2.18,0,0,0-.6.68c-1.63,2.64-3.17,5.49-4.73,8.18a2.37,2.37,0,0,0-.23,1.78,2.39,2.39,0,0,0,.41.83,2.32,2.32,0,0,0,.68.6c2.15,1.32,4.47,2.58,6.67,3.85a.16.16,0,0,1,.07.09.14.14,0,0,1,0,.11l-.15.63h0c-.07.3-.13.61-.19.92-.09.53-.18,1.06-.24,1.57s-.11,1-.14,1.58-.05,1.08-.05,1.6,0,1,.05,1.59.08,1.07.14,1.58.15,1,.24,1.57.21,1,.34,1.55a.17.17,0,0,1,0,.12.18.18,0,0,1-.08.09c-2.45,1.31-4.94,2.85-7.36,4.25l.09.1-.07.1a2.26,2.26,0,0,0-.41.82,2.35,2.35,0,0,0-.06.92,2.31,2.31,0,0,0,.29.86l5.08,8.79.09-.05.16.13a2.41,2.41,0,0,0,.82.4,2.31,2.31,0,0,0,.91.06,2.37,2.37,0,0,0,.85-.28c2.22-1.17,4.51-2.6,6.7-3.86a.14.14,0,0,1,.11,0,.16.16,0,0,1,.11.05,26.56,26.56,0,0,0,2.42,2.06,25.37,25.37,0,0,0,2.65,1.76,26.07,26.07,0,0,0,5.82,2.47.23.23,0,0,1,.1.07.14.14,0,0,1,0,.11v7.7a2.44,2.44,0,0,0,.18.89,2.24,2.24,0,0,0,.52.76,2.08,2.08,0,0,0,.76.51,2.21,2.21,0,0,0,.89.18h9.45a2.25,2.25,0,0,0,.89-.18,2.08,2.08,0,0,0,.76-.51,2.21,2.21,0,0,0,.51-.76,2.25,2.25,0,0,0,.18-.89v-7.7a.21.21,0,0,1,0-.12.2.2,0,0,1,.11-.06h0a25.94,25.94,0,0,0,3-1.06,25.24,25.24,0,0,0,5.47-3.16,25.16,25.16,0,0,0,2.42-2.07.22.22,0,0,1,.11,0,.27.27,0,0,1,.12,0l6.67,3.85a2.25,2.25,0,0,0,.86.29,2.38,2.38,0,0,0,.92-.06,2.41,2.41,0,0,0,.82-.4,2.37,2.37,0,0,0,.59-.67c1.75-2.82,3.41-5.9,5.08-8.79l-.09-.06a1.43,1.43,0,0,0,0-.22,2.31,2.31,0,0,0-.06-.91,2.26,2.26,0,0,0-.41-.82,2.35,2.35,0,0,0-.68-.61l-6.67-3.85a.3.3,0,0,1-.08-.08.25.25,0,0,1,0-.12l.18-.71h0c.06-.27.11-.55.16-.83.1-.54.18-1.06.25-1.58s.11-1,.14-1.58.05-1.07.05-1.59,0-1-.05-1.6-.08-1.07-.14-1.58-.15-1-.25-1.57-.2-1-.33-1.55a.17.17,0,0,1,0-.12.14.14,0,0,1,.08-.09l6.66-3.84a2.47,2.47,0,0,0,.68-.6,2.39,2.39,0,0,0,.41-.83,2.31,2.31,0,0,0,.06-.91,2.43,2.43,0,0,0-.28-.85c-1.59-2.94-3.41-5.9-5.09-8.81l-.09.06-.16-.13a2.43,2.43,0,0,0-.82-.41,2.38,2.38,0,0,0-.92-.06,2.25,2.25,0,0,0-.86.29l-.5.28h0l-6.19,3.57a.23.23,0,0,1-.12,0,.19.19,0,0,1-.1,0l0,0a25.14,25.14,0,0,0-2.41-2.06,26.9,26.9,0,0,0-5.47-3.16,25.87,25.87,0,0,0-3-1.06.17.17,0,0,1-.1-.06.28.28,0,0,1,0-.12V88.62a2.26,2.26,0,0,0-.18-.9,2.21,2.21,0,0,0-.51-.76,2.31,2.31,0,0,0-.76-.51,2.25,2.25,0,0,0-.89-.18h-9.45a2.21,2.21,0,0,0-.89.18,2.34,2.34,0,0,0-1.46,2.17v7.69a.21.21,0,0,1,0,.12.24.24,0,0,1-.11.06h0A26.81,26.81,0,0,0,413.2,97.56Z"/><path class="cls-2" d="M22.59,186.39A15,15,0,0,1,39,183.13,15,15,0,0,1,39,211a15.06,15.06,0,0,1-16.4-24.56Zm5.42-2a13.69,13.69,0,0,0-7.4,7.4,13.66,13.66,0,0,0,3,14.89,13.71,13.71,0,0,0,14.89,3A13.67,13.67,0,0,0,28,184.41Zm-1.67-11.08a24.66,24.66,0,0,0-2.77,1,25.53,25.53,0,0,0-2.67,1.33,26,26,0,0,0-2.51,1.67,25.07,25.07,0,0,0-2.29,2,1.55,1.55,0,0,1-.9.43,1.53,1.53,0,0,1-1-.2c-2.21-1.27-4.54-2.54-6.7-3.87a1.39,1.39,0,0,0-.33-.1,1.16,1.16,0,0,0-.37,0,.91.91,0,0,0-.34.17.9.9,0,0,0-.24.27c-1.61,2.44-3.23,5.59-4.72,8.18a.77.77,0,0,0-.12.35.83.83,0,0,0,0,.38.89.89,0,0,0,.16.34.94.94,0,0,0,.28.24c2,1.31,4.55,2.63,6.66,3.85a1.57,1.57,0,0,1,.66.74,1.39,1.39,0,0,1,.1.33l.14.05-.15.62c-.12.49-.23,1-.32,1.46s-.16,1-.22,1.49-.11,1-.14,1.5,0,1,0,1.51,0,1,0,1.51.07,1,.14,1.5.13,1,.22,1.49.2,1,.32,1.46a1.6,1.6,0,0,1-.1,1,1.66,1.66,0,0,1-.72.74l-5.89,3.4h0l-.7.4a.94.94,0,0,0-.28.24.89.89,0,0,0-.16.34.83.83,0,0,0,0,.38.77.77,0,0,0,.12.35l4.36,7.57h0l.36.62a.9.9,0,0,0,.24.27.91.91,0,0,0,.34.17,1.25,1.25,0,0,0,.38,0,1.06,1.06,0,0,0,.34-.12c2.12-1.33,4.5-2.6,6.68-3.85a1.54,1.54,0,0,1,1-.2,1.57,1.57,0,0,1,.91.42h0a26.76,26.76,0,0,0,2.29,1.95,26,26,0,0,0,2.51,1.67,27,27,0,0,0,2.69,1.34,23.47,23.47,0,0,0,2.82,1,1.64,1.64,0,0,1,.83.57,1.59,1.59,0,0,1,.31.95V230a.86.86,0,0,0,.07.36,1.06,1.06,0,0,0,.21.31,1,1,0,0,0,.31.21.86.86,0,0,0,.36.07H38a.89.89,0,0,0,.36-.07,1,1,0,0,0,.52-.52,1,1,0,0,0,.07-.36v-7.7a1.59,1.59,0,0,1,.34-1,1.54,1.54,0,0,1,.87-.56,27,27,0,0,0,2.78-1,24.44,24.44,0,0,0,2.66-1.33,24.85,24.85,0,0,0,2.51-1.67,25.44,25.44,0,0,0,2.3-1.95,1.53,1.53,0,0,1,1-.44,1.59,1.59,0,0,1,1,.26l6.59,3.8a1.12,1.12,0,0,0,.35.12,1.25,1.25,0,0,0,.38,0,.87.87,0,0,0,.33-.17.93.93,0,0,0,.25-.27c1.56-2.73,3.15-5.45,4.72-8.18a1.12,1.12,0,0,0,.12-.35,1.25,1.25,0,0,0,0-.38,1.06,1.06,0,0,0-.16-.34.92.92,0,0,0-.28-.24l-6.66-3.85a1.59,1.59,0,0,1-.67-.74,2.58,2.58,0,0,1-.08-.26l-.17,0,.17-.71c.12-.49.23-1,.32-1.46s.16-1,.22-1.49.11-1,.14-1.5,0-1,0-1.51,0-1,0-1.51-.08-1-.14-1.5-.14-1-.22-1.49-.2-1-.32-1.46a1.54,1.54,0,0,1,.1-1,1.59,1.59,0,0,1,.71-.74l6.6-3.81a1.08,1.08,0,0,0,.28-.24,1.06,1.06,0,0,0,.16-.34,1.25,1.25,0,0,0,0-.38,1.12,1.12,0,0,0-.12-.35c-1.61-2.4-3.23-5.6-4.72-8.18a.93.93,0,0,0-.25-.27.87.87,0,0,0-.33-.17,1.25,1.25,0,0,0-.38,0,1.12,1.12,0,0,0-.35.12l-6.67,3.85a1.57,1.57,0,0,1-1,.2,1.6,1.6,0,0,1-.9-.44,24.84,24.84,0,0,0-2.29-1.95,24.08,24.08,0,0,0-2.5-1.66,26.79,26.79,0,0,0-2.68-1.34,26.13,26.13,0,0,0-2.82-1,1.53,1.53,0,0,1-.83-.56,1.6,1.6,0,0,1-.32-.95v-7.7a1,1,0,0,0-.07-.36,1,1,0,0,0-.21-.31,1.06,1.06,0,0,0-.31-.21.89.89,0,0,0-.36-.07H28.51a.86.86,0,0,0-.36.07,1,1,0,0,0-.59.88v7.7a1.59,1.59,0,0,1-.34,1,1.57,1.57,0,0,1-.88.56ZM23,173a27.3,27.3,0,0,0-2.81,1.41,25,25,0,0,0-2.66,1.76,26.09,26.09,0,0,0-2.42,2.06.12.12,0,0,1-.1,0,.25.25,0,0,1-.12,0l-6.72-3.89a2.35,2.35,0,0,0-1.73-.19,2.16,2.16,0,0,0-.82.4,2.26,2.26,0,0,0-.61.69c-1.62,2.63-3.16,5.48-4.72,8.17a2.39,2.39,0,0,0-.23,1.79,2.43,2.43,0,0,0,.41.82,2.18,2.18,0,0,0,.68.6c2.15,1.33,4.47,2.58,6.67,3.85a.16.16,0,0,1,.07.09.17.17,0,0,1,0,.12l-.15.62h0c-.07.3-.13.61-.19.92-.1.54-.18,1.06-.24,1.57s-.11,1-.14,1.58,0,1.08,0,1.6,0,1.05,0,1.59.08,1.07.14,1.58.15,1,.24,1.58.21,1,.34,1.54a.16.16,0,0,1,0,.12.18.18,0,0,1-.08.09c-2.45,1.31-4.94,2.85-7.36,4.25l.09.11L.49,208a2.43,2.43,0,0,0-.41.82,2.39,2.39,0,0,0,.23,1.79l5.08,8.79.09-.06.16.13a2.16,2.16,0,0,0,.82.4,2.31,2.31,0,0,0,.91.06,2.17,2.17,0,0,0,.85-.27c2.22-1.18,4.5-2.6,6.7-3.87a.2.2,0,0,1,.11,0,.22.22,0,0,1,.11.05,25.93,25.93,0,0,0,5.07,3.82A24.89,24.89,0,0,0,26,222.1l.1.07a.14.14,0,0,1,0,.11V230a2.34,2.34,0,0,0,.7,1.66,2.36,2.36,0,0,0,.76.51,2.4,2.4,0,0,0,.89.18H38a2.44,2.44,0,0,0,.89-.18,2.48,2.48,0,0,0,.76-.51,2.35,2.35,0,0,0,.51-.77,2.21,2.21,0,0,0,.18-.89v-7.7a.21.21,0,0,1,0-.11.18.18,0,0,1,.11-.07h0a25.9,25.9,0,0,0,3-1.05,28.52,28.52,0,0,0,2.82-1.41,24.85,24.85,0,0,0,2.65-1.76,23.72,23.72,0,0,0,2.42-2.06.16.16,0,0,1,.11-.05.14.14,0,0,1,.12,0l6.67,3.84a2.27,2.27,0,0,0,.86.3,2.59,2.59,0,0,0,.92-.07,2.24,2.24,0,0,0,.82-.4,2.39,2.39,0,0,0,.59-.67c1.75-2.81,3.41-5.9,5.08-8.79l-.09-.05c0-.08,0-.15,0-.22a2.59,2.59,0,0,0-.06-.92A2.43,2.43,0,0,0,66,208a2.18,2.18,0,0,0-.68-.6l-6.67-3.85a.18.18,0,0,1-.08-.09.25.25,0,0,1,0-.12l.18-.7h0c.06-.27.11-.55.16-.83.1-.53.18-1.06.24-1.58s.11-1,.15-1.58.05-1.07.05-1.59,0-1-.05-1.59-.08-1.07-.15-1.59-.14-1-.24-1.57-.21-1-.33-1.54a.29.29,0,0,1,0-.13.18.18,0,0,1,.09-.08l6.66-3.85a2.32,2.32,0,0,0,.68-.6,2.43,2.43,0,0,0,.41-.82,2.59,2.59,0,0,0,.06-.92,2.43,2.43,0,0,0-.28-.85c-1.59-2.94-3.41-5.9-5.09-8.81l-.09.06-.16-.13a2.24,2.24,0,0,0-.82-.4,2.38,2.38,0,0,0-.92-.07,2.43,2.43,0,0,0-.86.29l-.5.29h0l-6.19,3.57a.17.17,0,0,1-.12,0,.14.14,0,0,1-.1,0l0,0a26.33,26.33,0,0,0-2.41-2.05A26.34,26.34,0,0,0,43.43,173a26.49,26.49,0,0,0-3-1.05.26.26,0,0,1-.1-.07.21.21,0,0,1,0-.11v-7.7a2.3,2.3,0,0,0-.18-.9,2.42,2.42,0,0,0-.51-.76,2.48,2.48,0,0,0-.76-.51,2.44,2.44,0,0,0-.89-.18H28.51a2.4,2.4,0,0,0-.89.18,2.52,2.52,0,0,0-.77.51,2.37,2.37,0,0,0-.69,1.66v7.7a.15.15,0,0,1,0,.11.18.18,0,0,1-.1.07h0A26.06,26.06,0,0,0,23,173Z"/><path class="cls-2" d="M84.5,218.22a6.4,6.4,0,1,1-1.87,4.52,6.37,6.37,0,0,1,1.87-4.52Zm1.38-6.33a11.06,11.06,0,0,0-2.5,1.06,11.55,11.55,0,0,0-2.2,1.66.41.41,0,0,1-.47.06l-3-1.72h0a.75.75,0,0,0-1,.28v0l-2.09,3.62a.74.74,0,0,0-.07.56.69.69,0,0,0,.34.45h0l2.94,1.7a.39.39,0,0,1,.19.43h0a11.91,11.91,0,0,0-.25,1.35,11.94,11.94,0,0,0,0,2.76,11.91,11.91,0,0,0,.25,1.35.4.4,0,0,1-.21.44l-2.94,1.7h0a.69.69,0,0,0-.34.45.74.74,0,0,0,.07.56l2.1,3.64h0a.74.74,0,0,0,.45.34.71.71,0,0,0,.55-.07h0l2.95-1.71a.39.39,0,0,1,.47.06,11.25,11.25,0,0,0,4.72,2.73.38.38,0,0,1,.28.37v3.43a.77.77,0,0,0,.22.52.74.74,0,0,0,.52.21h4.2a.74.74,0,0,0,.52-.21.77.77,0,0,0,.22-.52V234a.4.4,0,0,1,.3-.38,11.06,11.06,0,0,0,2.5-1.06,11.55,11.55,0,0,0,2.2-1.66.41.41,0,0,1,.49-.05l3,1.71a.73.73,0,0,0,.56.07.74.74,0,0,0,.44-.34l0,0,2.08-3.62h0a.8.8,0,0,0,.08-.56.76.76,0,0,0-.34-.45l-3-1.71a.39.39,0,0,1-.19-.43h0a10,10,0,0,0,.25-1.35,11.94,11.94,0,0,0,0-2.76A10,10,0,0,0,100,220a.4.4,0,0,1,.21-.44l3-1.7a.76.76,0,0,0,.34-.45.8.8,0,0,0-.08-.56v0l-2.09-3.62h0a.74.74,0,0,0-.44-.34.73.73,0,0,0-.56.07h0l-3,1.72a.39.39,0,0,1-.48-.07,11.25,11.25,0,0,0-4.71-2.72.38.38,0,0,1-.28-.37v-3.43a.75.75,0,0,0-.22-.52.74.74,0,0,0-.52-.21h-4.2a.74.74,0,0,0-.52.21.75.75,0,0,0-.22.52v3.43A.4.4,0,0,1,85.88,211.89Z"/><path class="cls-2" d="M218.59,123.94a1.1,1.1,0,1,0-2.19,0v2.58h-2.58a1.1,1.1,0,1,0,0,2.19h2.58v2.58a1.1,1.1,0,0,0,2.19,0v-2.58h2.58a1.1,1.1,0,0,0,0-2.19h-2.58Z"/><path class="cls-2" d="M289.19,40.05a6.4,6.4,0,1,1-1.87,4.52,6.41,6.41,0,0,1,1.87-4.52Zm1.38-6.33a11.06,11.06,0,0,0-2.5,1.06,11.55,11.55,0,0,0-2.2,1.66.41.41,0,0,1-.47.06l-3-1.72h0a.75.75,0,0,0-.55-.06.74.74,0,0,0-.44.34v0l-2.09,3.62a.8.8,0,0,0-.08.56.74.74,0,0,0,.35.45h0l2.94,1.7a.39.39,0,0,1,.19.43h0a11.91,11.91,0,0,0-.25,1.35,11.94,11.94,0,0,0,0,2.76,11.91,11.91,0,0,0,.25,1.35.4.4,0,0,1-.21.44l-2.94,1.7h0a.74.74,0,0,0-.35.45.8.8,0,0,0,.08.56l2.1,3.64h0a.74.74,0,0,0,.44.34.73.73,0,0,0,.56-.07l0,0,2.95-1.7a.39.39,0,0,1,.47.06,11.54,11.54,0,0,0,4.72,2.73.38.38,0,0,1,.28.37v3.43a.77.77,0,0,0,.22.52.74.74,0,0,0,.52.21h4.2a.74.74,0,0,0,.52-.21.77.77,0,0,0,.22-.52V55.8a.4.4,0,0,1,.3-.38,11.06,11.06,0,0,0,2.5-1.06,11.55,11.55,0,0,0,2.2-1.66.41.41,0,0,1,.49-.05L305,54.36a.73.73,0,0,0,.56.07.74.74,0,0,0,.44-.34l0,0,2.08-3.62h0a.8.8,0,0,0,.08-.56.76.76,0,0,0-.34-.45l-3-1.71a.39.39,0,0,1-.19-.43h0a11.91,11.91,0,0,0,.25-1.35,11.94,11.94,0,0,0,0-2.76,11.91,11.91,0,0,0-.25-1.35.4.4,0,0,1,.21-.44l2.95-1.7a.76.76,0,0,0,.34-.45.8.8,0,0,0-.08-.56v0L306,35.05h0a.74.74,0,0,0-.44-.34.73.73,0,0,0-.56.07h0l-3,1.72a.39.39,0,0,1-.48-.07,11.25,11.25,0,0,0-4.71-2.72.38.38,0,0,1-.28-.37V29.91a.75.75,0,0,0-.74-.74h-4.2a.75.75,0,0,0-.74.74v3.43A.4.4,0,0,1,290.57,33.72Z"/><path class="cls-2" d="M645.28,23.82a1.1,1.1,0,1,0-2.19,0V26.4h-2.58a1.1,1.1,0,0,0,0,2.19h2.58v2.58a1.1,1.1,0,0,0,2.19,0V28.59h2.58a1.1,1.1,0,1,0,0-2.19h-2.58Z"/><path class="cls-2" d="M6.42,309.74a1.1,1.1,0,0,0-2.19,0v2.58H1.65a1.1,1.1,0,0,0,0,2.19H4.23v2.58a1.1,1.1,0,1,0,2.19,0v-2.58H9a1.1,1.1,0,0,0,0-2.19H6.42Z"/><path class="cls-2" d="M359.15,98a6.4,6.4,0,1,1-1.87,4.52A6.4,6.4,0,0,1,359.15,98Zm1.38-6.33a10.68,10.68,0,0,0-2.5,1.06,11.55,11.55,0,0,0-2.2,1.66.41.41,0,0,1-.47.06l-3-1.72h0a.73.73,0,0,0-.54-.06.74.74,0,0,0-.44.34l0,0-2.09,3.62a.74.74,0,0,0-.07.56.76.76,0,0,0,.34.45h0l2.95,1.7a.4.4,0,0,1,.18.43h0a10,10,0,0,0-.25,1.35,10.63,10.63,0,0,0,0,2.76,10,10,0,0,0,.25,1.35.4.4,0,0,1-.21.44l-2.95,1.7h0a.76.76,0,0,0-.34.45.74.74,0,0,0,.07.56l2.11,3.64h0a.74.74,0,0,0,.44.34.73.73,0,0,0,.56-.07h0l2.95-1.71a.39.39,0,0,1,.47.06,11.55,11.55,0,0,0,2.2,1.66,11.31,11.31,0,0,0,2.52,1.07.38.38,0,0,1,.28.37v3.43a.71.71,0,0,0,.22.52.72.72,0,0,0,.52.21h4.2a.72.72,0,0,0,.73-.73v-3.43a.39.39,0,0,1,.31-.38,11.06,11.06,0,0,0,2.5-1.06,11.55,11.55,0,0,0,2.2-1.66.39.39,0,0,1,.49,0l2.95,1.7a.71.71,0,0,0,.55.07.74.74,0,0,0,.45-.34v0l2.09-3.62h0a.74.74,0,0,0,.07-.56.73.73,0,0,0-.34-.45l-3-1.71a.39.39,0,0,1-.19-.43h0a11.91,11.91,0,0,0,.25-1.35,11.94,11.94,0,0,0,0-2.76,11.91,11.91,0,0,0-.25-1.35.4.4,0,0,1,.21-.44l2.94-1.7a.73.73,0,0,0,.34-.45.74.74,0,0,0-.07-.56v0L376,93h0a.74.74,0,0,0-.45-.34.71.71,0,0,0-.55.07h0l-3,1.72a.39.39,0,0,1-.48-.07,11.25,11.25,0,0,0-4.71-2.72.39.39,0,0,1-.29-.37V87.88a.76.76,0,0,0-.21-.52.74.74,0,0,0-.52-.21h-4.2a.73.73,0,0,0-.74.73v3.43A.4.4,0,0,1,360.53,91.69Z"/><path class="cls-2" d="M316,94.34a1.1,1.1,0,0,0-2.2,0v2.58h-2.57a1.1,1.1,0,1,0,0,2.19h2.57v2.58a1.1,1.1,0,0,0,2.2,0V99.11h2.57a1.1,1.1,0,1,0,0-2.19H316Z"/><path class="cls-2" d="M320.41,215.71a1.1,1.1,0,1,0-2.19,0v2.58h-2.58a1.1,1.1,0,0,0,0,2.19h2.58v2.58a1.1,1.1,0,0,0,2.19,0v-2.58H323a1.1,1.1,0,1,0,0-2.19h-2.58Z"/><path class="cls-2" d="M224.36,161.35a1.1,1.1,0,0,0-2.19,0v2.58h-2.58a1.1,1.1,0,0,0,0,2.19h2.58v2.58a1.1,1.1,0,1,0,2.19,0v-2.58h2.58a1.1,1.1,0,0,0,0-2.19h-2.58Z"/><path class="cls-2" d="M588.69,154.87a1.1,1.1,0,1,0-2.19,0v2.58h-2.57a1.1,1.1,0,1,0,0,2.19h2.57v2.57a1.1,1.1,0,1,0,2.19,0v-2.57h2.58a1.1,1.1,0,1,0,0-2.19h-2.58Z"/><path class="cls-6" d="M427.94,235.71a28.34,28.34,0,0,1,11.67,8.42c2.92,3.53,38.55,71.8,40.84,76.24s2.28,15.68-3.12,22.6c-2.09,2.68-8.12,10.2-14.7,18.39H441.28c7.75-11.63,17.87-26.84,18.6-28.07,1.18-2,1.78-3.94-.39-7.32s-30.69-38.16-30.69-38.16S414.78,248.61,427.94,235.71Z"/><path class="cls-7" d="M390.46,230.22s35.93,5.1,37.48,5.49,4.17,4,5.58,6.43,3.08,37.51,3.88,47.34S435,342.11,436,353.61c.16,1.91.45,4.59.83,7.75H329.33c-1.38-12.72-11-52.5-11.75-62.06-.81-9.82-4.88-44.7-3.88-47.34s3-6.62,4.46-7.26,36.51-11.55,36.51-11.55l18,2Z"/><path class="cls-8" d="M390.46,230.22l5.94.84a5.13,5.13,0,0,1-1.24,2.44c-14,16-28.22,17.17-44.6,3.66a5.15,5.15,0,0,1-1.62-2.22l5.73-1.79,18,2Z"/><path class="cls-9" d="M384.17,195.61l.31,8.94s1.49,18.26,1.72,21c.11,1.34,1.66,3.16,4.26,4.64-11.75,13.46-22,14.3-35.79,2.93,2.32-1.88,3.55-3.93,3.44-5.27-.22-2.77-1.72-21-1.72-21L355.24,198s7.21.56,14.69,1.58C377.14,197.34,384.17,195.61,384.17,195.61Z"/><path class="cls-10" d="M393.43,230.64s-4.16,18-4.47,21.61-5.19,40.44-4.68,46.66c.23,2.83,5.86,31.57,12,62.45h49c-1.2-7.53-2.23-14-2.79-17.68-2-13.17-3.32-40.56-2.89-57.47s-3.76-42.28-4.26-44.69-5.3-5.42-6.79-6Z"/><path class="cls-11" d="M388.06,259.93c-1.47,12.13-4.16,34.28-3.78,39,0,0,23.81-25.93,23.45-28.48s-10.05-21.63-10.05-21.63S393.52,253.59,388.06,259.93Z"/><path class="cls-12" d="M392.23,230.47s1-.94,1.43-1,6.84,2.15,6.84,2.15,9.42,14.82,9.58,16.71-23.14,20.95-23.14,20.95L389,251.88s3.38-17,4.43-21.24Z"/><path class="cls-10" d="M318.58,244.67a28.45,28.45,0,0,0-10.15,10.21c-2.3,4-26.34,77.12-27.88,81.88s.3,15.84,6.75,21.78c.7.65,1.77,1.61,3.1,2.82H317C310,353.79,303.6,346.92,303,346.15c-1.49-1.78-2.39-3.59-.81-7.28s24.07-42.65,24.07-42.65S333.66,255.26,318.58,244.67Z"/><path class="cls-10" d="M351.81,234.05s7,17,7.92,20.6,11.7,39,12.21,45.27c.23,2.76-.59,30.8-1.58,61.44H321.94c0-3.2-.05-5.88-.07-7.8-.19-13.32-3.33-40.55-6.51-57.17s-3.17-42.33-3.06-44.79,4.34-6.21,5.72-7Z"/><path class="cls-11" d="M361.87,262.08c3.42,11.72,9.69,33.14,10.07,37.84,0,0-27.71-21.7-27.77-24.28s6.39-23,6.39-23S355.45,256.71,361.87,262.08Z"/><path class="cls-12" d="M353,233.69a5.38,5.38,0,0,0-1.57-.73c-.38,0-6.4,3.24-6.4,3.24s-6.88,16.15-6.73,18.05,26.25,16.9,26.25,16.9l-4.88-16.86s-6.1-16.26-7.82-20.24Z"/><path class="cls-9" d="M339.76,201.06l-.53.14h0a7.4,7.4,0,1,0,6.28.92c.39,2.16.28,4.88-2.46,5.4l-.31-4.25A2.54,2.54,0,0,0,339.76,201.06Z"/><path class="cls-9" d="M392.88,196.21l.55,0h0a7.4,7.4,0,1,1-6,2c0,2.19.6,4.84,3.4,4.86l-.47-4.24A2.54,2.54,0,0,1,392.88,196.21Z"/><path class="cls-13" d="M363,161.87h0a25.39,25.39,0,0,0-22.9,27.5l2.09,22.92a25.38,25.38,0,0,0,27.5,22.9h0a25.39,25.39,0,0,0,22.9-27.5l-2.09-22.92A25.38,25.38,0,0,0,363,161.87Z"/><path class="cls-14" d="M341.62,178.09a25.18,25.18,0,0,0-1.56,11.28l2.09,22.92a25.4,25.4,0,0,0,25.1,23c-14.65-1.12-17.36-18.44-18.48-27.55s2.29-11.16,3.65-11.62,22.63-4,27.34-4.52,7.08,2.07,7.08,2.07l2-2.89-1.91-6.15s1.63.05,3.54,0a24.91,24.91,0,0,0-.93-4.76,40.1,40.1,0,0,1-8.31-3.76c-5.61-3.62-32.41.91-36.76.91A6.76,6.76,0,0,0,341.62,178.09Z"/><path class="cls-15" d="M388.9,196.93s.16,1.69.3,3.25,1.75,3.18,2.95,3.07l-.32-3.55a3.54,3.54,0,0,1,3.5-3c8.88-12.31,5.92-30.29-5.52-38.71s-34.25-6.95-38.1-5.27-7.32,8.8-7.32,8.8-3.65-2.7-6.63-.85-11.66,22.54-11.21,27.47S337.45,202,337.45,202a3.52,3.52,0,0,1,4,2.27l.33,3.55c1.2-.11,2.49-2,2.35-3.55s-.3-3.25-.3-3.25l.34-.19c3.05-2,2.44-8,2.44-8l-2.81-3.94,5.59-7.35,6.43-2.12,14.61.56s17.23,2.14,15.72,7.16S388.9,196.93,388.9,196.93Z"/><path class="cls-16" d="M388.9,196.93c.18,1.93,1.47,10.55,3.72,10.35,6.7-14.12,12.89-28.86,2.91-43.32-1.18,9.31-10.45,15-19.74,16.94,4.91,1.07,11.27,3.08,10.33,6.21-1.51,5,2.78,9.82,2.78,9.82Zm-61.7-13.08a14.91,14.91,0,0,0-.65,4.33c.35,3.8,13,22.16,15.82,26.33,1.46-.13,1.66-11,1.43-13.47l.34-.19c3.05-2,2.44-8,2.44-8l-2.81-3.94,5.59-7.35,6.13-2c-3.08-1.25-4-2.56-4-2.56C338.83,189.76,331.47,189.06,327.2,183.85Z"/><path class="cls-15" d="M337.65,197.33s-10.6-23,10.73-26.92c0,0,5.64-11.14,16.95-8.35s18.39,2.72,23.46-2.28c0,0,2.91,5.48-.62,10.26,10.7,8.31,7,19,2.6,24.71-1.75-11.92-33.13,1.34-37.24-10.11C353.13,195.59,341.66,192.86,337.65,197.33Z"/><path class="cls-16" d="M337.65,197.33a33.35,33.35,0,0,1-2.55-10c4.12-.39,9.47-3.35,16.41-10.38,0,0,2.84,4.17,15.94,4.71,7.95.33,18.07-2.62,23.77-8.75,6.82,7.77,3.45,16.75-.45,21.86-1.75-11.92-33.13,1.34-37.24-10.11C353.13,195.59,341.66,192.86,337.65,197.33Z"/><path class="cls-17" d="M645.84,199.8c-4.48-16.81-20.15-7.56-26.85,6.83s-22.07,70.53-35.35,85.07c-5.15,5.64-3.57,6.11,1.16,3.36C608.41,281.38,652,222.94,645.84,199.8Z"/><path class="cls-18" d="M580.47,296.08c-.16.75.55.79,1.89.23,35.79-30.26,54.8-97.92,54.86-98.14a.7.7,0,1,0-1.35-.38C635.81,198,616.54,266.59,580.47,296.08Z"/><path class="cls-18" d="M606.19,208.77c-7.82-12.26-18-.94-19.67,12.22s.25,61.76-6.65,76.69c-2.68,5.79-1.31,5.77,1.77,2.39C597,283.21,617,225.64,606.19,208.77Z"/><path class="cls-17" d="M578.45,302c.06.65.63.49,1.56-.29,20.86-33.15,18.9-91.84,18.89-92a.58.58,0,0,0-.6-.57.59.59,0,0,0-.57.6C597.74,209.87,599.73,269.37,578.45,302Z"/><path class="cls-18" d="M645,250.48c13.51,1.41,8.29,14.62-2,21.55s-51.72,25.62-61.32,37.64c-3.72,4.65-4.27,3.5-2.73-.49C586.59,289.31,626.35,248.54,645,250.48Z"/><path class="cls-17" d="M578.66,312.65c-.56.21-.67-.33-.41-1.44,19-31.29,68.86-54.2,69-54.27a.54.54,0,0,1,.72.26.55.55,0,0,1-.26.73C647.57,258,597,281.22,578.66,312.65Z"/><path class="cls-15" d="M452,233.59l-3.36,29.49s5.08,69.06,7.57,98.28h37.66l.83-117.53Z"/><path class="cls-15" d="M471.92,259.17l-1.66,10.42,3.3,91.77h45.91c.77-6.35,1.46-11.79,2-15.7,3.45-24.14,4.63-57.68,4.61-65.62s-9.21-19.72-12.37-20.59S471.92,259.17,471.92,259.17Z"/><path class="cls-19" d="M456.56,117.48s-1.56-2.92-2.8-2.37-42.81,61.71-44.22,67-.83,14.59,7.22,27.54S442,254.35,442.63,255s10-5.69,11-7.47c0,0,.42-.59-.19-1.78s-21.07-49.67-22.36-53.15S466.25,146,468,142.56,476.43,121,456.56,117.48Z"/><path class="cls-20" d="M489.88,100l-18.1,12.93s-12.92,50.57-13,52.86-5,30.19-5,30.19,18.1,7.18,20.69.28,31.61-56.32,33-64.08-2-26.15-3.73-28.16S489.88,100,489.88,100Z"/><path class="cls-19" d="M471.66,108.48s-16.39,5.77-17.9,6.63-10.37,33.13-11.08,36.15,4,58.33,4,63.22-6.18,65.94-6.32,67a1.8,1.8,0,0,0,1.86,2.15c1.44,0,17.53-30.31,18.83-33.76s-2.9-55.46-2.9-55.46l10.94-74.42Z"/><path class="cls-21" d="M520.33,116.65s23.5,23.69,24.36,25.13-23.56,82.32-23.85,86.06,12.07,58.76,12.5,60.2a2.81,2.81,0,0,1-.36,1.44,5.35,5.35,0,0,1-1.93,1.72c-.51.36-58-8.91-62.58-11.78S454,231.86,454,225.83s3.48-29.13,3.48-29.13l28.28-47.88S506.14,118.18,520.33,116.65Z"/><path class="cls-22" d="M516.61,112.93s27.22,27.41,28.08,28.85-23.56,82.32-23.85,86.06,12.07,58.76,12.5,60.2a2.81,2.81,0,0,1-.36,1.44A5.29,5.29,0,0,1,531,291.2c-.25.19-15.54-2.17-31-4.89,13.38-19.3,12.68-51.26,11.52-53.21-1.36-2.26-8.51-7.15-7.43-7.51s8.42-.55,9-2.36S524,164.14,524,164.14l6.89-4.64s3.08-22.27.91-25.53-16.51-15.59-16.62-15.69C516.94,117.41,515,113.11,516.61,112.93Z"/><path class="cls-23" d="M541.4,138.17a40.43,40.43,0,0,1,6,6.05c2.46,3.21,33.13,67.3,33.76,73.31s-1.61,16.13-12.66,28.92-35.39,44.63-36.17,45.27-10-8-10.78-10.08c0,0-.35-.72.52-1.92s31.65-50.76,33.67-54.35S525.29,168.22,524,164.14,519,138.59,541.4,138.17Z"/><path class="cls-14" d="M507.08,77.45c.17,9-2.16,18.21-1.57,27.18.12,1.83,1,2.44,3.25,3.91,3.13,4.65-5.42,19.37-11.05,20.24-.37.06-9.53-7.12-16-8.79-3.33-.86-6.07,3.4-6.32,3.22-1.35-1,1.55-8.6.61-11.48,1.14-.31,2.15-2.86,3-3.6,5.26-4.85,3.55-17-.76-21.53C475,83.19,507.08,77.45,507.08,77.45Z"/><path class="cls-8" d="M513,112.05c-.71,2-18.08,25.21-18.08,25.21s-.62.84-1.53-.22-11.61-16-11.61-16l23.77-17.71L505,99.26C505.35,98.89,513.74,110,513,112.05Z"/><path class="cls-8" d="M481.16,104.52s0,0-.1,0c-8.12-.58-9.35,22.44-7.92,27,0,0,4.93-7.53,8.33-10.54C483,119.53,478.2,109.13,481.16,104.52Z"/><path class="cls-23" d="M511,105.44s-30.39,37.67-32.55,40.83-18.67,42.09-21,50.43c0,0,25.43-31.75,29-34.63s16.89-13.93,16.89-13.93a2,2,0,0,0,.18-1.23c-.18-.5-3.88-8.87-3.88-8.87s11.06,1.65,12.07,1.58,6-24.75,6.11-25.47S511,105.44,511,105.44Z"/><path class="cls-23" d="M481.22,104.46s-8,1.86-9.33,2.58-11.49,17.67-11.78,19.11a.91.91,0,0,0,.43,1,33.05,33.05,0,0,1,2.91,1.83c.21.22-3.56.65-3.56.65s-.43.16-.35.83-1.37,63.93-1.37,63.93,12.54-70,14.4-74.57,6.85-11.89,6.85-11.89Z"/><path class="cls-9" d="M467.55,64.42a7.17,7.17,0,1,1-7.13,7.2A7.17,7.17,0,0,1,467.55,64.42Z"/><path class="cls-9" d="M515.38,64.15a7.17,7.17,0,1,1-7.13,7.2A7.15,7.15,0,0,1,515.38,64.15Z"/><path class="cls-13" d="M489,27.59h0c13.5-.09,24.61,11.89,24.68,26.61l.13,24.33c.07,14.72-10.91,26.83-24.41,26.91h0c-13.5.08-24.61-11.9-24.68-26.62l-.13-24.33C464.51,39.78,475.49,27.67,489,27.59Z"/><path class="cls-14" d="M512.72,47a28.66,28.66,0,0,1,.95,7.23l.13,24.33c.06,13.54-9.22,24.87-21.21,26.66l-2.09.22h0c13.4-1.33,16.24-18.94,16.24-24.25V67.38c0-13-7.21-14.39-12.15-14.39H470.11a4.79,4.79,0,0,0-4.31,2.91L464.58,55V54.5a27.85,27.85,0,0,1,7.92-19.79c12.29,2.4,32.72,6.48,34.13,7.36C507.4,42.55,509.9,44.6,512.72,47Z"/><path class="cls-24" d="M461.24,47.19l4.41,4.42s2.11-8.23,19.89-5.69-16.4-16.52-20.27-14.44S458,39.68,461.24,47.19Z"/><path class="cls-15" d="M507.42,47.59s-17.5,1.91-26.4-3.74-16.44-8.27-18.73-5.2c-2.16,2.91,6.55,10.78,3,24.16-.19.73-.65,13.1-.91,13.86-.09-4.84-1.64-17.21-3.24-20.31-4.79-9.25-12.28-16.19-2.55-30.06,6-8.51,16.11-12.49,20.82-8.19,15.36,14,36.5-4.2,36.63,19,0,0,11.39,3.83.8,27.14-2.39,0-3.13,1.82-3.12,3.36l.09,12.44C505.3,80.1,505.12,57.68,507.42,47.59Z"/><rect class="cls-25" x="495.53" y="258.28" width="58.21" height="93.82" rx="4.35"/><rect class="cls-26" x="546.82" y="258.28" width="47.37" height="93.82" rx="3.66"/><path class="cls-8" d="M485.62,293.92h51.29c0-9.2,9.91-10.21,9.91-10.21H495.53S485.62,284.72,485.62,293.92Z"/><rect class="cls-27" x="492.67" y="337.01" width="58.81" height="24.35" rx="2.87"/><path class="cls-28" d="M546.94,337H558.6c.26,0,3.1.11,4.69,3.58,1.67,3.64,1.5,7.28,6.45,7.28h2.13c5,0,4.82-3.73,6.45-7.28S582.75,337,583,337h11.06a2.87,2.87,0,0,1,2.87,2.86v18.62a2.88,2.88,0,0,1-2.87,2.87H546.94a2.87,2.87,0,0,1-2.86-2.87V339.87A2.87,2.87,0,0,1,546.94,337Z"/><path class="cls-8" d="M485.62,326.06h51.29c0-9.19,9.91-10.21,9.91-10.21H495.53S485.62,316.87,485.62,326.06Z"/><path class="cls-29" d="M602.53,310.73H555.89c0-9.19-9.07-10.2-9.07-10.2h46.65S602.53,301.54,602.53,310.73Z"/><path class="cls-30" d="M554.24,268.48H590a1.58,1.58,0,0,1,1.57,1.57h0a1.58,1.58,0,0,1-1.57,1.58H554.24a1.58,1.58,0,0,1-1.57-1.58h0A1.58,1.58,0,0,1,554.24,268.48Z"/><path class="cls-30" d="M554.24,285.84H590a1.58,1.58,0,0,1,1.57,1.58h0A1.58,1.58,0,0,1,590,289H554.24a1.58,1.58,0,0,1-1.57-1.58h0A1.58,1.58,0,0,1,554.24,285.84Z"/><path class="cls-30" d="M554.24,322.11H590a1.58,1.58,0,0,1,1.57,1.58h0a1.58,1.58,0,0,1-1.57,1.57H554.24a1.58,1.58,0,0,1-1.57-1.57h0A1.58,1.58,0,0,1,554.24,322.11Z"/><path class="cls-29" d="M503.11,267.2h34.54a1.58,1.58,0,0,1,1.57,1.58h0a1.58,1.58,0,0,1-1.57,1.57H503.11a1.58,1.58,0,0,1-1.58-1.57h0A1.58,1.58,0,0,1,503.11,267.2Z"/><rect class="cls-31" x="501.53" y="306.32" width="37.69" height="3.15" rx="1.58"/><path class="cls-29" d="M503.11,331.34h34.54a1.58,1.58,0,0,1,1.57,1.58h0a1.58,1.58,0,0,1-1.57,1.58H503.11a1.58,1.58,0,0,1-1.58-1.58h0A1.58,1.58,0,0,1,503.11,331.34Z"/><rect class="cls-25" x="471.88" y="298.98" width="35.23" height="56.78" rx="2.63"/><path class="cls-26" d="M505.13,299h24.24a2.21,2.21,0,0,1,2.21,2.21v52.35a2.22,2.22,0,0,1-2.22,2.22H505.13a2.22,2.22,0,0,1-2.22-2.22V301.2A2.22,2.22,0,0,1,505.13,299Z"/><path class="cls-8" d="M465.88,320.54h31c0-5.56,6-6.17,6-6.17h-31S465.88,315,465.88,320.54Z"/><rect class="cls-27" x="470.15" y="346.62" width="35.59" height="14.74" rx="1.73"/><path class="cls-28" d="M503,346.62h7.06a3.34,3.34,0,0,1,2.84,2.17c1,2.2.9,4.4,3.9,4.4h1.29c3,0,2.91-2.25,3.9-4.4a3.24,3.24,0,0,1,2.84-2.17h6.7a1.74,1.74,0,0,1,1.73,1.74v11.26a1.74,1.74,0,0,1-1.73,1.74H503a1.74,1.74,0,0,1-1.73-1.74V348.36A1.74,1.74,0,0,1,503,346.62Z"/><path class="cls-8" d="M465.88,340h31c0-5.57,6-6.18,6-6.18h-31S465.88,334.43,465.88,340Z"/><path class="cls-29" d="M536.63,330.72H508.41c0-5.56-5.49-6.17-5.49-6.17h28.23S536.63,325.16,536.63,330.72Z"/><path class="cls-30" d="M507.41,305.15h21.64a1,1,0,0,1,1,1h0a1,1,0,0,1-1,1H507.41a1,1,0,0,1-1-1h0A1,1,0,0,1,507.41,305.15Z"/><path class="cls-30" d="M507.41,315.66h21.64a1,1,0,0,1,1,.95h0a1,1,0,0,1-1,1H507.41a1,1,0,0,1-1-1h0A1,1,0,0,1,507.41,315.66Z"/><path class="cls-30" d="M507.41,337.61h21.64a1,1,0,0,1,1,.95h0a1,1,0,0,1-1,.95H507.41a1,1,0,0,1-1-.95h0A1,1,0,0,1,507.41,337.61Z"/><rect class="cls-31" x="475.51" y="304.37" width="22.81" height="1.91" rx="0.95"/><rect class="cls-31" x="475.51" y="328.05" width="22.81" height="1.91" rx="0.95"/><path class="cls-29" d="M476.47,343.19h20.9a1,1,0,0,1,.95,1h0a1,1,0,0,1-.95,1h-20.9a1,1,0,0,1-1-1h0A1,1,0,0,1,476.47,343.19Z"/><path class="cls-15" d="M138.55,221.83l41,.19a1,1,0,0,1,1,1v4.29a1,1,0,0,1-1,1l-41-.2a1,1,0,0,1-1-1v-4.28a1,1,0,0,1,1-1Zm40,2.15-39-.19v2.33l39,.19Z"/><path class="cls-15" d="M84.71,283.05l54.14-61.69a1,1,0,0,1,1.38-.09l3.22,2.83a1,1,0,0,1,.09,1.38L89.4,287.17a1,1,0,0,1-1.38.09l-3.22-2.83a1,1,0,0,1-.09-1.38Zm55-59.67L86.82,283.61l1.76,1.54,52.85-60.23Z"/><path class="cls-23" d="M139.1,219.62a5.45,5.45,0,1,1-4.73,6.1A5.46,5.46,0,0,1,139.1,219.62Z"/><path class="cls-15" d="M84.67,283.35l38.07,72.72a1,1,0,0,0,1.32.41l3.8-2a1,1,0,0,0,.41-1.32L90.21,280.46a1,1,0,0,0-1.32-.42l-3.8,2a1,1,0,0,0-.42,1.32ZM124,354.29l-37.16-71,2.07-1.08,37.16,71Z"/><path class="cls-23" d="M122.57,357.82a5.46,5.46,0,1,0-3.15-7A5.46,5.46,0,0,0,122.57,357.82Z"/><path class="cls-23" d="M87.78,278.09a5.45,5.45,0,1,1-4.72,6.1A5.45,5.45,0,0,1,87.78,278.09Z"/><rect class="cls-32" x="68.6" y="353.2" width="89.84" height="13.78" rx="6.89"/><rect class="cls-33" x="95.7" y="353.2" width="89.84" height="13.78" rx="6.89"/><path class="cls-8" d="M170.71,235.82h20a10.61,10.61,0,0,0,10.58-10.58h-41.2A10.61,10.61,0,0,0,170.71,235.82Z"/><path class="cls-34" d="M171.09,233.71h12a6.37,6.37,0,0,0,6.35-6.36H164.73A6.38,6.38,0,0,0,171.09,233.71Z"/><path class="cls-23" d="M164,220.39h33.52a8.11,8.11,0,0,1,8.09,8.09h-49.7A8.11,8.11,0,0,1,164,220.39Z"/><path class="cls-24" d="M164,220.39H179.3a8.11,8.11,0,0,1,8.08,8.09h-31.5A8.11,8.11,0,0,1,164,220.39Z"/><path class="cls-2" d="M394.32,35.7H437a6.68,6.68,0,0,1,6.66,6.66V79.55a.74.74,0,0,1-1.27.53L431.07,68.74H394.32a6.67,6.67,0,0,1-6.65-6.66V42.36A6.67,6.67,0,0,1,394.32,35.7Z"/><path class="cls-8" d="M389.28,31.38H432a7.55,7.55,0,0,1,7.53,7.53v37.2a1.69,1.69,0,0,1-.27.9,1.63,1.63,0,0,1-.73.59h0a1.61,1.61,0,0,1-.94.1,1.59,1.59,0,0,1-.83-.45L425.66,66.17H389.28a7.55,7.55,0,0,1-7.54-7.53V38.91a7.55,7.55,0,0,1,7.54-7.53ZM432,33.14h-42.7a5.79,5.79,0,0,0-5.78,5.77V58.64a5.79,5.79,0,0,0,5.78,5.77h37.11l11.36,11.37V38.91A5.77,5.77,0,0,0,432,33.14Z"/><path class="cls-8" d="M388.92,38.73a.48.48,0,0,1-.48-.48.49.49,0,0,1,.48-.48h43.41a.48.48,0,0,1,.48.48.47.47,0,0,1-.48.48Z"/><path class="cls-8" d="M388.92,43.42a.48.48,0,0,1-.48-.48.49.49,0,0,1,.48-.48h4.6a.49.49,0,0,1,.48.48.48.48,0,0,1-.48.48Zm10.72,0a.48.48,0,0,1-.48-.48.49.49,0,0,1,.48-.48h32.69a.48.48,0,0,1,.48.48.47.47,0,0,1-.48.48Z"/><path class="cls-8" d="M388.92,48.11a.48.48,0,0,1-.48-.48.49.49,0,0,1,.48-.48h43.41a.48.48,0,0,1,.48.48.47.47,0,0,1-.48.48Z"/><path class="cls-8" d="M401,54.48a.49.49,0,0,1,0-1h31.34a.49.49,0,0,1,0,1Z"/><path class="cls-8" d="M415,59.56a.47.47,0,0,1-.48-.48.48.48,0,0,1,.48-.48h17.34a.48.48,0,0,1,.48.48.47.47,0,0,1-.48.48Z"/><path class="cls-8" d="M405.05,59.56a.47.47,0,0,1-.48-.48.48.48,0,0,1,.48-.48h6.2a.48.48,0,0,1,.48.48.47.47,0,0,1-.48.48Z"/><path class="cls-2" d="M640.82,366.33a1.1,1.1,0,0,0-2.2,0v2.58h-2.57a1.1,1.1,0,1,0,0,2.19h2.57v2.58a1.1,1.1,0,1,0,2.2,0V371.1h2.57a1.1,1.1,0,1,0,0-2.19h-2.57Z"/><path class="cls-18" d="M212.94,349H175.81a5.55,5.55,0,1,0,0,11.1h37.13a5.55,5.55,0,0,0,0-11.1Z"/><path class="cls-8" d="M129.88,349.64h47.48a4.92,4.92,0,0,1,4.91,4.9h0a4.92,4.92,0,0,1-4.91,4.9H129.88Z"/><path class="cls-35" d="M129.88,349a.65.65,0,1,0,0,1.29h47.48a4.26,4.26,0,0,1,0,8.52H129.88a.65.65,0,1,0,0,1.29h47.48a5.55,5.55,0,0,0,0-11.1Z"/><path class="cls-35" d="M211.23,354.54a5.57,5.57,0,0,0-5.55-5.55h4.82a5.55,5.55,0,0,1,0,11.1h-4.82a5.57,5.57,0,0,0,5.55-5.55Z"/><path class="cls-35" d="M204.23,354.54a5.57,5.57,0,0,0-5.55-5.55h4.83a5.55,5.55,0,0,1,0,11.1h-4.83a5.57,5.57,0,0,0,5.55-5.55Z"/><path class="cls-28" d="M139.64,339.27h32.52a4.86,4.86,0,0,1,0,9.72H139.64a4.86,4.86,0,0,1,0-9.72Z"/><path class="cls-8" d="M212.37,339.84H170.79a4.3,4.3,0,0,0-4.29,4.29h0a4.3,4.3,0,0,0,4.29,4.29h41.58Z"/><path class="cls-36" d="M212.37,339.27a.57.57,0,1,1,0,1.13H170.79a3.73,3.73,0,0,0,0,7.46h41.58a.57.57,0,1,1,0,1.13H170.79a4.86,4.86,0,0,1,0-9.72Z"/><path class="cls-36" d="M141.14,344.13a4.88,4.88,0,0,1,4.86-4.86h-4.23a4.86,4.86,0,0,0,0,9.72H146a4.88,4.88,0,0,1-4.86-4.86Z"/><path class="cls-36" d="M147.26,344.13a4.88,4.88,0,0,1,4.86-4.86H147.9a4.86,4.86,0,0,0,0,9.72h4.22a4.88,4.88,0,0,1-4.86-4.86Z"/><rect class="cls-37" x="268.17" y="351.21" width="169.83" height="10.14" rx="5.07"/><path class="cls-38" d="M433.23,361.36H273.54A5.44,5.44,0,0,1,269.1,359a4.71,4.71,0,0,1,4.15-2.39H433a5.44,5.44,0,0,1,4.44,2.39A4.74,4.74,0,0,1,433.23,361.36Z"/><path class="cls-38" d="M436.57,351.21H308.84a6.16,6.16,0,0,1-6.21-6.63l5.22-82.73a7.21,7.21,0,0,1,7.06-6.64H442.64a6.17,6.17,0,0,1,6.21,6.64l-5.23,82.73A7.18,7.18,0,0,1,436.57,351.21Z"/><path class="cls-8" d="M436.57,351.21h-124a6.17,6.17,0,0,1-6.22-6.63l5.23-82.73a7.2,7.2,0,0,1,7.06-6.64h124a6.17,6.17,0,0,1,6.21,6.64l-5.23,82.73A7.18,7.18,0,0,1,436.57,351.21Z"/><path class="cls-39" d="M429.81,351.21H417.06L311.32,266.7l.3-4.85a6.94,6.94,0,0,1,1.52-3.89l116.67,93.25Zm-102.35-96,115.35,92.2a6.86,6.86,0,0,0,.81-2.83l.82-12.87-95.72-76.5Z"/><rect class="cls-26" x="268.17" y="351.21" width="39.16" height="10.14" rx="5.07"/><path class="cls-40" d="M435.31,353.75H302.43a2.74,2.74,0,0,1-2.69-2.54h0a2.37,2.37,0,0,1,2.39-2.53H435a2.75,2.75,0,0,1,2.69,2.53h0A2.37,2.37,0,0,1,435.31,353.75Z"/><path class="cls-15" d="M284.08,248.7c-1-4.87-.73-7.6.21-12.23l-20.94-1.77,29.14-12.77s6.19-7.59,9.1-15-5-26.41-8-31.12-9.14-4-13.21-1.45c0,0-6.11-9.2-13.39-9.82S236.57,166,229.84,183s4.1,34-6.74,51.48a4.37,4.37,0,0,0,.46,4.08c1.4,1.86,18.49,21.78,57.43,13.75,0,0,3.11-.72,3.09-3.63Z"/><path class="cls-16" d="M256.64,253.91c2.15-23.41,3.66-43.77,3.66-43.77l-2-6.59s-17.93,14.49-30.66-.76c.6,10.46,2.1,21-4.55,31.71a4.37,4.37,0,0,0,.46,4.08l.05.07,0,0,.05.06.06.07,0,0,.09.11h0l.11.13,0,0,.09.1.08.09.06.07.13.15,0,0,.16.18,0,0,.14.15.1.1.09.1.07.07.14.14.22.22.15.15.12.12c3.73,3.6,12.4,10.27,27,12.58h0c1.27.2,2.58.36,3.94.49Z"/><path class="cls-16" d="M284.08,248.7c-1.33-6.62-.4-9.28,1.46-18.13l-33.32-5.25-14.56,2.82a98.51,98.51,0,0,1-5.08,18c8.86,5.48,24.52,11.07,48.41,6.15,0,0,3.11-.72,3.09-3.63Z"/><path class="cls-28" d="M239.87,250.14c9.22,2.89,21.83,6.35,32.7,11.7.75.37-.78,3.26-.08,3.65a25.07,25.07,0,0,1,4.77,3.87c5.07,5,15.4,44.31,14.48,48.23-1.48,6.29-14.53,23.59-14.53,23.59-2.6,5-5.81,12.3-9,20.18H203.42c4.52-14.68,6.2-24.62,6.32-33.58h0c3.46-30.47-12.92-37.09-12.92-37.09l17-39.92c6.6-2.34,19.76-1.46,19.76-1.46C237,249.31,236.76,249.16,239.87,250.14Z"/><path class="cls-36" d="M268.25,361.36H259.1c1.7-4.56,9.63-26.14,11.33-30.75-7.71-1.34-18.33-3.18-20.2-3.62s-9,3.65-9,3.65L242,326l-7.69,7.75,13.15-24.57s21.47,4.85,26,5.68,1.78.2,2.63.13c2.53-7.13-1.62-9.13-1.13-12.58s.64-36.95.64-36.95c2.78,1.44,4,4.56,5.6,9.49,1,3.25,6.51,24.56,8.78,37.17.54,3,1,5.24,1.24,7C286.15,332.1,274.73,345.15,268.25,361.36Z"/><path class="cls-9" d="M255.88,213.34l-3.24,9.75s-4.91,23-6,26c-.39,1-1.69,1.35-3.69,1.3,2.88,4.11,8.45,10.39,16.52,11.92,5.15,1,8.75,0,11.19-1.43-1.72-.91-3.37-2-3.36-2.88.07-7.85,1.42-21.67,5.67-24.22C277.8,230.85,255.88,213.34,255.88,213.34Z"/><path class="cls-8" d="M244.52,250.32a19.79,19.79,0,0,1-4.65-.18,35.32,35.32,0,0,0,10.32,9.33c12.72,8,18.84,3.66,20.78,1.59a14,14,0,0,1-3.1-2h0c-11.87,5.8-23.35-8.75-23.35-8.75Z"/><path class="cls-21" d="M272.05,261.59s5.07,51,4.46,55.33-8.68,25.55-15.74,44.44h12.15c2.4-4.63,4.23-8.24,4.56-9.11.22-.56,1.06-2.19,2.21-4.33,2.08-3.84,5.18-9.32,7.52-13.16,7.45-12.23,7.43-9.37,4.85-23.7-2.27-12.6-9.23-35.93-10.27-39.17C280.22,267,273.37,261.23,272.05,261.59Z"/><path class="cls-15" d="M271.34,332.61c-1.67,4.66-3.61,10-5.63,15.44a40.52,40.52,0,0,1,7.69,1.1c3.7,1.45,4.08,3.1,4.08,3.1.22-.56,1.06-2.19,2.21-4.33,2.08-3.84,5.18-9.32,7.52-13.16,2.24-3.68,3.8-6,4.82-7.82-1.43,1.26-3.71,3.16-4.83,3.5C285.86,330.85,275.5,332.11,271.34,332.61Z"/><path class="cls-21" d="M238,249.06s9.31,45.06,10.58,58.17-2.82,22.47-7.43,32.32c-1.55,3.31-6.53,11.78-12.67,21.81H199.8l3.06-70.8-8.21-1.9c.48-3.56.88-6.5,1.16-8.57L212,251.5S218.07,246.56,238,249.06Z"/><path class="cls-15" d="M220.55,270.75c-4.57,18.35-1.4,26-1.4,26l2.45-11.42s2.32,16.86,4.89,19c1.28,1.07,16.51,4,22.21,5.05a47.83,47.83,0,0,1-2.8,18.88c-4.1.42-28.73-3.05-29.91,4.91-.59,4-.46-8.8-.46-8.8l-1.45,37H199.8l3.06-70.8-8.21-1.9,0-.17,0-.16,0-.17,0-.16h0l0-.16,0-.16,0-.16,0-.16,0-.16,0-.16,0-.16h0l0-.15,0-.16,0-.15h0l0-.16,0-.15h0l0-.15h0l0-.15h0l0-.15h0l0-.15h0l0-.14h0v-.15h0v-.15h0l0-.14h0v-.14h0l0-.14h0l0-.14h0l0-.14h0l0-.13h0l0-.14h0l0-.14h0l0-.13h0v-.14h0l0-.13h0l0-.13h0l0-.13h0l0-.13h0V283h0l0-.13h0l0-.13h0v-.12h0l0-.13h0l0-.12h0v-.12h0l0-.12h0l0-.12h0v-.12h0l0-.12h0v-.11h0l0-.12h0v-.11h0l0-.11h0v-.12h0l0-.11h0V281h0l0-.11h0v-.11h0l0-.1h0v-.11h0v-.1h0l0-.1h0v-.1h0v-.1h0l0-.1,8.75-15.48Z"/><path class="cls-23" d="M197.9,271.5c-5.24,14.33-6.67,63.47-2.35,89.86h23c-9.41-52.37,10.35-89.83,6-103.11C217.62,237,201.35,262.08,197.9,271.5Z"/><path class="cls-16" d="M289.93,223.06l2.56-1.13A73.62,73.62,0,0,0,300,210.5c-.61,1.16-4.65,8.23-10.56,3.91-6.43-4.7-6.69,2.74-6.69,2.74s3.89,4.42,6.15,5.45l1.08.46ZM300,210.34Z"/><path class="cls-9" d="M287.2,218.78a7.34,7.34,0,1,0,6.54,8.06A7.35,7.35,0,0,0,287.2,218.78Z"/><path class="cls-9" d="M236.11,213.58l-.54,0h0a7.34,7.34,0,1,0,6,2c0,2.17-.56,4.81-3.34,4.85l.43-4.21A2.51,2.51,0,0,0,236.11,213.58Z"/><path class="cls-13" d="M267.7,179.48h0a25.2,25.2,0,0,0-27.58,22.4l-2.35,22.71a25.19,25.19,0,0,0,22.4,27.57h0a25.18,25.18,0,0,0,27.58-22.4l2.35-22.71A25.19,25.19,0,0,0,267.7,179.48Z"/><path class="cls-14" d="M239.71,205.86l-1.94,18.73a25.24,25.24,0,0,0,16,26c-14.62-6.06-7.12-31.48-7.12-31.48,3-.5,7.63-6,10.34-9.23s4.82-6.45,9.51-6.36,14.58,2.55,14.58,2.55a27.5,27.5,0,0,0,8.05,10.2l1-9.27a24.86,24.86,0,0,0-.47-8.06c-.61-.36-1.23-.72-1.89-1.09C267.62,186.59,250.54,195.74,239.71,205.86Z"/><path class="cls-16" d="M286.36,200l-4.06,1.72a12,12,0,0,0-8.2-1.32s-8.92-3.28-13.64-1.45-1.95-4.74-1.08-5,9.82-.86,13.72-.11,9.79,1.67,9.79,1.67Z"/><path class="cls-16" d="M238.85,212.36l2.4.43s1.68,7.61-3.05,7.67l.43-4.21a2.69,2.69,0,0,0,0-.81Z"/><path class="cls-15" d="M274.1,200.35c-3.67-4.95-9.67-6-14.33,1-4.27,6.36-10.6,17.36-21.25,16.47l-.05-.2h0l.6-7.09-2,.49a45.72,45.72,0,0,1-.37-12.73c1.23-8.92,13.64-21.95,27.64-22.45s24.13,7.81,26.14,12.55,4,15.5,4,15.5L292,207.4l-2.65,7c-6.44-6.27-5.78-12.19-8.58-15.18C279.29,197.62,277,197.61,274.1,200.35Z"/><path class="cls-16" d="M258.31,203.55c-4.23,6.39-10.29,15.06-19.79,14.26l-.05-.2h0l.6-7.09-2,.49q-.15-.93-.27-1.92C247.57,212.2,258.27,203.57,258.31,203.55Z"/><path class="cls-41" d="M269.35,260.17s6.54,53.63,6.41,55.37-1.87,10.13-1.87,10.13,3.16-5.29,3.93-9.68,2.84-34.05,2.84-34.05l-3.48-1.87,3.22-.2-5.32-16.66a4.68,4.68,0,0,0-1.45-1.72c-.84-.48-3.89-2-3.94-2a2,2,0,0,0-1.19.15Z"/><path class="cls-41" d="M238,249.06s9.31,45.06,10.58,58.17a46.25,46.25,0,0,1-.8,14.52c1.71-13.4-17.15-44.94-17.15-44.94l4.9-2.32-6.58-3s3-17,3.23-19.8-1.27-3.28-1.36-3.3C233,248.53,235.33,248.73,238,249.06Z"/><path class="cls-24" d="M51.84,381.26H60a5.92,5.92,0,0,0,5.91-5.9h0a5.92,5.92,0,0,0-5.91-5.9H38.47a4.7,4.7,0,0,1-4.69-4.68h0a4.7,4.7,0,0,1,4.69-4.69H606.88a4.7,4.7,0,0,1,4.69,4.69h0a4.7,4.7,0,0,1-4.69,4.68h-29.5a5.91,5.91,0,0,0-5.9,5.9h0a5.91,5.91,0,0,0,5.9,5.9h6.91a9.4,9.4,0,0,1,9.37,9.37h0a9.4,9.4,0,0,1-9.37,9.37H51.84a9.4,9.4,0,0,1-9.37-9.37h0a9.4,9.4,0,0,1,9.37-9.37Zm-26-21.17a4.69,4.69,0,1,1-4.69,4.69A4.68,4.68,0,0,1,25.81,360.09Z"/><path class="cls-42" d="M342.79,114.54h-42.7a7.55,7.55,0,0,0-7.54,7.53v37.19a1.63,1.63,0,0,0,1,1.5h0a1.57,1.57,0,0,0,.93.1,1.62,1.62,0,0,0,.83-.45l11.08-11.08h36.39a7.55,7.55,0,0,0,7.53-7.53V122.07a7.55,7.55,0,0,0-7.53-7.53Zm-42.7,1.75h42.7a5.8,5.8,0,0,1,5.77,5.78V141.8a5.8,5.8,0,0,1-5.77,5.77H305.67l-11.36,11.36V122.07a5.8,5.8,0,0,1,5.78-5.78Z"/><path class="cls-42" d="M343.14,121.89a.48.48,0,0,0,.48-.48.47.47,0,0,0-.48-.48H299.73a.47.47,0,0,0-.48.48.48.48,0,0,0,.48.48Z"/><path class="cls-42" d="M343.14,126.58a.47.47,0,0,0,.48-.48.48.48,0,0,0-.48-.48h-4.6a.49.49,0,0,0-.48.48.48.48,0,0,0,.48.48Zm-10.72,0a.47.47,0,0,0,.48-.48.48.48,0,0,0-.48-.48H299.73a.48.48,0,0,0-.48.48.47.47,0,0,0,.48.48Z"/><path class="cls-42" d="M343.14,131.27a.47.47,0,0,0,.48-.48.48.48,0,0,0-.48-.48H299.73a.48.48,0,0,0-.48.48.47.47,0,0,0,.48.48Z"/><path class="cls-42" d="M331.07,137.63a.48.48,0,0,0,.48-.48.49.49,0,0,0-.48-.48H299.73a.48.48,0,0,0-.48.48.47.47,0,0,0,.48.48Z"/><path class="cls-42" d="M317.07,142.72a.48.48,0,0,0,.49-.48.49.49,0,0,0-.49-.48H299.73a.48.48,0,0,0-.48.48.47.47,0,0,0,.48.48Z"/><path class="cls-42" d="M327,142.72a.47.47,0,0,0,.48-.48.48.48,0,0,0-.48-.48h-6.2a.49.49,0,0,0-.48.48.48.48,0,0,0,.48.48Z"/></g></g></svg>