<svg width="11" height="19" viewBox="0 0 11 19" fill="none" xmlns="http://www.w3.org/2000/svg">
<path d="M6.44806 11.1995C6.65054 11.2823 6.88299 11.2345 7.03628 11.0784L9.87045 8.19291C10.0789 7.98067 10.0759 7.6396 9.86361 7.43113C9.65136 7.22265 9.3103 7.22571 9.10183 7.43796L7.19065 9.38374L7.19065 1.38866C7.19065 1.09115 6.94947 0.849976 6.65197 0.849976C6.35446 0.849976 6.11328 1.09115 6.11328 1.38866V10.7009C6.11328 10.9197 6.24558 11.1167 6.44806 11.1995Z" fill="#333333"/>
<path d="M3.65765 9.0386C3.45059 8.9589 3.21289 9.00497 3.05613 9.15518L0.157866 11.9325C-0.0553218 12.1367 -0.0521922 12.465 0.164857 12.6657C0.381906 12.8663 0.730683 12.8634 0.943871 12.6591L2.89826 10.7863L2.89826 18.4815C2.89826 18.7679 3.1449 19 3.44913 19C3.75337 19 4 18.7679 4 18.4815L4 9.5185C4 9.30795 3.86471 9.1183 3.65765 9.0386Z" fill="#333333"/>
</svg>
