<svg width="11" height="15" viewBox="0 0 11 15" fill="none" xmlns="http://www.w3.org/2000/svg">
<path d="M6.44806 11.1996C6.65054 11.2824 6.88299 11.2345 7.03628 11.0784L9.87045 8.19295C10.0789 7.9807 10.0759 7.63963 9.86361 7.43116C9.65136 7.22268 9.3103 7.22575 9.10183 7.43799L7.19065 9.38377L7.19065 1.38869C7.19065 1.09118 6.94947 0.850006 6.65197 0.850006C6.35446 0.850006 6.11328 1.09118 6.11328 1.38869V10.701C6.11328 10.9197 6.24558 11.1168 6.44806 11.1996Z" fill="#555555"/>
<path d="M3.65765 5.0386C3.45059 4.9589 3.21289 5.00497 3.05613 5.15518L0.157866 7.93245C-0.0553218 8.13674 -0.0521923 8.46502 0.164857 8.66567C0.381906 8.86633 0.730683 8.86338 0.943871 8.65909L2.89826 6.78629L2.89826 14.4815C2.89826 14.7679 3.1449 15 3.44913 15C3.75337 15 4 14.7679 4 14.4815L4 5.5185C4 5.30795 3.86471 5.1183 3.65765 5.0386Z" fill="#555555"/>
</svg>
