<svg xmlns="http://www.w3.org/2000/svg" viewBox="0 0 665.06 278.1"><defs><style>.cls-1{fill:#ebebeb;}</style></defs><g id="Layer_2" data-name="Layer 2"><g id="Background_Complete" data-name="Background Complete"><path class="cls-1" d="M650,263.54l-13.13.28-6.66.11c-2.22,0-4.46,0-6.69.05h-.45v-.45L623,252.35v-.51h.51l13.24.06c4.41,0,8.82.11,13.24.16h.27v.27c0,1.9-.09,3.78-.13,5.65Zm0,0-.14-5.66c0-1.86-.12-3.7-.14-5.53l.28.27c-4.42,0-8.83.16-13.24.16l-13.24.07.5-.5L624,263.54l-.44-.45c2.18,0,4.35,0,6.54.06l6.58.11Z"/><path class="cls-1" d="M635.25,277.65l-13.13.27-6.66.12c-2.23,0-4.46,0-6.69,0h-.45v-.45l-.05-11.19V266h.51L622,266c4.41,0,8.82.11,13.24.16h.27v.27c0,1.9-.09,3.78-.13,5.65Zm0,0L635.1,272c0-1.86-.11-3.7-.13-5.53l.28.27c-4.42,0-8.83.16-13.24.16l-13.24.07.49-.5,0,11.19-.44-.45c2.18,0,4.35,0,6.54.06l6.58.11Z"/><path class="cls-1" d="M664.79,277.65l-13.13.27L645,278c-2.22,0-4.46,0-6.69,0h-.44v-.45l-.05-11.19V266h.5l13.24.06c4.41,0,8.83.11,13.24.16h.27v.27c0,1.9-.08,3.78-.13,5.65Zm0,0-.14-5.66c0-1.86-.12-3.7-.13-5.53l.27.27c-4.41,0-8.83.16-13.24.16l-13.24.07.5-.5-.06,11.19-.44-.45c2.18,0,4.36,0,6.54.06l6.58.11Z"/><path class="cls-1" d="M272.44,120.38l-13.13.28-6.66.11c-2.22,0-4.46,0-6.69,0h-.45v-.45l0-11.19v-.5h.5l13.24.06c4.41,0,8.82.12,13.24.17h.27v.27c0,1.9-.09,3.79-.13,5.65Zm0,0-.14-5.65c-.05-1.87-.12-3.71-.14-5.54l.28.27c-4.42.05-8.83.16-13.24.17l-13.24.06.5-.5-.06,11.19-.44-.45c2.18,0,4.36,0,6.54.06l6.58.11Z"/><path class="cls-1" d="M257.67,134.49l-13.13.28-6.66.11c-2.23.05-4.46,0-6.69.05h-.45v-.45l-.05-11.19v-.5h.51l13.24.06c4.41,0,8.82.12,13.24.17h.27v.27c0,1.9-.09,3.79-.13,5.65Zm0,0-.15-5.65c0-1.87-.11-3.71-.13-5.54l.28.27c-4.42.05-8.83.16-13.24.17l-13.24.06.49-.5-.05,11.19-.44-.45c2.18,0,4.35,0,6.54.06l6.58.11Z"/><path class="cls-1" d="M287.21,134.49l-13.13.28-6.66.11c-2.22.05-4.46,0-6.69.05h-.44v-.45l0-11.19v-.5h.5l13.24.06c4.41,0,8.83.12,13.24.17h.28v.27c0,1.9-.08,3.79-.13,5.65Zm0,0-.14-5.65c-.05-1.87-.11-3.71-.13-5.54l.27.27c-4.41.05-8.83.16-13.24.17l-13.24.06.5-.5-.06,11.19-.44-.45c2.18,0,4.36,0,6.54.06l6.58.11Z"/><path class="cls-1" d="M56.53,168.35l-13.13.28-6.66.11c-2.23,0-4.46,0-6.69.06H29.6v-.45l-.05-11.19v-.5h.51l13.24.07c4.41,0,8.82.11,13.24.16h.27v.27c0,1.9-.09,3.79-.13,5.66Zm0,0-.15-5.65c0-1.87-.11-3.71-.13-5.54l.28.27c-4.42.06-8.83.16-13.24.17l-13.24.06.49-.5-.05,11.19-.44-.44c2.18,0,4.35,0,6.54.05l6.58.11Z"/><path class="cls-1" d="M495.51,120.37l-13.13.28-6.66.11c-2.22,0-4.46,0-6.69.06h-.45v-.45l-.05-11.19v-.5H469l13.24.06c4.41,0,8.82.12,13.24.17h.27v.27c0,1.9-.09,3.79-.13,5.66Zm0,0-.14-5.65c-.05-1.87-.12-3.71-.14-5.54l.28.27c-4.42.06-8.83.16-13.24.17l-13.24.06.5-.5-.06,11.19-.44-.44c2.18,0,4.35,0,6.54,0l6.58.11Z"/><path class="cls-1" d="M648.49,11.69,635.36,12l-6.66.11c-2.23.05-4.46,0-6.69.06h-.45v-.45l0-11.19V0H622l13.24.07c4.41,0,8.82.11,13.24.16h.27V.5c0,1.9-.09,3.79-.13,5.66Zm0,0L648.34,6c0-1.86-.11-3.71-.13-5.54l.28.27c-4.42.06-8.83.16-13.24.17L622,1l.49-.5,0,11.19-.44-.44c2.18,0,4.35,0,6.54.05l6.58.11Z"/><path class="cls-1" d="M663.26,25.8l-13.13.28-6.66.11c-2.22,0-4.46,0-6.69.06h-.45V25.8l-.05-11.19v-.5h.5l13.24.07c4.41,0,8.82.11,13.24.16h.27v.27c0,1.9-.09,3.79-.13,5.66Zm0,0-.14-5.65c0-1.87-.12-3.71-.14-5.54l.28.27c-4.42.06-8.83.16-13.24.17l-13.24.06.5-.5-.06,11.19-.44-.44c2.18,0,4.36,0,6.54.05l6.58.11Z"/><path class="cls-1" d="M27,11.7,13.86,12l-6.66.11c-2.23.05-4.47,0-6.7.06H.06V11.7L0,.51V0H.5L13.74.08c4.42,0,8.83.11,13.24.16h.28V.51c0,1.9-.09,3.79-.14,5.66Zm0,0-.14-5.65c0-1.86-.11-3.7-.13-5.54L27,.79C22.57.84,18.16,1,13.74,1L.5,1,1,.51,1,11.7.5,11.26c2.18,0,4.36,0,6.55.05l6.58.11Z"/></g></g></svg>