<svg xmlns="http://www.w3.org/2000/svg" viewBox="0 0 549.14 329.2"><defs><style>.cls-1{fill:#ebebeb;}.cls-2{fill:#263238;}.cls-14,.cls-3{fill:#dbdbdb;}.cls-4{fill:#37474f;}.cls-5{fill:#ffc727;}.cls-6{fill:#fff;}.cls-7{fill:#ad6359;}.cls-8{fill:#c7c7c7;}.cls-9{fill:#455a64;}.cls-10{fill:#a6a6a6;}.cls-11{fill:#ff98b9;}.cls-12{fill:#050400;}.cls-12,.cls-13{opacity:0.1;}.cls-14{opacity:0.6;}</style></defs><g id="Layer_2" data-name="Layer 2"><g id="Background_Complete" data-name="Background Complete"><path class="cls-1" d="M540,156.44H414.13V.73H540Zm-122.09-3.73H536.22V4.46H417.87Z"/><rect class="cls-1" x="475.18" y="5.44" width="3.73" height="149.13"/><rect class="cls-1" x="410.75" y="8.28" width="132.6" height="5.2"/><rect class="cls-1" x="410.75" y="14.13" width="132.6" height="5.2"/><rect class="cls-1" x="410.75" y="19.97" width="132.6" height="5.2"/><rect class="cls-1" x="410.75" y="25.82" width="132.6" height="5.2"/><rect class="cls-1" x="410.75" y="31.67" width="132.6" height="5.2"/><rect class="cls-1" x="410.75" y="37.52" width="132.6" height="5.2"/><rect class="cls-1" x="410.75" y="43.37" width="132.6" height="5.2"/><rect class="cls-1" x="410.75" y="49.22" width="132.6" height="5.2"/><rect class="cls-1" x="410.75" y="55.07" width="132.6" height="5.2"/><rect class="cls-2" x="531.32" y="7.22" width="0.93" height="81.16"/><polygon class="cls-2" points="533.45 92.73 530.13 92.73 530.96 87.97 532.62 87.97 533.45 92.73"/><rect class="cls-2" x="534.68" y="7.22" width="0.93" height="106.69"/><polygon class="cls-2" points="536.81 117.41 533.49 117.41 534.33 112.65 535.98 112.65 536.81 117.41"/><rect class="cls-3" x="404.95" width="144.18" height="10.88"/></g><g id="Floor"><polygon class="cls-2" points="36.36 251.97 99.69 251.73 163.01 251.64 289.67 251.48 416.32 251.64 479.65 251.73 542.98 251.97 479.65 252.22 416.32 252.31 289.67 252.47 163.01 252.31 99.69 252.22 36.36 251.97"/></g><g id="Shadow"><ellipse class="cls-1" cx="269.69" cy="290.75" rx="269.69" ry="29.77"/></g><g id="Lamp"><rect class="cls-4" x="347" y="257.5" width="41.6" height="4.73"/><rect class="cls-4" x="365.34" y="71.58" width="4.93" height="185.91"/><rect class="cls-2" x="365.34" y="71.58" width="4.93" height="24.98"/><polygon class="cls-5" points="393.9 86.05 341.71 86.05 345.5 73.58 345.63 73.14 356.67 36.87 378.93 36.87 389.98 73.15 389.98 73.16 390.1 73.57 393.9 86.05"/><path class="cls-6" d="M358.52,45.25a.35.35,0,0,1-.35.35.34.34,0,0,1-.35-.35.35.35,0,0,1,.35-.35A.35.35,0,0,1,358.52,45.25Zm6.07-.35a.35.35,0,0,0-.35.35.35.35,0,0,0,.35.35.34.34,0,0,0,.35-.35A.35.35,0,0,0,364.59,44.9Zm6.43,0a.35.35,0,0,0-.35.35.35.35,0,1,0,.7,0A.35.35,0,0,0,371,44.9Zm6.43,0a.35.35,0,0,0-.35.35.34.34,0,0,0,.35.35.35.35,0,0,0,.35-.35A.35.35,0,0,0,377.45,44.9Zm-16.07-4.5a.35.35,0,1,0,.35.35A.35.35,0,0,0,361.38,40.4Zm6.43,0a.35.35,0,0,0,0,.7.35.35,0,1,0,0-.7Zm6.42,0a.35.35,0,1,0,.36.35A.35.35,0,0,0,374.23,40.4ZM351.74,54.25a.35.35,0,0,0-.35.35.35.35,0,0,0,.7,0A.35.35,0,0,0,351.74,54.25Zm6.43,0a.34.34,0,0,0-.35.35.35.35,0,0,0,.35.35.35.35,0,0,0,.35-.35A.35.35,0,0,0,358.17,54.25Zm6.42,0a.35.35,0,0,0-.35.35.35.35,0,0,0,.35.35.35.35,0,0,0,.35-.35A.34.34,0,0,0,364.59,54.25Zm6.43,0a.35.35,0,0,0-.35.35.35.35,0,1,0,.7,0A.35.35,0,0,0,371,54.25Zm6.43,0a.34.34,0,0,0-.35.35.35.35,0,0,0,.35.35.35.35,0,0,0,.35-.35A.35.35,0,0,0,377.45,54.25Zm6.42,0a.35.35,0,0,0-.35.35.36.36,0,0,0,.71,0A.35.35,0,0,0,383.87,54.25ZM355,49.75a.35.35,0,0,0-.35.35.35.35,0,0,0,.35.35.35.35,0,0,0,.35-.35A.34.34,0,0,0,355,49.75Zm6.43,0a.35.35,0,0,0-.35.35.35.35,0,0,0,.7,0A.35.35,0,0,0,361.38,49.75Zm6.43,0a.34.34,0,0,0-.35.35.35.35,0,0,0,.35.35.35.35,0,0,0,.35-.35A.35.35,0,0,0,367.81,49.75Zm6.42,0a.35.35,0,0,0-.35.35.36.36,0,0,0,.71,0A.35.35,0,0,0,374.23,49.75Zm6.43,0a.35.35,0,0,0-.35.35.35.35,0,0,0,.7,0A.35.35,0,0,0,380.66,49.75ZM351.74,63.59a.35.35,0,0,0-.35.35.35.35,0,0,0,.7,0A.35.35,0,0,0,351.74,63.59Zm6.43,0a.35.35,0,0,0-.35.35.34.34,0,0,0,.35.35.35.35,0,0,0,.35-.35A.35.35,0,0,0,358.17,63.59Zm6.42,0a.35.35,0,0,0-.35.35.35.35,0,0,0,.35.35.34.34,0,0,0,.35-.35A.35.35,0,0,0,364.59,63.59Zm6.43,0a.35.35,0,0,0-.35.35.35.35,0,1,0,.7,0A.35.35,0,0,0,371,63.59Zm6.43,0a.35.35,0,0,0-.35.35.34.34,0,0,0,.35.35.35.35,0,0,0,.35-.35A.35.35,0,0,0,377.45,63.59Zm6.42,0a.35.35,0,0,0-.35.35.36.36,0,0,0,.71,0A.36.36,0,0,0,383.87,63.59ZM355,59.09a.35.35,0,0,0-.35.35.35.35,0,0,0,.35.35.34.34,0,0,0,.35-.35A.35.35,0,0,0,355,59.09Zm6.43,0a.35.35,0,0,0-.35.35.35.35,0,0,0,.7,0A.35.35,0,0,0,361.38,59.09Zm6.43,0a.35.35,0,0,0-.35.35.34.34,0,0,0,.35.35.35.35,0,0,0,.35-.35A.35.35,0,0,0,367.81,59.09Zm6.42,0a.35.35,0,0,0-.35.35.36.36,0,0,0,.71,0A.36.36,0,0,0,374.23,59.09Zm6.43,0a.35.35,0,0,0-.35.35.35.35,0,0,0,.7,0A.35.35,0,0,0,380.66,59.09Zm-35,14-.13.44a.34.34,0,0,0,.17-.3A.27.27,0,0,0,345.63,73.14Zm6.11-.2a.35.35,0,0,0-.35.35.35.35,0,1,0,.7,0A.35.35,0,0,0,351.74,72.94Zm6.43,0a.34.34,0,0,0-.35.35.35.35,0,0,0,.35.35.35.35,0,0,0,.35-.35A.35.35,0,0,0,358.17,72.94Zm6.42,0a.35.35,0,0,0-.35.35.35.35,0,0,0,.35.35.35.35,0,0,0,.35-.35A.34.34,0,0,0,364.59,72.94Zm6.43,0a.35.35,0,0,0-.35.35.35.35,0,0,0,.7,0A.35.35,0,0,0,371,72.94Zm6.43,0a.34.34,0,0,0-.35.35.35.35,0,0,0,.35.35.35.35,0,0,0,.35-.35A.35.35,0,0,0,377.45,72.94Zm6.42,0a.35.35,0,0,0-.35.35.36.36,0,0,0,.71,0A.35.35,0,0,0,383.87,72.94Zm6.11.21a.31.31,0,0,0,0,.13.35.35,0,0,0,.15.29Zm-41.45-4.71a.34.34,0,0,0-.35.35.35.35,0,0,0,.35.35.35.35,0,0,0,.35-.35A.35.35,0,0,0,348.53,68.44Zm6.42,0a.35.35,0,0,0-.35.35.35.35,0,0,0,.35.35.35.35,0,0,0,.35-.35A.34.34,0,0,0,355,68.44Zm6.43,0a.35.35,0,0,0-.35.35.35.35,0,0,0,.7,0A.35.35,0,0,0,361.38,68.44Zm6.43,0a.34.34,0,0,0-.35.35.35.35,0,0,0,.35.35.35.35,0,0,0,.35-.35A.35.35,0,0,0,367.81,68.44Zm6.42,0a.35.35,0,0,0-.35.35.36.36,0,0,0,.71,0A.35.35,0,0,0,374.23,68.44Zm6.43,0a.35.35,0,0,0-.35.35.35.35,0,1,0,.7,0A.35.35,0,0,0,380.66,68.44Zm6.43,0a.34.34,0,0,0-.35.35.35.35,0,0,0,.35.35.35.35,0,0,0,.35-.35A.35.35,0,0,0,387.09,68.44ZM345.31,82.28a.35.35,0,0,0-.35.35.35.35,0,0,0,.35.35.34.34,0,0,0,.35-.35A.35.35,0,0,0,345.31,82.28Zm6.43,0a.35.35,0,0,0-.35.35.35.35,0,0,0,.7,0A.35.35,0,0,0,351.74,82.28Zm6.43,0a.35.35,0,0,0-.35.35.34.34,0,0,0,.35.35.35.35,0,0,0,.35-.35A.35.35,0,0,0,358.17,82.28Zm6.42,0a.35.35,0,0,0-.35.35.35.35,0,0,0,.35.35.34.34,0,0,0,.35-.35A.35.35,0,0,0,364.59,82.28Zm6.43,0a.35.35,0,0,0-.35.35.35.35,0,1,0,.7,0A.35.35,0,0,0,371,82.28Zm6.43,0a.35.35,0,0,0-.35.35.34.34,0,0,0,.35.35.35.35,0,0,0,.35-.35A.35.35,0,0,0,377.45,82.28Zm6.42,0a.35.35,0,0,0-.35.35.36.36,0,0,0,.71,0A.36.36,0,0,0,383.87,82.28Zm6.43,0a.35.35,0,0,0-.35.35.35.35,0,0,0,.35.35.34.34,0,0,0,.35-.35A.35.35,0,0,0,390.3,82.28Zm-41.77-4.5a.35.35,0,0,0-.35.35.34.34,0,0,0,.35.35.35.35,0,0,0,.35-.35A.35.35,0,0,0,348.53,77.78Zm6.42,0a.35.35,0,0,0-.35.35.35.35,0,0,0,.35.35.34.34,0,0,0,.35-.35A.35.35,0,0,0,355,77.78Zm6.43,0a.35.35,0,0,0-.35.35.35.35,0,1,0,.7,0A.35.35,0,0,0,361.38,77.78Zm6.43,0a.35.35,0,0,0-.35.35.34.34,0,0,0,.35.35.35.35,0,0,0,.35-.35A.35.35,0,0,0,367.81,77.78Zm6.42,0a.35.35,0,0,0-.35.35.36.36,0,0,0,.71,0A.36.36,0,0,0,374.23,77.78Zm6.43,0a.35.35,0,0,0-.35.35.35.35,0,0,0,.7,0A.35.35,0,0,0,380.66,77.78Zm6.43,0a.35.35,0,0,0-.35.35.34.34,0,0,0,.35.35.35.35,0,0,0,.35-.35A.35.35,0,0,0,387.09,77.78Z"/></g><g id="Plant"><path class="cls-2" d="M254,185.54a68.78,68.78,0,0,1,1.59-11.17,24.78,24.78,0,0,1,4-9.42,12,12,0,0,1,7.82-4.87,10.9,10.9,0,0,1,8.23,2.92,39.57,39.57,0,0,1,7.05,8.62,107,107,0,0,1,6.09,10.66c.06.12-.12.23-.18.11a66.79,66.79,0,0,0-5.45-8.93,56.94,56.94,0,0,0-6.27-7.59c-2.11-2.05-4.78-4-7.82-4.07a9.61,9.61,0,0,0-7.66,3.94,23.58,23.58,0,0,0-3.85,9A67,67,0,0,0,256,185.42c-.6,7.36-.76,14.76-.93,22.13q-.14,6.27-.19,12.53c0,2.11,0,4.23,0,6.34a40.27,40.27,0,0,1-.24,6.12c-.07.41-.75.37-.81,0a35.12,35.12,0,0,1-.28-5.8c0-2-.06-4-.08-6,0-3.9-.05-7.8,0-11.7C253.41,201.19,253.51,193.34,254,185.54Z"/><path class="cls-5" d="M264.55,180a17,17,0,0,1,2.28-6.4c2.13-2.9,4.43-1.64,2.3,1.57a19.24,19.24,0,0,0-3,7.9s3.58,5.12,7.9,7.63a33.91,33.91,0,0,1-.35-7.9c.83-6.32,4.65-6,3.7-.95a43.14,43.14,0,0,0-.86,10.15,21.18,21.18,0,0,0,4.61,2.26c-.24-.73-.51-1.61-.8-2.67-1.53-5.66,2.25-7.43,2.37-4.25a43.92,43.92,0,0,0,1.47,8c2.07.69,3.79,1.17,4.84,1.54a17.66,17.66,0,0,1,7.08,4.84,22.34,22.34,0,0,0,4.83-6.25c-1.32-1.13-3.41-2.82-6.31-4.86-5.43-3.84-3.54-8.68.77-5.67,3.11,2.17,5.51,6.2,6.61,8.26a33.79,33.79,0,0,0,2.46-11.3c-4.27-4-14.81-9.59-11.63-9.59,2.86,0,9.26,4.2,11.61,5.82-.07-1.13-.19-2.23-.36-3.29-4-2.63-17.07-6.73-15-7.9,2.28-1.3,11.39,2.92,14.14,4.25a16.44,16.44,0,0,0-2.41-5c-5.55-7.43-15.56-10-19.93-8.58-3.09,1-2.18,8.84-2.85,8.58C265.63,161.23,260,164.76,264.55,180Zm30.43-.86c.88-1.06,4.95,2.07,3.77,3.78S293.84,180.49,295,179.13Zm-21.29-6.69c1.07.69-.51,4.65-2.16,3.45C270.12,174.86,272.61,171.76,273.69,172.44Z"/><path class="cls-2" d="M275.32,173.66c.56-1.11,1.14-2.21,1.78-3.28a19.6,19.6,0,0,1,2-3c-.17-.22-.35-.44-.53-.65s.06-.21.13-.13l.61.72a.24.24,0,0,1,.09.11c.76.92,1.49,1.86,2.18,2.83a35.16,35.16,0,0,1,3.6,1c1.22.41,2.42.83,3.61,1.33.12.06.06.26-.06.2-1.18-.51-2.37-1-3.58-1.43s-2.32-.68-3.48-1c.38.53.75,1.07,1.1,1.62a43.1,43.1,0,0,1,6.38,2.6c2.15,1,4.23,2.21,6.29,3.4a.11.11,0,0,1-.11.18,69.91,69.91,0,0,0-6.26-3.24c-2-.93-4.06-1.7-6.07-2.59,5.06,7.91,8.11,17,12.17,25.49.06.12-.13.23-.19.1-1.24-3-2.66-5.85-4-8.76-1.21-2.62-2.39-5.25-3.61-7.87-.35-.77-.72-1.53-1.09-2.29.22,4.22.13,8.52.82,12.7a.1.1,0,1,1-.2,0c-.3-4.52-1.09-9-1.06-13.5,0,0,0,0,0-.06q-1.29-2.59-2.77-5.09c-1.68,4-3.45,8-4.23,12.22,0,.13-.24.07-.2-.06,1.14-4.26,2.2-8.52,4.25-12.45a48.18,48.18,0,0,0-3.57-5.15c-.56,1.05-1.29,2-1.93,3.05s-1.24,2-1.81,3a41.84,41.84,0,0,0-3.17,6.7c-.05.13-.26.06-.21-.06C273.23,178.11,274.21,175.84,275.32,173.66Z"/><path class="cls-2" d="M235.36,183.28c3.26-3.27,7-7.55,12.06-7.54,4.85,0,8.43,3.92,10.48,7.95,2.14,4.21,2.91,9,3.52,13.62a164.93,164.93,0,0,1,1.28,16.76c.09,3.11.08,6.23,0,9.34a60.6,60.6,0,0,1-.71,9.42c-.09.5-.9.52-.93,0-.14-2.62,0-5.26,0-7.88s0-5.16-.12-7.74c-.2-5.22-.58-10.43-1.19-15.62-.53-4.53-1-9.19-2.31-13.57-1.23-3.95-3.52-8.46-7.52-10.2-5.46-2.37-10.8,2-14.38,5.61C235.43,183.51,235.27,183.37,235.36,183.28Z"/><path class="cls-5" d="M218.77,190.57h0c0,.67.06,1.33.11,2a11.87,11.87,0,0,1,5.33-2.21c4.61-.49,4.32,3,1.23,3.17a17.51,17.51,0,0,0-6.33,1.27c.75,6.1,2.43,11,2.68,11.06a88,88,0,0,0,12.2-1.54c-1.15-2.45-3.76-5.7-2.43-6s2.79,2.63,3.53,5.74a59.35,59.35,0,0,0,8.87-2.44c-2-1.76-5.17-3.95-4-4.88s3.69,2.15,5.18,4.39A18.41,18.41,0,0,0,249,199c-2.74-4-9.41-4.84-8.54-7.74s7.11,1.12,9.91,6.5c3.29-3.41,4.26-8.24,3.91-12.37-2.87-.33-8.38.28-8-1.78s4.38-1.67,7.64-.47a11.44,11.44,0,0,0-1.91-4.53c-3-3.88-12.24,1-12.24,1s1-9.26-2.52-10.86c-2-.92-5.6-.91-9.19,1.2,2,.16,4.44.8,5.42,2.2,1.25,1.78-.72,2.75-2,1.92-.88-.58-2.53-2.41-5.5-2.65a17.71,17.71,0,0,0-3.33,3.68,17.42,17.42,0,0,0-1,1.53,12.66,12.66,0,0,1,10.79.2c4,2,1.76,6.13-1.68,4.52s-6.71-3.2-10.35-2.29a25.77,25.77,0,0,0-1.75,10.33,18.18,18.18,0,0,1,5.91-2.84c4-1,5.18,1.33.81,1.78A17.29,17.29,0,0,0,218.77,190.57Zm4.83-6.38c-.27-1.29,2.54-1.66,3-.61C227,184.47,223.87,185.48,223.6,184.19Zm24.1,7.13c.27-.71,2.15.09,2,1C249.45,193.46,247.44,192,247.7,191.32Zm-13.3,4.51c1.37-.55,3.51,2.87,2,3.65S233.27,196.28,234.4,195.83Z"/><path class="cls-2" d="M222.33,205.13c2.07-3.46,4.12-6.94,6.29-10.34q1.51-2.37,3.17-4.65l-.49-.12-.82-.16q-1-.17-1.92-.27c-.61-.06-1.21-.09-1.82-.1a9,9,0,0,0-1.94.1c-.08,0-.09-.1,0-.1.65,0,1.31-.06,2-.07s1.26,0,1.88.05a17.69,17.69,0,0,1,1.77.18l1,.17c.19,0,.39.06.58.12,1.12-1.54,2.29-3.05,3.49-4.53a41.52,41.52,0,0,0-11.33-3.62c-.07,0,0-.11,0-.1a38.2,38.2,0,0,1,11.5,3.49l2-2.43c.75-.9,1.55-1.78,2.22-2.74a.06.06,0,1,1,.09.07,40.82,40.82,0,0,0-2.63,3.21h0a39.17,39.17,0,0,1,4.21,3.38q2.07,1.83,4,3.78a.05.05,0,0,1-.07.08q-1.93-1.93-4-3.67c-1.4-1.17-2.87-2.23-4.28-3.39,0,0,0,0,0,0l-1,1.27c-.17.21-.33.43-.49.64a.08.08,0,0,1,0,0l-1.6,2.11a17.7,17.7,0,0,1,1.6,2.89c.46,1,.86,2,1.24,3a43.67,43.67,0,0,1,1.72,6.49c0,.06-.09.09-.1,0a37.78,37.78,0,0,0-1.88-6.36c-.4-1.06-.86-2.09-1.34-3.12s-.95-1.84-1.35-2.78c-.46.61-.93,1.23-1.38,1.86l-.39.55s0,.09,0,.09h0c-1.43,2-2.78,4-4.1,6.08a1.63,1.63,0,0,1,.18.45c.09.24.17.5.24.75a13.75,13.75,0,0,1,.36,1.54q.13.73.21,1.47a13.28,13.28,0,0,0,.12,1.68c0,.08-.11.09-.1,0a5.86,5.86,0,0,0-.11-1.56q-.12-.81-.3-1.59c-.11-.48-.24-1-.38-1.42-.07-.23-.15-.47-.23-.7s-.1-.25-.14-.38c-.62,1-1.23,1.93-1.83,2.91l-3.56,5.82C222.43,205.31,222.27,205.23,222.33,205.13Z"/><path class="cls-2" d="M254.26,231.71c.05-2,.36-3.94.57-5.89s.44-3.92.65-5.88A88.23,88.23,0,0,1,257,208.6a16.51,16.51,0,0,1,4.62-8.48,7.49,7.49,0,0,1,4.52-2.16,7.77,7.77,0,0,1,4.81,1.48,16.72,16.72,0,0,1,4,4.26,41.26,41.26,0,0,1,3.15,5.11c0,.07-.07.11-.11.05a26.33,26.33,0,0,0-6.81-7.64,8.07,8.07,0,0,0-4.3-1.79,5.84,5.84,0,0,0-4.17,1.66,15.67,15.67,0,0,0-4.4,7.79,78.64,78.64,0,0,0-1.7,10.48c-.28,2.07-.54,4.15-.82,6.22s-.44,4.19-.88,6.22A.34.34,0,0,1,254.26,231.71Z"/><path class="cls-5" d="M263.91,216.48a10.64,10.64,0,0,0,2.13,2.17c-.32-1.91-.71-5.31.25-7.12,1.5-2.81,3.28-1.41,2.39,1a20,20,0,0,0-1.45,6.94,30.1,30.1,0,0,0,6.52,3.07,10.83,10.83,0,0,1-.22-3.36c.3-3,2.6-3,2,.18a18.87,18.87,0,0,0-.32,3.68,68.65,68.65,0,0,0,10.15,2.29,29.73,29.73,0,0,0,4.21-7.49c-2.45-.61-7.4-.75-7.3-2.5.14-2.35,4.94-.54,7.75,1.17a18.93,18.93,0,0,0,.85-6.33,31.4,31.4,0,0,0-6.75-1.12c-5-.44-4.79-3.29-1.14-3.23,2.69,0,6.1,1.7,7.72,2.56-1.06-6.85-6.28-11.25-10.48-11.41-7-.29-4.51,8.48-4.51,8.48s-4.77-3.36-9.28-3.27S259.09,209.77,263.91,216.48Zm18.82-12.68c-.16-1,3-1.23,3.15,0S282.89,204.8,282.73,203.8Zm5.06,10.29c-.07-.65,1.29-.76,1.6,0C289.59,214.67,287.84,214.72,287.79,214.09Zm-16.92.6c1.06.15,1.66,3.94-.17,3.87C269.31,218.5,270,214.56,270.87,214.69Z"/><path class="cls-2" d="M272.34,218.9c.17-.47.33-1,.48-1.43-.14.49-.26,1-.35,1.47A.07.07,0,1,1,272.34,218.9Z"/><path class="cls-2" d="M274.2,212.8c.33-1,.7-1.94,1.08-2.89.2-.51.41-1,.63-1.52a6.53,6.53,0,0,1,.63-1.27,8.53,8.53,0,0,1-.57-1.23,0,0,0,0,1,.06,0,14.92,14.92,0,0,1,1.38,2.13l.57,1a9.33,9.33,0,0,1,1.18.18c.43.08.85.16,1.27.26l1.25.29c.42.1.83.24,1.25.3.1,0,.06.17,0,.13a7.53,7.53,0,0,0-1.32-.34c-.41-.09-.81-.16-1.22-.22s-.82-.11-1.23-.15l-.93-.08c.16.3.34.59.5.89,0,.05.05.1.08.14a4.29,4.29,0,0,1,1,.12l1.09.22c.73.16,1.46.33,2.19.54,1.52.42,3,.91,4.54,1.4.08,0,0,.16-.06.13a44.43,44.43,0,0,0-4.55-1.27c-.72-.16-1.44-.33-2.17-.48l-1.08-.23a8,8,0,0,1-.85-.18q1.17,2.15,2.18,4.37c1.46,3.23,2.69,6.57,3.95,9.88,0,.09-.1.14-.13.06a89.94,89.94,0,0,0-4.2-9.67l-.85-1.71c0,.12-.06.23-.08.35l-.21,1.18c-.13.78-.26,1.57-.38,2.36a27.88,27.88,0,0,0-.57,4.89.07.07,0,1,1-.13,0c.12-.78.12-1.59.17-2.38s.11-1.65.21-2.47.19-1.58.32-2.37l.21-1.18a2.48,2.48,0,0,1,.22-.85c-.41-.83-.82-1.66-1.24-2.48s-.79-1.55-1.19-2.32l-.53-1a10,10,0,0,1-.47,1.18c-.18.45-.36.89-.55,1.34-.4,1-.78,2-1.15,3-.53,1.41-1.12,2.85-1.56,4.32C273.35,215.69,273.71,214.22,274.2,212.8Z"/><path class="cls-2" d="M272.82,217.47a3.37,3.37,0,0,1,.1-.34A3.37,3.37,0,0,0,272.82,217.47Z"/><polygon class="cls-4" points="242.47 227.89 242.97 238.38 244.25 265.42 272.14 265.42 273.42 238.38 273.91 227.89 242.47 227.89"/><polygon class="cls-2" points="242.47 227.89 242.97 238.38 273.42 238.38 273.91 227.89 242.47 227.89"/><rect class="cls-4" x="240.49" y="223.65" width="35.4" height="8.48" transform="translate(516.38 455.79) rotate(180)"/><rect class="cls-4" x="264.98" y="265.42" width="4.9" height="4.44"/><rect class="cls-2" x="264.98" y="265.42" width="4.9" height="2.22"/><rect class="cls-4" x="246.5" y="265.42" width="4.89" height="4.44"/><rect class="cls-2" x="246.5" y="265.42" width="4.89" height="2.22"/></g><g id="Character_2" data-name="Character 2"><path class="cls-2" d="M455.9,83.22c-7.82,12.76-.44,25.3-2.59,34.09-1.31,5.38-8.78,13-8.89,18.76-.2,9.43,8,10.16,7.86,15.29-.17,7.27-9.08,9.59-7.21,20.79S462.39,190.92,491.3,185s40.95-21.11,39-30.5-12.19-9.42-15-16c-1.8-4.19,3-9.06.67-17.12s-10.88-8.14-14.17-14.55-5-24-17.68-29.18S459.75,76.93,455.9,83.22Z"/><path class="cls-2" d="M457.23,83.06a24.12,24.12,0,0,0-4.5,10.6,52.94,52.94,0,0,0-.45,12.26,32.13,32.13,0,0,1,0,7.27A17.87,17.87,0,0,1,450,119c-2.14,3.7-5.07,6.94-6.79,10.89-1.63,3.74-2.37,8.27-.07,11.9,1.26,2,3.24,3.27,4.78,5s2.55,3.89,1.43,6c-1,1.8-2.79,3.07-4,4.69a18.3,18.3,0,0,0-2.8,5.27,14.34,14.34,0,0,0,.9,11.57c4.44,8.15,14.19,10.46,22.71,11.14l3.57.25c.19,0,.25-.26.06-.28-8.64-.94-18.68-2.08-24.31-9.58a13.43,13.43,0,0,1-2.32-11.63,16.8,16.8,0,0,1,2.64-5.49c1.15-1.61,2.68-2.86,3.88-4.43a5.36,5.36,0,0,0,.89-5.35,13.12,13.12,0,0,0-3.87-4.88,10.9,10.9,0,0,1-3.67-5.27,11.86,11.86,0,0,1,.44-6.3c1.27-4.09,4-7.4,6.35-10.92s3.88-7.29,3.76-11.6c-.07-2.17-.37-4.34-.52-6.51a55.72,55.72,0,0,1-.12-6.06,27.71,27.71,0,0,1,2.76-11.63,15.85,15.85,0,0,1,1.7-2.64C457.44,83.09,457.3,83,457.23,83.06Z"/><path class="cls-2" d="M529.41,147.42a11.08,11.08,0,0,0-3.24-3.44c-1.37-.91-2.88-1.57-4.32-2.36a8.3,8.3,0,0,1-3.5-3c-.94-1.67-.74-3.63-.4-5.43a40.37,40.37,0,0,0,.93-5.67,18.56,18.56,0,0,0-.62-5.55,18.83,18.83,0,0,0-6.16-9.48c-1.46-1.25-3-2.38-4.47-3.62a23.56,23.56,0,0,1-4.23-4.63c-2.61-3.79-4.32-8.14-6.72-12.07a70.4,70.4,0,0,0-8.62-11.2c-.08-.08-.2.06-.12.14a61.63,61.63,0,0,1,7.66,10.16c2.09,3.45,3.66,7.15,5.54,10.71a30.42,30.42,0,0,0,3.17,5,30.73,30.73,0,0,0,3.93,3.89c2.88,2.46,5.81,4.87,7.51,8.35a18,18,0,0,1,1.58,11c-.57,3.25-1.64,7,.69,9.81,2,2.4,5.13,3.2,7.61,4.92a11.59,11.59,0,0,1,4.74,8.21c1,8.3-5.56,14.71-12.77,17.47a.19.19,0,0,0,.13.35c6.35-2.13,12.38-7.18,13.44-14.11A14.17,14.17,0,0,0,529.41,147.42Z"/><path class="cls-7" d="M509.76,324.38c-.89-2.93-49.17-70.57-52.64-72-1.31-.55-3.87-2.59-16,5.56l-25.69-22.53-14.58,47.65,63.56,27.08s30.06,17.63,34,18.78S510.66,327.31,509.76,324.38Z"/><path class="cls-7" d="M509.76,324.38c-.89-2.93-49.17-70.57-52.64-72-1.31-.55-3.87-2.59-16,5.56l-25.69-22.53-14.58,47.65,63.56,27.08s30.06,17.63,34,18.78S510.66,327.31,509.76,324.38Z"/><path class="cls-8" d="M438.48,299.13l25.88,11s30.07,17.62,34,18.77,12.26-1.63,11.36-4.55-49.17-70.57-52.63-72c-1.32-.55-3.87-2.59-16.05,5.56l-2.71-2.39Z"/><path class="cls-2" d="M444.16,299.31a15.33,15.33,0,0,0-2.29-2.59,14.9,14.9,0,0,0-2.76-2.08,17.23,17.23,0,0,0,5.05,4.67Z"/><path class="cls-2" d="M444.22,294.79a17.23,17.23,0,0,0-5.05-4.67,14.91,14.91,0,0,0,2.29,2.59A15.36,15.36,0,0,0,444.22,294.79Z"/><path class="cls-2" d="M444.27,290.28a14.55,14.55,0,0,0-2.29-2.59,15.41,15.41,0,0,0-2.76-2.09,15.38,15.38,0,0,0,2.29,2.59A15.77,15.77,0,0,0,444.27,290.28Z"/><path class="cls-2" d="M444.33,285.76a15.78,15.78,0,0,0-2.29-2.59,15.36,15.36,0,0,0-2.76-2.08,14.91,14.91,0,0,0,2.29,2.59A15.36,15.36,0,0,0,444.33,285.76Z"/><path class="cls-2" d="M444.38,281.25a15,15,0,0,0-2.29-2.6,15.36,15.36,0,0,0-2.76-2.08,15.38,15.38,0,0,0,2.29,2.59A15.77,15.77,0,0,0,444.38,281.25Z"/><path class="cls-2" d="M444.44,276.73a15.78,15.78,0,0,0-2.29-2.59,14.9,14.9,0,0,0-2.76-2.08,14.91,14.91,0,0,0,2.29,2.59A15.36,15.36,0,0,0,444.44,276.73Z"/><path class="cls-2" d="M444.49,272.21a14.91,14.91,0,0,0-2.29-2.59,15.36,15.36,0,0,0-2.76-2.08,17.23,17.23,0,0,0,5.05,4.67Z"/><path class="cls-2" d="M444.55,267.7A17.44,17.44,0,0,0,439.5,263a14.55,14.55,0,0,0,2.29,2.59A15,15,0,0,0,444.55,267.7Z"/><path class="cls-2" d="M444.6,263.18a17.23,17.23,0,0,0-5.05-4.67,17.23,17.23,0,0,0,5.05,4.67Z"/><path class="cls-9" d="M316,231.14C323.83,252.57,432.09,302,432.09,302l18.34-56.93-49.71-21.19L506,208.45l-53.74-20.06s-10.2,4.32-17.72,2.14c-3.34-1-74.29-10.79-88.08-7.35C316,190.76,308.87,211.47,316,231.14Z"/><path class="cls-2" d="M375.94,210.9a54,54,0,0,1,6.12,3c2.11,1.07,4.24,2.1,6.35,3.17l.07,0-1.42-1.15c-1.63-1.29-3.13-2.71-4.88-3.85a.1.1,0,0,1,.11-.17c1.77,1.12,3.66,2.08,5.32,3.35.79.6,1.55,1.21,2.3,1.86.41.35.83.7,1.22,1.07a6.88,6.88,0,0,1,.55.53c1,.51,1.92,1,2.86,1.55,2.1,1.18,4.1,2.53,6.21,3.69.11.06,0,.23-.11.17-2.07-1-4.24-1.91-6.32-2.93s-4.19-2.16-6.26-3.3-4-2.26-6-3.38a56.29,56.29,0,0,1-6.15-3.49C375.82,211,375.86,210.87,375.94,210.9Z"/><path class="cls-2" d="M426.13,288.35c.46-1.62.94-3.24,1.42-4.85,1-3.23,1.93-6.45,2.91-9.67,2-6.4,3.93-12.8,6-19.16,1.19-3.6,2.38-7.21,3.72-10.75a.17.17,0,0,1,.33.1c-1.63,6.53-3.67,13-5.69,19.38s-4.08,12.76-6.17,19.12c-.59,1.78-1.17,3.57-1.78,5.34s-1.33,3.6-1.94,5.41c0,.09-.17.05-.14,0C425.29,291.61,425.67,290,426.13,288.35Z"/><path class="cls-7" d="M483.62,138.07c-10,19.58-26.21,42-31.45,45-6.62,3.77-44.29,4.22-46.1,4-4.47-.66-5.27-34.25-.46-33.75,7.33.77,33.38,5.87,35.32,4.68s16.31-12.18,31.37-24.82C482.7,124.38,489.84,125.93,483.62,138.07Z"/><path class="cls-7" d="M410,186.2c-.59.13-8.9,2-13.8,2.14-3.65.13-14.17.21-14.71-3.8-.37-2.73,5.81-3.51,10.17-4.15,2.3-.34,5.41-1.87,5.13-3.36-.48-2.61-6.42-1.61-10.45-.46-7.8,2.23-18.66,7.05-21.94,2.55-1.24-1.7,1.19-3.61,4.44-5.27-5,1.62-10.19,2.68-11.64.85-.84-1-.61-2.14.27-3.23a3.14,3.14,0,0,1-3.21-1.36c-1-1.83.2-3.83,2.31-5.67a1.76,1.76,0,0,1-1.07-1.16c-1.83-5.3,16.38-14.57,21.85-14.49,16.08.23,31.9,5,31.9,5C414,160,410,186.19,410,186.2Z"/><path class="cls-2" d="M391.22,166.58a26.71,26.71,0,0,0-11.11,1.34c-4.49,1.57-7.79,3.89-11.77,6.07-.11.06,0,.22.08.16,1.9-1,9.62-4.77,11.58-5.56a25.2,25.2,0,0,1,11.21-1.94A0,0,0,0,0,391.22,166.58Z"/><path class="cls-2" d="M390,159.43a63.17,63.17,0,0,0-12.81,1.1c-4.57,1-8.59,3.61-12.53,6.06q-3.54,2.21-7,4.57c-.09.06,0,.23.09.16q6-3.81,12.25-7.27A33.47,33.47,0,0,1,382.48,160c2.5-.29,5-.4,7.53-.49C390.06,159.5,390.07,159.43,390,159.43Z"/><path class="cls-2" d="M387.18,152.72c-4.07-.18-7.63-.35-11.58.85-5.24,1.6-10.8,5.13-12.75,6.38-2.16,1.38-4.27,2.84-6.35,4.32a.1.1,0,0,0,.1.16,130.52,130.52,0,0,1,14.78-8.72,26.59,26.59,0,0,1,7.7-2.63,47.62,47.62,0,0,1,8.1-.33S387.2,152.73,387.18,152.72Z"/><path class="cls-5" d="M469.16,166.73l-11.83-25.11a179.11,179.11,0,0,1,17.39-12.36c10.23-6.41,15.23-2.91,9.13,12.18A103.45,103.45,0,0,1,469.16,166.73Z"/><path class="cls-2" d="M461,139.89c1.09,1.76,1.92,3.7,2.85,5.54s1.79,3.52,2.63,5.31q2.61,5.56,5,11.23c0,.07-.08.12-.11.06q-2.77-5.42-5.4-10.89c-.87-1.82-1.69-3.66-2.51-5.5s-1.84-3.74-2.54-5.69A.06.06,0,0,1,461,139.89Z"/><path class="cls-5" d="M527.69,218.64c-2.53,1-76.79-16.52-76.79-16.52l7.36-25.85s-4.68-8-3.09-15.91c2.11-10.64,20.68-28.89,22.15-30,5.93-4.37,11.32-5.22,16.53-2.78C515.58,137.78,527.69,218.64,527.69,218.64Z"/><path class="cls-2" d="M467.74,140c-1.77,2.29-3.69,4.48-5.53,6.72.83-1.64,1.65-3.3,2.54-4.91,0,0,0-.07-.05,0a36.52,36.52,0,0,0-3.41,6.1,50.08,50.08,0,0,0-3.78,5.35,23.11,23.11,0,0,0-3,7.26,19.4,19.4,0,0,0,.17,7.85,50.64,50.64,0,0,0,2.91,8.63c.16.37.68.11.56-.26-1.63-4.89-3.45-10.05-2.61-15.28s3.82-9.68,6.73-13.9a72,72,0,0,1,5.6-7.41C468,140.06,467.82,139.94,467.74,140Z"/><rect class="cls-8" x="347.68" y="184.73" width="81.22" height="3.64"/><polygon class="cls-10" points="347.68 184.73 347.68 188.37 402.89 188.37 400.11 184.73 347.68 184.73"/><polygon class="cls-8" points="396.61 188.37 317.44 188.37 310.85 134.61 390.01 134.61 396.61 188.37"/><path class="cls-6" d="M358.55,161.49a4.72,4.72,0,0,1-4.74,4.82,4.92,4.92,0,0,1-4.9-4.82,4.72,4.72,0,0,1,4.74-4.82A4.92,4.92,0,0,1,358.55,161.49Z"/><path class="cls-7" d="M503.42,137.76c8.68,14.45,26.23,63.52,16,70.41s-56.73-12.8-69.24-21.64c-3.71-2.63,16-25.24,20.92-25,4.05.19,21.85,12.47,22.64,11.4s-1.14-11.22-3-29.68C488.69,122,498.44,129.45,503.42,137.76Z"/><path class="cls-7" d="M452.41,149.89c-9.61-3.07-12.55-2.38-19.28-9.29-4.42-4.52-9.21-3.65-7.33,2.66,3.07,10.32,14.64,16.89,19.3,18Z"/><path class="cls-7" d="M476.93,163.9s-10-8.06-19.92-12.35c-6.86-3-22.5-7.76-40.53,5.38-4.28,3.12-8.16,10.59.67,8,6.28-1.82,9.71-4.86,13.55-5.25,0,0-3.81,10.09-.53,14.25a97.57,97.57,0,0,0,9.37,10.26,20.15,20.15,0,0,0,2.08-1.58s3.44,3.6,11,4.18Z"/><path class="cls-7" d="M450,149.76c-3.73,1.2-11.59,3.86-17.27,8.27-6.3,4.91-17.13,16.05-13.46,20.67,2.69,3.38,7.2-.51,7.2-.51s-3.51,5.55-.41,8.08c2.82,2.3,6.13-.92,6.13-.92s-1.55,3.73,1.6,5.43c3.79,2,6.4-6.12,12-7.37C447.08,183.13,450,149.76,450,149.76Z"/><path class="cls-2" d="M439,163.83c-3.32,1.7-9.88,7.49-12.58,14.2-.06.15,0,.28.11.15a78.17,78.17,0,0,1,12.52-14.29S439.07,163.81,439,163.83Z"/><path class="cls-2" d="M443.8,170.34c-2.72,1.76-9.22,8-11.72,14.92-.05.16,0,.28.12.15a83.67,83.67,0,0,1,11.65-15S443.83,170.32,443.8,170.34Z"/><path class="cls-2" d="M430.71,159.65c-3.37.39-5.73,1.61-8.77,3a44.78,44.78,0,0,1-4.59,1.9c-1.43.48-3.54,1.22-4.74-.13a2.67,2.67,0,0,1-.14-2.72,13.17,13.17,0,0,1,2.4-3.35s0-.1-.07-.07a19.22,19.22,0,0,0-2.49,2.92,4.34,4.34,0,0,0-.72,2.46c.17,1.85,2.21,2.44,3.77,2.21a14.31,14.31,0,0,0,2.74-.78c.86-.32,1.7-.67,2.53-1,1.7-.77,3.36-1.63,5.05-2.42a41.54,41.54,0,0,1,5.06-1.88C430.8,159.75,430.77,159.64,430.71,159.65Z"/><path class="cls-2" d="M422,169.78a103.26,103.26,0,0,1,8.73-10,0,0,0,1,0-.06-.07c-2.91,1.93-8,7.54-9.3,9.39s-2.78,4.2-3.16,6.43c-.58,3.35,1.53,4.37,2.32,4.68a4.43,4.43,0,0,0,2.94,0,9,9,0,0,0,3-2,.05.05,0,0,0-.06-.08c-1.39,1.12-3.55,2.09-5.33,1.54a3.1,3.1,0,0,1-1.88-1.48,4.05,4.05,0,0,1-.07-2.79A19,19,0,0,1,422,169.78Z"/><path class="cls-5" d="M517.79,164l-27.51-3.63a178.28,178.28,0,0,1-1-21.32c.14-12.07,5.8-14.38,15.18-1.09A103.11,103.11,0,0,1,517.79,164Z"/><path class="cls-2" d="M490.81,156.33c2.07,0,4.14.39,6.2.6s3.93.4,5.89.66c4.06.55,8.09,1.18,12.13,1.9.07,0,.06.13,0,.13q-6.06-.6-12.08-1.36c-2-.25-4-.55-6-.85s-4.15-.49-6.17-.95C490.73,156.44,490.73,156.33,490.81,156.33Z"/><path class="cls-2" d="M489.64,157.56c-.11-1-.19-2-.25-3,0-.21,0-.42,0-.63a35.29,35.29,0,0,1-.86-3.69s.05-.06.06,0a27.22,27.22,0,0,1,.75,2.82c-.08-1.55-.13-3.1-.06-4.65,0,0,.07-.05.08,0,.26,2,.37,4,.56,6.06.09,1,.42,5.79.47,5.81s2.29.37,2.43.45.07.19,0,.18l-2.85-.36S489.73,158.42,489.64,157.56Z"/><path class="cls-7" d="M219.84,292.52c2.62,1.59,83.63,20.07,87.17,18.82,1.34-.47,4.61-.64,8.3-14.82.79-3.06,52.49-27.78,52.49-27.78l-53.63-24L263.22,273s-34.19,6.8-37.92,8.59S217.23,290.92,219.84,292.52Z"/><path class="cls-8" d="M219.84,292.51c2.62,1.6,83.63,20.08,87.18,18.83,1.33-.46,4.61-.63,8.28-14.82.23-.84,4.62-3.2,10.89-6.19L273,267.52,263.21,273s-34.18,6.81-37.91,8.58S217.23,290.92,219.84,292.51Z"/><path class="cls-2" d="M322.32,290.37a15.16,15.16,0,0,0-3.24,1.2,14.91,14.91,0,0,0-2.94,1.81,17.1,17.1,0,0,0,6.18-3Z"/><path class="cls-2" d="M318.14,288.68a15.81,15.81,0,0,0-3.25,1.2,15.4,15.4,0,0,0-2.94,1.81,14.94,14.94,0,0,0,3.24-1.19A15.33,15.33,0,0,0,318.14,288.68Z"/><path class="cls-2" d="M314,287a15.81,15.81,0,0,0-3.25,1.2,15.26,15.26,0,0,0-2.94,1.82,15.81,15.81,0,0,0,3.25-1.2A15.57,15.57,0,0,0,314,287Z"/><path class="cls-2" d="M309.76,285.31a17,17,0,0,0-6.19,3,15.25,15.25,0,0,0,3.25-1.2A15.72,15.72,0,0,0,309.76,285.31Z"/><path class="cls-2" d="M305.57,283.62a15.78,15.78,0,0,0-3.25,1.19,15.26,15.26,0,0,0-2.94,1.82,15.25,15.25,0,0,0,3.25-1.2A15.72,15.72,0,0,0,305.57,283.62Z"/><path class="cls-2" d="M301.38,281.93a15.48,15.48,0,0,0-3.24,1.19,15.85,15.85,0,0,0-2.95,1.82,15,15,0,0,0,3.25-1.19A15.77,15.77,0,0,0,301.38,281.93Z"/><path class="cls-2" d="M297.19,280.24a15,15,0,0,0-3.24,1.2,15.4,15.4,0,0,0-2.94,1.81,15.14,15.14,0,0,0,3.24-1.19A15,15,0,0,0,297.19,280.24Z"/><path class="cls-2" d="M293,278.55a15.51,15.51,0,0,0-3.24,1.2,15,15,0,0,0-2.94,1.82,15.51,15.51,0,0,0,3.24-1.2A15,15,0,0,0,293,278.55Z"/><path class="cls-2" d="M288.81,276.86a15.51,15.51,0,0,0-3.24,1.2,15,15,0,0,0-2.94,1.82,15.51,15.51,0,0,0,3.24-1.2A15,15,0,0,0,288.81,276.86Z"/><path class="cls-2" d="M284.62,275.18a15.14,15.14,0,0,0-3.24,1.19,15,15,0,0,0-2.94,1.82,15,15,0,0,0,3.24-1.2A15.4,15.4,0,0,0,284.62,275.18Z"/><path class="cls-2" d="M280.44,273.49a15.78,15.78,0,0,0-3.25,1.19,15,15,0,0,0-2.94,1.82,15.48,15.48,0,0,0,3.24-1.19A16.39,16.39,0,0,0,280.44,273.49Z"/><path class="cls-2" d="M276.25,271.8a17.48,17.48,0,0,0-6.19,3,15.22,15.22,0,0,0,3.25-1.19A16.1,16.1,0,0,0,276.25,271.8Z"/><path class="cls-2" d="M272.06,270.11a17.48,17.48,0,0,0-6.19,3,17,17,0,0,0,6.19-3Z"/><path class="cls-9" d="M276.73,263.48l54.63,26.25,89.79-44.37s20.58,15.95,42.68,20.09c15,2.83,46.51,2.71,58.7-14.76,10.27-14.71,4.2-32,4.2-32l-17.21-7.82s-40.52-29-65.88-31.62C405,175.21,276.73,263.48,276.73,263.48Z"/><path class="cls-2" d="M494.4,200.83c2.45,1.47,4.84,3,7.26,4.57s4.84,2.87,7.13,4.52,4.54,3.49,6.75,5.31c1.06.89,2.12,1.78,3.15,2.69a26.65,26.65,0,0,1,3,2.88c.08.1-.06.23-.16.18a32,32,0,0,1-3.31-2.35l-3.47-2.57c-2.23-1.65-4.5-3.25-6.72-4.9s-4.28-3.47-6.48-5.14-4.8-3.43-7.23-5.11C494.31,200.88,494.34,200.8,494.4,200.83Z"/><path class="cls-2" d="M421.22,245.43a127,127,0,0,0,14.45,9.26l22.77-28.52Z"/><path class="cls-2" d="M289.84,258.59c1.79.7,3.56,1.54,5.31,2.33s3.47,1.56,5.2,2.36c3.53,1.63,7,3.32,10.55,5,7,3.38,22.78,12.22,26.69,14.18.07,0,0,.17-.06.13-7.06-3.13-29.17-14.22-36.16-17.72-1.94-1-3.87-2-5.79-3s-3.93-2-5.81-3.14C289.68,258.7,289.74,258.55,289.84,258.59Z"/><path class="cls-2" d="M318.78,236.07c1.49-1.23,33.24-20.32,40.07-24.2s13.71-7.61,20.69-11.18,14-6.94,21.22-10,14.32-5.93,21.7-8.27c.94-.3,1.88-.6,2.82-.92.09,0,.12.11,0,.14-3.73,1.28-7.38,2.83-11,4.32s-7.17,3-10.72,4.58q-10.65,4.77-21,10.12c-6.91,3.55-13.72,7.28-20.47,11.13s-13.52,7.83-20.22,11.85c-3.35,2-22,12.35-22.87,12.74C318.82,236.42,318.62,236.21,318.78,236.07Z"/><path class="cls-2" d="M368.61,271c3.35-1.84,6.76-3.56,10.15-5.32s6.81-3.46,10.23-5.15q10.18-5,20.43-9.91c3.86-1.85,7.74-3.72,11.71-5.32a.07.07,0,0,1,.07.12c-3.29,1.93-6.71,3.66-10.11,5.38s-6.83,3.42-10.25,5.12c-6.78,3.37-13.55,6.75-20.41,9.94-3.88,1.81-7.76,3.66-11.69,5.37C368.59,271.32,368.46,271.11,368.61,271Z"/><path class="cls-7" d="M490.74,129c0,1.36-4.29,11.14-10.26,12.2-1.94.34-4.28-10.19-4.28-10.19l-.35-.74L471,119.89l12.53-12.6S490.73,128.37,490.74,129Z"/><path class="cls-2" d="M471,119.89l4.89,10.33A23,23,0,0,0,486,114.5c-1.24-3.66-2.28-6.7-2.43-7.15a.12.12,0,0,1,0-.06l-1.61,1.51Z"/><path class="cls-7" d="M450.84,108.28c2.81,19.88,15,20.44,19.31,19.83,3.89-.56,17.06-2.94,16.32-23s-10.86-25-19.82-24.24S448,88.41,450.84,108.28Z"/><path class="cls-2" d="M453.27,106.13a11.94,11.94,0,0,0,1.27-.56,2.25,2.25,0,0,0,1.18-.82.72.72,0,0,0-.18-.85,1.78,1.78,0,0,0-1.8,0,2.58,2.58,0,0,0-1.4,1.24A.76.76,0,0,0,453.27,106.13Z"/><path class="cls-2" d="M466.64,103.47a12.71,12.71,0,0,1-1.38,0,2.31,2.31,0,0,1-1.42-.27.72.72,0,0,1-.18-.85,1.76,1.76,0,0,1,1.62-.77,2.61,2.61,0,0,1,1.79.56A.76.76,0,0,1,466.64,103.47Z"/><path class="cls-2" d="M464,107c0-.06.12,0,.12.09.22,1.35.68,2.87,2,3.08,0,0,.05.08,0,.08C464.62,110.28,464,108.27,464,107Z"/><path class="cls-2" d="M465,105.33c2.13-.58,3.12,3.72,1.15,4.25S463.19,105.81,465,105.33Z"/><path class="cls-2" d="M465.87,105.36c.43.16.9.5,1.36.44s.83-.61,1.07-1.12c0-.05.07,0,.08,0a1.61,1.61,0,0,1-.77,2.07c-.78.3-1.53-.3-1.92-1.08C465.61,105.55,465.69,105.3,465.87,105.36Z"/><path class="cls-2" d="M456.65,108.31s-.09.09-.07.15c.36,1.32.55,2.89-.55,3.61,0,0,0,.09,0,.08C457.48,111.59,457.2,109.51,456.65,108.31Z"/><path class="cls-2" d="M455.14,107.21c-2.18.35-1.33,4.67.69,4.35S457,106.92,455.14,107.21Z"/><path class="cls-2" d="M454.29,107.67c-.3.3-.55.78-1,.89s-.91-.28-1.3-.66c0,0-.07,0-.06.06.14.83.59,1.63,1.41,1.64s1.15-.82,1.18-1.68C454.57,107.76,454.41,107.55,454.29,107.67Z"/><path class="cls-2" d="M467,118.58c-.23.4-.43.91-.9,1.09a3.78,3.78,0,0,1-1.5.06,0,0,0,0,0,0,.08,1.83,1.83,0,0,0,1.87.25,1.46,1.46,0,0,0,.71-1.45C467.17,118.53,467.06,118.53,467,118.58Z"/><path class="cls-2" d="M460.19,114.87s.16,2.06.37,3c0,.09.25.08.58,0h0a4.57,4.57,0,0,0,4-2.61c.05-.11-.09-.18-.17-.1a6.85,6.85,0,0,1-3.82,2c-.13-.24-.16-3.52-.31-3.5a8.55,8.55,0,0,0-2,1c-.45-4.27-.22-8.58-.74-12.82,0-.15-.24-.15-.25,0-.57,4.5-.15,9.42.2,13.84C458.07,116.24,459.85,115.12,460.19,114.87Z"/><path class="cls-2" d="M461.6,117.44a5.16,5.16,0,0,0,2.33,1.18,2.32,2.32,0,0,0,1.41-.18c1-.46.79-1.38.46-2.13a5.68,5.68,0,0,0-.69-1.12A6.65,6.65,0,0,1,461.6,117.44Z"/><path class="cls-11" d="M463.93,118.62a2.32,2.32,0,0,0,1.41-.18c1-.46.79-1.38.46-2.13A2.4,2.4,0,0,0,463.93,118.62Z"/><path class="cls-2" d="M486.39,105.14c-3.16,1.14-5.77-5.42-5.77-5.42s-6.56,1.83-11.33-7a15.09,15.09,0,0,0,5.06,7s-11.91,2-19.45-6.36c0,0,3.3,4.39,5.61,5.64,0,0-5.22,0-8.68-3.3,0,0-.48,6.15-1.61,8.12,0,0-5.12-20.37,14.23-23.4,0,0,11.95-2.46,18.74,5.67S486.39,105.14,486.39,105.14Z"/><path class="cls-5" d="M487.23,103.73c.09,2.83,2.59-11.16,2-13s-6.82-10.18-15.86-11.92c-7.57-1.46-15.12,3.12-16.44,3.94a12,12,0,0,0-3.69,3.54s9.88-6,19.73-5.88C477.74,80.44,486.89,93.13,487.23,103.73Z"/><path class="cls-5" d="M476.56,77s-3.65-5.06-9.06-5.28c0,0,.6,5.31,2.61,6.93,1,.81,5.24.87,5.68.13A9.11,9.11,0,0,0,476.56,77Z"/><path class="cls-12" d="M476.56,77a10.34,10.34,0,0,1-.76,1.77.23.23,0,0,1-.08.09l-.12.09-.1,0a6.05,6.05,0,0,1-2.32.29,12.29,12.29,0,0,1,.41-2.35,3.54,3.54,0,0,1,1.5-1.59A13.4,13.4,0,0,1,476.56,77Z"/><path class="cls-5" d="M477.93,77.6s7.4-1.7,11.12-.34c0,0-1.68,4-5.36,5.28-1.65.56-6.78-2.14-6.58-3A7.4,7.4,0,0,1,477.93,77.6Z"/><path class="cls-12" d="M479.62,77.27a4.46,4.46,0,0,1,0,2.49,3.93,3.93,0,0,1-.89,1.3c-1-.6-1.73-1.21-1.66-1.56a7.59,7.59,0,0,1,.82-1.9S478.59,77.44,479.62,77.27Z"/><path class="cls-5" d="M478.83,79.24A2.47,2.47,0,1,1,477.54,76,2.46,2.46,0,0,1,478.83,79.24Z"/><path class="cls-7" d="M483.53,107.09s2.86-7.09,6-6.21,2,10.48-1,12.44a3.39,3.39,0,0,1-4.84-.76Z"/><path class="cls-2" d="M489.11,103.62a.05.05,0,0,1,0,.09c-2.07,1.45-2.78,3.84-3.12,6.22a1.88,1.88,0,0,1,2.62-1.13c.07,0,0,.14,0,.14a2.09,2.09,0,0,0-2.08,1.23,10.29,10.29,0,0,0-.65,2.06c-.06.22-.46.2-.43,0v-.06C484.73,109.23,486.06,104.64,489.11,103.62Z"/></g><g id="Dog"><path class="cls-5" d="M139.64,274.2c0,1.13,4.52,4.77,10,5.2s14.24-1.71,16.12-1.5,1.65,5.35,3.52,6.44,6.14-1.94,7-3.42-.85-6.92-2.33-7.62-11.14-4.9-12.5-9.36S139.65,272.42,139.64,274.2Z"/><path class="cls-13" d="M139.64,274.2c0,1.13,4.52,4.77,10,5.2s14.24-1.71,16.12-1.5,1.65,5.35,3.52,6.44,6.14-1.94,7-3.42-.85-6.92-2.33-7.62-11.14-4.9-12.5-9.36S139.65,272.42,139.64,274.2Z"/><path class="cls-5" d="M82.59,277.18c-.54,2.84,3.74,9.63,5.59,10.7S95,290.34,96,291.17s1.6,2.86,2.92,3.67,6.28.71,6.9,0,0-3.27-1-3.73a9.8,9.8,0,0,1-2.6-1.16c-.56-.56-2.65-12.16-5.58-14.95S83.09,274.54,82.59,277.18Z"/><path class="cls-13" d="M82.59,277.18c-.54,2.84,3.74,9.63,5.59,10.7S95,290.34,96,291.17s1.6,2.86,2.92,3.67,6.28.71,6.9,0,0-3.27-1-3.73a9.8,9.8,0,0,1-2.6-1.16c-.56-.56-2.65-12.16-5.58-14.95S83.09,274.54,82.59,277.18Z"/><path class="cls-5" d="M190.79,240.34c-5.11,6.22-16.44,8.65-19.32,10.16s-7.94,10.48-10.83,13.93-16.94,13.58-25.17,15-23.89-2.51-27-2.4-14.87,2.06-15.34,2.28-5.63,5.81-7,7.28-5.89,5.34-6.36,5.76a1.32,1.32,0,0,0,.32,1.87c.62.45,1.85,2.74.71,3.41s-4.78,1.11-6.11.4-2.27-2.92-2.94-4.07,3.67-9.15,4.49-11.58-4.19-12.8-2.85-16.55,13.79-16.45,20.15-16.27c.92,0,2.43.05,4.36,0,6.21,0,16.83-.16,26.7-.76,8.5-.51,16.42-1.33,20.42-2.61,10.09-3.22,14-16.83,19.62-18.3s11.05.6,13.47.09c3.52-.75,12.47-7.1,14.09-6.19C194.59,223.24,194.17,236.25,190.79,240.34Z"/><path class="cls-2" d="M92.2,279.78a4.3,4.3,0,0,0,1.11-1.52c.28-.57.54-1.16.77-1.76.46-1.19.76-2.42,1.15-3.63,0-.07.14-.05.13,0a15.9,15.9,0,0,1-.45,3,2.91,2.91,0,0,0,.63-1,.08.08,0,0,1,.16,0,3,3,0,0,1-.89,1.26c-.06.2-.12.41-.19.61a5.79,5.79,0,0,1-.9,1.68,11.57,11.57,0,0,1-1.39,1.41C92.24,280,92.11,279.86,92.2,279.78Z"/><path class="cls-5" d="M93.47,249.57c-3.69-.26-9.1-.11-12.49,2.09S71.06,264.59,66,267s-13.6,1.08-13.66,1.58,8.07,2.34,13.8.59S79.34,254.75,84.84,254A14.72,14.72,0,0,0,93.47,249.57Z"/><path class="cls-2" d="M169.94,234.48c1.91-1.83,5.2,1.89,3.43,3.58S168.34,236,169.94,234.48Z"/><path class="cls-2" d="M193.12,228.19c1.28-.47,1.72-5.51.59-7.13s-8.7,3.32-8.62,5S191.72,228.69,193.12,228.19Z"/><path class="cls-2" d="M162,229.44c.23-.74-4.12,1.38-7.65,4.69a21.73,21.73,0,0,0-4.26,6.09c-.67,1.95,2.09,14.4,6.22,16.21,2.82,1.24,6.56-7.9,6.79-10.09S160.09,235.77,162,229.44Z"/><path class="cls-2" d="M119.08,260.4c-1.9,1.07-4,1.23-6.14,1.55a35.21,35.21,0,0,0-8.49,2.41c-3.58,1.48-7.62,2.16-9.56-2.05s-.11-9,2.94-12.71c6.21,0,16.83-.16,26.7-.76C125,253.18,122.65,258.4,119.08,260.4Z"/><path class="cls-2" d="M136.14,259.27c-2.25,1.55-6.47,1.13-7.64-1.67-.66-1.6.61-2.81,1.64-3.89a10.38,10.38,0,0,1,1-.89,8.35,8.35,0,0,1,2.13-1.67,2.81,2.81,0,0,1,3.74.48C139.12,253.75,138.51,257.63,136.14,259.27Z"/><path class="cls-9" d="M148.52,244.54c.07,1.22,2.07,16.27,14.34,16.89.76,0-.05,2.53-1.42,2.51s-15-2.18-15.07-18.74C146.37,244.14,148.46,243.49,148.52,244.54Z"/><path class="cls-5" d="M136.41,269.3c-2.15,1.75-6.87,14-6.21,16.22s4.5,6.39,4.83,6.89.15,1.11,1.22,1.63,6.85.23,7.55-.49a3.49,3.49,0,0,0-.25-3.84c-.87-.76-3-.77-3.43-1.27s-1.4-3.25-1-4.09,9-6.15,10-10.3S139.78,266.55,136.41,269.3Z"/><path class="cls-2" d="M132.17,276.46c.2-.61.44-1.22.68-1.83a.05.05,0,0,1,0,0c.09-.7.17-1.4.28-2.09a11,11,0,0,1,.45-2.05c0-.06.12-.05.11,0-.08.67-.26,1.34-.38,2s-.16,1.07-.21,1.61l.19-.48a57.81,57.81,0,0,1,2.8-5.56s.07,0,.06,0c-.83,1.91-1.58,3.86-2.35,5.79-.37,1-.74,1.92-1.14,2.87s-.88,2-1.2,3c0,.12-.23.06-.19-.05C131.61,278.6,131.83,277.51,132.17,276.46Z"/></g><g id="Mug"><path class="cls-14" d="M504.49,273.77s-15.26-7-15.26-16.46,19.8-15.5,19.8-22.87-8.64-11.7-8.64-11.7,13.64,4.66,13.64,14-13,15.63-14.3,21.56C498,266.52,504.49,273.77,504.49,273.77Z"/><path class="cls-14" d="M503.74,273.77S519,268.24,519,260.83s-19.8-12.19-19.8-18,8.63-9.2,8.63-9.2-13.64,3.66-13.64,11,15,12.36,16.06,18.32S503.74,273.77,503.74,273.77Z"/><rect class="cls-5" x="497.07" y="297.48" width="14.52" height="2.27"/><rect class="cls-2" x="497.07" y="297.48" width="14.52" height="1.5"/><path class="cls-5" d="M528.83,291.38a8.21,8.21,0,0,1-8.18,3.5,8.61,8.61,0,0,1-1.47-.42,10.41,10.41,0,0,1-2-1.08l1.84-2.74a6.49,6.49,0,0,0,1.09.62,4.83,4.83,0,0,0,6.08-1.78c2-2.8,2.7-9.19.69-11.65-.14-.18-.72-.47-3.06,0-.43.1-.92.21-1.47.36a6.1,6.1,0,0,1-1.33.29l-.06-1.65-.16-1.63c.15,0,.39-.1.69-.19a21.54,21.54,0,0,1,3.31-.68c1.72-.18,3.52,0,4.63,1.39C532.65,279.76,531.33,287.88,528.83,291.38Z"/><path class="cls-2" d="M519,290.64a6.49,6.49,0,0,0,1.09.62l-.88,3.2a10.41,10.41,0,0,1-2-1.08Z"/><path class="cls-2" d="M524.75,274.36l-1,3.5c-.43.1-.92.21-1.47.36a6.1,6.1,0,0,1-1.33.29l-.06-1.65-.16-1.63c.15,0,.39-.1.69-.19A21.54,21.54,0,0,1,524.75,274.36Z"/><path class="cls-5" d="M485,270.08s1.74,14.8,4.75,21S497,298,499.59,298h9.49c2.61,0,6.81-.69,9.82-6.92s4.75-21,4.75-21Z"/><path class="cls-6" d="M519.05,272.59a1.72,1.72,0,1,1-1.71,1.71A1.72,1.72,0,0,1,519.05,272.59ZM502.21,274a1.72,1.72,0,1,0,1.71-1.72A1.72,1.72,0,0,0,502.21,274Zm0,21.53a1.72,1.72,0,1,0,1.71-1.71A1.72,1.72,0,0,0,502.21,295.48Zm-12.44-9.71a1.72,1.72,0,1,0,1.72-1.71A1.71,1.71,0,0,0,489.77,285.77Zm19.06,5.07a1.72,1.72,0,1,0,1.72-1.72A1.72,1.72,0,0,0,508.83,290.84ZM488.69,274a1.72,1.72,0,1,0,1.72-1.72A1.72,1.72,0,0,0,488.69,274Zm13.72,11.55a1.72,1.72,0,1,0,1.71-1.71A1.72,1.72,0,0,0,502.41,285.5Zm13,.27a1.72,1.72,0,1,0,1.72-1.71A1.71,1.71,0,0,0,515.41,285.77Zm-20-5.74a1.72,1.72,0,1,0,1.71-1.71A1.71,1.71,0,0,0,495.36,280Zm.47,11.09a1.72,1.72,0,1,0,1.71-1.72A1.71,1.71,0,0,0,495.83,291.12ZM509.64,280a1.72,1.72,0,1,0,1.71-1.71A1.72,1.72,0,0,0,509.64,280Z"/></g></g></svg>