<svg xmlns="http://www.w3.org/2000/svg" viewBox="0 0 421.44 247.18"><defs><style>.cls-1,.cls-4{fill:#ebebeb;}.cls-2{fill:#dbdbdb;}.cls-3{fill:#fff;}.cls-4{opacity:0.5;}.cls-5{fill:#c7c7c7;}.cls-6{fill:#a6a6a6;}.cls-7{fill:#455a64;}.cls-8{fill:#ffc727;}.cls-9{fill:#263238;}.cls-10{fill:#eb9481;}.cls-11{opacity:0.1;}.cls-12{fill:#ff98b9;}.cls-13{opacity:0.2;}.cls-14{fill:#37474f;}</style></defs><g id="Layer_2" data-name="Layer 2"><g id="Background_Complete" data-name="Background Complete"><circle class="cls-1" cx="54.76" cy="38.69" r="35.78" transform="translate(8 86.74) rotate(-81.02)"/><circle class="cls-2" cx="56.4" cy="39.48" r="34.14"/><circle class="cls-3" cx="56.4" cy="39.48" r="31.99"/><path class="cls-4" d="M87.67,32.7C73.1,41.52,49.16,56,35.78,63.94A32,32,0,0,1,27,52.18l44.25-41A32,32,0,0,1,87.67,32.7Z"/><path class="cls-4" d="M88.37,40.6A31.48,31.48,0,0,1,86.25,51L46.36,69.86a31.73,31.73,0,0,1-5-2.16C53.37,60.73,75.39,48.06,88.37,40.6Z"/><rect class="cls-5" x="56.09" y="9.82" width="0.62" height="4.85"/><rect class="cls-5" x="42.47" y="13.47" width="0.62" height="4.85" transform="translate(-2.21 23.52) rotate(-30)"/><rect class="cls-5" x="32.5" y="23.44" width="0.62" height="4.85" transform="matrix(0.5, -0.87, 0.87, 0.5, -5.99, 41.34)"/><rect class="cls-5" x="26.74" y="39.17" width="4.85" height="0.62"/><rect class="cls-5" x="30.39" y="52.8" width="4.85" height="0.62" transform="translate(-22.16 23.53) rotate(-30.01)"/><rect class="cls-5" x="40.36" y="62.77" width="4.85" height="0.62" transform="matrix(0.5, -0.87, 0.87, 0.5, -33.23, 68.63)"/><rect class="cls-5" x="56.09" y="64.3" width="0.62" height="4.85"/><rect class="cls-5" x="69.71" y="60.65" width="0.62" height="4.85" transform="translate(-22.16 43.46) rotate(-30)"/><rect class="cls-5" x="79.69" y="50.68" width="0.62" height="4.85" transform="translate(-5.99 95.83) rotate(-60)"/><rect class="cls-5" x="81.22" y="39.17" width="4.85" height="0.62"/><rect class="cls-5" x="77.57" y="25.55" width="4.85" height="0.62" transform="translate(-2.21 43.46) rotate(-30)"/><rect class="cls-5" x="67.6" y="15.58" width="4.85" height="0.62" transform="translate(21.27 68.61) rotate(-60.03)"/><polygon class="cls-5" points="56.87 12.01 57.92 41.64 54.89 41.6 56.04 12 56.87 12.01"/><polygon class="cls-6" points="75.32 29.15 55.39 41.88 53.94 39.21 74.93 28.43 75.32 29.15"/><path class="cls-5" d="M57.44,39.48a1,1,0,1,1-1-1A1,1,0,0,1,57.44,39.48Z"/><rect class="cls-1" x="301.32" y="53.02" width="120.12" height="7.13" transform="translate(722.76 113.18) rotate(180)"/><rect class="cls-1" x="405.19" y="60.16" width="7.14" height="23.59"/><rect class="cls-2" x="405.19" y="60.16" width="7.14" height="7.29"/><rect class="cls-1" x="310.43" y="60.16" width="7.14" height="23.59"/><rect class="cls-2" x="310.43" y="60.16" width="7.14" height="7.29"/><rect class="cls-5" x="362.63" y="24.57" width="45.46" height="11.45" transform="translate(415.66 -355.06) rotate(90)"/><rect class="cls-2" x="382.86" y="1.91" width="4.99" height="11.45" transform="translate(392.99 -377.72) rotate(90)"/><rect class="cls-2" x="384.43" y="11.74" width="1.85" height="11.45" transform="translate(402.82 -367.9) rotate(90)"/><rect class="cls-2" x="382.15" y="38.13" width="5" height="12.87" transform="translate(429.21 -340.08) rotate(90)"/><rect class="cls-2" x="349.12" y="22.51" width="53.03" height="8" transform="translate(402.15 -349.12) rotate(90)"/><rect class="cls-1" x="365.47" y="12.78" width="20.39" height="4.8" transform="translate(390.85 -360.49) rotate(90)"/><rect class="cls-5" x="309.87" y="27.55" width="53.03" height="8" transform="translate(597.81 -182.48) rotate(135.33)"/><rect class="cls-2" x="323.42" y="31.85" width="20.39" height="4.8" transform="translate(594.97 -175.9) rotate(135.33)"/><rect class="cls-6" x="344.71" y="26.1" width="40.28" height="13.59" transform="translate(397.74 -331.95) rotate(90)"/><rect class="cls-5" x="362.97" y="40.1" width="3.75" height="13.59" transform="translate(411.73 -317.96) rotate(90)"/><rect class="cls-5" x="364.12" y="35.03" width="1.46" height="13.59" transform="translate(406.67 -323.03) rotate(90)"/><rect class="cls-6" x="376.85" y="29.42" width="37.85" height="9.38" transform="translate(429.88 -361.67) rotate(90)"/><rect class="cls-5" x="394.01" y="42.57" width="3.53" height="9.38" transform="translate(443.03 -348.52) rotate(90)"/><rect class="cls-5" x="394.01" y="20.06" width="3.53" height="9.38" transform="translate(420.52 -371.02) rotate(90)"/><rect class="cls-5" x="395.09" y="24.92" width="1.37" height="9.38" transform="translate(425.39 -366.16) rotate(90)"/><rect class="cls-2" x="150.38" y="2.9" width="99.69" height="111.22"/><rect class="cls-1" x="156.95" y="9.47" width="86.55" height="98.14"/><rect class="cls-3" x="164.77" y="26.82" width="30.51" height="36.15"/><path class="cls-7" d="M181.13,29.28a1.1,1.1,0,1,1-1.1-1.09A1.1,1.1,0,0,1,181.13,29.28Z"/><path class="cls-1" d="M170.58,34.07c3.08-.24,6.17-.26,9.25-.29s6.17,0,9.26.29c-3.09.23-6.17.25-9.26.28S173.66,34.3,170.58,34.07Z"/><path class="cls-1" d="M170.58,36.92a45.32,45.32,0,0,1,10.06,0,38.57,38.57,0,0,1-5,.29A38.57,38.57,0,0,1,170.58,36.92Z"/><path class="cls-1" d="M170.58,39.78c2.14-.22,4.29-.28,6.43-.29a63,63,0,0,1,6.43.29c-2.15.22-4.29.28-6.43.29S172.72,40,170.58,39.78Z"/><path class="cls-1" d="M170.58,42.64c2.68-.23,5.36-.28,8-.29s5.36.06,8,.29c-2.69.22-5.37.27-8,.28S173.26,42.86,170.58,42.64Z"/><path class="cls-1" d="M170.58,45.49c2.33-.22,4.66-.27,7-.28s4.66.06,7,.28c-2.32.23-4.65.28-7,.29S172.91,45.72,170.58,45.49Z"/><path class="cls-1" d="M170.58,48.35c3-.24,6-.25,8.94-.29s6,0,8.95.29c-3,.24-6,.25-8.95.29S173.56,48.59,170.58,48.35Z"/><path class="cls-1" d="M170.58,51.21a57.65,57.65,0,0,1,11.55,0,53.07,53.07,0,0,1-5.77.28A53.26,53.26,0,0,1,170.58,51.21Z"/><path class="cls-1" d="M170.58,54.06c3.08-.23,6.17-.25,9.25-.28s6.17,0,9.26.28c-3.09.24-6.17.26-9.26.29S173.66,54.3,170.58,54.06Z"/><path class="cls-1" d="M170.58,56.92c3.08-.24,6.17-.25,9.25-.29s6.17,0,9.26.29c-3.09.24-6.17.25-9.26.29S173.66,57.16,170.58,56.92Z"/><rect class="cls-3" x="199.93" y="49.36" width="36.1" height="42.78"/><path class="cls-7" d="M219.07,55.14A1.1,1.1,0,1,1,218,54,1.09,1.09,0,0,1,219.07,55.14Z"/><path class="cls-1" d="M205,60a27.73,27.73,0,0,1,8,0,28.71,28.71,0,0,1-8,0Z"/><path class="cls-1" d="M205,63.26a46.41,46.41,0,0,1,10.36,0,46.41,46.41,0,0,1-10.36,0Z"/><path class="cls-1" d="M205,66.49a39.87,39.87,0,0,1,9.6,0,41.28,41.28,0,0,1-9.6,0Z"/><path class="cls-1" d="M205,69.71a41.28,41.28,0,0,1,9.6,0,39.87,39.87,0,0,1-9.6,0Z"/><path class="cls-1" d="M205,72.94a30.13,30.13,0,0,1,8.34,0,31.19,31.19,0,0,1-8.34,0Z"/><path class="cls-1" d="M205,76.16a51.06,51.06,0,0,1,10.68,0,49.31,49.31,0,0,1-10.68,0Z"/><path class="cls-1" d="M205,79.39a33.6,33.6,0,0,1,8.81,0,31.07,31.07,0,0,1-4.4.29A32.66,32.66,0,0,1,205,79.39Z"/><path class="cls-1" d="M205,82.61a54.65,54.65,0,0,1,11.05,0,52.78,52.78,0,0,1-11.05,0Z"/><path class="cls-1" d="M205,85.84a48.61,48.61,0,0,1,5.52-.29,46.57,46.57,0,0,1,5.53.29,48.78,48.78,0,0,1-5.53.29A51,51,0,0,1,205,85.84Z"/><path class="cls-1" d="M220.75,60a47.58,47.58,0,0,1,10.49,0,43.7,43.7,0,0,1-5.24.28A44,44,0,0,1,220.75,60Z"/><path class="cls-1" d="M220.75,63.26a20.67,20.67,0,0,1,6.9,0,20.67,20.67,0,0,1-6.9,0Z"/><path class="cls-1" d="M220.75,66.49a42.14,42.14,0,0,1,9.87,0,43.63,43.63,0,0,1-9.87,0Z"/><path class="cls-1" d="M220.75,69.71a41.37,41.37,0,0,1,9.61,0,40,40,0,0,1-9.61,0Z"/><path class="cls-1" d="M220.75,72.94a47.58,47.58,0,0,1,10.49,0,49.27,49.27,0,0,1-10.49,0Z"/><path class="cls-1" d="M220.75,76.16a31.27,31.27,0,0,1,8.35,0,30.2,30.2,0,0,1-8.35,0Z"/><path class="cls-1" d="M220.75,79.39a42.14,42.14,0,0,1,9.87,0,38.82,38.82,0,0,1-4.93.29A40.92,40.92,0,0,1,220.75,79.39Z"/><path class="cls-1" d="M220.75,82.61a26.2,26.2,0,0,1,7.64,0,25.3,25.3,0,0,1-7.64,0Z"/><path class="cls-1" d="M220.75,85.84a21.54,21.54,0,0,1,3.67-.29,20.53,20.53,0,0,1,3.66.29,21.5,21.5,0,0,1-3.66.29A22.61,22.61,0,0,1,220.75,85.84Z"/><rect class="cls-8" x="192.48" y="16.89" width="18.36" height="18.36"/><path class="cls-7" d="M202.75,18.75a1.1,1.1,0,1,1-1.1-1.1A1.1,1.1,0,0,1,202.75,18.75Z"/><rect class="cls-5" x="240.94" y="9.47" width="2.48" height="98.25"/></g><g id="Desk"><polygon class="cls-9" points="0 207.58 36.3 207.34 72.6 207.25 145.21 207.09 217.81 207.25 254.12 207.34 290.42 207.58 254.12 207.83 217.81 207.92 145.21 208.08 72.6 207.91 36.3 207.83 0 207.58"/></g><g id="Character_1" data-name="Character 1"><path class="cls-10" d="M88.67,110.19c5.35,28.62,17.44,63.16,23,68.91,7,7.27,54.62,22,57,22.39,5.92.85,19.59-41.47,13.29-42.65-9.58-1.79-44.55-5.13-46.57-7.37s-16.11-21.61-30.46-43.31C95,93.17,85.35,92.44,88.67,110.19Z"/><path class="cls-10" d="M164,199c.69.39,10.54,5.86,16.69,7.92,4.59,1.53,17.91,5.6,20.1.72,1.5-3.33-6.05-6.64-11.34-9.1-2.79-1.3-6.16-4.41-5.25-6.2,1.59-3.12,8.76.37,13.44,3.36,9.06,5.77,21,16,26.88,11.5,2.21-1.69-.14-5-3.65-8.36,5.75,3.95,11.92,7.24,14.46,5.46,1.45-1,1.57-2.48.86-4.2,1.8.67,3.41.62,4.58-.52,2-1.93,1.19-4.93-.78-8.06a2.3,2.3,0,0,0,1.79-1.07c4.32-6-15.3-24.66-22.27-26.61-20.49-5.77-42.34-5.74-42.34-5.74C168.73,164.25,163.94,199,164,199Z"/><path class="cls-9" d="M195.17,181.18a35,35,0,0,1,13.59,5.88c5.11,3.68,8.42,7.88,12.66,12.14.11.11-.06.29-.17.17-2-2-10.42-9.67-12.59-11.42a33.37,33.37,0,0,0-13.51-6.68C195.1,181.25,195.12,181.17,195.17,181.18Z"/><path class="cls-9" d="M199.39,172.56c5.38,1.71,10.89,3.44,15.84,6.22,5.41,3,9.54,7.81,13.61,12.4q3.67,4.14,7.15,8.43c.1.12-.07.3-.17.18Q229.63,192.68,223,186a44.21,44.21,0,0,0-14.28-9.83c-3.06-1.32-6.22-2.39-9.37-3.47C199.31,172.63,199.33,172.54,199.39,172.56Z"/><path class="cls-9" d="M205.52,165.11c5.24,1.31,9.81,2.42,14.37,5.45,6.05,4,11.77,10.56,13.78,12.89,2.21,2.57,4.34,5.21,6.43,7.88.09.11-.1.26-.19.15a174.91,174.91,0,0,0-15.47-16.62,35.1,35.1,0,0,0-8.77-6.24,64.06,64.06,0,0,0-10.16-3.47S205.49,165.11,205.52,165.11Z"/><path class="cls-8" d="M173.87,156.2l-16.73,46.3s-39.62-13.09-46.62-21.29-18.85-49.55-22-69.48,6.81-19,15.49-6.2,30.32,44,31.57,44.71S173.87,156.2,173.87,156.2Z"/><path class="cls-3" d="M118.76,127l-.27-.1a1.57,1.57,0,0,1-.87-1.24,2,2,0,0,0-.16-.53c-.15-.21-.29-.43-.45-.64a1.87,1.87,0,0,0-.92-.51,2,2,0,0,0-1.1.07c-.32.11-.64.19-1,.32.34,0,.67,0,1,.08a1.92,1.92,0,0,1,.86.14,1.52,1.52,0,0,1,.91,1.19,2,2,0,0,0,1.47,1.72,1.76,1.76,0,0,0,.85,0C119,127.35,118.89,127.17,118.76,127ZM91.54,96.4l.22.07a1.89,1.89,0,0,0,1.11,0l.43-.13A4,4,0,0,0,91.54,96.4Zm29.72,72.66a1.77,1.77,0,0,1-.85-.17,1.57,1.57,0,0,1-.87-1.23A2,2,0,0,0,118,166a1.93,1.93,0,0,0-1.1.06c-.32.11-.65.19-1,.32.34,0,.67,0,1,.08a1.92,1.92,0,0,1,.86.14,1.54,1.54,0,0,1,.91,1.19,2,2,0,0,0,1.47,1.72,1.89,1.89,0,0,0,1.11,0c.32-.11.64-.19,1-.32C121.93,169.09,121.6,169.09,121.26,169.06Zm-6.67-20.17a1.89,1.89,0,0,1-.71.51,1.55,1.55,0,0,1-1.49-.2,2,2,0,0,0-3,.63c-.14.31-.32.59-.45.91a9.88,9.88,0,0,0,.77-.66,2,2,0,0,1,.72-.48,1.56,1.56,0,0,1,1.49.26,2,2,0,0,0,2.27.11,2,2,0,0,0,.74-.83c.15-.3.32-.59.45-.91C115.08,148.44,114.85,148.67,114.59,148.89Zm10.68,34.53a1.85,1.85,0,0,1-.71.51,1.53,1.53,0,0,1-1.48-.2,2.07,2.07,0,0,0-2.26-.18,2,2,0,0,0-.76.81c-.15.31-.32.59-.45.91.27-.2.51-.44.76-.66a1.86,1.86,0,0,1,.72-.48,1.56,1.56,0,0,1,1.49.26,2,2,0,0,0,2.27.1,2,2,0,0,0,.74-.82c.15-.3.32-.59.45-.91C125.76,183,125.53,183.2,125.27,183.42Zm-18-73.08-.24,0a2,2,0,0,0-1.72,1.47,1.89,1.89,0,0,0,0,1.11c.11.32.19.65.32,1,0-.34,0-.67.08-1a1.9,1.9,0,0,1,.17-.85,1.57,1.57,0,0,1,1.23-.87,2.11,2.11,0,0,0,.59-.18Zm-6.7,23.35c-.11-.32-.19-.65-.32-1,0,.34,0,.67-.08,1a1.92,1.92,0,0,1-.14.86,1.54,1.54,0,0,1-1.19.91A2,2,0,0,0,97.11,137a1.89,1.89,0,0,0,0,1.11c.11.32.19.65.32,1,.05-.34.05-.67.08-1a1.77,1.77,0,0,1,.17-.85,1.57,1.57,0,0,1,1.23-.87,2,2,0,0,0,1.68-1.53A1.93,1.93,0,0,0,100.56,133.69Zm-7.45-18.9a2,2,0,0,1-.72.48A1.56,1.56,0,0,1,90.9,115a2,2,0,0,0-1.89-.29c0,.23.09.46.13.69a1.44,1.44,0,0,1,1.26.26,2,2,0,0,0,2.26.17,1.9,1.9,0,0,0,.76-.81c.15-.3.32-.58.45-.9C93.6,114.33,93.36,114.57,93.11,114.79ZM133,151a1.9,1.9,0,0,1-.85-.17,1.57,1.57,0,0,1-.87-1.24A2,2,0,0,0,128.6,148a8.31,8.31,0,0,0-1,.32c.34.05.67.05,1,.07a1.92,1.92,0,0,1,.86.15,1.52,1.52,0,0,1,.91,1.19,2.06,2.06,0,0,0,1.47,1.72,2,2,0,0,0,1.11,0c.32-.11.64-.19,1-.33C133.62,151,133.29,151,133,151Zm16.45,33.59a1.9,1.9,0,0,1-.85-.17,1.57,1.57,0,0,1-.87-1.24,2,2,0,0,0-2.63-1.61,9,9,0,0,0-1,.32c.34.05.67.05,1,.07a1.92,1.92,0,0,1,.86.15,1.52,1.52,0,0,1,.91,1.19,2.06,2.06,0,0,0,1.47,1.72,2,2,0,0,0,1.11,0c.32-.11.65-.19,1-.33C150.07,184.6,149.74,184.6,149.4,184.58Zm11.67,5.57c-.11-.32-.19-.65-.32-1-.05.34-.05.68-.07,1a2.07,2.07,0,0,1-.15.86,1.54,1.54,0,0,1-1.19.91,2,2,0,0,0-1.72,1.47,1.9,1.9,0,0,0,0,1.11c.11.32.19.64.33,1,.05-.34,0-.67.07-1a1.87,1.87,0,0,1,.17-.85,1.55,1.55,0,0,1,1.24-.87,2,2,0,0,0,1.68-1.53A2,2,0,0,0,161.07,190.15Zm9.85-34.38a3.19,3.19,0,0,0-.11.33,1.89,1.89,0,0,0,0,1.11c.11.33.19.65.32,1,.05-.34.05-.68.08-1a1.86,1.86,0,0,1,.17-.84,1.69,1.69,0,0,1,.31-.43Zm-23.78,1.47c-.11-.32-.19-.65-.33-1-.05.34-.05.68-.07,1a1.92,1.92,0,0,1-.15.86,1.54,1.54,0,0,1-1.19.91,2,2,0,0,0-1.72,1.47,2,2,0,0,0,0,1.11c.11.32.19.64.33,1,.05-.34.05-.68.07-1a1.87,1.87,0,0,1,.17-.85,1.55,1.55,0,0,1,1.24-.87,2,2,0,0,0,1.68-1.53A2.12,2.12,0,0,0,147.14,157.24Zm-9.66,35.43c-.11-.32-.19-.64-.32-1,0,.34,0,.68-.08,1a1.9,1.9,0,0,1-.14.86,1.52,1.52,0,0,1-1.19.91,1,1,0,0,0-.24,0l1.16.47a2,2,0,0,0,.81-2.34Zm24.14-25.24a1.82,1.82,0,0,1-.72.48,1.56,1.56,0,0,1-1.49-.26,2,2,0,0,0-2.27-.11,2,2,0,0,0-.73.83c-.15.3-.32.59-.45.91.27-.21.51-.45.77-.67a1.82,1.82,0,0,1,.71-.5,1.5,1.5,0,0,1,1.48.2,2,2,0,0,0,2.26.17,1.9,1.9,0,0,0,.76-.81c.15-.3.32-.59.45-.9C162.12,167,161.88,167.21,161.62,167.43ZM136.75,172a1.7,1.7,0,0,1-.72.47,1.54,1.54,0,0,1-1.49-.25,2,2,0,0,0-2.27-.11,2,2,0,0,0-.73.83c-.15.3-.32.59-.45.9.27-.2.51-.44.76-.66a1.92,1.92,0,0,1,.72-.5,1.52,1.52,0,0,1,1.48.19,2,2,0,0,0,2.26.18,1.9,1.9,0,0,0,.76-.81c.15-.3.32-.59.45-.91C137.24,171.5,137,171.74,136.75,172Z"/><path class="cls-9" d="M154.15,181.5c2-5.45,4.08-10.9,5.9-16.43,1-3.14,2.08-6.28,3.09-9.44,0-.11-.17-.2-.21-.08-2.25,5.4-4.49,10.82-6.48,16.32s-4,10.92-5.94,16.42q-1.63,4.68-3,9.46c0,.07.08.11.11.05C150.07,192.47,152.11,187,154.15,181.5Z"/><path class="cls-11" d="M137.19,195.22l-1.76-.69c-3.29-1.33-6.64-2.75-9.79-4.19-.41-.18-.81-.37-1.2-.56-.64-.29-1.27-.59-1.88-.89l-.92-.44-.32-.17-.95-.48c-1.25-.64-2.43-1.27-3.53-1.91-.25-.14-.51-.29-.76-.45a27.63,27.63,0,0,1-4.81-3.45l-.4-.39c-.13-.13-.24-.26-.35-.39-7-8.2-18.86-49.55-22-69.49,0-.23-.07-.46-.11-.68,0-.06,0-.1,0-.15-.21-1.52-.37-3.38-.48-5.41v0c-.15-9.86,4.57-11.28,10.15-6.72C111.19,130.13,131.07,181.89,137.19,195.22Z"/><path class="cls-8" d="M121.7,207.32l-91,.26c.07-2,13-59.05,23.34-80.2,13.21-27.12,20-29.3,24.09-30.76,5.2-1.87,14.47-.94,16.67.1,2.5,1.16,10.44,15,13.29,25.21C113.77,142.35,123,206.08,121.7,207.32Z"/><path class="cls-3" d="M88,199.44a1.7,1.7,0,0,1-.72.47,1.54,1.54,0,0,1-1.49-.25,2,2,0,0,0-2.27-.11,2,2,0,0,0-.73.83c-.15.3-.32.59-.45.91.27-.21.51-.45.77-.67a1.82,1.82,0,0,1,.71-.5,1.52,1.52,0,0,1,1.48.19,2,2,0,0,0,2.26.18,1.9,1.9,0,0,0,.76-.81c.15-.3.32-.59.45-.9C88.47,199,88.23,199.22,88,199.44Zm13.12-27.92a1.72,1.72,0,0,1-.72.48,1.56,1.56,0,0,1-1.49-.26,2,2,0,0,0-3,.72c-.15.31-.32.59-.45.91.27-.2.51-.44.76-.66a2.08,2.08,0,0,1,.72-.51,1.53,1.53,0,0,1,1.48.2,2,2,0,0,0,2.26.18,2,2,0,0,0,.76-.81c.15-.3.32-.59.45-.91C101.58,171.07,101.35,171.3,101.09,171.52Zm-42.21,9a1.86,1.86,0,0,1-.72.48,1.54,1.54,0,0,1-1.49-.26,2,2,0,0,0-2.27-.1,2,2,0,0,0-.74.82c-.15.31-.32.59-.45.91.28-.2.51-.44.77-.66a2.15,2.15,0,0,1,.71-.51,1.55,1.55,0,0,1,1.49.2,2,2,0,0,0,2.25.18,2,2,0,0,0,.77-.81c.14-.3.32-.59.45-.91C59.37,180.1,59.13,180.33,58.88,180.55Zm13.55-37.78a1.86,1.86,0,0,1-.72.48,1.54,1.54,0,0,1-1.49-.26,2,2,0,0,0-2.27-.1,2,2,0,0,0-.74.82c-.15.31-.32.59-.45.91.28-.2.51-.44.77-.66a2.15,2.15,0,0,1,.71-.51,1.55,1.55,0,0,1,1.49.2,2,2,0,0,0,2.25.18,2,2,0,0,0,.77-.81c.14-.3.32-.59.45-.91C72.92,142.32,72.68,142.55,72.43,142.77ZM66.53,116a1.86,1.86,0,0,1-.72.48,1.54,1.54,0,0,1-1.49-.26,2,2,0,0,0-2.27-.1,2,2,0,0,0-.74.82c-.15.31-.32.59-.45.91.28-.2.51-.44.77-.66a2,2,0,0,1,.71-.51,1.55,1.55,0,0,1,1.49.2,2,2,0,0,0,2.25.18,2.06,2.06,0,0,0,.77-.81c.14-.3.32-.59.45-.91C67,115.59,66.78,115.82,66.53,116Zm26.58-1.25a2,2,0,0,1-.72.48A1.56,1.56,0,0,1,90.9,115a2,2,0,0,0-2.27-.11,2,2,0,0,0-.74.83c-.15.3-.32.59-.45.91.28-.21.51-.45.77-.67a1.82,1.82,0,0,1,.71-.5,1.53,1.53,0,0,1,1.48.2,2,2,0,0,0,2.26.17,1.9,1.9,0,0,0,.76-.81c.15-.3.32-.58.45-.9C93.6,114.33,93.36,114.57,93.11,114.79ZM65.78,197.55c-.11-.32-.19-.65-.32-1,0,.34,0,.67-.08,1a1.92,1.92,0,0,1-.14.86,1.56,1.56,0,0,1-1.19.91,2,2,0,0,0-1.72,1.47,1.9,1.9,0,0,0,0,1.11c.11.32.19.64.32,1,0-.34,0-.67.08-1a1.9,1.9,0,0,1,.17-.85,1.57,1.57,0,0,1,1.24-.87,2,2,0,0,0,1.68-1.53A2,2,0,0,0,65.78,197.55Zm-9.91-67c-.11-.32-.19-.65-.33-1,0,.34,0,.67-.07,1a1.79,1.79,0,0,1-.15.86,1.54,1.54,0,0,1-1.19.91,2,2,0,0,0-1.72,1.47,1.9,1.9,0,0,0,0,1.11c.11.32.19.64.32,1,0-.34,0-.67.08-1A1.77,1.77,0,0,1,53,134a1.54,1.54,0,0,1,1.23-.87,2,2,0,0,0,1.68-1.53A2.12,2.12,0,0,0,55.87,130.53Zm44.69,3.16c-.11-.32-.19-.65-.32-1,0,.34,0,.67-.08,1a1.92,1.92,0,0,1-.14.86,1.54,1.54,0,0,1-1.19.91A2,2,0,0,0,97.11,137a1.89,1.89,0,0,0,0,1.11c.11.32.19.65.32,1,.05-.34.05-.67.08-1a1.77,1.77,0,0,1,.17-.85,1.57,1.57,0,0,1,1.23-.87,2,2,0,0,0,1.68-1.53A1.93,1.93,0,0,0,100.56,133.69ZM42.68,167.86c-.11-.32-.19-.64-.32-1,0,.34,0,.67-.08,1a1.92,1.92,0,0,1-.14.86,1.55,1.55,0,0,1-1.19.91,2.15,2.15,0,0,0-1.3.68L39.2,172h0a1.68,1.68,0,0,0,.06.24c.11.32.19.65.32,1,.05-.34.05-.67.08-1a1.71,1.71,0,0,1,.17-.84,1.55,1.55,0,0,1,1.23-.88A2,2,0,0,0,42.74,169,1.93,1.93,0,0,0,42.68,167.86Zm77.77,31.79c-.11-.32-.19-.64-.32-1,0,.34,0,.68-.07,1a2.12,2.12,0,0,1-.15.87,1.54,1.54,0,0,1-1.19.91,2,2,0,0,0-1.69,2.58c.11.32.19.64.33,1,0-.34,0-.68.07-1a1.87,1.87,0,0,1,.17-.85,1.55,1.55,0,0,1,1.24-.87,2,2,0,0,0,1.61-2.64ZM74.29,161.77c-.11-.32-.19-.64-.33-1,0,.34,0,.68-.07,1a1.83,1.83,0,0,1-.15.87,1.54,1.54,0,0,1-1.19.91,2,2,0,0,0-1.72,1.46,1.93,1.93,0,0,0,0,1.12c.11.32.19.64.32,1,0-.34,0-.68.08-1a1.75,1.75,0,0,1,.17-.85,1.52,1.52,0,0,1,1.23-.87,2,2,0,0,0,1.68-1.53A2.16,2.16,0,0,0,74.29,161.77ZM77,101.58c-.11-.32-.19-.65-.33-1,0,.35,0,.68-.07,1a1.79,1.79,0,0,1-.15.86,1.54,1.54,0,0,1-1.19.91,2,2,0,0,0-1.72,1.47,1.9,1.9,0,0,0,0,1.11c.11.32.19.64.32,1,0-.34,0-.67.07-1a1.75,1.75,0,0,1,.18-.85,1.52,1.52,0,0,1,1.23-.87,2,2,0,0,0,1.68-1.53A2.12,2.12,0,0,0,77,101.58Zm36.79,47.84a1.54,1.54,0,0,1-1.43-.22,2,2,0,0,0-3,.63c-.14.31-.32.59-.45.91a9.88,9.88,0,0,0,.77-.66,2,2,0,0,1,.72-.48,1.56,1.56,0,0,1,1.49.26,2.06,2.06,0,0,0,2,.24C113.89,149.87,113.85,149.65,113.82,149.42Zm2.79,16.71c-.22.07-.45.14-.66.23a5.83,5.83,0,0,0,.71.06C116.65,166.33,116.63,166.23,116.61,166.13ZM91.27,154a1.87,1.87,0,0,1-.85-.17,1.55,1.55,0,0,1-.87-1.24A2,2,0,0,0,86.91,151c-.32.11-.64.19-1,.32.34,0,.68,0,1,.07a2,2,0,0,1,.86.15,1.5,1.5,0,0,1,.91,1.19,2.05,2.05,0,0,0,1.47,1.72,2,2,0,0,0,1.12,0c.32-.11.64-.19,1-.33C91.94,154,91.6,154,91.27,154Zm-47,40.55a1.87,1.87,0,0,1-.85-.17,1.55,1.55,0,0,1-.87-1.24,2,2,0,0,0-2.64-1.61c-.32.11-.64.19-1,.32.34.05.68.05,1,.07a2,2,0,0,1,.86.15,1.53,1.53,0,0,1,.92,1.19A2,2,0,0,0,44.31,195c.32-.11.64-.19,1-.33C44.93,194.57,44.59,194.57,44.26,194.55Zm34.65-10.28a1.87,1.87,0,0,1-.85-.17,1.55,1.55,0,0,1-.87-1.24,2,2,0,0,0-1.53-1.68,2.06,2.06,0,0,0-1.11.07,9,9,0,0,0-1,.32c.34.05.68.05,1,.07a1.94,1.94,0,0,1,.87.15,1.54,1.54,0,0,1,.91,1.19,2,2,0,0,0,1.47,1.72,2,2,0,0,0,1.11,0c.32-.11.64-.19,1-.33C79.58,184.29,79.24,184.29,78.91,184.27Zm-23.2-25.1a1.77,1.77,0,0,1-.85-.17,1.54,1.54,0,0,1-.87-1.23,2,2,0,0,0-1.53-1.68,1.93,1.93,0,0,0-1.1.06c-.32.11-.65.19-1,.32.34.06.67.05,1,.08a1.79,1.79,0,0,1,.86.15,1.54,1.54,0,0,1,.91,1.18,2.05,2.05,0,0,0,1.47,1.73,2,2,0,0,0,1.11,0c.32-.11.64-.19,1-.32C56.38,159.2,56.05,159.2,55.71,159.17ZM90.76,95.83a2,2,0,0,0,2.11.61l.52-.17A24.26,24.26,0,0,0,90.76,95.83Zm13.7,95.64a1.71,1.71,0,0,1-.84-.18,1.53,1.53,0,0,1-.88-1.23,2,2,0,0,0-1.53-1.68,2.12,2.12,0,0,0-1.1.06c-.32.11-.64.19-1,.33.34,0,.67,0,1,.07a1.92,1.92,0,0,1,.86.15,1.52,1.52,0,0,1,.91,1.19,2.06,2.06,0,0,0,1.47,1.72,1.89,1.89,0,0,0,1.11,0c.32-.1.65-.19,1-.32C105.13,191.49,104.8,191.49,104.46,191.47Zm-21-60.95a1.87,1.87,0,0,1-.85-.17,1.55,1.55,0,0,1-.87-1.24,2,2,0,0,0-1.53-1.68,2,2,0,0,0-1.1.07c-.32.11-.65.19-1,.32.35.05.68.05,1,.07A2.07,2.07,0,0,1,80,128a1.54,1.54,0,0,1,.91,1.19A2,2,0,0,0,82.36,131a1.9,1.9,0,0,0,1.11,0c.32-.11.64-.19,1-.33C84.09,130.54,83.76,130.55,83.42,130.52Z"/><path class="cls-9" d="M95.32,118.66c.63,7.14,1.11,14.28,1.57,21.43s.82,14.29,1.23,21.44.68,14.3.94,21.45l.36,10.74c.08,3.58.2,7.16.23,10.74-.32-3.57-.56-7.14-.85-10.71L98.08,183c-.46-7.14-.81-14.29-1.22-21.44s-.68-14.3-.94-21.45S95.42,125.83,95.32,118.66Z"/><path class="cls-9" d="M101.72,140.34a1.34,1.34,0,0,1-1.24,1.43,1.34,1.34,0,1,1,1.24-1.43Z"/><path class="cls-9" d="M102.14,154.16a1.34,1.34,0,1,1-1.43-1.24A1.33,1.33,0,0,1,102.14,154.16Z"/><path class="cls-9" d="M102.56,168a1.34,1.34,0,0,1-1.24,1.43,1.34,1.34,0,1,1,1.24-1.43Z"/><path class="cls-9" d="M103,181.81a1.34,1.34,0,0,1-2.68.19,1.36,1.36,0,0,1,1.25-1.44A1.34,1.34,0,0,1,103,181.81Z"/><path class="cls-9" d="M103.4,195.63a1.34,1.34,0,1,1-1.43-1.24A1.34,1.34,0,0,1,103.4,195.63Z"/><path class="cls-8" d="M78.39,117.41c-8,16.27-36.07,51.16-46.55,58.57-6.38,4.52-26,3.53-26.21-9.2S63.9,102.86,73.38,98.45C83.42,93.78,87.09,99.64,78.39,117.41Z"/><path class="cls-9" d="M40.2,168.34,48,158.86c2.6-3.16,5.23-6.3,7.79-9.5S61,143,63.52,139.81c1.28-1.6,2.56-3.2,3.81-4.83s2.5-3.24,3.79-4.83c-2.2,3.46-4.55,6.83-7,10.13s-5,6.51-7.55,9.71-5.25,6.31-8,9.37S43.1,165.44,40.2,168.34Z"/><path class="cls-9" d="M63.9,140a33.91,33.91,0,0,1,5.81-5.59,29.68,29.68,0,0,1-2.73,3A28.68,28.68,0,0,1,63.9,140Z"/><path class="cls-3" d="M16.11,151a1.82,1.82,0,0,1-.72.47,1.53,1.53,0,0,1-.73.07l-.57.68a2,2,0,0,0,1.57-.17,1.9,1.9,0,0,0,.76-.81c.15-.3.32-.59.45-.91C16.6,150.51,16.36,150.75,16.11,151Zm27.12-5.83a1.79,1.79,0,0,1-.72.48,1.56,1.56,0,0,1-1.49-.26,2,2,0,0,0-3,.72c-.15.31-.32.59-.46.91a9.88,9.88,0,0,0,.77-.66,2,2,0,0,1,.71-.51,1.55,1.55,0,0,1,1.49.2,2,2,0,0,0,2.26.18,2,2,0,0,0,.76-.81c.15-.31.32-.59.45-.91C43.72,144.68,43.49,144.92,43.23,145.14ZM66.53,116a1.86,1.86,0,0,1-.72.48,1.54,1.54,0,0,1-1.49-.26,2,2,0,0,0-2.27-.1,2,2,0,0,0-.74.82c-.15.31-.32.59-.45.91.28-.2.51-.44.77-.66a2,2,0,0,1,.71-.51,1.55,1.55,0,0,1,1.49.2,2,2,0,0,0,2.25.18,2.06,2.06,0,0,0,.77-.81c.14-.3.32-.59.45-.91C67,115.59,66.78,115.82,66.53,116ZM24,173.7c-.11-.32-.19-.64-.32-1-.05.34-.05.68-.07,1a2,2,0,0,1-.15.86,1.5,1.5,0,0,1-1.19.91A2.05,2.05,0,0,0,20.51,177a2,2,0,0,0,0,1.12l.09.29h.3c0-.12,0-.23,0-.35a1.87,1.87,0,0,1,.17-.85,1.55,1.55,0,0,1,1.24-.87A2,2,0,0,0,24,173.7Zm1.48-34a5.66,5.66,0,0,0,.2.58,8.12,8.12,0,0,0,.07-.85Zm2.36-2.38a2,2,0,0,0,.83-.83C28.35,136.79,28.07,137.07,27.8,137.35Zm28.07-6.82c-.11-.32-.19-.65-.33-1,0,.34,0,.67-.07,1a1.79,1.79,0,0,1-.15.86,1.54,1.54,0,0,1-1.19.91,2,2,0,0,0-1.72,1.47,1.9,1.9,0,0,0,0,1.11c.11.32.19.64.32,1,0-.34,0-.67.08-1A1.77,1.77,0,0,1,53,134a1.54,1.54,0,0,1,1.23-.87,2,2,0,0,0,1.68-1.53A2.12,2.12,0,0,0,55.87,130.53ZM77,101.58c-.11-.32-.19-.65-.33-1,0,.35,0,.68-.07,1a1.79,1.79,0,0,1-.15.86,1.54,1.54,0,0,1-1.19.91,2,2,0,0,0-1.72,1.47,1.9,1.9,0,0,0,0,1.11c.11.32.19.64.32,1,0-.34,0-.67.07-1a1.75,1.75,0,0,1,.18-.85,1.52,1.52,0,0,1,1.23-.87,2,2,0,0,0,1.68-1.53A2.12,2.12,0,0,0,77,101.58ZM6.16,167.24a1.64,1.64,0,0,1-.51-.05,4.56,4.56,0,0,0,0,.54,2,2,0,0,0,.52-.09c.32-.11.65-.19,1-.32C6.83,167.27,6.5,167.27,6.16,167.24Zm22.63-5.11a1.75,1.75,0,0,1-.85-.17,1.55,1.55,0,0,1-.87-1.23,2,2,0,0,0-1.53-1.68,2,2,0,0,0-1.11.06c-.32.11-.64.19-1,.32.34,0,.68,0,1,.08a1.9,1.9,0,0,1,.86.14,1.52,1.52,0,0,1,.91,1.19,2,2,0,0,0,1.47,1.72,1.93,1.93,0,0,0,1.12,0c.32-.11.64-.19,1-.32C29.46,162.16,29.12,162.16,28.79,162.13Zm12.33-35.94a1.9,1.9,0,0,1-.85-.17,1.39,1.39,0,0,1-.39-.28l-.54.5a1.85,1.85,0,0,0,.72.38,2,2,0,0,0,1.11,0c.32-.11.64-.19,1-.33C41.79,126.21,41.46,126.21,41.12,126.19Zm9.28,30.28.34,0,.19-.23Z"/><path class="cls-10" d="M96.33,117.29c-5.35.94-13.85-8.13-17-15.22-.21-.49.79-5.39,1.73-11.4.56-3.65,1.1-7.72,1.34-11.48,0-.77,22.09,7.29,22.09,7.29a62.74,62.74,0,0,0-3.08,14.28,9.81,9.81,0,0,0,.06,1.55c0,.07,0,.16,0,.26C101.77,105.53,101.49,116.38,96.33,117.29Z"/><path class="cls-9" d="M83.79,79.38c.64,6.43,3.43,22,15.39,23.16a12.87,12.87,0,0,0,2.31,0,1.93,1.93,0,0,0,0-.26,8.74,8.74,0,0,1-.06-1.55,62.15,62.15,0,0,1,3.08-14.29S88.6,80.66,83.79,79.38Z"/><path class="cls-10" d="M86.61,48.5c-4.64,7.27-7.3,31.7-3.36,38.6,5.71,10,18.4,14.8,27.32,6.8,8.66-7.76,11.58-39.67,6.87-46.3C110.5,37.85,93.48,37.75,86.61,48.5Z"/><path class="cls-9" d="M104.12,69.51c0-.06-.12.07-.13.14-.08,1.65-.43,3.54-1.9,4,0,0,0,.1,0,.1C103.86,73.6,104.3,71.09,104.12,69.51Z"/><path class="cls-9" d="M102.85,67.67c-2.51-.42-3.12,4.89-.79,5.28S105,68,102.85,67.67Z"/><path class="cls-9" d="M112.89,70.67c0-.06.11.09.1.16-.23,1.64-.24,3.56,1.11,4.28,0,0,0,.11,0,.09C112.38,74.73,112.41,72.18,112.89,70.67Z"/><path class="cls-9" d="M114.49,69.13c2.54.12,2.13,5.45-.23,5.34S112.35,69,114.49,69.13Z"/><path class="cls-6" d="M101,63.18a20.74,20.74,0,0,0,2.09-.1,3.23,3.23,0,0,0,2.12-.52,1.16,1.16,0,0,0,.21-1.36,2.6,2.6,0,0,0-2.49-1.1,3.77,3.77,0,0,0-2.66,1A1.22,1.22,0,0,0,101,63.18Z"/><path class="cls-6" d="M117.25,65.55a17.42,17.42,0,0,1-2-.81,3.31,3.31,0,0,1-1.83-1.21,1.17,1.17,0,0,1,.21-1.36,2.59,2.59,0,0,1,2.71-.19,4,4,0,0,1,2.2,1.86A1.2,1.2,0,0,1,117.25,65.55Z"/><path class="cls-9" d="M99.76,84.47c.33.43.64,1,1.2,1.13a4,4,0,0,0,1.74-.2s.09,0,0,.09a2,2,0,0,1-2.09.64,1.76,1.76,0,0,1-1.06-1.61C99.58,84.42,99.71,84.4,99.76,84.47Z"/><path class="cls-9" d="M102,79.75a5.43,5.43,0,0,0,3.27,2.94,6.5,6.5,0,0,0,1.91.34,2.28,2.28,0,0,0,.37,0h.35a.4.4,0,0,0,.36-.33h0a1,1,0,0,0,0-.17v-.16c.18-1.26.28-3.2.28-3.2.42.28,2.54,1.63,2.58,1,.32-5.51.67-11.65-.12-17.21a.15.15,0,0,0-.29,0c-.51,5.29-.12,10.63-.55,16a9.46,9.46,0,0,0-2.42-1.12c-.18,0-.14,3.76-.26,4.32a.32.32,0,0,0,0,.06c-2.06,0-3.51-.82-5.32-2.5C102,79.51,101.89,79.61,102,79.75Z"/><path class="cls-9" d="M106.51,82.29A6.39,6.39,0,0,1,103.74,84a2.75,2.75,0,0,1-1.74-.11c-1.21-.5-1.1-1.71-.76-2.71a7.38,7.38,0,0,1,.75-1.51A8.2,8.2,0,0,0,106.51,82.29Z"/><path class="cls-12" d="M103.74,84a2.75,2.75,0,0,1-1.74-.11c-1.21-.5-1.1-1.71-.76-2.71A3,3,0,0,1,103.74,84Z"/><g class="cls-13"><path d="M109.06,57.84a17.74,17.74,0,0,0,2.51.52c.86.09,1.73,0,2.59.1a14,14,0,0,1,4.59,1.65c.13.07.1.15,0,.09a12.07,12.07,0,0,0-4.93-1.35,15.23,15.23,0,0,1-4.2-.49c-3.12-.9-6.3-1.38-9.44-.28,0,0,0,0,0,0A15.31,15.31,0,0,1,109.06,57.84Z"/><path d="M109.32,55.57a17.18,17.18,0,0,0,2.37.49c.82.08,1.64,0,2.46.1a13.07,13.07,0,0,1,4.35,1.56c.13.06.09.14,0,.09a11.3,11.3,0,0,0-4.67-1.29,14.91,14.91,0,0,1-4-.46c-3-.85-6-1.31-9-.26,0,0,0,0,0,0A14.47,14.47,0,0,1,109.32,55.57Z"/></g><path class="cls-6" d="M120.08,57.41c-9.23,3.92-18.65-6.71-18.65-6.71a9,9,0,0,1-10.07,3.78s-4.35,13.39-8,12.64c-5.51-1.14-3.46-20.19-1-23.52s7.35-3.32,7.35-3.32.92-2.79,4.85-4.7c4.35-2.13,16.57,4.36,16.57,4.36a12.4,12.4,0,0,1,4.24-3.82,3.48,3.48,0,0,1,4.82,1.44,8.3,8.3,0,0,0-2,3.12c-1.45,3.88,1.83,4.54,2.53.89a5.81,5.81,0,0,0-.52-4c2.1-2.05,4.9-2.3,6.25-.7C128.94,39.76,127.75,54.15,120.08,57.41Z"/><path class="cls-1" d="M98.86,77.81a7,7,0,1,1,8.86-6.56h0a7,7,0,0,1-7.14,6.82A7.44,7.44,0,0,1,98.86,77.81Zm3.51-12.56a6.05,6.05,0,1,0,4.42,6A6.09,6.09,0,0,0,102.37,65.25Z"/><path class="cls-1" d="M114.71,80.21c-2.58-.72-4.17-4-3.61-7.61A8.35,8.35,0,0,1,113.32,68a4.35,4.35,0,0,1,7.36,1.15,8.46,8.46,0,0,1,.7,5.06c-.6,3.8-3.39,6.54-6.22,6.09A2.11,2.11,0,0,1,114.71,80.21Zm2.81-12.7-.34-.08a3.72,3.72,0,0,0-3.2,1.24,7.43,7.43,0,0,0-2,4.08c-.51,3.3,1,6.28,3.28,6.64s4.64-2,5.15-5.32a7.35,7.35,0,0,0-.61-4.48A3.81,3.81,0,0,0,117.52,67.51Z"/><path class="cls-1" d="M107.37,72l-.49-.8c1.19-.72,3.79-1.52,5.2.55l-.78.52C110.05,70.43,107.47,71.94,107.37,72Z"/><path class="cls-1" d="M76.34,69l-.75-.55c.26-.35,2.57-3.43,4.69-3.44,2,0,14.16,3.1,14.67,3.23l-.23.9c-3.49-.89-12.91-3.2-14.44-3.2S77,68.11,76.34,69Z"/><path class="cls-10" d="M85.88,68.87s-3-9-6.76-8.1-2.91,12.95.51,15.57a3.92,3.92,0,0,0,5.79-.66Z"/><path class="cls-9" d="M79.44,64.21c-.06,0-.09.06,0,.1,2.38,1.93,3.09,5,3.35,8-.51-1.27-1.45-2.16-3-1.56-.09,0,0,.17,0,.17a2.5,2.5,0,0,1,2.4,1.66,13.39,13.39,0,0,1,.66,2.6c.06.29.52.28.51,0V75C84.33,71.46,83,65.66,79.44,64.21Z"/><path class="cls-8" d="M101.45,102.18l-6.6,13.29L80.11,96.26l-5.17,5.13s13.4,29.49,13.62,28.24l6.56-11.36,7.06,9.11,1.33-20.9Z"/><path class="cls-9" d="M103.4,117.09c.11-3.46.31-6.94.26-10.4,0-.12-.17-.2-.21-.06-1,3.25-1.32,16.48-1.64,19.63l0,0c-.29-.39-6.58-8.06-6.66-8-1.35,1.77-6.16,10-6.51,10.8-2.12-4.68-11.23-23.22-13.84-27.71a.11.11,0,1,0-.2.1c1.79,4.9,13.52,29.33,13.73,29.29a137.39,137.39,0,0,0,6.87-12c1,1.64,7.3,10.2,7.37,9.69A113,113,0,0,0,103.4,117.09Z"/><path class="cls-10" d="M29.27,80.41C33.78,70.88,41,57.86,45.46,56.07c4.7-1.88,21.5-7.82,25.84-8s19.48,5.18,22.1,8.05c2.11,2.3-2,7.29-10.72,6.09-8.15-1.13-10-1.8-12.42-1.56s-9.72,5.54-9.29,9c.26,2.06,4.83,5.82,8.56,5.38s6.14-4,10.82-5.82,11.13.57,11,2.46-2.6,2-7.86,7c-3.38,3.19-6,9.75-13,14.87-3.52,2.58-10.62,10.14-10.62,10.14Z"/><path class="cls-10" d="M45.46,56.07c4.73-4,15.66-10.4,24.66-11,6.08-.37,21.9,14.6,20.24,18s-4.86,2.41-9.41.36c-1.66-.75-9.74-6.88-11.89-5.46C66,60.06,60.19,68.55,60.19,68.55Z"/><path class="cls-9" d="M90.33,61.57c-1.1-4.55-5.54-8.19-10.08-11.38-.07,0-.15.05-.08.1,1.16.82,8.19,7.19,10.09,11.32C90.28,61.66,90.34,61.61,90.33,61.57Z"/><path class="cls-10" d="M45.46,56.07c4.73-4,15.66-10.4,24.66-11C76.2,44.74,87.32,61,85.66,64.42s-6.35,2.25-10.86-1.11c-1.46-1.08-5.73-6.67-7.88-5.25-3.1,2-10.68,7.15-10.68,7.15Z"/><path class="cls-9" d="M60.7,62l1.79-1.46c.76-.6,1.54-1.2,2.34-1.75a7.31,7.31,0,0,1,2.23-1.24,3.76,3.76,0,0,1,2.38.26c1.71.71,2.94,2.33,4.17,3.65,1.36,1.48,4.33,4.11,7.06,4.67a5.56,5.56,0,0,0,2.26.09,3.39,3.39,0,0,0,1.56-.61c1.76-1.58,1-4.25.06-6.29a35.5,35.5,0,0,0-7.83-9.93q-1.11-1.05-2.25-2.07a8.07,8.07,0,0,0-2.92-1.92c-1.83-.59-5.43.33-6.54.6-.09,0-.1-.12,0-.14,1.35-.35,4.87-1.76,7.79-.68a9.78,9.78,0,0,1,2.75,2c.9.77,1.77,1.57,2.61,2.39a42.9,42.9,0,0,1,4.6,5.12A18.24,18.24,0,0,1,86,60.49a5.38,5.38,0,0,1-1.34,5.38,4.68,4.68,0,0,1-3.89.73,9.21,9.21,0,0,1-2.33-.76,38.8,38.8,0,0,1-4.61-3.08c-1.41-1.14-2.51-2.68-4-3.7a3.26,3.26,0,0,0-2.45-.6,8.78,8.78,0,0,0-2.3,1.08A26.15,26.15,0,0,0,61,62.14C60.6,62.42,60.39,62.23,60.7,62Z"/><path class="cls-10" d="M41.74,59.67c1.91-2,6.94-11.14,9.76-13.54s14.67-10,18.55-8.33C74.92,40,66.8,47.39,63,50.3s-5.37,9.42-5.37,9.42Z"/><path class="cls-9" d="M68.62,45.25c-1.31.89-2.56,1.94-3.78,3a31.51,31.51,0,0,0-3.42,3,13.87,13.87,0,0,0-2.29,3.85,21.45,21.45,0,0,0-.75,2.08c-.25.76-.42,1.56-.68,2.32,0,.08.09.14.12,0a36.33,36.33,0,0,1,1.86-4,18.93,18.93,0,0,1,2.58-3.77c2-2.27,4.47-4.08,6.5-6.33A.1.1,0,0,0,68.62,45.25Z"/><path class="cls-9" d="M67.68,75a6.57,6.57,0,0,0,4.74-1.33c1.25-.84,2.46-1.76,3.72-2.6a15.74,15.74,0,0,1,4-2.09,17.67,17.67,0,0,1,5-.56,9.64,9.64,0,0,1,4.76.95c1.19.64,2.41,2,1.67,3.43a5.89,5.89,0,0,1-1.46,1.68,16.21,16.21,0,0,1-1.78,1.3c-1.25.8-2.57,1.51-3.74,2.43a22.85,22.85,0,0,0-3.87,4.55c-.44.59-3.28,4.6-4.35,6a25.19,25.19,0,0,1-3,3.21,35.19,35.19,0,0,1-3.36,2.45,19.64,19.64,0,0,0-3.52,2.84s-.12,0-.09-.08c1.41-2.26,3.78-3.7,5.94-5.13,2.8-1.85,9.32-11.83,10.47-13.17,1.93-2.23,4.72-3.2,6.89-5.11.49-.44,1.25-1.07,1.28-1.8a2.08,2.08,0,0,0-1.15-1.64,8.41,8.41,0,0,0-4.67-.79,21.14,21.14,0,0,0-4.82.54,15.43,15.43,0,0,0-3.92,1.79c-1.4.86-2.75,1.77-4.2,2.52a6.55,6.55,0,0,1-4.62.78C67.56,75.09,67.6,75,67.68,75Z"/><path class="cls-9" d="M90.91,54.76c-1.06-.58-2.1-1.21-3.16-1.77,0,0,0-.06,0-.05,1.28.59,2.59,1.08,3.87,1.66a4.11,4.11,0,0,1,2.43,2.19,3,3,0,0,1-.77,3,8.2,8.2,0,0,1-2.94,1.78c-.06,0-.1-.06,0-.09,1.62-.83,4.15-2.53,3-4.68A5.48,5.48,0,0,0,90.91,54.76Z"/><path class="cls-9" d="M85.1,65a6.82,6.82,0,0,0,3.72-.45A2.74,2.74,0,0,0,90,63.4a2.68,2.68,0,0,0,.29-.82,1.38,1.38,0,0,0-.07-.9c0-.07.07-.11.08,0a4.09,4.09,0,0,0,.18.49,2.13,2.13,0,0,1,.07.44,2.07,2.07,0,0,1-.12.85,2.81,2.81,0,0,1-1.17,1.46,4.71,4.71,0,0,1-4.16.17C85,65,85.05,64.94,85.1,65Z"/><path class="cls-10" d="M59.78,103.78c-3.19,9.56-26.32,60.17-32.4,67.16S7.46,178.78,4.3,165.4s20.21-75.35,25-85C31.92,75.05,60.94,100.33,59.78,103.78Z"/><path class="cls-8" d="M63.9,110.55,25.06,85.21s-20.21,57.88-21.47,76c-.91,13,14.17,23.54,27.42,6.6S63.9,110.55,63.9,110.55Z"/><path class="cls-3" d="M16.11,151a1.82,1.82,0,0,1-.72.47,1.53,1.53,0,0,1-1.49-.25,2,2,0,0,0-2.27-.11,2,2,0,0,0-.74.83c-.15.3-.32.59-.45.9.28-.2.51-.44.77-.66a1.89,1.89,0,0,1,.71-.5,1.55,1.55,0,0,1,1.49.19,2,2,0,0,0,2.25.18,1.9,1.9,0,0,0,.76-.81c.15-.3.32-.59.45-.91C16.6,150.51,16.36,150.75,16.11,151ZM41.39,98.58a1.76,1.76,0,0,1-.72.47,1.54,1.54,0,0,1-1.49-.25,2,2,0,0,0-2.27-.11,2,2,0,0,0-.73.83c-.15.3-.32.59-.45.9.27-.2.51-.44.76-.66a1.92,1.92,0,0,1,.72-.5,1.53,1.53,0,0,1,1.48.19,2,2,0,0,0,2.26.18,1.9,1.9,0,0,0,.76-.81c.15-.3.32-.59.45-.91C41.88,98.12,41.65,98.36,41.39,98.58ZM27.67,114.79a2,2,0,0,1-.72.48,1.56,1.56,0,0,1-1.49-.26,2,2,0,0,0-2.27-.11,2,2,0,0,0-.73.83c-.15.3-.33.59-.46.91.28-.21.51-.45.77-.67a2,2,0,0,1,.71-.5,1.52,1.52,0,0,1,1.49.2,2,2,0,0,0,2.25.17A1.87,1.87,0,0,0,28,115c.15-.3.32-.59.45-.9C28.16,114.33,27.93,114.57,27.67,114.79Zm15.56,30.35a1.79,1.79,0,0,1-.72.48,1.56,1.56,0,0,1-1.49-.26,2,2,0,0,0-3,.72c-.15.31-.32.59-.46.91a9.88,9.88,0,0,0,.77-.66,2,2,0,0,1,.71-.51,1.55,1.55,0,0,1,1.49.2,2,2,0,0,0,2.26.18,2,2,0,0,0,.76-.81c.15-.31.32-.59.45-.91C43.72,144.68,43.49,144.92,43.23,145.14Zm6.55-37.55c-.1-.32-.19-.64-.32-1-.05.34-.05.68-.07,1a2.12,2.12,0,0,1-.15.87,1.54,1.54,0,0,1-1.19.91A2,2,0,0,0,46.36,112c.11.32.19.64.33,1,.05-.34.05-.68.07-1a1.87,1.87,0,0,1,.17-.85,1.55,1.55,0,0,1,1.24-.87,2,2,0,0,0,1.61-2.64ZM24,173.7c-.11-.32-.19-.64-.32-1-.05.34-.05.68-.07,1a2,2,0,0,1-.15.86v0l.66-.38A1.85,1.85,0,0,0,24,173.7ZM28.74,135c-.11-.32-.19-.64-.32-1-.05.34-.05.67-.08,1a1.92,1.92,0,0,1-.14.86,1.52,1.52,0,0,1-1.19.91,2,2,0,0,0-1.72,1.47,1.89,1.89,0,0,0,0,1.11c.11.32.19.65.32,1,.06-.34.05-.67.08-1a1.83,1.83,0,0,1,.17-.84,1.56,1.56,0,0,1,1.24-.88A2,2,0,0,0,28.74,135ZM6.16,167.24a1.73,1.73,0,0,1-.84-.17,1.54,1.54,0,0,1-.87-1.23,2,2,0,0,0-.74-1.29,15.5,15.5,0,0,0,.64,2.73h0a1.76,1.76,0,0,0,.74.39,2,2,0,0,0,1.11,0c.32-.11.65-.19,1-.32C6.83,167.27,6.5,167.27,6.16,167.24Zm22.63-5.11a1.75,1.75,0,0,1-.85-.17,1.55,1.55,0,0,1-.87-1.23,2,2,0,0,0-1.53-1.68,2,2,0,0,0-1.11.06c-.32.11-.64.19-1,.32.34,0,.68,0,1,.08a1.9,1.9,0,0,1,.86.14,1.52,1.52,0,0,1,.91,1.19,2,2,0,0,0,1.47,1.72,1.93,1.93,0,0,0,1.12,0c.32-.11.64-.19,1-.32C29.46,162.16,29.12,162.16,28.79,162.13Zm-7.57-61.08a1.71,1.71,0,0,1-.84-.17,1.59,1.59,0,0,1-.48-.36c-.09.25-.17.49-.25.74a1.64,1.64,0,0,0,.51.22,1.89,1.89,0,0,0,1.11,0c.32-.11.65-.19,1-.32C21.89,101.08,21.56,101.08,21.22,101.05ZM14.56,128.7a1.75,1.75,0,0,1-.85-.17,1.55,1.55,0,0,1-.87-1.23,2,2,0,0,0-.93-1.43c-.07.26-.15.52-.22.78a1.46,1.46,0,0,1,.34.76,2,2,0,0,0,1.46,1.72,1.93,1.93,0,0,0,1.12,0c.32-.11.64-.19,1-.32C15.23,128.73,14.89,128.73,14.56,128.7Zm26.56-2.51a1.9,1.9,0,0,1-.85-.17,1.57,1.57,0,0,1-.87-1.24,2,2,0,0,0-2.63-1.61c-.32.11-.65.19-1,.32.34.05.67.05,1,.07a2.07,2.07,0,0,1,.86.15,1.52,1.52,0,0,1,.91,1.19,2.05,2.05,0,0,0,1.47,1.72,2,2,0,0,0,1.11,0c.32-.11.64-.19,1-.33C41.79,126.21,41.46,126.21,41.12,126.19Z"/><path class="cls-9" d="M58.05,117.39c-5.89-3.57-29.49-19.08-34.37-22.78-.33-.25-.25-.53.13-.31,17.93,10.29,28.77,19,34.38,22.85C58.33,117.25,58.2,117.48,58.05,117.39Z"/><path class="cls-9" d="M43.58,147.89c4.65-7.72,9.13-15.54,13.22-23.57q1.71-3.37,3.36-6.78c1.06-2.18,2.13-4.37,3.09-6.59-.81-.64-4.36-3.23-4.74-3.63a.16.16,0,0,1,.18-.25c.48.21,4.62,2.91,5.49,3.63.13.1-1.93,4.43-2.87,6.51s-1.9,4.13-2.89,6.18q-3,6.08-6.19,12-3.49,6.39-7.3,12.58C42.74,151.52,37.59,157.84,43.58,147.89Z"/></g><g id="Device"><rect class="cls-7" x="132.54" y="206.61" width="88.87" height="3.98"/><polygon class="cls-9" points="221.41 206.61 221.41 210.59 161 210.59 164.05 206.61 221.41 206.61"/><polygon class="cls-7" points="167.88 210.59 254.5 210.59 261.71 151.77 175.09 151.77 167.88 210.59"/><path class="cls-3" d="M209.52,181.18a5.16,5.16,0,0,0,5.18,5.27,5.39,5.39,0,0,0,5.37-5.27,5.16,5.16,0,0,0-5.18-5.27A5.39,5.39,0,0,0,209.52,181.18Z"/></g><g id="Sheets"><rect class="cls-2" x="13.66" y="177.08" width="55.7" height="53.53"/><rect class="cls-5" x="69.36" y="177.08" width="21.17" height="53.53"/><polygon class="cls-5" points="13.66 203.84 69.36 203.84 25.86 205.22 13.66 203.84"/><polygon class="cls-5" points="69.36 224.14 13.66 224.14 57.16 225.52 69.36 224.14"/><polygon class="cls-5" points="13.66 188.88 48.94 188.88 17.57 190.01 13.66 188.88"/><polygon class="cls-5" points="69.36 216.26 34.08 216.26 65.44 217.38 69.36 216.26"/><polygon class="cls-5" points="27.02 182.93 66.81 182.93 60.18 183.6 27.02 182.93"/><polygon class="cls-5" points="19.07 209.58 58.87 209.58 52.23 210.26 19.07 209.58"/><polygon class="cls-2" points="43.54 193.98 69.36 193.98 73.97 195.78 43.54 193.98"/><polygon class="cls-2" points="6.54 193.98 32.36 193.98 36.97 195.78 6.54 193.98"/><polygon class="cls-2" points="39.67 218.04 13.86 218.04 9.24 219.84 39.67 218.04"/><polygon class="cls-5" points="69.36 211.93 90.09 211.93 94.7 213.73 69.36 211.93"/><polygon class="cls-5" points="76.59 203.84 92.67 203.84 90.53 202.37 76.59 203.84"/></g><g id="Drink"><polygon class="cls-8" points="102.9 205.43 99.58 247.18 76.61 247.18 73.3 205.43 102.9 205.43"/><rect class="cls-7" x="71.12" y="201.67" width="33.75" height="6.09"/><polygon class="cls-14" points="102.56 201.67 73.44 201.67 75.14 194.83 100.86 194.83 102.56 201.67"/><path class="cls-3" d="M96.07,226.67c0,5.42-3.57,9.81-8,9.81s-8-4.39-8-9.81,3.56-9.81,8-9.81S96.07,221.25,96.07,226.67Z"/></g></g></svg>