<svg width="26" height="26" viewBox="0 0 26 26" fill="none" xmlns="http://www.w3.org/2000/svg">
<path fill-rule="evenodd" clip-rule="evenodd" d="M12.9996 1.89998C6.86925 1.89998 1.89961 6.86961 1.89961 13C1.89961 19.1303 6.86925 24.1 12.9996 24.1C19.13 24.1 24.0996 19.1303 24.0996 13C24.0996 6.86961 19.13 1.89998 12.9996 1.89998ZM0.0996094 13C0.0996094 5.8755 5.87514 0.0999756 12.9996 0.0999756C20.1241 0.0999756 25.8996 5.8755 25.8996 13C25.8996 20.1244 20.1241 25.9 12.9996 25.9C5.87514 25.9 0.0996094 20.1244 0.0996094 13Z" fill="#4AAFEC"/>
<path d="M13.8996 7.99998C13.8996 7.50292 13.4967 7.09998 12.9996 7.09998C12.5026 7.09998 12.0996 7.50292 12.0996 7.99998V12.1H7.99961C7.50255 12.1 7.09961 12.5029 7.09961 13C7.09961 13.497 7.50255 13.9 7.99961 13.9H12.0996V18C12.0996 18.497 12.5026 18.9 12.9996 18.9C13.4967 18.9 13.8996 18.497 13.8996 18V13.9H17.9996C18.4967 13.9 18.8996 13.497 18.8996 13C18.8996 12.5029 18.4967 12.1 17.9996 12.1H13.8996V7.99998Z" fill="#4AAFEC"/>
</svg>
