<svg width="26" height="26" viewBox="0 0 26 26" fill="none" xmlns="http://www.w3.org/2000/svg">
<path fill-rule="evenodd" clip-rule="evenodd" d="M12.9996 1.90001C6.86925 1.90001 1.89961 6.86965 1.89961 13C1.89961 19.1304 6.86925 24.1 12.9996 24.1C19.13 24.1 24.0996 19.1304 24.0996 13C24.0996 6.86965 19.13 1.90001 12.9996 1.90001ZM0.0996094 13C0.0996094 5.87553 5.87514 0.100006 12.9996 0.100006C20.1241 0.100006 25.8996 5.87553 25.8996 13C25.8996 20.1245 20.1241 25.9 12.9996 25.9C5.87514 25.9 0.0996094 20.1245 0.0996094 13Z" fill="#1792DD"/>
<path d="M13.8996 8.00001C13.8996 7.50295 13.4967 7.10001 12.9996 7.10001C12.5026 7.10001 12.0996 7.50295 12.0996 8.00001V12.1H7.99961C7.50255 12.1 7.09961 12.5029 7.09961 13C7.09961 13.4971 7.50255 13.9 7.99961 13.9H12.0996V18C12.0996 18.4971 12.5026 18.9 12.9996 18.9C13.4967 18.9 13.8996 18.4971 13.8996 18V13.9H17.9996C18.4967 13.9 18.8996 13.4971 18.8996 13C18.8996 12.5029 18.4967 12.1 17.9996 12.1H13.8996V8.00001Z" fill="#1792DD"/>
</svg>
