<svg width="21" height="21" viewBox="0 0 21 21" fill="none" xmlns="http://www.w3.org/2000/svg">
<path d="M12.3359 14.1723L3.89844 14.1724" stroke="#3C09CE" stroke-width="1.5" stroke-linecap="round" stroke-linejoin="round"/>
<path d="M17.6484 14.1724L15.4609 14.1723" stroke="#3C09CE" stroke-width="1.5" stroke-linecap="round" stroke-linejoin="round"/>
<path d="M13.8984 15.7348C14.7614 15.7348 15.4609 15.0353 15.4609 14.1723C15.4609 13.3094 14.7614 12.6098 13.8984 12.6098C13.0355 12.6098 12.3359 13.3094 12.3359 14.1723C12.3359 15.0353 13.0355 15.7348 13.8984 15.7348Z" stroke="#55AAF9" stroke-width="1.5" stroke-linecap="round" stroke-linejoin="round"/>
<path d="M7.33594 7.29735L3.89844 7.2973" stroke="#55AAF9" stroke-width="1.5" stroke-linecap="round" stroke-linejoin="round"/>
<path d="M17.6484 7.2973L10.4609 7.29735" stroke="#55AAF9" stroke-width="1.5" stroke-linecap="round" stroke-linejoin="round"/>
<path d="M8.89844 8.85985C9.76138 8.85985 10.4609 8.16029 10.4609 7.29735C10.4609 6.4344 9.76138 5.73485 8.89844 5.73485C8.03549 5.73485 7.33594 6.4344 7.33594 7.29735C7.33594 8.16029 8.03549 8.85985 8.89844 8.85985Z" stroke="#3C09CE" stroke-width="1.5" stroke-linecap="round" stroke-linejoin="round"/>
</svg>
