<svg width="21" height="21" viewBox="0 0 21 21" fill="none" xmlns="http://www.w3.org/2000/svg">
<path d="M14.7881 11.7383C14.6552 12.5896 14.2553 13.3766 13.646 13.9859C13.0368 14.5951 12.2497 14.9951 11.3984 15.128" stroke="#FCB767" stroke-width="1.5" stroke-linecap="round" stroke-linejoin="round"/>
<path d="M6.40124 5.28183C5.19514 7.10005 4.21094 9.17697 4.21094 11.1133C4.21094 12.8538 4.90234 14.523 6.13305 15.7537C7.36376 16.9844 9.03295 17.6758 10.7734 17.6758C12.5139 17.6758 14.1831 16.9844 15.4138 15.7537C16.6445 14.523 17.3359 12.8538 17.3359 11.1133C17.3359 7.05079 14.5234 3.92579 12.244 1.65012L12.244 1.65019L9.52344 7.36329L6.40133 5.28188L6.40124 5.28183Z" stroke="#FF7E62" stroke-width="1.5" stroke-linecap="round" stroke-linejoin="round"/>
</svg>
