<svg width="47" height="47" viewBox="0 0 47 47" fill="none" xmlns="http://www.w3.org/2000/svg">
<rect x="1.60059" y="1.95334" width="43" height="43" rx="21.5" fill="#1792DD" stroke="white" stroke-width="3"/>
<path fill-rule="evenodd" clip-rule="evenodd" d="M25.5998 15.4009L18.1429 28.3166L18.5511 31.6416L21.6348 30.3326L29.0917 17.417L25.5998 15.4009ZM21.6063 30.382C21.6064 30.3819 21.6064 30.3818 21.6065 30.3817L21.6063 30.382ZM18.1146 28.3657L18.1144 28.3659L18.0247 28.3141L18.1144 28.3659C18.1145 28.3658 18.1145 28.3657 18.1146 28.3657ZM24.5595 14.6415C24.7666 14.2828 25.0727 14.0007 25.4103 13.8574C25.7479 13.7141 26.0894 13.7212 26.3598 13.8773L30.0312 15.997C30.3015 16.1531 30.4785 16.4453 30.5232 16.8093C30.5679 17.1734 30.4766 17.5794 30.2695 17.9382L22.7154 31.0223C22.6128 31.1999 22.4849 31.3606 22.3389 31.4951C22.1929 31.6297 22.0318 31.7354 21.8646 31.8064L18.6224 33.1827C18.2848 33.326 17.9432 33.3189 17.6729 33.1628C17.4026 33.0067 17.2256 32.7145 17.1809 32.3505L16.7517 28.8545C16.7296 28.6742 16.7406 28.4817 16.7841 28.2881C16.8276 28.0944 16.9028 27.9032 17.0054 27.7256L24.5595 14.6415Z" fill="white"/>
<path fill-rule="evenodd" clip-rule="evenodd" d="M22.9006 17.5139C23.1352 17.1075 23.5737 16.9214 23.88 17.0982L28.4809 19.7545C28.7872 19.9314 28.8452 20.4042 28.6106 20.8106C28.3759 21.217 27.9374 21.4032 27.6312 21.2263L23.0302 18.57C22.724 18.3932 22.6659 17.9204 22.9006 17.5139Z" fill="white"/>
<path fill-rule="evenodd" clip-rule="evenodd" d="M16.8996 28.0053C17.1343 27.5989 17.5728 27.4128 17.879 27.5896L22.3961 30.1975C22.7024 30.3744 22.7604 30.8472 22.5258 31.2536C22.2911 31.66 21.8527 31.8462 21.5464 31.6693L17.0293 29.0614C16.723 28.8846 16.665 28.4118 16.8996 28.0053Z" fill="white"/>
</svg>
