<svg xmlns="http://www.w3.org/2000/svg" viewBox="0 0 100 100"><defs><style>.cls-1{fill:#fff;}</style></defs><g id="Layer_2" data-name="Layer 2"><g id="Layer_1-2" data-name="Layer 1"><path class="cls-1" d="M0,58.48V0H100V100H0V82.65a1.25,1.25,0,0,1,.16.24,5.78,5.78,0,0,0,6,4.41q5.16,0,10.33,0a11.27,11.27,0,0,0,1.24-.12V86.6c.06-6,0-11.95.22-17.92a25.39,25.39,0,0,1,3.48-12.23c1.33-2.24,3-4.3,4.51-6.5a10.93,10.93,0,0,0-4.62-2.37,30.21,30.21,0,0,0-9.2-.41A13.09,13.09,0,0,0,.59,56.35C.37,57.05.2,57.77,0,58.48ZM48.79,93.54v.19c6.78-.12,13.57-.19,20.35-.39,4.81-.13,7-2.48,7.07-7.26,0-5.07,0-10.14,0-15.2a23.44,23.44,0,0,0-9.59-19.21,20.74,20.74,0,0,0-12.28-4.54c-4-.15-7.93-.41-11.83.46-7.94,1.79-13.8,6.26-17,13.82-1.68,3.91-2,8.11-2,12.3,0,4.48.1,9,.18,13.45a5.6,5.6,0,0,0,.31,1.61,6.85,6.85,0,0,0,6.75,4.76C36.71,93.56,42.75,93.54,48.79,93.54Zm1.09-87a17,17,0,1,0,17,16.85A16.91,16.91,0,0,0,49.88,6.55ZM73.7,50.08a2.61,2.61,0,0,0,.18.29c5.84,5.87,8.07,13.14,8.18,21.2.07,4.87,0,9.74,0,14.61,0,1,.33,1.15,1.16,1.14,3.51,0,7,0,10.52,0a5.93,5.93,0,0,0,6.08-6.2q0-10.43,0-20.84a13.06,13.06,0,0,0-9.75-12.68,28.48,28.48,0,0,0-10.25-.25A11.26,11.26,0,0,0,73.7,50.08ZM4.88,29.72A10.72,10.72,0,1,0,15.6,19,10.76,10.76,0,0,0,4.88,29.72ZM84.35,19A10.74,10.74,0,1,0,94.92,30.36,10.72,10.72,0,0,0,84.35,19Z"/><path d="M0,58.48c.2-.71.37-1.43.59-2.13a13.09,13.09,0,0,1,11.54-9.18,30.21,30.21,0,0,1,9.2.41A10.93,10.93,0,0,1,26,50c-1.54,2.2-3.18,4.26-4.51,6.5A25.39,25.39,0,0,0,18,68.68c-.23,6-.16,11.95-.22,17.92v.58a11.27,11.27,0,0,1-1.24.12q-5.17,0-10.33,0a5.78,5.78,0,0,1-6-4.41A1.25,1.25,0,0,0,0,82.65Z"/><path d="M48.79,93.54c-6,0-12.08,0-18.12,0a6.85,6.85,0,0,1-6.75-4.76,5.6,5.6,0,0,1-.31-1.61c-.08-4.49-.2-9-.18-13.45,0-4.19.35-8.39,2-12.3,3.25-7.56,9.11-12,17-13.82,3.9-.87,7.86-.61,11.83-.46a20.74,20.74,0,0,1,12.28,4.54,23.44,23.44,0,0,1,9.59,19.21c0,5.06,0,10.13,0,15.2,0,4.78-2.26,7.13-7.07,7.26-6.78.2-13.57.27-20.35.39Z"/><path d="M49.88,6.55A17,17,0,1,1,33,23.63,16.94,16.94,0,0,1,49.88,6.55Z"/><path d="M73.7,50.08a11.26,11.26,0,0,1,6.1-2.76,28.48,28.48,0,0,1,10.25.25A13.06,13.06,0,0,1,99.8,60.25q0,10.43,0,20.84a5.93,5.93,0,0,1-6.08,6.2c-3.51,0-7,0-10.52,0-.83,0-1.17-.17-1.16-1.14.07-4.87.09-9.74,0-14.61-.11-8.06-2.34-15.33-8.18-21.2A2.61,2.61,0,0,1,73.7,50.08Z"/><path d="M4.88,29.72A10.72,10.72,0,1,1,15.54,40.51,10.69,10.69,0,0,1,4.88,29.72Z"/><path d="M84.35,19A10.74,10.74,0,1,1,73.5,29.2,10.69,10.69,0,0,1,84.35,19Z"/></g></g></svg>