<svg xmlns="http://www.w3.org/2000/svg" viewBox="0 0 100 100"><defs><style>.cls-1{fill:#fff;}</style></defs><g id="Layer_2" data-name="Layer 2"><g id="Layer_1-2" data-name="Layer 1"><path d="M46.59,0h6.63c.28.06.55.14.84.19,3,.53,6.12.81,9.07,1.62a49.8,49.8,0,0,1,36.21,55A47.46,47.46,0,0,1,87.69,82.45C75.78,95.84,60.78,101.45,43,99.32a46.68,46.68,0,0,1-22.72-9.26A49.25,49.25,0,0,1,.57,57.44C.35,56,.19,54.63,0,53.22V46.59c.08-.64.16-1.28.23-1.92A48.58,48.58,0,0,1,5.83,26.5C13.86,12,26,3.35,42.37.58,43.77.34,45.18.19,46.59,0Zm3.35,56.1v0c-3.63,0-7.28-.19-10.9,0a16.43,16.43,0,0,0-15.44,16A7,7,0,0,0,26.19,78a36.07,36.07,0,0,0,21.37,8.57,36.52,36.52,0,0,0,25-7.7,8.32,8.32,0,0,0,3.55-8.16C75.3,63.09,68.75,56.54,61,56.13,57.35,55.93,53.64,56.1,49.94,56.1ZM66.38,31.43a16.47,16.47,0,1,0-16.46,16.5A16.44,16.44,0,0,0,66.38,31.43Z"/><path class="cls-1" d="M0,53.22c.19,1.41.35,2.82.57,4.22A49.25,49.25,0,0,0,20.29,90.06,46.68,46.68,0,0,0,43,99.32c17.77,2.13,32.77-3.48,44.68-16.87A47.46,47.46,0,0,0,99.34,56.78a49.8,49.8,0,0,0-36.21-55C60.18,1,57.08.72,54.06.19c-.29,0-.56-.13-.84-.19H100V100H0Z"/><path class="cls-1" d="M46.59,0c-1.41.19-2.82.34-4.22.58C26,3.35,13.86,12,5.83,26.5A48.58,48.58,0,0,0,.23,44.67C.16,45.31.08,46,0,46.59V0Z"/><path class="cls-1" d="M49.94,56.1c3.7,0,7.41-.17,11.1,0,7.71.41,14.26,7,15.05,14.62a8.32,8.32,0,0,1-3.55,8.16,36.52,36.52,0,0,1-25,7.7A36.07,36.07,0,0,1,26.19,78a7,7,0,0,1-2.59-5.93A16.43,16.43,0,0,1,39,56.12c3.62-.23,7.27,0,10.9,0Z"/><path class="cls-1" d="M66.38,31.43A16.47,16.47,0,1,1,49.93,15,16.53,16.53,0,0,1,66.38,31.43Z"/></g></g></svg>