<svg width="201" height="201" viewBox="0 0 201 201" fill="none" xmlns="http://www.w3.org/2000/svg">
<g clip-path="url(#clip0)">
<path d="M93.9974 0.439178H107.257C107.817 0.559178 108.357 0.719178 108.937 0.819178C114.937 1.87918 121.177 2.43918 127.077 4.05918C150.469 10.4381 170.73 25.1304 184.063 45.3813C197.395 65.6322 202.883 90.051 199.497 114.059C197.098 133.116 188.974 150.997 176.197 165.339C152.377 192.119 122.377 203.339 86.8174 199.079C70.2903 197.068 54.6018 190.674 41.3774 180.559C30.802 172.849 21.8692 163.108 15.1009 151.907C8.33252 140.705 3.86434 128.267 1.95738 115.319C1.51738 112.439 1.19738 109.699 0.817383 106.879V93.6192C0.977383 92.3392 1.13738 91.0592 1.27738 89.7792C2.58066 77.0464 6.38688 64.6966 12.4774 53.4392C28.5374 24.4392 52.8174 7.13918 85.5574 1.59918C88.3574 1.11918 91.1774 0.819178 93.9974 0.439178ZM100.697 112.639C93.4374 112.639 86.1374 112.259 78.8974 112.639C70.6765 113.133 62.9408 116.696 57.222 122.622C51.5031 128.548 48.2181 136.406 48.0174 144.639C47.8726 146.877 48.2675 149.117 49.169 151.171C50.0704 153.224 51.452 155.031 53.1974 156.439C65.1891 166.668 80.2008 172.688 95.9374 173.579C113.934 174.796 131.744 169.31 145.937 158.179C148.544 156.41 150.596 153.937 151.853 151.048C153.11 148.159 153.52 144.973 153.037 141.859C151.417 126.619 138.317 113.519 122.817 112.699C115.517 112.299 108.097 112.639 100.697 112.639V112.639ZM133.577 63.2992C133.566 56.786 131.623 50.4225 127.995 45.013C124.368 39.6035 119.218 35.3909 113.197 32.9075C107.176 30.4241 100.553 29.7815 94.167 31.0609C87.7807 32.3403 81.917 35.4843 77.3171 40.0954C72.7172 44.7065 69.5875 50.5778 68.3236 56.9672C67.0597 63.3566 67.7184 69.9773 70.2163 75.9925C72.7143 82.0076 76.9394 87.1472 82.3577 90.7617C87.776 94.3761 94.1442 96.3031 100.657 96.2992C104.989 96.3045 109.278 95.4539 113.28 93.7964C117.282 92.1389 120.916 89.7071 123.975 86.6406C127.034 83.5742 129.457 79.9336 131.105 75.9279C132.753 71.9223 133.593 67.6305 133.577 63.2992V63.2992Z" fill="#BDBFC4"/>
<path d="M100.746 112.639C108.146 112.639 115.566 112.299 122.946 112.639C138.366 113.459 151.466 126.639 153.046 141.879C153.529 144.993 153.118 148.179 151.861 151.068C150.605 153.957 148.553 156.43 145.946 158.199C131.753 169.33 113.943 174.816 95.9462 173.599C80.2212 172.694 65.2245 166.667 53.2462 156.439C51.4922 155.025 50.1053 153.208 49.2035 151.144C48.3017 149.079 47.9116 146.827 48.0662 144.579C48.29 136.376 51.5748 128.554 57.2745 122.651C62.9742 116.748 70.6764 113.191 78.8662 112.679C86.1062 112.219 93.4062 112.679 100.666 112.679L100.746 112.639Z" fill="white"/>
<path d="M133.578 63.2992C133.594 69.8192 131.675 76.1972 128.063 81.6256C124.451 87.0539 119.31 91.2883 113.29 93.7926C107.27 96.2968 100.642 96.9582 94.2463 95.693C87.8502 94.4278 81.9735 91.293 77.3603 86.6854C72.7472 82.0779 69.6051 76.2049 68.3322 69.8104C67.0592 63.4158 67.7126 56.7873 70.2095 50.7644C72.7064 44.7414 76.9346 39.5949 82.3585 35.9767C87.7824 32.3585 94.1581 30.4313 100.678 30.4392C109.384 30.4811 117.722 33.9554 123.881 40.1076C130.041 46.2599 133.526 54.5935 133.578 63.2992Z" fill="white"/>
</g>
<defs>
<clipPath id="clip0">
<rect width="200" height="200" fill="white" transform="translate(0.817383 0.439178)"/>
</clipPath>
</defs>
</svg>
